<svg xmlns="http://www.w3.org/2000/svg" xmlns:xlink="http://www.w3.org/1999/xlink" width="261.772" height="246.87" viewBox="0 0 261.772 246.87">
  <defs>
    <clipPath id="clip-path">
      <rect id="Rectangle_14" data-name="Rectangle 14" width="154.015" height="139.751" rx="8.79" fill="#29b6f6" stroke="#263238" stroke-linecap="round" stroke-linejoin="round" stroke-width="1"/>
    </clipPath>
    <clipPath id="clip-path-2">
      <path id="Path_733" data-name="Path 733" d="M260.26,87.358H141.973A134.442,134.442,0,0,0,136.78,63.21h128.7a129.006,129.006,0,0,0-5.216,24.148Z" transform="translate(-136.78 -63.21)" fill="#fff" stroke="#263238" stroke-linecap="round" stroke-linejoin="round" stroke-width="1"/>
    </clipPath>
    <clipPath id="clip-path-3">
      <rect id="Rectangle_22" data-name="Rectangle 22" width="4.749" height="13.283" fill="#757575" stroke="#263238" stroke-linecap="round" stroke-linejoin="round" stroke-width="1"/>
    </clipPath>
    <clipPath id="clip-path-4">
      <rect id="Rectangle_27" data-name="Rectangle 27" width="4.749" height="13.283" transform="translate(4.749 13.283) rotate(180)" fill="#757575" stroke="#263238" stroke-linecap="round" stroke-linejoin="round" stroke-width="1"/>
    </clipPath>
    <clipPath id="clip-path-5">
      <path id="Path_789" data-name="Path 789" d="M260.26,132.578H141.973a61.988,61.988,0,0,1-5.193-24.148h128.7C265.476,119.612,260.26,132.578,260.26,132.578Z" transform="translate(-136.78 -108.43)" fill="#fff" stroke="#263238" stroke-linecap="round" stroke-linejoin="round" stroke-width="1"/>
    </clipPath>
    <clipPath id="clip-path-6">
      <rect id="Rectangle_33" data-name="Rectangle 33" width="3.526" height="24.627" fill="#757575" stroke="#263238" stroke-linecap="round" stroke-linejoin="round" stroke-width="1"/>
    </clipPath>
    <clipPath id="clip-path-8">
      <path id="Path_795" data-name="Path 795" d="M269.765,150.585v40.281a2.562,2.562,0,0,1-2.568,2.562H111.048a2.562,2.562,0,0,1-2.568-2.562V150.585a2.573,2.573,0,0,1,2.568-2.568H183v2.568s-12.29,10.652-33.466,14.587c3.035,13.739,19.618,24.234,39.635,24.234S225.757,178.9,228.8,165.172c-21.211-3.935-33.5-14.587-33.5-14.587V148h71.918A2.568,2.568,0,0,1,269.765,150.585Z" transform="translate(-108.48 -148)" fill="#00afff" stroke="#263238" stroke-linecap="round" stroke-linejoin="round" stroke-width="1"/>
    </clipPath>
  </defs>
  <g id="Typewriter-bro" transform="translate(-25.842 -27.69)">
    <path id="Path_633" data-name="Path 633" d="M146.734,28.354c71.549-6.347,71.693,34.009,103.936,71.624s39.15,54.677,26.992,98.039-53.119,77.388-103.8,58.1-79.708-.762-111.674-17.887-43.853-50.148-20.438-89.1S58.486,36.218,146.734,28.354Z" transform="translate(-1.326)" fill="#29b6f6"/>
    <g id="freepik--Bubbles--inject-326" transform="translate(26.344 131.276)">
      <path id="Path_635" data-name="Path 635" d="M426.61,319.941l-.45,4.039,7.853-9.18a27.636,27.636,0,0,0,2.827.15" transform="translate(-195.463 -252.721)" fill="none" stroke="#263238" stroke-linecap="round" stroke-linejoin="round" stroke-width="1"/>
      <path id="Path_636" data-name="Path 636" d="M408.456,275.43a11.783,11.783,0,0,0-1.887,5.193c-.744,6.711,4.518,13.058,12.469,15.995l-.4,3.606" transform="translate(-187.147 -236.068)" fill="none" stroke="#263238" stroke-linecap="round" stroke-linejoin="round" stroke-width="1"/>
      <path id="Path_637" data-name="Path 637" d="M414.114,269.64a16.066,16.066,0,0,0-1.454,1.333" transform="translate(-189.753 -233.619)" fill="none" stroke="#263238" stroke-linecap="round" stroke-linejoin="round" stroke-width="1"/>
      <path id="Path_638" data-name="Path 638" d="M447.545,266.269a25.919,25.919,0,0,0-12.054-4.408,25.619,25.619,0,0,0-13.421,1.973" transform="translate(-193.733 -230.248)" fill="none" stroke="#263238" stroke-linecap="round" stroke-linejoin="round" stroke-width="1"/>
      <path id="Path_639" data-name="Path 639" d="M454.14,296.282c7.5-1.552,13.185-6.347,13.848-12.567.485-4.351-1.552-8.545-5.193-11.765" transform="translate(-207.299 -234.596)" fill="none" stroke="#263238" stroke-linecap="round" stroke-linejoin="round" stroke-width="1"/>
      <path id="Path_640" data-name="Path 640" d="M422.08,276.795a4.9,4.9,0,0,0,3.681-.785l2.8,2.175c-.2.063-.179-.352.029-.364s.363.179.508.329a2.874,2.874,0,0,0,2.706.519,11.678,11.678,0,0,1,2.816-.542,6.924,6.924,0,0,1,1.668.387,78.6,78.6,0,0,0,11.857,2.383" transform="translate(-193.738 -236.313)" fill="none" stroke="#263238" stroke-linecap="round" stroke-linejoin="round" stroke-width="1"/>
      <path id="Path_641" data-name="Path 641" d="M416.34,284.2c.577-.035,3.791,0,4.253-.387l.785,1.367.866-.837c.15.577.3,1.154.444,1.7.652.156.577-1.1,1.154-1.477a.785.785,0,0,1,1.021.306,2.268,2.268,0,0,1,.265,1.154l3.947.323.767.063a2.245,2.245,0,0,1,1.154-.894c-.144.912,1,1.431,1.916,1.616q6.734,1.373,13.537,2.371" transform="translate(-191.31 -239.613)" fill="none" stroke="#263238" stroke-linecap="round" stroke-linejoin="round" stroke-width="1"/>
      <path id="Path_642" data-name="Path 642" d="M419.38,295.132c.364.254.808-.219,1.252-.277s.808.277,1.2.479,1.039.115,1.062-.323c.092.577.808.785,1.391.866l15.152,2.129" transform="translate(-192.596 -244.282)" fill="none" stroke="#263238" stroke-linecap="round" stroke-linejoin="round" stroke-width="1"/>
      <path id="Path_643" data-name="Path 643" d="M68,238.774l6.07,8.17-1.217-10.692A28.134,28.134,0,0,0,77,233.777c6.22-4.5,8.724-11.742,6.445-17.576-1.6-4.074-5.343-6.843-10.075-7.992" transform="translate(-43.964 -207.635)" fill="none" stroke="#263238" stroke-linecap="round" stroke-linejoin="round" stroke-width="1"/>
      <path id="Path_644" data-name="Path 644" d="M26.405,238.84a11.742,11.742,0,0,0,.739,5.453c2.458,6.289,10.063,9.463,18.464,8.367" transform="translate(-26.344 -220.591)" fill="none" stroke="#263238" stroke-linecap="round" stroke-linejoin="round" stroke-width="1"/>
      <path id="Path_645" data-name="Path 645" d="M27.954,231.25a16.645,16.645,0,0,0-.664,1.858" transform="translate(-26.744 -217.38)" fill="none" stroke="#263238" stroke-linecap="round" stroke-linejoin="round" stroke-width="1"/>
      <path id="Path_646" data-name="Path 646" d="M56.272,207.4a25.891,25.891,0,0,0-12.729,1.685,25.607,25.607,0,0,0-10.963,7.986" transform="translate(-28.982 -207.213)" fill="none" stroke="#263238" stroke-linecap="round" stroke-linejoin="round" stroke-width="1"/>
      <path id="Path_647" data-name="Path 647" d="M38.14,228.662a4.916,4.916,0,0,0,2.885-2.4l3.462.623c-.15.144-.323-.231-.144-.34s.4,0,.577.058a2.867,2.867,0,0,0,2.637-.8,11.044,11.044,0,0,1,2.245-1.789,7.08,7.08,0,0,1,1.656-.439,78.132,78.132,0,0,0,11.609-3.4" transform="translate(-31.334 -212.698)" fill="none" stroke="#263238" stroke-linecap="round" stroke-linejoin="round" stroke-width="1"/>
      <path id="Path_648" data-name="Path 648" d="M36.36,237.04c.514-.306,3.358-1.766,3.589-2.308l1.333.848c.127-.381.254-.767.375-1.154l1.183,1.3c.652-.162,0-1.241.312-1.829a.779.779,0,0,1,1.044-.2,2.239,2.239,0,0,1,.767.883L48.6,233.03l.715-.3A2.268,2.268,0,0,1,49.9,231.4c.3.883,1.558.8,2.447.542q6.607-1.9,13.092-4.189" transform="translate(-30.581 -215.9)" fill="none" stroke="#263238" stroke-linecap="round" stroke-linejoin="round" stroke-width="1"/>
      <path id="Path_649" data-name="Path 649" d="M44.1,247.08c.444.058.617-.577.981-.831s.848-.121,1.287-.133.975-.375.791-.773c.352.467,1.085.317,1.633.121L63.216,240.3" transform="translate(-33.855 -221.208)" fill="none" stroke="#263238" stroke-linecap="round" stroke-linejoin="round" stroke-width="1"/>
    </g>
    <g id="freepik--Typewritter--inject-326" transform="translate(60.235 48.185)">
      <path id="Path_843" data-name="Path 843" d="M8.79,0H145.225a8.79,8.79,0,0,1,8.79,8.79V130.961a8.79,8.79,0,0,1-8.79,8.79H8.79A8.79,8.79,0,0,1,0,130.961V8.79A8.79,8.79,0,0,1,8.79,0Z" transform="translate(17.149 15.239)" fill="#afe6ff"/>
      <g id="Group_36" data-name="Group 36" transform="translate(17.149 15.239)" clip-path="url(#clip-path)">
        <path id="Path_650" data-name="Path 650" d="M268.815,222.29v58.278a4.922,4.922,0,0,1-4.916,4.922H119.722a4.922,4.922,0,0,1-4.922-4.922v-11.54h.306v7.778a5.626,5.626,0,0,0,5.632,5.626H260.021a5.626,5.626,0,0,0,5.632-5.626V230.934a3.918,3.918,0,0,0-3.918-3.918H114.8V222.29Z" transform="translate(-114.8 -145.738)" opacity="0.2"/>
      </g>
      <rect id="Rectangle_15" data-name="Rectangle 15" width="154.015" height="139.751" rx="8.79" transform="translate(17.149 15.239)" fill="none" stroke="#263238" stroke-linecap="round" stroke-linejoin="round" stroke-width="1"/>
      <path id="Path_651" data-name="Path 651" d="M261.611,244.346V237.67a2.464,2.464,0,0,0-2.47-2.47H136.885a2.47,2.47,0,0,0-2.47,2.47v6.676a2.47,2.47,0,0,1-2.47,2.47h0a2.475,2.475,0,0,0-2.475,2.475v13.173a11.454,11.454,0,0,0,11.454,11.454h0a1.841,1.841,0,0,1,1.841,1.841V279.7a5.493,5.493,0,0,0,5.493,5.493h99.511a5.493,5.493,0,0,0,5.493-5.493v-3.947a1.841,1.841,0,0,1,1.841-1.841h0a11.454,11.454,0,0,0,11.454-11.454V249.291a2.475,2.475,0,0,0-2.47-2.475h0a2.475,2.475,0,0,1-2.475-2.47Z" transform="translate(-103.857 -135.96)" fill="#263238"/>
      <path id="Path_652" data-name="Path 652" d="M149.689,241.75h-4.276a1.973,1.973,0,0,0-1.973,1.973v1.1c0,2.273,1.841,5.158,4.114,5.158s4.114-2.885,4.114-5.158v-1.1A1.979,1.979,0,0,0,149.689,241.75Z" transform="translate(-109.766 -138.731)" fill="#29b6f6" stroke="#263238" stroke-linecap="round" stroke-linejoin="round" stroke-width="1"/>
      <path id="Path_653" data-name="Path 653" d="M167.415,241.75h-4.276a1.979,1.979,0,0,0-1.979,1.973v1.1c0,2.273,1.841,5.158,4.114,5.158s4.114-2.885,4.114-5.158v-1.1a1.973,1.973,0,0,0-1.973-1.973Z" transform="translate(-117.261 -138.731)" fill="#29b6f6" stroke="#263238" stroke-linecap="round" stroke-linejoin="round" stroke-width="1"/>
      <path id="Path_654" data-name="Path 654" d="M185.219,241.75h-4.276a1.973,1.973,0,0,0-1.973,1.973v1.1c0,2.273,1.841,5.158,4.108,5.158s4.114-2.885,4.114-5.158v-1.1a1.973,1.973,0,0,0-1.973-1.973Z" transform="translate(-124.795 -138.731)" fill="#29b6f6" stroke="#263238" stroke-linecap="round" stroke-linejoin="round" stroke-width="1"/>
      <path id="Path_655" data-name="Path 655" d="M202.979,241.75H198.7a1.973,1.973,0,0,0-1.973,1.973v1.1c0,2.273,1.841,5.158,4.114,5.158s4.108-2.885,4.108-5.158v-1.1a1.973,1.973,0,0,0-1.973-1.973Z" transform="translate(-132.307 -138.731)" fill="#29b6f6" stroke="#263238" stroke-linecap="round" stroke-linejoin="round" stroke-width="1"/>
      <path id="Path_656" data-name="Path 656" d="M220.739,241.75h-4.276a1.973,1.973,0,0,0-1.973,1.973v1.1c0,2.273,1.841,5.158,4.114,5.158s4.114-2.885,4.114-5.158v-1.1A1.979,1.979,0,0,0,220.739,241.75Z" transform="translate(-139.819 -138.731)" fill="#29b6f6" stroke="#263238" stroke-linecap="round" stroke-linejoin="round" stroke-width="1"/>
      <path id="Path_657" data-name="Path 657" d="M238.5,241.75h-4.276a1.979,1.979,0,0,0-1.979,1.973v1.1c0,2.273,1.841,5.158,4.114,5.158s4.114-2.885,4.114-5.158v-1.1a1.973,1.973,0,0,0-1.973-1.973Z" transform="translate(-147.332 -138.731)" fill="#29b6f6" stroke="#263238" stroke-linecap="round" stroke-linejoin="round" stroke-width="1"/>
      <path id="Path_658" data-name="Path 658" d="M256.269,241.75h-4.276a1.973,1.973,0,0,0-1.973,1.973v1.1c0,2.273,1.841,5.158,4.108,5.158s4.114-2.885,4.114-5.158v-1.1A1.973,1.973,0,0,0,256.269,241.75Z" transform="translate(-154.848 -138.731)" fill="#29b6f6" stroke="#263238" stroke-linecap="round" stroke-linejoin="round" stroke-width="1"/>
      <path id="Path_659" data-name="Path 659" d="M274.029,241.75h-4.276a1.973,1.973,0,0,0-1.973,1.973v1.1c0,2.273,1.841,5.158,4.114,5.158S276,247.093,276,244.82v-1.1A1.973,1.973,0,0,0,274.029,241.75Z" transform="translate(-162.361 -138.731)" fill="#29b6f6" stroke="#263238" stroke-linecap="round" stroke-linejoin="round" stroke-width="1"/>
      <path id="Path_660" data-name="Path 660" d="M291.806,241.75h-4.253a1.973,1.973,0,0,0-1.973,1.973v1.1c0,2.273,1.841,5.158,4.114,5.158s4.114-2.885,4.114-5.158v-1.1a1.979,1.979,0,0,0-2-1.973Z" transform="translate(-169.89 -138.731)" fill="#29b6f6" stroke="#263238" stroke-linecap="round" stroke-linejoin="round" stroke-width="1"/>
      <path id="Path_661" data-name="Path 661" d="M309.555,241.75h-4.276a1.979,1.979,0,0,0-1.979,1.973v1.1c0,2.273,1.841,5.158,4.114,5.158s4.114-2.885,4.114-5.158v-1.1A1.973,1.973,0,0,0,309.555,241.75Z" transform="translate(-177.385 -138.731)" fill="#29b6f6" stroke="#263238" stroke-linecap="round" stroke-linejoin="round" stroke-width="1"/>
      <path id="Path_662" data-name="Path 662" d="M327.319,241.75h-4.276a1.973,1.973,0,0,0-1.973,1.973v1.1c0,2.273,1.841,5.158,4.108,5.158s4.114-2.885,4.114-5.158v-1.1a1.973,1.973,0,0,0-1.973-1.973Z" transform="translate(-184.902 -138.731)" fill="#29b6f6" stroke="#263238" stroke-linecap="round" stroke-linejoin="round" stroke-width="1"/>
      <path id="Path_663" data-name="Path 663" d="M345.079,241.75H340.8a1.973,1.973,0,0,0-1.973,1.973v1.1c0,2.268,1.829,5.153,4.137,5.153s4.108-2.885,4.108-5.158v-1.1a1.973,1.973,0,0,0-2-1.968Z" transform="translate(-192.414 -138.731)" fill="#29b6f6" stroke="#263238" stroke-linecap="round" stroke-linejoin="round" stroke-width="1"/>
      <path id="Path_664" data-name="Path 664" d="M149.689,279.39h-4.276a1.973,1.973,0,0,0-1.973,1.973v1.1c0,2.273,1.841,5.158,4.114,5.158s4.114-2.885,4.114-5.158v-1.1a1.979,1.979,0,0,0-1.979-1.973Z" transform="translate(-109.766 -154.653)" fill="#29b6f6" stroke="#263238" stroke-linecap="round" stroke-linejoin="round" stroke-width="1"/>
      <path id="Path_665" data-name="Path 665" d="M167.415,279.39h-4.276a1.979,1.979,0,0,0-1.979,1.973v1.1c0,2.273,1.841,5.158,4.114,5.158s4.114-2.885,4.114-5.158v-1.1A1.973,1.973,0,0,0,167.415,279.39Z" transform="translate(-117.261 -154.653)" fill="#29b6f6" stroke="#263238" stroke-linecap="round" stroke-linejoin="round" stroke-width="1"/>
      <path id="Path_666" data-name="Path 666" d="M185.219,279.39h-4.276a1.973,1.973,0,0,0-1.973,1.973v1.1c0,2.273,1.841,5.158,4.108,5.158s4.114-2.885,4.114-5.158v-1.1A1.973,1.973,0,0,0,185.219,279.39Z" transform="translate(-124.795 -154.653)" fill="#29b6f6" stroke="#263238" stroke-linecap="round" stroke-linejoin="round" stroke-width="1"/>
      <path id="Path_667" data-name="Path 667" d="M202.979,279.39H198.7a1.973,1.973,0,0,0-1.973,1.973v1.1c0,2.273,1.841,5.158,4.114,5.158s4.108-2.885,4.108-5.158v-1.1A1.973,1.973,0,0,0,202.979,279.39Z" transform="translate(-132.307 -154.653)" fill="#29b6f6" stroke="#263238" stroke-linecap="round" stroke-linejoin="round" stroke-width="1"/>
      <path id="Path_668" data-name="Path 668" d="M220.739,279.39h-4.276a1.973,1.973,0,0,0-1.973,1.973v1.1c0,2.273,1.841,5.158,4.114,5.158s4.114-2.885,4.114-5.158v-1.1a1.979,1.979,0,0,0-1.979-1.973Z" transform="translate(-139.819 -154.653)" fill="#29b6f6" stroke="#263238" stroke-linecap="round" stroke-linejoin="round" stroke-width="1"/>
      <path id="Path_669" data-name="Path 669" d="M238.5,279.39h-4.276a1.979,1.979,0,0,0-1.979,1.973v1.1c0,2.273,1.841,5.158,4.114,5.158s4.114-2.885,4.114-5.158v-1.1A1.973,1.973,0,0,0,238.5,279.39Z" transform="translate(-147.332 -154.653)" fill="#29b6f6" stroke="#263238" stroke-linecap="round" stroke-linejoin="round" stroke-width="1"/>
      <path id="Path_670" data-name="Path 670" d="M256.269,279.39h-4.276a1.973,1.973,0,0,0-1.973,1.973v1.1c0,2.273,1.841,5.158,4.108,5.158s4.114-2.885,4.114-5.158v-1.1A1.973,1.973,0,0,0,256.269,279.39Z" transform="translate(-154.848 -154.653)" fill="#29b6f6" stroke="#263238" stroke-linecap="round" stroke-linejoin="round" stroke-width="1"/>
      <path id="Path_671" data-name="Path 671" d="M274.029,279.39h-4.276a1.973,1.973,0,0,0-1.973,1.973v1.1c0,2.273,1.841,5.158,4.114,5.158S276,284.733,276,282.46v-1.1A1.973,1.973,0,0,0,274.029,279.39Z" transform="translate(-162.361 -154.653)" fill="#29b6f6" stroke="#263238" stroke-linecap="round" stroke-linejoin="round" stroke-width="1"/>
      <path id="Path_672" data-name="Path 672" d="M291.806,279.39h-4.253a1.973,1.973,0,0,0-1.973,1.973v1.1c0,2.273,1.841,5.158,4.114,5.158s4.114-2.885,4.114-5.158v-1.1a1.979,1.979,0,0,0-2-1.973Z" transform="translate(-169.89 -154.652)" fill="#29b6f6" stroke="#263238" stroke-linecap="round" stroke-linejoin="round" stroke-width="1"/>
      <path id="Path_673" data-name="Path 673" d="M309.555,279.39h-4.276a1.979,1.979,0,0,0-1.979,1.973v1.1c0,2.273,1.841,5.158,4.114,5.158s4.114-2.885,4.114-5.158v-1.1a1.973,1.973,0,0,0-1.973-1.973Z" transform="translate(-177.385 -154.653)" fill="#29b6f6" stroke="#263238" stroke-linecap="round" stroke-linejoin="round" stroke-width="1"/>
      <path id="Path_674" data-name="Path 674" d="M327.319,279.39h-4.276a1.973,1.973,0,0,0-1.973,1.973v1.1c0,2.273,1.841,5.158,4.108,5.158s4.114-2.885,4.114-5.158v-1.1A1.973,1.973,0,0,0,327.319,279.39Z" transform="translate(-184.902 -154.653)" fill="#29b6f6" stroke="#263238" stroke-linecap="round" stroke-linejoin="round" stroke-width="1"/>
      <path id="Path_675" data-name="Path 675" d="M345.079,279.39H340.8a1.973,1.973,0,0,0-1.973,1.973v1.1c0,2.273,1.841,5.158,4.114,5.158s4.108-2.885,4.108-5.158v-1.1A1.973,1.973,0,0,0,345.079,279.39Z" transform="translate(-192.414 -154.653)" fill="#29b6f6" stroke="#263238" stroke-linecap="round" stroke-linejoin="round" stroke-width="1"/>
      <path id="Path_676" data-name="Path 676" d="M140.817,261.18h-4.264a1.973,1.973,0,0,0-1.973,1.973v1.1c0,2.268,1.841,5.158,4.114,5.158s4.108-2.885,4.108-5.158v-1.1a1.973,1.973,0,0,0-1.985-1.973Z" transform="translate(-106.018 -146.95)" fill="#29b6f6" stroke="#263238" stroke-linecap="round" stroke-linejoin="round" stroke-width="1"/>
      <path id="Path_677" data-name="Path 677" d="M158.569,261.18h-4.276a1.973,1.973,0,0,0-1.973,1.973v1.1c0,2.268,1.841,5.158,4.114,5.158s4.114-2.885,4.114-5.158v-1.1a1.979,1.979,0,0,0-1.979-1.973Z" transform="translate(-113.522 -146.95)" fill="#29b6f6" stroke="#263238" stroke-linecap="round" stroke-linejoin="round" stroke-width="1"/>
      <path id="Path_678" data-name="Path 678" d="M176.335,261.18h-4.276a1.979,1.979,0,0,0-1.979,1.973v1.1c0,2.268,1.846,5.158,4.114,5.158s4.114-2.885,4.114-5.158v-1.1a1.973,1.973,0,0,0-1.973-1.973Z" transform="translate(-121.034 -146.95)" fill="#29b6f6" stroke="#263238" stroke-linecap="round" stroke-linejoin="round" stroke-width="1"/>
      <path id="Path_679" data-name="Path 679" d="M194.1,261.18h-4.276a1.973,1.973,0,0,0-1.973,1.973v1.1c0,2.268,1.841,5.158,4.108,5.158s4.114-2.885,4.114-5.158v-1.1a1.973,1.973,0,0,0-1.973-1.973Z" transform="translate(-128.551 -146.95)" fill="#29b6f6" stroke="#263238" stroke-linecap="round" stroke-linejoin="round" stroke-width="1"/>
      <path id="Path_680" data-name="Path 680" d="M211.846,261.18h-4.293a1.973,1.973,0,0,0-1.973,1.973v1.1c0,2.268,1.841,5.158,4.114,5.158s4.108-2.885,4.108-5.158v-1.1a1.973,1.973,0,0,0-1.956-1.973Z" transform="translate(-136.051 -146.95)" fill="#29b6f6" stroke="#263238" stroke-linecap="round" stroke-linejoin="round" stroke-width="1"/>
      <path id="Path_681" data-name="Path 681" d="M229.619,261.18h-4.276a1.973,1.973,0,0,0-1.973,1.973v1.1c0,2.268,1.841,5.158,4.114,5.158s4.114-2.885,4.114-5.158v-1.1A1.979,1.979,0,0,0,229.619,261.18Z" transform="translate(-143.576 -146.95)" fill="#29b6f6" stroke="#263238" stroke-linecap="round" stroke-linejoin="round" stroke-width="1"/>
      <path id="Path_682" data-name="Path 682" d="M247.415,261.18h-4.276a1.979,1.979,0,0,0-1.979,1.973v1.1c0,2.268,1.846,5.158,4.114,5.158s4.114-2.885,4.114-5.158v-1.1a1.973,1.973,0,0,0-1.973-1.973Z" transform="translate(-151.101 -146.95)" fill="#29b6f6" stroke="#263238" stroke-linecap="round" stroke-linejoin="round" stroke-width="1"/>
      <path id="Path_683" data-name="Path 683" d="M265.149,261.18h-4.276a1.973,1.973,0,0,0-1.973,1.973v1.1c0,2.268,1.841,5.158,4.108,5.158s4.114-2.885,4.114-5.158v-1.1a1.973,1.973,0,0,0-1.973-1.973Z" transform="translate(-158.605 -146.95)" fill="#29b6f6" stroke="#263238" stroke-linecap="round" stroke-linejoin="round" stroke-width="1"/>
      <path id="Path_684" data-name="Path 684" d="M282.909,261.18h-4.276a1.973,1.973,0,0,0-1.973,1.973v1.1c0,2.268,1.841,5.158,4.114,5.158s4.108-2.885,4.108-5.158v-1.1a1.973,1.973,0,0,0-1.973-1.973Z" transform="translate(-166.117 -146.95)" fill="#29b6f6" stroke="#263238" stroke-linecap="round" stroke-linejoin="round" stroke-width="1"/>
      <path id="Path_685" data-name="Path 685" d="M300.669,261.18h-4.276a1.973,1.973,0,0,0-1.973,1.973v1.1c0,2.268,1.841,5.158,4.114,5.158s4.114-2.885,4.114-5.158v-1.1a1.979,1.979,0,0,0-1.979-1.973Z" transform="translate(-173.629 -146.95)" fill="#29b6f6" stroke="#263238" stroke-linecap="round" stroke-linejoin="round" stroke-width="1"/>
      <path id="Path_686" data-name="Path 686" d="M318.415,261.18h-4.276a1.979,1.979,0,0,0-1.979,1.973v1.1c0,2.268,1.846,5.158,4.114,5.158s4.114-2.885,4.114-5.158v-1.1a1.973,1.973,0,0,0-1.973-1.973Z" transform="translate(-181.133 -146.95)" fill="#29b6f6" stroke="#263238" stroke-linecap="round" stroke-linejoin="round" stroke-width="1"/>
      <path id="Path_687" data-name="Path 687" d="M336.22,261.18h-4.276A1.973,1.973,0,0,0,330,263.153v1.1c0,2.268,1.841,5.158,4.108,5.158s4.114-2.885,4.114-5.158v-1.1a1.973,1.973,0,0,0-2-1.973Z" transform="translate(-188.679 -146.95)" fill="#29b6f6" stroke="#263238" stroke-linecap="round" stroke-linejoin="round" stroke-width="1"/>
      <path id="Path_688" data-name="Path 688" d="M353.959,261.18h-4.276a1.973,1.973,0,0,0-1.973,1.973v1.1c0,2.268,1.841,5.158,4.114,5.158s4.108-2.885,4.108-5.158v-1.1a1.973,1.973,0,0,0-1.973-1.973Z" transform="translate(-196.171 -146.95)" fill="#29b6f6" stroke="#263238" stroke-linecap="round" stroke-linejoin="round" stroke-width="1"/>
      <rect id="Rectangle_16" data-name="Rectangle 16" width="81.993" height="9.324" rx="3.21" transform="translate(53.16 135.678)" fill="#29b6f6" stroke="#263238" stroke-linecap="round" stroke-linejoin="round" stroke-width="1"/>
      <path id="Path_689" data-name="Path 689" d="M329.689,299.3h-4.276a1.973,1.973,0,0,0-1.973,1.973v1.1c0,2.273,1.841,5.158,4.114,5.158s4.108-2.885,4.108-5.158v-1.1A1.973,1.973,0,0,0,329.689,299.3Z" transform="translate(-185.904 -163.074)" fill="#29b6f6" stroke="#263238" stroke-linecap="round" stroke-linejoin="round" stroke-width="1"/>
      <path id="Path_690" data-name="Path 690" d="M165.079,299.3H160.8a1.973,1.973,0,0,0-1.973,1.973v1.1c0,2.273,1.841,5.158,4.114,5.158s4.114-2.885,4.114-5.158v-1.1A1.979,1.979,0,0,0,165.079,299.3Z" transform="translate(-116.276 -163.074)" fill="#29b6f6" stroke="#263238" stroke-linecap="round" stroke-linejoin="round" stroke-width="1"/>
      <path id="Path_691" data-name="Path 691" d="M150.742,245.7a3.506,3.506,0,0,1,.617.058v-1.217a.86.86,0,0,0-.86-.854h-4.276a.86.86,0,0,0-.854.854v1.1c0,1.575,1.154,3.56,2.516,3.958A3,3,0,0,1,150.742,245.7Z" transform="translate(-110.582 -139.552)" opacity="0.2"/>
      <path id="Path_692" data-name="Path 692" d="M168.737,245.393a2.883,2.883,0,0,1,.392,0V244.5a.86.86,0,0,0-.854-.854H164a.86.86,0,0,0-.86.854v1.1c0,1.731,1.368,3.895,2.885,4.039A3,3,0,0,1,168.737,245.393Z" transform="translate(-118.099 -139.535)" opacity="0.2"/>
      <path id="Path_693" data-name="Path 693" d="M186.8,245.255h.087v-.721a.854.854,0,0,0-.854-.854H181.76a.86.86,0,0,0-.86.854v1.1c0,1.76,1.454,4.039,2.995,4.039a1.489,1.489,0,0,0,.225,0A3.054,3.054,0,0,1,186.8,245.255Z" transform="translate(-125.611 -139.547)" opacity="0.2"/>
      <path id="Path_694" data-name="Path 694" d="M203.9,244.948a3.289,3.289,0,0,1,.715.058v-.5a.854.854,0,0,0-.854-.854h-4.276a.854.854,0,0,0-.854.854v1.1c0,1.65,1.269,3.751,2.7,4.039C200.349,247.828,201.2,244.948,203.9,244.948Z" transform="translate(-133.111 -139.535)" opacity="0.2"/>
      <path id="Path_695" data-name="Path 695" d="M222.2,244.957h.219v-.433a.86.86,0,0,0-.86-.854h-4.276a.86.86,0,0,0-.854.854v1.1c0,1.76,1.454,4.039,2.995,4.039a1.645,1.645,0,0,0,.237,0C218.651,247.842,219.5,244.957,222.2,244.957Z" transform="translate(-140.64 -139.543)" opacity="0.2"/>
      <path id="Path_696" data-name="Path 696" d="M240.047,245.006h.133v-.5a.86.86,0,0,0-.854-.854H235.05a.86.86,0,0,0-.86.854v1.1c0,1.76,1.454,4.039,2.995,4.039a1.568,1.568,0,0,0,.283,0C236.521,247.822,237.381,245.006,240.047,245.006Z" transform="translate(-148.152 -139.535)" opacity="0.2"/>
      <path id="Path_697" data-name="Path 697" d="M257.453,244.965a4.361,4.361,0,0,1,.49.035v-.456a.854.854,0,0,0-.854-.854h-4.276a.854.854,0,0,0-.854.854v1.1c0,1.731,1.431,4,2.96,4.039C253.9,247.868,254.741,244.965,257.453,244.965Z" transform="translate(-155.669 -139.552)" opacity="0.2"/>
      <path id="Path_698" data-name="Path 698" d="M275.7,245.111v-.577a.854.854,0,0,0-.854-.854h-4.276a.854.854,0,0,0-.854.854v1.1c0,1.76,1.448,4.039,2.995,4.039a1.57,1.57,0,0,0,.456-.075A3.06,3.06,0,0,1,275.7,245.111Z" transform="translate(-163.181 -139.547)" opacity="0.2"/>
      <path id="Path_699" data-name="Path 699" d="M292.644,244.89a3.237,3.237,0,0,1,.842.11v-.456a.86.86,0,0,0-.86-.854h-4.253a.86.86,0,0,0-.854.854v1.1c0,1.627,1.235,3.681,2.637,3.993C289.078,247.827,289.915,244.89,292.644,244.89Z" transform="translate(-170.711 -139.552)" opacity="0.2"/>
      <path id="Path_700" data-name="Path 700" d="M310.618,244.89a3.385,3.385,0,0,1,.612.058v-.4a.86.86,0,0,0-.854-.854H306.1a.86.86,0,0,0-.86.854v1.1c0,1.731,1.385,3.929,2.885,4.039C307.04,247.868,307.871,244.89,310.618,244.89Z" transform="translate(-178.206 -139.552)" opacity="0.2"/>
      <path id="Path_701" data-name="Path 701" d="M328.544,245.184a3.745,3.745,0,0,1,.45.035v-.675a.854.854,0,0,0-.854-.854h-4.276a.854.854,0,0,0-.854.854v1.1c0,1.731,1.385,3.924,2.885,4.039A3.062,3.062,0,0,1,328.544,245.184Z" transform="translate(-185.723 -139.552)" opacity="0.2"/>
      <path id="Path_702" data-name="Path 702" d="M346.754,245.052v-.508a.854.854,0,0,0-.854-.854h-4.276a.854.854,0,0,0-.854.854v1.1c0,1.76,1.448,4.039,2.995,4.039a1.69,1.69,0,0,0,.646-.138A3.068,3.068,0,0,1,346.754,245.052Z" transform="translate(-193.235 -139.552)" opacity="0.2"/>
      <path id="Path_703" data-name="Path 703" d="M151.04,282.285a3.048,3.048,0,0,1,.329,0v-.121a.86.86,0,0,0-.86-.854h-4.276a.86.86,0,0,0-.854.854v1.1c0,1.76,1.454,4.039,2.995,4.039a1.908,1.908,0,0,0,.317-.035C147.4,285.511,148.184,282.285,151.04,282.285Z" transform="translate(-110.586 -155.465)" opacity="0.2"/>
      <path id="Path_704" data-name="Path 704" d="M168.593,282.3a3.257,3.257,0,0,1,.537.046v-.15a.86.86,0,0,0-.854-.854H164a.86.86,0,0,0-.86.854v1.1c0,1.76,1.454,4.039,2.995,4.039h.127C164.94,285.552,165.719,282.3,168.593,282.3Z" transform="translate(-118.099 -155.477)" opacity="0.2"/>
      <path id="Path_705" data-name="Path 705" d="M186.272,282.438a3.314,3.314,0,0,1,.577.052v-.306a.854.854,0,0,0-.854-.854H181.72a.86.86,0,0,0-.86.854v1.1c0,1.731,1.431,4,2.96,4.039C182.672,285.525,183.474,282.438,186.272,282.438Z" transform="translate(-125.594 -155.473)" opacity="0.2"/>
      <path id="Path_706" data-name="Path 706" d="M204.209,282.513a3.593,3.593,0,0,1,.444.029v-.358a.854.854,0,0,0-.854-.854h-4.276a.854.854,0,0,0-.854.854v1.1c0,1.76,1.448,4.039,2.995,4.039h.069C200.626,285.513,201.451,282.513,204.209,282.513Z" transform="translate(-133.128 -155.473)" opacity="0.2"/>
      <path id="Path_707" data-name="Path 707" d="M221.762,282.3a3.461,3.461,0,0,1,.658.063v-.167a.86.86,0,0,0-.86-.854h-4.276a.86.86,0,0,0-.854.854v1.1c0,1.76,1.454,4.039,2.995,4.039h0C218.109,285.564,218.882,282.3,221.762,282.3Z" transform="translate(-140.64 -155.477)" opacity="0.2"/>
      <path id="Path_708" data-name="Path 708" d="M239.677,282.363a3.456,3.456,0,0,1,.5.04v-.219a.86.86,0,0,0-.854-.854H235.05a.86.86,0,0,0-.86.854v1.1c0,1.76,1.454,4.039,2.995,4.039h.11C236.048,285.531,236.844,282.363,239.677,282.363Z" transform="translate(-148.152 -155.473)" opacity="0.2"/>
      <path id="Path_709" data-name="Path 709" d="M257.822,282.578h.121v-.4a.854.854,0,0,0-.854-.854h-4.276a.854.854,0,0,0-.854.854v1.1c0,1.76,1.448,4.039,2.989,4.039a1.609,1.609,0,0,0,.335-.04C254.291,285.469,255.116,282.578,257.822,282.578Z" transform="translate(-155.669 -155.469)" opacity="0.2"/>
      <path id="Path_710" data-name="Path 710" d="M275.652,282.363h.035v-.179a.854.854,0,0,0-.854-.854h-4.258a.854.854,0,0,0-.854.854v1.1c0,1.76,1.448,4.039,2.995,4.039a1.644,1.644,0,0,0,.519-.092C272.063,285.438,272.876,282.363,275.652,282.363Z" transform="translate(-163.181 -155.473)" opacity="0.2"/>
      <path id="Path_711" data-name="Path 711" d="M293.157,282.135h.323a.86.86,0,0,0-.854-.825h-4.253a.86.86,0,0,0-.854.854v1.1c0,1.76,1.454,4.039,2.995,4.039a1.731,1.731,0,0,0,.415-.063C289.482,285.516,290.232,282.135,293.157,282.135Z" transform="translate(-170.711 -155.465)" opacity="0.2"/>
      <path id="Path_712" data-name="Path 712" d="M311.2,282.3h0v-.1a.86.86,0,0,0-.854-.854H306.07a.86.86,0,0,0-.86.854v1.1c0,1.76,1.454,4.039,2.995,4.039a1.818,1.818,0,0,0,.577-.1C307.576,285.437,308.372,282.3,311.2,282.3Z" transform="translate(-178.193 -155.477)" opacity="0.2"/>
      <path id="Path_713" data-name="Path 713" d="M328.783,282.289h.231v-.115a.854.854,0,0,0-.854-.854h-4.276a.854.854,0,0,0-.854.854v1.1c0,1.76,1.448,4.039,2.989,4.039a1.587,1.587,0,0,0,.4-.058C325.136,285.486,325.927,282.289,328.783,282.289Z" transform="translate(-185.731 -155.469)" opacity="0.2"/>
      <path id="Path_714" data-name="Path 714" d="M346.384,282.711h.369v-.577a.854.854,0,0,0-.854-.854h-4.276a.854.854,0,0,0-.854.854v1.1c0,1.76,1.448,4.039,2.995,4.039h0A3.067,3.067,0,0,1,346.384,282.711Z" transform="translate(-193.235 -155.452)" opacity="0.2"/>
      <path id="Path_715" data-name="Path 715" d="M142.423,264.257h.075v-.283a.86.86,0,0,0-.86-.854h-4.264a.854.854,0,0,0-.854.854v1.1c0,1.76,1.448,4.039,2.995,4.039a1.692,1.692,0,0,0,.439-.069C138.845,267.24,139.682,264.257,142.423,264.257Z" transform="translate(-106.839 -147.77)" opacity="0.2"/>
      <path id="Path_716" data-name="Path 716" d="M159.961,264.248h.288v-.294a.86.86,0,0,0-.86-.854h-4.276a.86.86,0,0,0-.854.854v1.1c0,1.76,1.454,4.039,2.995,4.039a1.9,1.9,0,0,0,.254,0C156.372,267.283,157.191,264.248,159.961,264.248Z" transform="translate(-114.343 -147.762)" opacity="0.2"/>
      <path id="Path_717" data-name="Path 717" d="M177.949,264.257H178v-.283a.86.86,0,0,0-.854-.854h-4.276a.86.86,0,0,0-.871.854v1.1c0,1.76,1.454,4.039,2.995,4.039a1.541,1.541,0,0,0,.456-.075C174.372,267.24,175.2,264.257,177.949,264.257Z" transform="translate(-121.846 -147.77)" opacity="0.2"/>
      <path id="Path_718" data-name="Path 718" d="M195.508,264.213h.265v-.219a.854.854,0,0,0-.854-.854h-4.276a.854.854,0,0,0-.854.854v1.1c0,1.76,1.448,4.039,2.989,4.039a1.773,1.773,0,0,0,.312-.035C191.9,267.3,192.7,264.213,195.508,264.213Z" transform="translate(-129.372 -147.779)" opacity="0.2"/>
      <path id="Path_719" data-name="Path 719" d="M212.99,264.257a3.29,3.29,0,0,1,.548.046v-.329a.854.854,0,0,0-.854-.854h-4.31a.854.854,0,0,0-.854.854v1.1c0,1.76,1.448,4.039,2.995,4.039h0C209.372,267.315,210.186,264.257,212.99,264.257Z" transform="translate(-136.871 -147.77)" opacity="0.2"/>
      <path id="Path_720" data-name="Path 720" d="M230.832,263.887a3.969,3.969,0,0,1,.462.029.86.86,0,0,0-.854-.8h-4.276a.86.86,0,0,0-.854.854v1.1c0,1.76,1.454,4.039,2.995,4.039a1.6,1.6,0,0,0,.329-.04C227.133,267.355,227.866,263.887,230.832,263.887Z" transform="translate(-144.396 -147.77)" opacity="0.2"/>
      <path id="Path_721" data-name="Path 721" d="M248.673,264.309h.387v-.375a.86.86,0,0,0-.854-.854H243.93a.86.86,0,0,0-.86.854v1.1c0,1.76,1.454,4.039,2.995,4.039h.115C245.1,267.281,245.915,264.309,248.673,264.309Z" transform="translate(-151.909 -147.754)" opacity="0.2"/>
      <path id="Path_722" data-name="Path 722" d="M266.824,263.974a.854.854,0,0,0-.854-.854h-4.276a.854.854,0,0,0-.854.854v1.1c0,1.76,1.448,4.039,2.989,4.039a1.875,1.875,0,0,0,.877-.242C263.54,267.148,264.244,264.2,266.824,263.974Z" transform="translate(-159.425 -147.77)" opacity="0.2"/>
      <path id="Path_723" data-name="Path 723" d="M284.614,264.213v-.219a.854.854,0,0,0-.854-.854h-4.276a.854.854,0,0,0-.854.854v1.1c0,1.76,1.448,4.039,2.995,4.039a1.731,1.731,0,0,0,.715-.167C281.284,267.2,282.04,264.357,284.614,264.213Z" transform="translate(-166.95 -147.779)" opacity="0.2"/>
      <path id="Path_724" data-name="Path 724" d="M301.992,264.019h.358v-.075a.86.86,0,0,0-.86-.854h-4.276a.86.86,0,0,0-.854.854v1.1c0,1.76,1.454,4.039,2.995,4.039a1.5,1.5,0,0,0,.323-.04C298.339,267.3,299.107,264.019,301.992,264.019Z" transform="translate(-174.45 -147.758)" opacity="0.2"/>
      <path id="Path_725" data-name="Path 725" d="M320.109,264.407v-.433a.86.86,0,0,0-.854-.854H314.98a.86.86,0,0,0-.86.854v1.1c0,1.76,1.454,4.039,2.995,4.039a1.73,1.73,0,0,0,.514-.087A3.066,3.066,0,0,1,320.109,264.407Z" transform="translate(-181.962 -147.77)" opacity="0.2"/>
      <path id="Path_726" data-name="Path 726" d="M337.389,264.107a4.249,4.249,0,0,1,.485.035v-.167a.854.854,0,0,0-.854-.854h-4.276a.854.854,0,0,0-.854.854v1.1c0,1.76,1.448,4.039,2.989,4.039a1.385,1.385,0,0,0,.162,0C333.748,267.326,334.533,264.107,337.389,264.107Z" transform="translate(-189.479 -147.77)" opacity="0.2"/>
      <path id="Path_727" data-name="Path 727" d="M355.235,264.551a2.953,2.953,0,0,1,.4,0v-.577a.854.854,0,0,0-.854-.854H350.5a.854.854,0,0,0-.854.854v1.1c0,1.731,1.437,4.039,2.977,4.039A3.058,3.058,0,0,1,355.235,264.551Z" transform="translate(-196.991 -147.77)" opacity="0.2"/>
      <rect id="Rectangle_17" data-name="Rectangle 17" width="7.086" height="79.754" rx="1.21" transform="translate(134.033 136.797) rotate(90)" opacity="0.2"/>
      <path id="Path_728" data-name="Path 728" d="M331.364,302.661v-.577a.854.854,0,0,0-.854-.854h-4.276a.854.854,0,0,0-.854.854v1.1c0,1.76,1.448,4.039,2.995,4.039a1.73,1.73,0,0,0,.381-.052A3.058,3.058,0,0,1,331.364,302.661Z" transform="translate(-186.725 -163.891)" opacity="0.2"/>
      <path id="Path_729" data-name="Path 729" d="M166.257,302.3a3.456,3.456,0,0,1,.5.04v-.242a.86.86,0,0,0-.86-.854h-4.276a.86.86,0,0,0-.854.854v1.1c0,1.76,1.454,4.039,2.995,4.039h.1C162.634,305.441,163.442,302.3,166.257,302.3Z" transform="translate(-117.096 -163.895)" opacity="0.2"/>
      <path id="Path_730" data-name="Path 730" d="M123.014,94.5H264.45a3.664,3.664,0,0,1,3.664,3.664v32.312H119.35V98.164A3.664,3.664,0,0,1,123.014,94.5Z" transform="translate(-99.576 -76.445)" opacity="0.2"/>
      <path id="Path_731" data-name="Path 731" d="M260.26,87.358H141.973A134.442,134.442,0,0,0,136.78,63.21h128.7a129.006,129.006,0,0,0-5.216,24.148Z" transform="translate(-106.949 -63.21)" fill="#fff"/>
      <g id="Group_37" data-name="Group 37" transform="translate(29.831)" clip-path="url(#clip-path-2)">
        <path id="Path_732" data-name="Path 732" d="M264.373,91.57c-.86,4.7-1.154,7.784-1.154,7.784H144.933s-.3-3.029-1.183-7.784Z" transform="translate(-139.728 -75.206)" opacity="0.2"/>
      </g>
      <path id="Path_734" data-name="Path 734" d="M260.26,87.358H141.973A134.442,134.442,0,0,0,136.78,63.21h128.7a129.006,129.006,0,0,0-5.216,24.148Z" transform="translate(-106.949 -63.21)" fill="none" stroke="#263238" stroke-linecap="round" stroke-linejoin="round" stroke-width="1"/>
      <rect id="Rectangle_18" data-name="Rectangle 18" width="116.042" height="47.742" transform="translate(35.659 44.482)" fill="#263238"/>
      <g id="Group_38" data-name="Group 38" transform="translate(55.6 51.977)" opacity="0.4">
        <path id="Path_735" data-name="Path 735" d="M242.42,189.516l.612.029q1.154-17.858,2.308-35.774Q243.868,171.692,242.42,189.516Z" transform="translate(-207.234 -153.493)" fill="#fff"/>
        <path id="Path_736" data-name="Path 736" d="M239,189.37l.612.052q2-17.743,4-35.642Q241.308,171.69,239,189.37Z" transform="translate(-205.787 -153.497)" fill="#fff"/>
        <path id="Path_737" data-name="Path 737" d="M235.67,189.146a5.509,5.509,0,0,1,.612.069q2.839-17.553,5.712-35.446Q238.82,171.68,235.67,189.146Z" transform="translate(-204.379 -153.493)" fill="#fff"/>
        <path id="Path_738" data-name="Path 738" d="M232.3,188.839l.617.1q3.681-17.31,7.42-35.2Q236.3,171.645,232.3,188.839Z" transform="translate(-202.953 -153.48)" fill="#fff"/>
        <path id="Path_739" data-name="Path 739" d="M228.94,188.484l.623.127q4.5-16.981,9.122-34.851Q233.77,171.636,228.94,188.484Z" transform="translate(-201.532 -153.489)" fill="#fff"/>
        <path id="Path_740" data-name="Path 740" d="M225.6,188.042l.623.156c3.537-11.067,7.172-22.544,10.819-34.447C233.182,165.654,229.333,177.078,225.6,188.042Z" transform="translate(-200.119 -153.485)" fill="#fff"/>
        <path id="Path_741" data-name="Path 741" d="M222.27,187.514l.629.185c4.039-10.755,8.269-22.076,12.5-33.968C230.954,165.622,226.523,176.88,222.27,187.514Z" transform="translate(-198.711 -153.476)" fill="#fff"/>
        <path id="Path_742" data-name="Path 742" d="M219,186.921l.629.2c4.564-10.386,9.353-21.528,14.177-33.4C228.746,165.595,223.737,176.656,219,186.921Z" transform="translate(-197.328 -153.472)" fill="#fff"/>
        <path id="Path_743" data-name="Path 743" d="M215.68,186.237l.635.231c5.055-9.994,10.427-20.911,15.839-32.768C226.516,165.557,220.919,176.376,215.68,186.237Z" transform="translate(-195.923 -153.463)" fill="#fff"/>
        <path id="Path_744" data-name="Path 744" d="M212.44,185.467l.635.265c5.516-9.544,11.471-20.2,17.478-32.053C224.3,165.514,218.135,176.108,212.44,185.467Z" transform="translate(-194.553 -153.455)" fill="#fff"/>
        <path id="Path_745" data-name="Path 745" d="M209.23,184.6l.635.306c5.955-9.03,12.492-19.445,19.1-31.251C222.12,165.466,215.358,175.782,209.23,184.6Z" transform="translate(-193.195 -153.447)" fill="#fff"/>
        <path id="Path_746" data-name="Path 746" d="M206.07,183.646l.635.346c6.347-8.465,13.485-18.585,20.691-30.362a347.238,347.238,0,0,1-21.326,30.016Z" transform="translate(-191.858 -153.434)" fill="#fff"/>
        <path id="Path_747" data-name="Path 747" d="M203,182.6c.208.133.427.254.64.381a301.647,301.647,0,0,0,22.249-29.37A274.444,274.444,0,0,1,203,182.6Z" transform="translate(-190.56 -153.425)" fill="#fff"/>
        <path id="Path_748" data-name="Path 748" d="M199.93,181.451l.629.433a239.9,239.9,0,0,0,23.778-28.273,219.409,219.409,0,0,1-24.407,27.841Z" transform="translate(-189.261 -153.425)" fill="#fff"/>
        <path id="Path_749" data-name="Path 749" d="M222.867,153.55A178.41,178.41,0,0,1,197,180.173l.617.479a194.26,194.26,0,0,0,25.25-27.1Z" transform="translate(-188.022 -153.4)" fill="#fff"/>
        <path id="Path_750" data-name="Path 750" d="M221.431,153.52c-9.89,11.54-19.555,19.976-27.281,25.284l.612.525A158.95,158.95,0,0,0,221.431,153.52Z" transform="translate(-186.816 -153.387)" fill="#fff"/>
        <path id="Path_751" data-name="Path 751" d="M220.036,153.49c-10.484,11.454-20.7,19.393-28.6,23.825.19.2.381.392.577.577C199.841,173.1,209.829,164.972,220.036,153.49Z" transform="translate(-185.67 -153.375)" fill="#fff"/>
        <path id="Path_752" data-name="Path 752" d="M218.766,153.45c-11.055,11.338-21.8,18.753-29.826,22.272l.577.629C197.462,172.445,207.964,164.823,218.766,153.45Z" transform="translate(-184.612 -153.358)" fill="#fff"/>
        <path id="Path_753" data-name="Path 753" d="M186.64,174.025c.167.231.34.462.514.687,8.049-2.972,19.041-10.063,30.414-21.292C205.964,164.6,194.735,171.457,186.64,174.025Z" transform="translate(-183.64 -153.345)" fill="#fff"/>
        <path id="Path_754" data-name="Path 754" d="M184.6,172.241c.15.242.306.485.462.727,8.078-2.031,19.549-8.557,31.412-19.618C204.38,164.348,192.707,170.631,184.6,172.241Z" transform="translate(-182.777 -153.315)" fill="#fff"/>
        <path id="Path_755" data-name="Path 755" d="M182.86,170.463c.127.254.26.5.392.756,8.078-1.1,19.941-7.045,32.255-17.858C202.992,164.069,190.938,169.77,182.86,170.463Z" transform="translate(-182.041 -153.32)" fill="#fff"/>
        <path id="Path_756" data-name="Path 756" d="M181.44,168.61c.1.254.214.514.323.767,8.032-.2,20.2-5.557,32.889-16.087C201.814,163.711,189.46,168.811,181.44,168.61Z" transform="translate(-181.44 -153.29)" fill="#fff"/>
        <path id="Path_757" data-name="Path 757" d="M245.81,189.6h.606q.277-17.887.577-35.821Q246.387,171.7,245.81,189.6Z" transform="translate(-208.668 -153.497)" fill="#fff"/>
        <path id="Path_758" data-name="Path 758" d="M248.792,189.621h.612q-.577-17.887-1.154-35.821Z" transform="translate(-209.7 -153.506)" fill="#fff"/>
        <path id="Path_759" data-name="Path 759" d="M250.9,189.564h.612q-1.443-17.83-2.885-35.774Q249.767,171.712,250.9,189.564Z" transform="translate(-209.861 -153.501)" fill="#fff"/>
        <path id="Path_760" data-name="Path 760" d="M253.064,189.439l.612-.046q-2.308-17.7-4.616-35.613Q251.045,171.7,253.064,189.439Z" transform="translate(-210.043 -153.497)" fill="#fff"/>
        <path id="Path_761" data-name="Path 761" d="M255.125,189.25l.612-.075q-3.139-17.489-6.347-35.405Q252.281,171.686,255.125,189.25Z" transform="translate(-210.182 -153.493)" fill="#fff"/>
        <path id="Path_762" data-name="Path 762" d="M257.252,188.991l.617-.092q-3.981-17.224-8.049-35.128Q253.559,171.68,257.252,188.991Z" transform="translate(-210.364 -153.493)" fill="#fff"/>
        <path id="Path_763" data-name="Path 763" d="M259.36,188.657l.617-.115q-4.806-16.883-9.757-34.782Q254.825,171.659,259.36,188.657Z" transform="translate(-210.533 -153.489)" fill="#fff"/>
        <path id="Path_764" data-name="Path 764" d="M261.456,188.249l.629-.144c-3.739-10.963-7.593-22.428-11.465-34.355Q256.107,171.643,261.456,188.249Z" transform="translate(-210.703 -153.485)" fill="#fff"/>
        <path id="Path_765" data-name="Path 765" d="M263.553,187.768l.623-.179c-4.258-10.657-8.7-21.926-13.156-33.859C255.261,165.651,259.485,176.966,263.553,187.768Z" transform="translate(-210.872 -153.476)" fill="#fff"/>
        <path id="Path_766" data-name="Path 766" d="M265.632,187.2l.635-.208c-4.772-10.282-9.809-21.349-14.846-33.276C256.255,165.624,261.056,176.777,265.632,187.2Z" transform="translate(-211.041 -153.472)" fill="#fff"/>
        <path id="Path_767" data-name="Path 767" d="M267.7,186.555l.635-.237c-5.251-9.861-10.859-20.726-16.514-32.618C257.25,165.592,262.633,176.532,267.7,186.555Z" transform="translate(-211.21 -153.463)" fill="#fff"/>
        <path id="Path_768" data-name="Path 768" d="M269.75,185.825c.213-.092.433-.173.64-.265-5.712-9.382-11.909-20-18.17-31.88C258.25,165.555,264.21,176.258,269.75,185.825Z" transform="translate(-211.379 -153.455)" fill="#fff"/>
        <path id="Path_769" data-name="Path 769" d="M271.782,185.019l.64-.306c-6.145-8.846-12.937-19.191-19.8-31.043C259.25,165.51,265.8,175.96,271.782,185.019Z" transform="translate(-211.549 -153.451)" fill="#fff"/>
        <path id="Path_770" data-name="Path 770" d="M273.772,184.1c.214-.11.427-.231.635-.346A348.869,348.869,0,0,1,253,153.63C260.247,165.459,267.425,175.608,273.772,184.1Z" transform="translate(-211.709 -153.434)" fill="#fff"/>
        <path id="Path_771" data-name="Path 771" d="M275.762,183.089l.646-.381a275.134,275.134,0,0,1-22.988-29.1,301.458,301.458,0,0,0,22.342,29.479Z" transform="translate(-211.887 -153.425)" fill="#fff"/>
        <path id="Path_772" data-name="Path 772" d="M253.82,153.58a240.171,240.171,0,0,0,23.882,28.4l.64-.433A219.691,219.691,0,0,1,253.82,153.58Z" transform="translate(-212.056 -153.413)" fill="#fff"/>
        <path id="Path_773" data-name="Path 773" d="M254.22,153.55a193.6,193.6,0,0,0,25.388,27.212c.214-.156.415-.317.623-.479A177.926,177.926,0,0,1,254.22,153.55Z" transform="translate(-212.225 -153.4)" fill="#fff"/>
        <path id="Path_774" data-name="Path 774" d="M254.62,153.52a159.011,159.011,0,0,0,26.814,25.913c.208-.173.421-.346.623-.525C274.3,173.611,264.573,165.152,254.62,153.52Z" transform="translate(-212.395 -153.387)" fill="#fff"/>
        <path id="Path_775" data-name="Path 775" d="M255,153.49c10.3,11.54,20.34,19.728,28.187,24.511.2-.19.392-.392.577-.577C275.859,173,265.571,165.03,255,153.49Z" transform="translate(-212.555 -153.375)" fill="#fff"/>
        <path id="Path_776" data-name="Path 776" d="M255.42,153.45c10.888,11.459,21.47,19.116,29.427,22.994l.577-.635C277.4,172.33,266.568,164.886,255.42,153.45Z" transform="translate(-212.733 -153.358)" fill="#fff"/>
        <path id="Path_777" data-name="Path 777" d="M286.429,174.792c.179-.231.346-.462.519-.7-8.107-2.51-19.439-9.394-31.158-20.674C267.261,164.747,278.363,171.861,286.429,174.792Z" transform="translate(-212.889 -153.345)" fill="#fff"/>
        <path id="Path_778" data-name="Path 778" d="M287.859,173.039l.473-.739c-8.118-1.529-19.9-7.83-32.122-18.92C268.206,164.534,279.746,171.077,287.859,173.039Z" transform="translate(-213.067 -153.328)" fill="#fff"/>
        <path id="Path_779" data-name="Path 779" d="M289.186,171.227c.138-.254.271-.508.4-.767-8.078-.577-20.259-6.284-32.889-17.12C269.094,164.269,281.107,170.229,289.186,171.227Z" transform="translate(-213.274 -153.311)" fill="#fff"/>
        <path id="Path_780" data-name="Path 780" d="M257,153.29c12.833,10.652,25.158,16.012,33.178,16.093.115-.26.225-.519.335-.779C282.5,168.933,270.017,163.826,257,153.29Z" transform="translate(-213.401 -153.29)" fill="#fff"/>
      </g>
      <path id="Path_781" data-name="Path 781" d="M199.465,155.257c-2.187,5.609.179,21.926,15.96,21.926s21.511-11.465,20.87-18.551l21.067-3.393s6.457,17.841-7.253,30.322-61.232,11.673-71.278,2.187-4.472-28.227-4.472-28.227Z" transform="translate(-122.192 -102.138)" opacity="0.2"/>
      <path id="Path_782" data-name="Path 782" d="M379.24,105.12v-3.935a.681.681,0,0,1,.479-.652l2.885-.9V95.7a1.777,1.777,0,0,1,1.777-1.777h3.462a.658.658,0,0,1,.669.623v1.269a.658.658,0,0,1-.652.658h-4.4v3.849a.692.692,0,0,1-.329.577l-2.458,1.489v2.741Z" transform="translate(-209.507 -76.2)" fill="#999" stroke="#263238" stroke-linecap="round" stroke-linejoin="round" stroke-width="1"/>
      <rect id="Rectangle_19" data-name="Rectangle 19" width="3.797" height="11.356" transform="translate(169.733 28.92)" fill="#263238"/>
      <rect id="Rectangle_20" data-name="Rectangle 20" width="4.749" height="13.283" transform="translate(173.529 27.956)" fill="#757575"/>
      <g id="Group_39" data-name="Group 39" transform="translate(173.529 27.956)" clip-path="url(#clip-path-3)">
        <rect id="Rectangle_21" data-name="Rectangle 21" width="4.737" height="5.193" transform="translate(0 8.09)" opacity="0.2"/>
      </g>
      <rect id="Rectangle_23" data-name="Rectangle 23" width="4.749" height="13.283" transform="translate(173.529 27.956)" fill="none" stroke="#263238" stroke-linecap="round" stroke-linejoin="round" stroke-width="1"/>
      <rect id="Rectangle_24" data-name="Rectangle 24" width="3.797" height="11.356" transform="translate(18.58 40.269) rotate(180)" fill="#263238"/>
      <rect id="Rectangle_25" data-name="Rectangle 25" width="4.749" height="13.283" transform="translate(14.783 41.233) rotate(180)" fill="#757575"/>
      <g id="Group_40" data-name="Group 40" transform="translate(10.034 27.95)" clip-path="url(#clip-path-4)">
        <rect id="Rectangle_26" data-name="Rectangle 26" width="4.749" height="5.066" transform="translate(0.006 8.095)" opacity="0.2"/>
      </g>
      <rect id="Rectangle_28" data-name="Rectangle 28" width="4.749" height="13.283" transform="translate(14.783 41.233) rotate(180)" fill="none" stroke="#263238" stroke-linecap="round" stroke-linejoin="round" stroke-width="1"/>
      <path id="Path_783" data-name="Path 783" d="M103.088,118.549h0a4.616,4.616,0,0,0-1.362-5.193l-2.793-2.308a1.691,1.691,0,0,0-2.458.3L85.4,126.622a1.656,1.656,0,0,0-.323.987v16.4a1.662,1.662,0,0,0,1.685,1.662h0a1.662,1.662,0,0,0,1.662-1.662V130.69a1.593,1.593,0,0,1,.294-.917L97,118.232a.9.9,0,0,1,1.316-.162l1.523,1.292a2.089,2.089,0,0,0,1.35.5h0A2.048,2.048,0,0,0,103.088,118.549Z" transform="translate(-85.08 -83.277)" fill="#8f979a" stroke="#263238" stroke-linecap="round" stroke-linejoin="round" stroke-width="1"/>
      <circle id="Ellipse_2" data-name="Ellipse 2" cx="0.791" cy="0.791" r="0.791" transform="translate(14.933 32.197)" fill="#999" stroke="#263238" stroke-linecap="round" stroke-linejoin="round" stroke-width="1"/>
      <rect id="Rectangle_29" data-name="Rectangle 29" width="144.108" height="22.319" transform="translate(22.105 23.432)" fill="#263238"/>
      <rect id="Rectangle_30" data-name="Rectangle 30" width="141.592" height="5.205" rx="1.38" transform="translate(23.334 25.111)" fill="#fff" opacity="0.2"/>
      <path id="Path_784" data-name="Path 784" d="M260.26,132.578H141.973a61.988,61.988,0,0,1-5.193-24.148h128.7C265.476,119.612,260.26,132.578,260.26,132.578Z" transform="translate(-106.949 -82.338)" fill="#fff"/>
      <g id="Group_42" data-name="Group 42" transform="translate(29.831 26.092)" clip-path="url(#clip-path-5)">
        <g id="Group_41" data-name="Group 41" transform="translate(12.365 16.988)" opacity="0.7">
          <path id="Path_785" data-name="Path 785" d="M162.36,146.171a10.814,10.814,0,0,0,4.039-1.01c1.448-.871,1.344.785,2.175.894s2.793-.577,3.831-.577.248.635,1.419.577.542.058,1.154-.058l5.014-.837a10.793,10.793,0,0,1,3.058-.242c.514.248,1.189,1.471,1.939,1.154s.352-.577,1.483-.577a7.5,7.5,0,0,1,2.066.3s.1-.294.623-.3h.929s1.968.519,2.279.519,2.637-.514,2.718-.519,2.308-.577,2.308-.577a3.745,3.745,0,0,0,1.731,1.027,10.006,10.006,0,0,1,2.366.167,7.834,7.834,0,0,0,2.723-.115,10.544,10.544,0,0,1,1.489.115,3.9,3.9,0,0,0,1.956-.058,7.455,7.455,0,0,1,3.577-.058c1.875.34,3.6-.514,4.4-.519s3.981.352,5.078.352a47.631,47.631,0,0,0,6.018.167c2.02-.225,3.341.283,4.7.283s2.8-.058,3.116-.058a8.577,8.577,0,0,1,3.958-.744c2.146.237.237-.294,1.558,0s2.366.577,2.925.635a6.665,6.665,0,0,0,1.344-.058l2.308-.167h11.506" transform="translate(-159.965 -140.822)" fill="none" stroke="#263238" stroke-linecap="round" stroke-linejoin="round" stroke-width="1"/>
          <path id="Path_786" data-name="Path 786" d="M158.21,138.765s7.126,0,8.413-.115,1.973-.773,2.66-.773,4.154.658,4.154.658a1.154,1.154,0,0,1,1.154-.658c.941,0,.462.087,1.327.433s.415,0,.871.34a8.079,8.079,0,0,0,2.135.623s3.214.15,3.335-.623,1.731.623,1.731.623,4.362-.623,6.047-.623,5.909-.34,5.909-.34,3.462.456,3.624.456.733.906,1.35.508a2.864,2.864,0,0,1,1.945-.739,8.983,8.983,0,0,1,1.962.739l1.61-.854,1.846.115s1.881,1.252,3.225.739a29.477,29.477,0,0,0,2.995-1.4l1.656,1.4h1.085l3.214-.623a1.945,1.945,0,0,0,2.106.623c1.362-.392,14.373,0,17.685,0s4.039-.854,4.039-.854l2.55.854h12.694" transform="translate(-158.21 -137.871)" fill="none" stroke="#263238" stroke-linecap="round" stroke-linejoin="round" stroke-width="1"/>
        </g>
        <path id="Path_787" data-name="Path 787" d="M264.27,144.5c-.7,2.077-1.206,3.335-1.206,3.335H144.778s-.577-1.212-1.368-3.335Z" transform="translate(-139.584 -123.687)" opacity="0.2"/>
        <path id="Path_788" data-name="Path 788" d="M264.877,129.36c-.4,1.731-.837,3.422-1.269,4.916H140.266c-.427-1.466-.866-3.122-1.246-4.916Z" transform="translate(-137.727 -117.283)" opacity="0.2"/>
      </g>
      <path id="Path_790" data-name="Path 790" d="M260.26,132.578H141.973a61.988,61.988,0,0,1-5.193-24.148h128.7C265.476,119.612,260.26,132.578,260.26,132.578Z" transform="translate(-106.949 -82.338)" fill="none" stroke="#263238" stroke-linecap="round" stroke-linejoin="round" stroke-width="1"/>
      <rect id="Rectangle_31" data-name="Rectangle 31" width="3.526" height="24.627" transform="translate(18.551 22.284)" fill="#757575"/>
      <g id="Group_43" data-name="Group 43" transform="translate(18.551 22.284)" clip-path="url(#clip-path-6)">
        <rect id="Rectangle_32" data-name="Rectangle 32" width="3.433" height="7.305" transform="translate(0.023 17.322)" opacity="0.2"/>
      </g>
      <rect id="Rectangle_34" data-name="Rectangle 34" width="3.526" height="24.627" transform="translate(18.551 22.284)" fill="none" stroke="#263238" stroke-linecap="round" stroke-linejoin="round" stroke-width="1"/>
      <rect id="Rectangle_35" data-name="Rectangle 35" width="3.526" height="24.627" transform="translate(166.236 22.284)" fill="#757575"/>
      <g id="Group_44" data-name="Group 44" transform="translate(166.236 22.284)" clip-path="url(#clip-path-6)">
        <rect id="Rectangle_36" data-name="Rectangle 36" width="3.554" height="7.305" transform="translate(-0.029 17.322)" opacity="0.2"/>
      </g>
      <rect id="Rectangle_38" data-name="Rectangle 38" width="3.526" height="24.627" transform="translate(166.236 22.284)" fill="none" stroke="#263238" stroke-linecap="round" stroke-linejoin="round" stroke-width="1"/>
      <path id="Path_791" data-name="Path 791" d="M266.492,100.04V118H122.275V100.04H120.89v19.168H267.877V100.04Z" transform="translate(-100.227 -78.789)" fill="#999" stroke="#263238" stroke-linecap="round" stroke-linejoin="round" stroke-width="1"/>
      <path id="Path_792" data-name="Path 792" d="M269.769,150.585v40.281a2.562,2.562,0,0,1-2.562,2.562H111.052a2.562,2.562,0,0,1-2.562-2.562V150.585a2.562,2.562,0,0,1,2.562-2.562H183v2.562s-12.285,10.657-33.466,14.587c3.035,13.739,19.618,24.234,39.629,24.234S225.761,178.9,228.8,165.172c-21.211-3.929-33.5-14.587-33.5-14.587V148h71.918a2.562,2.562,0,0,1,2.545,2.585Z" transform="translate(-94.982 -99.076)" fill="#29b6f6" stroke="#263238" stroke-linecap="round" stroke-linejoin="round" stroke-width="1"/>
      <path id="Path_793" data-name="Path 793" d="M269.765,150.585v40.281a2.562,2.562,0,0,1-2.568,2.562H111.048a2.562,2.562,0,0,1-2.568-2.562V150.585a2.573,2.573,0,0,1,2.568-2.568H183v2.568s-12.29,10.652-33.466,14.587c3.035,13.739,19.618,24.234,39.635,24.234S225.757,178.9,228.8,165.172c-21.211-3.935-33.5-14.587-33.5-14.587V148h71.918A2.568,2.568,0,0,1,269.765,150.585Z" transform="translate(-94.978 -99.076)" fill="#9ce0ff"/>
      <g id="Group_45" data-name="Group 45" transform="translate(13.502 48.924)" clip-path="url(#clip-path-8)">
        <path id="Path_794" data-name="Path 794" d="M267.936,152.167v37.188a1.875,1.875,0,0,1-1.887,1.875H114.215a1.869,1.869,0,0,1-1.875-1.875V152.167a1.881,1.881,0,0,1,1.875-1.887H184.61v1.269s-12.29,10.652-33.466,14.587c3.035,13.739,19.618,24.234,39.635,24.234s36.588-10.507,39.629-24.234c-21.211-3.935-33.5-14.587-33.5-14.587V150.28h69.154A1.887,1.887,0,0,1,267.936,152.167Z" transform="translate(-109.495 -148.041)" fill="#fff" opacity="0.2"/>
      </g>
      <path id="Path_796" data-name="Path 796" d="M269.765,150.585v40.281a2.562,2.562,0,0,1-2.568,2.562H111.048a2.562,2.562,0,0,1-2.568-2.562V150.585a2.573,2.573,0,0,1,2.568-2.568H183v2.568s-12.29,10.652-33.466,14.587c3.035,13.739,19.618,24.234,39.635,24.234S225.757,178.9,228.8,165.172c-21.211-3.935-33.5-14.587-33.5-14.587V148h71.918A2.568,2.568,0,0,1,269.765,150.585Z" transform="translate(-94.978 -99.076)" fill="none" stroke="#263238" stroke-linecap="round" stroke-linejoin="round" stroke-width="1"/>
    </g>
    <g id="freepik--right-hand--inject-326" transform="translate(168.765 149.754)">
      <path id="Path_797" data-name="Path 797" d="M287.843,245.842l7.668,21.39s3.318-23.542,5.3-23.542,6.243,12.873,6.243,12.873,2.631-6.716,5.124-6.959,4.749,16.491,4.749,16.491l.387,37.142-3.145,56.172s-20.063-22.1-25.913-27.794-11.442-18.228-13.058-20.772-2.025-15.868-2.025-15.868a14.281,14.281,0,0,0,3.024-9.186s4.708-7.882,4.42-13.7S279.6,243.673,287.843,245.842Z" transform="translate(-273.17 -241.121)" fill="rgba(0,0,0,0.7)" opacity="0.2"/>
      <path id="Path_798" data-name="Path 798" d="M351.74,347.588l-30.374,15.977c0-.162-3.993-6.63-8.817-13.946-2.181-3.312-4.535-6.791-6.768-9.942-3.658-5.153-8.309-9.6-8.707-10.571-1.154-2.885-10.051-13.687-12.042-17.887s-2.447-17.27-3.324-20.345,1.639-6.012,3.658-7.443,4.137-5.193,4.137-5.193-2.233-8.7-2.256-13.127-1.529-19.872.271-21.315,3.41-.837,3.86.156c1.477,3.272,2.8,11.5,3.941,15.291s3.272,14.789,4.322,15.579,2.92-2.175,2.92-2.175.179-9.232.577-13.058l-.577-12.117s-1.079-7.282,1.431-7.974c3.462-.952,4.726,1.223,5.118,2.141s2.008,6.2,2.008,6.2l.092.364v.173q.04.15.087.329c.063.242.138.531.219.86.767,3.006,2.245,9.024,2.181,10.507-.087,2-.785,13.092.2,15.395l1.535-15.32s-2.475-11.806-1.754-13.508,4.12.179,4.524.848,3.7,4.72,4.293,6.266l.577,1.546s.814-3.658,2.723-2.706,2.146,5.6,2.279,7.634,1.518,15.095,1.731,15.118a30.851,30.851,0,0,1,2.118,11.292c-.629,9.6,1.033,16.733,1.091,20.415s-2.718,12.209-2.718,12.209h0a21.733,21.733,0,0,1,2.406,5.955c.364,1.985,6.832,9.157,12.117,14.864h0C348.5,344.016,351.578,347.236,351.74,347.588Z" transform="translate(-276.706 -239.247)" fill="#ffbda7"/>
      <path id="Path_799" data-name="Path 799" d="M312.559,349.639h0c-2.181-3.312-4.535-6.791-6.768-9.942-3.658-5.153-8.309-9.6-8.707-10.571-1.154-2.885-10.051-13.687-12.042-17.887s-2.447-17.27-3.324-20.345,1.639-6.012,3.658-7.443,4.137-5.193,4.137-5.193-2.233-8.7-2.256-13.127-1.529-19.872.271-21.315,3.41-.837,3.86.156c1.477,3.272,2.8,11.5,3.941,15.291s3.272,14.789,4.322,15.579,2.92-2.175,2.92-2.175.179-9.232.577-13.058l-.577-12.117s-1.079-7.282,1.431-7.974c3.462-.952,4.726,1.223,5.118,2.141s2.008,6.2,2.008,6.2l.092.364v.173q.035.15.087.329c.063.242.138.531.219.86a5.986,5.986,0,0,0-3.768-2.937c-4.616-.9-3.618,4.235-3.179,7.316a21.35,21.35,0,0,1-.144,6.145l1.154-.664c-.831,1.483-2.02,13.808-2.02,16.549s-2.17,3.652-4.114,2.85-2.637-13.381-4.114-15.637-5.585,2.054-5.77,6,3.491,15.695,2.62,18.464-.86,13.271-.86,13.271l-1.062-2.706c.069.369,0,1.61-2.221,5.262a10.876,10.876,0,0,0-1.206,8.978c1.356,2.995,8.234,10.888,9.388,11.7,0,0,.837-3.427,3.462-2.516a15.141,15.141,0,0,0-1.927,4.616c-.542,2.516,4.933,4.126,6.647,6.52C305.462,334.256,306.166,338.7,312.559,349.639Z" transform="translate(-276.71 -239.256)" fill="#898989" opacity="0.4"/>
      <path id="Path_800" data-name="Path 800" d="M375.329,349.742c-5.4-5.441-14.9-10.623-14.327-11.979.773-1.823-.208-5.707-1.87-8.857s.577-8.263.577-8.263l1.027,2.972a25.291,25.291,0,0,0,.283-10.455c-1.05-5.891-1.87-3.82-1.87-3.82a40.27,40.27,0,0,1,1.154-8.205c.941-2.9,1.731-9.93.433-14.091s-4.039-3.375-4.772-1.944.052,7.011.658,8.84-1.973,4.9-2.025,2.62-1.027-8.655-1.027-8.655l1.956-12.792L353.57,264.95s.814-3.658,2.723-2.706,2.146,5.6,2.279,7.634S360.09,284.972,360.3,285a30.852,30.852,0,0,1,2.118,11.292c-.629,9.6,1.033,16.733,1.091,20.415s-2.718,12.21-2.718,12.21h0a21.734,21.734,0,0,1,2.406,5.955c.363,1.985,6.832,9.157,12.117,14.864Z" transform="translate(-307.179 -248.902)" fill="#898989" opacity="0.4"/>
      <path id="Path_801" data-name="Path 801" d="M345.972,258.656c.11.288.2.525.271.715-1.835-4.264-4.962-2.943-5.516-1.731s1.31,8.73,1.731,9.9-1.673,10.473-1.979,13.554-1.119,3.71-1.119,3.71c-2.071.156-2.308-5.562-2.308-6.347a7.364,7.364,0,0,0,.381,1.927l1.535-15.32s-2.533-11.817-1.812-13.519,4.12.179,4.524.848S345.383,257.109,345.972,258.656Z" transform="translate(-300.181 -244.148)" fill="#898989" opacity="0.4"/>
      <path id="Path_802" data-name="Path 802" d="M351.744,347.578c-.392-.889-18.412-19.041-19.041-22.376a21.693,21.693,0,0,0-2.412-5.96s2.775-8.511,2.718-12.209-1.731-10.819-1.091-20.415a30.724,30.724,0,0,0-2.118-11.292c-.219-.023-1.6-13.087-1.731-15.118s-.364-6.682-2.279-7.634-2.724,2.706-2.724,2.706l-.577-1.546c-.577-1.546-3.889-5.6-4.293-6.266s-3.8-2.556-4.524-.848,1.806,13.5,1.806,13.5l-1.523,15.337c-.987-2.308-.289-13.392-.2-15.395s-2.625-12.233-2.625-12.233-1.627-5.262-2.008-6.209-1.656-3.093-5.118-2.141c-2.51.692-1.431,7.974-1.431,7.974l.577,12.117c-.387,3.843-.577,13.058-.577,13.058s-1.87,2.96-2.92,2.175-3.185-11.777-4.322-15.579-2.464-12.019-3.941-15.291c-.45-.992-2.06-1.6-3.86-.156s-.3,16.883-.271,21.315,2.256,13.127,2.256,13.127-2.118,3.739-4.137,5.193-4.535,4.362-3.658,7.443,1.333,16.156,3.324,20.345,10.865,15,12.042,17.887c.4.969,5.049,5.418,8.707,10.571,7.184,10.115,15.579,23.657,15.579,23.888" transform="translate(-276.71 -239.237)" fill="none" stroke="#263238" stroke-linecap="round" stroke-linejoin="round" stroke-width="1"/>
      <path id="Path_803" data-name="Path 803" d="M292.919,306.84s1.431,7.091,1.379,8.28a52.869,52.869,0,0,0-1.264,9.024,36.125,36.125,0,0,0-2.354,4.172c-.485,1.281-1.35,4.431-.992,6.186" transform="translate(-280.121 -267.833)" fill="none" stroke="#263238" stroke-linecap="round" stroke-linejoin="round" stroke-width="1"/>
      <path id="Path_804" data-name="Path 804" d="M290.82,325s3.508.029,3.283,1.506" transform="translate(-280.636 -275.514)" fill="none" stroke="#263238" stroke-linecap="round" stroke-linejoin="round" stroke-width="1"/>
      <path id="Path_805" data-name="Path 805" d="M293.321,336.574s-2.25-.975-3.041.335" transform="translate(-280.407 -280.262)" fill="none" stroke="#263238" stroke-linecap="round" stroke-linejoin="round" stroke-width="1"/>
      <path id="Path_806" data-name="Path 806" d="M316.833,297.14s-.162,5.435-1.593,5" transform="translate(-290.965 -263.73)" fill="none" stroke="#263238" stroke-linecap="round" stroke-linejoin="round" stroke-width="1"/>
      <path id="Path_807" data-name="Path 807" d="M337.665,302s-.415,2.972.7,3.889" transform="translate(-300.419 -265.785)" fill="none" stroke="#263238" stroke-linecap="round" stroke-linejoin="round" stroke-width="1"/>
      <path id="Path_808" data-name="Path 808" d="M353.54,267.06s1.558,7.5,1.916,9.278-1.771,10.848-1.731,13.208,1.05,5.735.912,7.322" transform="translate(-307.166 -251.006)" fill="none" stroke="#263238" stroke-linecap="round" stroke-linejoin="round" stroke-width="1"/>
      <path id="Path_809" data-name="Path 809" d="M364.261,365.79s-.5,4.9,1,6.993" transform="translate(-311.667 -292.768)" fill="none" stroke="#263238" stroke-linecap="round" stroke-linejoin="round" stroke-width="1"/>
      <path id="Path_810" data-name="Path 810" d="M310.131,382.59s-3.358,3.058-2.129,6.82" transform="translate(-287.789 -299.874)" fill="none" stroke="#263238" stroke-linecap="round" stroke-linejoin="round" stroke-width="1"/>
      <path id="Path_811" data-name="Path 811" d="M349.154,316.51c.052,2.158-1.212,4.674-1.344,7.657" transform="translate(-304.742 -271.923)" fill="none" stroke="#263238" stroke-linecap="round" stroke-linejoin="round" stroke-width="1"/>
      <path id="Path_812" data-name="Path 812" d="M330.786,313.17c.715,1.766-.842,5.608-1.079,7.051a8.823,8.823,0,0,0,.364,3.347" transform="translate(-297.072 -270.51)" fill="none" stroke="#263238" stroke-linecap="round" stroke-linejoin="round" stroke-width="1"/>
      <path id="Path_813" data-name="Path 813" d="M365.08,323.71c-.289,1.875-1.616,3.214-1.87,8.984" transform="translate(-311.256 -274.969)" fill="none" stroke="#263238" stroke-linecap="round" stroke-linejoin="round" stroke-width="1"/>
      <path id="Path_814" data-name="Path 814" d="M309.67,312.22c.969,1.056.317,6.1.577,6.924" transform="translate(-288.609 -270.108)" fill="none" stroke="#263238" stroke-linecap="round" stroke-linejoin="round" stroke-width="1"/>
      <path id="Path_815" data-name="Path 815" d="M341,261.168s3.3-2.418,6.139.433" transform="translate(-301.862 -248.109)" fill="none" stroke="#263238" stroke-linecap="round" stroke-linejoin="round" stroke-width="1"/>
      <path id="Path_816" data-name="Path 816" d="M321.3,251.68s.577-.964,3.364-.727,3.283,1.806,3.283,1.806" transform="translate(-293.529 -244.177)" fill="none" stroke="#263238" stroke-linecap="round" stroke-linejoin="round" stroke-width="1"/>
      <path id="Path_817" data-name="Path 817" d="M302.089,280.045s-.935-1.379-3.4-.923-3.56,3.941-3.56,3.941" transform="translate(-282.459 -256.069)" fill="#ffbda7" stroke="#263238" stroke-linecap="round" stroke-linejoin="round" stroke-width="1"/>
      <path id="Path_818" data-name="Path 818" d="M361.894,300.319s-2.054-2.977-4.524-1.7" transform="translate(-308.786 -264.22)" fill="none" stroke="#263238" stroke-linecap="round" stroke-linejoin="round" stroke-width="1"/>
    </g>
    <g id="freepik--left-hand--inject-326" transform="translate(69.641 151.813)">
      <path id="Path_819" data-name="Path 819" d="M174.58,262.156c3.462,2.683.542,19.151.542,19.151l.306,5.36,5.937-2.585,2.706,11.454s-.069,4.195,2.129,5.77a146.833,146.833,0,0,1,0,16.289c-.542,6.878-11.54,14.962-15.331,22.18s-28.516,28.435-28.516,28.435l-20.934-9.959,15.135-61.128,13.56-17.431,8.038-20.051s1.379,13.1.577,21.926Z" transform="translate(-109.857 -249.926)" fill="rgba(0,0,0,0.7)" opacity="0.2"/>
      <path id="Path_820" data-name="Path 820" d="M171.935,291.636c-.525,2.527.739,16.381.519,18.251s-11.24,14.425-11.794,15.377-7.922,5.193-9.636,7.218a91.772,91.772,0,0,0-15.9,26.571h0c-.675,1.662-1.321,3.329-1.956,5L101.39,345.592c2.672-3.312,5.193-6.255,7.5-8.932,4.616-5.43,8.292-9.774,10.092-13.877a22.94,22.94,0,0,1,1.893-3c.715-1.016,1.356-1.852,1.356-1.852s-2.308-6.5-1.771-8.545-.664-18.834-.664-18.834-1.564-11.431-3.1-14.316a4.755,4.755,0,0,1-.5-2.435c.075-2.637,1.6-5.96,2.354-9.809,1-5.193.519-7.761,3.67-5.966s1.679,12.694,1.679,12.694l4.76,10.548c1.252-2.55,0-9.994-.063-11.754,0-.288,0-.767-.046-1.391-.1-3.035-.3-9.353-.04-11.846a1.017,1.017,0,0,1,.046-.381c.387-2.573,1.766-10.761,2.643-11.673,1.3-1.35,3.376-2.487,5.326.577,1.091,1.731.623,15.458.623,15.458s4.524-5.458,5.9-6.791,5.539-3.768,6.653-.946-2.995,11.54-2.995,11.54c.86,2.02.964,7.611.964,7.611s1.945,6.988,3.139,6.924h.052c.346-.075.727-1.344,1.125-3.127.981-4.368,2.048-11.84,2.885-12.492l.577-.462a.433.433,0,0,1,.092-.087l.213-.19c2.043-1.818,6.347-5.857,6.347-5.857s.306-1.933,4.074-1.339-1.673,11.713-1.673,11.713c-.756,3.537-1.916,12.636-1.916,12.636-.352,3.785-.144,13.958-.144,13.958s1.783-5.92,1.668-8.078,3.543-7.443,4.616-8.805,5.862-.883,4.53,1.731S172.46,289.1,171.935,291.636Z" transform="translate(-101.384 -242.824)" fill="#ffbda7"/>
      <path id="Path_821" data-name="Path 821" d="M124.452,379.22a22.946,22.946,0,0,1,1.893-3s-1.875,5.193-2.06,7.957c-.121,1.823-4.922,4.98-9.925,8.921C119,387.668,122.652,383.323,124.452,379.22Z" transform="translate(-106.87 -299.239)" fill="#898989" opacity="0.4"/>
      <path id="Path_822" data-name="Path 822" d="M132.063,344.3c.715-1.016,1.356-1.852,1.356-1.852s-2.308-6.5-1.771-8.545-.664-18.834-.664-18.834-1.564-11.43-3.1-14.316l3.589,6.272s-.352,4.956.669,7.674,2.308,11.009,2.308,11.009-1.512,6.97-1,9.48a2.009,2.009,0,0,0,2.827,1.6S137.412,341.377,132.063,344.3Z" transform="translate(-112.589 -267.315)" fill="#898989" opacity="0.4"/>
      <path id="Path_823" data-name="Path 823" d="M140.072,283.313c2.475,14.494-1.789,10.484-3.329,7.357s-5.158-9.047-7.882-7.784a4.258,4.258,0,0,0-1.841,1.662c.075-2.637,1.6-5.96,2.354-9.809,1-5.193.519-7.761,3.67-5.966s1.679,12.694,1.679,12.694l4.76,10.548c1.252-2.55,0-9.994-.063-11.754,0-.289,0-.767-.046-1.391Q139.659,280.869,140.072,283.313Z" transform="translate(-112.226 -253.548)" fill="#898989" opacity="0.4"/>
      <path id="Path_824" data-name="Path 824" d="M155.157,258.272s-2.672-3.5-4.991-3.318a2.043,2.043,0,0,0-1.806,1.333,1.017,1.017,0,0,1,.046-.381c.387-2.573,1.766-10.761,2.643-11.673,1.3-1.35,3.375-2.487,5.326.577,1.091,1.731.623,15.458.623,15.458s4.524-5.458,5.9-6.791,5.539-3.768,6.653-.946-2.995,11.54-2.995,11.54c.86,2.02.964,7.611.964,7.611s1.945,6.988,3.139,6.924c-2.631,4.951-4.385-6-4.385-6,.392-2.262-1-7.166-.866-8.459s-2.423-5.862-6.739-4.616-1.2,18.3-1.2,18.3a9.532,9.532,0,0,0-1.443,4.512c-1.333-1.644,0-6.347,0-6.347C154.84,271.5,155.157,258.272,155.157,258.272Z" transform="translate(-121.252 -242.828)" fill="#898989" opacity="0.4"/>
      <path id="Path_825" data-name="Path 825" d="M192.462,276.9c-1.841,1.933-1.587,6.82-3.462,12.954.981-4.368,2.048-11.84,2.885-12.492Z" transform="translate(-138.443 -257.227)" fill="#29b6f6" opacity="0.4"/>
      <path id="Path_826" data-name="Path 826" d="M196.667,300.482c-.525,2.527.739,16.381.519,18.251s-11.24,14.425-11.794,15.377-7.922,5.193-9.636,7.218a91.772,91.772,0,0,0-15.9,26.571,113.7,113.7,0,0,1,4.783-13.133c3.791-8.522,5.337-10.04,7.611-12.475s2.025-7.611,2.025-7.611a21.8,21.8,0,0,1,5.124-.606c2.885,0,11.425-12.175,14.362-14.31s3.462-2.135,0-6.843-2.481.756-3.52.577-1.6,2.095-1.6,2.095c-.364-4.8-3.462-10.386-4.114-11.783s1.581-9.584,1.119-11.863,1.985-16.156,1.985-16.156-.306-5.326-5.13-5.343a3.162,3.162,0,0,0-2.066.623c2.043-1.818,6.347-5.857,6.347-5.857s.306-1.933,4.074-1.339-1.673,11.713-1.673,11.713c-.756,3.537-1.916,12.636-1.916,12.636-.352,3.785-.144,13.958-.144,13.958s1.783-5.92,1.668-8.078,3.543-7.443,4.616-8.805,5.862-.883,4.53,1.731S197.192,297.943,196.667,300.482Z" transform="translate(-126.117 -251.67)" fill="#898989" opacity="0.4"/>
      <path id="Path_827" data-name="Path 827" d="M133.162,364.089c3.918-10.346,8.3-20.443,17.858-31.6,1.731-2,9.076-6.237,9.636-7.218S172.237,311.76,172.45,309.9s-1.044-15.723-.519-18.251-.087-10.859,1.241-13.456-3.462-3.07-4.53-1.731-4.714,6.67-4.616,8.805-1.668,8.078-1.668,8.078-.208-10.173.144-13.958c0,0,1.154-9.1,1.916-12.636,0,0,5.435-11.125,1.673-11.713s-4.074,1.339-4.074,1.339-6.007,5.643-7.2,6.566-2.81,15.348-4,15.62-3.191-6.924-3.191-6.924-.1-5.591-.964-7.611c0,0,4.1-8.7,2.995-11.54s-5.274-.381-6.653.946-5.9,6.791-5.9,6.791.467-13.739-.623-15.458c-1.95-3.075-4.039-1.939-5.326-.577-.877.912-2.256,9.1-2.643,11.673s0,11.852.04,13.617,1.316,9.2.063,11.754l-4.76-10.548s1.477-10.911-1.679-12.694-2.666.79-3.67,5.966-3.393,9.382-1.858,12.273,3.1,14.316,3.1,14.316,1.189,16.791.664,18.833,1.789,8.551,1.789,8.551a42.219,42.219,0,0,0-3.249,4.853c-2.689,6.111-9.492,12.792-17.581,22.844" transform="translate(-101.38 -242.805)" fill="none" stroke="#263238" stroke-linecap="round" stroke-linejoin="round" stroke-width="1"/>
      <path id="Path_828" data-name="Path 828" d="M162.617,273.05a5.666,5.666,0,0,0-.969,3.364c0,2.193,1.437,14.194,1.437,14.194a4.908,4.908,0,0,0-1.1,2.308" transform="translate(-126.871 -255.598)" fill="none" stroke="#263238" stroke-linecap="round" stroke-linejoin="round" stroke-width="1"/>
      <path id="Path_829" data-name="Path 829" d="M207.08,330.34a16.912,16.912,0,0,0,1.541,5.851,6.535,6.535,0,0,1,.45,5.712,20.358,20.358,0,0,0-.49,4.206" transform="translate(-146.09 -279.832)" fill="none" stroke="#263238" stroke-linecap="round" stroke-linejoin="round" stroke-width="1"/>
      <path id="Path_830" data-name="Path 830" d="M148.87,305.33s1,3.185-.86,4.7" transform="translate(-121.104 -269.253)" fill="none" stroke="#263238" stroke-linecap="round" stroke-linejoin="round" stroke-width="1"/>
      <path id="Path_831" data-name="Path 831" d="M185.935,304.77s.2,1.252-1.575,1.367" transform="translate(-136.48 -269.016)" fill="none" stroke="#263238" stroke-linecap="round" stroke-linejoin="round" stroke-width="1"/>
      <path id="Path_832" data-name="Path 832" d="M201.923,277.9s-4.443-4.847-7.893-1.194" transform="translate(-140.57 -256.566)" fill="none" stroke="#263238" stroke-linecap="round" stroke-linejoin="round" stroke-width="1"/>
      <path id="Path_833" data-name="Path 833" d="M170.444,273.26s-2.048-2.591-3.826-2.435-4.178,1.241-4.449,2.666" transform="translate(-127.094 -254.654)" fill="none" stroke="#263238" stroke-linecap="round" stroke-linejoin="round" stroke-width="1"/>
      <path id="Path_834" data-name="Path 834" d="M211.19,347.68a10.213,10.213,0,0,1,1.541,3.387" transform="translate(-147.829 -287.166)" fill="none" stroke="#263238" stroke-linecap="round" stroke-linejoin="round" stroke-width="1"/>
      <path id="Path_835" data-name="Path 835" d="M190.289,313.54c-1.379,2.568-.721,6.924-1.229,8.118" transform="translate(-138.468 -272.725)" fill="none" stroke="#263238" stroke-linecap="round" stroke-linejoin="round" stroke-width="1"/>
      <path id="Path_836" data-name="Path 836" d="M165.235,306.15c.323,1.477-.7,3.883-.854,5.655s1.293,4.506,1.027,6.993" transform="translate(-128.024 -269.599)" fill="none" stroke="#263238" stroke-linecap="round" stroke-linejoin="round" stroke-width="1"/>
      <path id="Path_837" data-name="Path 837" d="M148.793,316.63a14.16,14.16,0,0,0-1.154,4.616c.052,1.835.7,5.857.7,5.857" transform="translate(-120.946 -274.032)" fill="none" stroke="#263238" stroke-linecap="round" stroke-linejoin="round" stroke-width="1"/>
      <path id="Path_838" data-name="Path 838" d="M134.2,316.4a9.651,9.651,0,0,0,.577,4.916,38.743,38.743,0,0,1,2,6.347" transform="translate(-115.223 -273.935)" fill="none" stroke="#263238" stroke-linecap="round" stroke-linejoin="round" stroke-width="1"/>
      <path id="Path_839" data-name="Path 839" d="M137.48,371.27a2.752,2.752,0,0,0,2-2.36" transform="translate(-116.65 -296.146)" fill="none" stroke="#263238" stroke-linecap="round" stroke-linejoin="round" stroke-width="1"/>
      <path id="Path_840" data-name="Path 840" d="M187.01,388.24s1.1,4.079-1.01,6.7" transform="translate(-137.174 -304.323)" fill="none" stroke="#263238" stroke-linecap="round" stroke-linejoin="round" stroke-width="1"/>
      <path id="Path_841" data-name="Path 841" d="M127.07,294.592s3.1-3.029,5.453-.473" transform="translate(-112.247 -264.077)" fill="none" stroke="#263238" stroke-linecap="round" stroke-linejoin="round" stroke-width="1"/>
      <path id="Path_842" data-name="Path 842" d="M148.44,264.717a3.405,3.405,0,0,1,5.008.167" transform="translate(-121.286 -251.64)" fill="none" stroke="#263238" stroke-linecap="round" stroke-linejoin="round" stroke-width="1"/>
    </g>
  </g>
</svg>
