<svg xmlns="http://www.w3.org/2000/svg" xmlns:xlink="http://www.w3.org/1999/xlink" width="261.772" height="260.87" viewBox="0 0 320.772 246.87">
  <defs>
    <clipPath id="clip-path">
      <path id="Path_961" data-name="Path 961" d="M312.9,343.405l.063-23.054c.25-.928.454-4.349.986-6.732.907-3.994-2.659-8.813-2.91-8.969a7.658,7.658,0,0,0-3.129-.61,13.7,13.7,0,0,0-3.948-3.129,9.318,9.318,0,0,0-3.994-.521,19.091,19.091,0,0,0-4.745-2.873,3.906,3.906,0,0,0-3.995.751l-2.331,3.65a2.717,2.717,0,0,0,.318,3.4c1.116,1.1,2.545.584,3.264.584,1,0,1.371-1.126,1.371-1.126a59.18,59.18,0,0,1,0,6.617h0a12.074,12.074,0,0,1-2.122,2.493l-6.258-8.255a59.711,59.711,0,0,1-5.616-9.272,4.432,4.432,0,0,0-.7-1.09c-1.1-1.241-3.437-1.6-4.047.688a4.537,4.537,0,0,0,.1,2.211c2.607,7.707,5.934,13.532,8.964,19.6,1.8,3.6,1.132,3.562,2.029,5.189-.1.073-.052.209-.167.276-.438,1.752-.746,3.509-1.189,5.262a23.988,23.988,0,0,0-2-6.352,14.343,14.343,0,0,0,.276-3.713,4.892,4.892,0,0,0-1.564-3.29,3.218,3.218,0,0,0-1.82-.709,1.9,1.9,0,0,0-2,1.627,19.555,19.555,0,0,1-.521,2.821,28.4,28.4,0,0,1-1.439,3.546c0,2.326,1.439,1.945,2.487,11.3.814,7.3,10.2,12.1,15.31,17.365l5.444,17.136a105.5,105.5,0,0,0,18.231-9.538Z" transform="translate(-275.014 -294.286)" fill="#fff"/>
    </clipPath>
    <clipPath id="clip-path-2">
      <path id="Path_1009" data-name="Path 1009" d="M199.846,316.672c-.224-1.043-1.69-.881-1.69-.881-4.928.292-5.59,8.015-5.59,8.015l-1.768,5.288-.521-7.958.052-10.257s1.491-9.814.829-11.352a2.248,2.248,0,0,0-2.039-1.491c-2.868-.72-3.035,3.416-3.035,3.416l-2.42,8.437-1,9.1-.824-.438s-.391-9.658-.224-9.819,1.158-6.67,1.158-6.67.548-1.215,1.215-2.759a3.353,3.353,0,0,0,0-2.759,2.2,2.2,0,0,0-4.083,0,36.712,36.712,0,0,1-1.982,3.749l-2.764,7.556c.1,1.71-.876,10.148-.876,10.148l-1-.454-1.6-4.954,1.22-5.074s2.644-2.92,2.2-4.631-2.7-1.21-2.7-1.21l-4.542,5.392h-1.33l-3.129,3.968a25.172,25.172,0,0,0-.72,13.188l.72,3.353v21.672a39.253,39.253,0,0,0-2.148,3.8c0,.151-.886,2.889-2.122,6.3a106.164,106.164,0,0,0,13.365,6.941q2.347.923,4.693,1.757c1.982-5.564,4.3-11.514,5.575-12.906,2.534-2.753,7.5-8.052,7.5-8.052s5.637-9.058,6.3-12.067c.521-2.472,1.867-6.962,2.326-8.5a3.009,3.009,0,0,0,.125-1.079c-.037-.813-.115-2.394-.115-3.786C198.887,319.686,200.065,317.7,199.846,316.672Z" transform="translate(-159.14 -295.152)" fill="#fff"/>
    </clipPath>
  </defs>
  <g id="Typewriter-bro" transform="translate(-3.732 -0.407)">
    <path id="Path_633" data-name="Path 633" d="M146.734,28.354c71.549-6.347,71.693,34.009,103.936,71.624s39.15,54.677,26.992,98.039-53.119,77.388-103.8,58.1-79.708-.762-111.674-17.887-43.853-50.148-20.438-89.1S58.486,36.218,146.734,28.354Z" transform="translate(74.601 356.099) rotate(-110)" fill="#29b6f6"/>
    <g id="Code_typing-bro" data-name="Code typing-bro" transform="translate(11.115 2.737)">
      <g id="freepik--Plant--inject-2" transform="translate(34.733 129.69)">
        <path id="Path_913" data-name="Path 913" d="M32.077,262.2C31.973,262.128,32,262.081,32.077,262.2Z" transform="translate(-30.3 -224.263)" fill="#263238" opacity="0.2"/>
        <path id="Path_914" data-name="Path 914" d="M82.1,223.025a9.553,9.553,0,0,1-6.555,7.546l-1.293.422c-4.652,6.586-12.807,9.387-19.759,5.314l-2.034-1.194-5.694-6.779h-.068a5.812,5.812,0,0,1-5.178-1.173,1.773,1.773,0,1,1-2.873-1.695c-1.147,1.012-2.92.548-4.026-.558a34.782,34.782,0,0,1,1.043-9.016,36.357,36.357,0,0,1,1.763-5.319,37.654,37.654,0,0,1,1.872-3.828c.052-.1.115-.214.177-.318a45.819,45.819,0,0,1,3.468-5.215l.657-.594c.521-.454,1-.9,1.5-1.345l.094-.083q1.21-1.043,2.456-2.086c1.278-1.069,2.576-2.117,3.885-3.16l.13-.1c1.121-.887,2.253-1.768,3.379-2.644l1.7-1.314a4.662,4.662,0,0,1,1,.235c1.392.485,1.632,1.763,2.607,2.639,1.283,1.173,2.513-.8,4.49-.735,6.075.188,3.718,6.419,6.685,5.637,12.813-3.379,10.659,13.011,5.09,16.609C79.9,216.96,82.732,218.759,82.1,223.025Z" transform="translate(-31.546 -189.691)" opacity="0.2"/>
        <ellipse id="Ellipse_4" data-name="Ellipse 4" cx="21.61" cy="21.344" rx="21.61" ry="21.344" transform="translate(1.391 6.227)" fill="#fff" stroke="#263238" stroke-width="1"/>
        <ellipse id="Ellipse_5" data-name="Ellipse 5" cx="19.701" cy="19.461" rx="19.701" ry="19.461" transform="translate(3.299 7.244)" fill="#263238" stroke="#fff" stroke-width="1"/>
        <path id="Path_915" data-name="Path 915" d="M30.562,223.895a3.472,3.472,0,0,0-.621,4.49c.975,1.126,2.847.256,3.228-1.5a.584.584,0,0,0,1.043.146,1.2,1.2,0,0,0,.073-1.1c-.094-.078-.057-.136,0,0,.636.521,1.731-.047,1.883-1.126-.464,2.868,2.143,5.371,4.062,3.911a2.415,2.415,0,0,0,1.168,3.129c.991.308,2.055-.276,3-.923a6.351,6.351,0,0,1,2.962-1.439,7.3,7.3,0,0,1,2.607.772c2.743.954,5.955-.313,8.052-3.186,1.387,2.373,4.8,1.5,5.736-1.455a2.582,2.582,0,0,0,2.2,2.446,2.927,2.927,0,0,0,2.482-2.383h0c0,1.309,1.189,1.95,2.023,1.111a4.891,4.891,0,0,0,1.2-4.625c1.418-.057,2.8-1.705,3.009-3.614s-.746-3.828-2.117-4.2c2.357-.975,4.172-4.172,4.286-7.452s-1.6-6.3-3.906-7.066a2.451,2.451,0,0,0-2.649.553,6.337,6.337,0,0,0-2.367-4.36c-1.982-1.34-4.74-.422-6.216,2.086a4.907,4.907,0,0,0,.115-4.37,2.283,2.283,0,0,0-3.066-1.132c-.235-2-1.778-3.416-3.285-3.03s-2.722,2.524-2.607,4.542a1.45,1.45,0,0,0-2.753-.662c.057.125-.031.052,0,0-.96-2.013-2.91-3.045-4.719-2.456-1.924.631-3.541,3.045-3.791,5.684a3.4,3.4,0,0,0-4.693.13,7.253,7.253,0,0,0-2,5.9c-1.5-1.476-4.015-.667-5.043,1.617s-.323,5.517,1.413,6.477c-1.194.183-2.248,1.768-2.248,3.374s1.043,2.983,2.258,2.941c-1.21.1-2.352,1.533-2.529,3.155S29.394,223.54,30.562,223.895Z" transform="translate(-28.733 -189.518)" fill="#c4edff" stroke="#707070" stroke-width="1"/>
        <g id="Group_48" data-name="Group 48" transform="translate(4.452 7.927)" opacity="0.2">
          <path id="Path_916" data-name="Path 916" d="M66.948,238.941a2.253,2.253,0,0,0-2.086-.521,2.508,2.508,0,0,0-1.564,1.94c-.167.944.271,1.987.991,2.164.881.219,1.783-.767,2.68-.657a5.789,5.789,0,0,1,.923.3c1.288.36,2.607-.8,3.682-1.883a5.121,5.121,0,0,0,1.043-1.3,2.117,2.117,0,0,0,.136-1.716A1.443,1.443,0,0,0,71,236.646a7.009,7.009,0,0,0-3.65,2.138c.037-.266.073-.521.115-.793Z" transform="translate(-49.708 -219.969)" fill="#29b6f6"/>
          <path id="Path_917" data-name="Path 917" d="M104.174,235.513a2.968,2.968,0,0,0-1.116-.688,1.074,1.074,0,0,0-1.179.521,1.71,1.71,0,0,0,.292,1.961,2.717,2.717,0,0,0,1.632.61c.594.078,1.345.063,1.653-.631a1.5,1.5,0,0,0-.25-1.5,2.57,2.57,0,0,0-1.158-.662Z" transform="translate(-68.099 -219.113)" fill="#29b6f6"/>
          <path id="Path_918" data-name="Path 918" d="M47.592,213.373a5.736,5.736,0,0,0-2.472,3.817c-.094.49-.094,1.106.24,1.345a.871.871,0,0,0,.808,0l3.463-1.252a5.215,5.215,0,0,0-1.564,1.142,2.607,2.607,0,0,0-.626,2.044,1.5,1.5,0,0,0,1.564,1.272,3.358,3.358,0,0,0,1.914-1.085,3.52,3.52,0,0,0,1.241-2.321c0-.939-.886-1.757-1.465-1.121a12.765,12.765,0,0,0,3.723-2.394,4.479,4.479,0,0,0,1.09-1.345,2.258,2.258,0,0,0,.141-1.794c-1.126-2.654-2.686,1.434-3.416,1.836C50.862,214.28,49.35,212.34,47.592,213.373Z" transform="translate(-41.001 -207.626)" fill="#29b6f6"/>
          <path id="Path_919" data-name="Path 919" d="M38.292,235.874a1.653,1.653,0,0,0,.276,1.5.678.678,0,0,0,1.106-.355,4.224,4.224,0,0,0-2.086,1.611c-.521.855-.4,2.289.36,2.56.475.172.986-.162,1.434-.5A29.64,29.64,0,0,0,43,237.491a1.648,1.648,0,0,0,1.293,2.159,3.928,3.928,0,0,0,2.414-1.21c.913-.756,1.966-1.883,1.752-3.176a1.564,1.564,0,0,0-2.206-1.179,6.127,6.127,0,0,0-2.2,2.242,1.628,1.628,0,0,0-1.006-2.31,2.569,2.569,0,0,0-2.175,1.4c.97-.73,1.215-2.487-.063-2.607C39.966,232.725,38.511,234.993,38.292,235.874Z" transform="translate(-37.27 -218.16)" fill="#29b6f6"/>
          <path id="Path_920" data-name="Path 920" d="M87.415,228.022c-.72-.3-1.637.355-1.846,1.319s.329,2.018,1.085,2.117a2.31,2.31,0,0,0-1.476,1.043,1.856,1.856,0,0,0-.329,1.116,1.043,1.043,0,0,0,1.012.939,2.8,2.8,0,0,0,1.351-.563,2.284,2.284,0,0,0-1.33.568,1.34,1.34,0,0,0-.224,1.564c.271.334.725.245,1.1.089a5.9,5.9,0,0,0,2.284-1.757,1.841,1.841,0,0,0,1.872.9,1.81,1.81,0,0,0,1.116-2.034,1.309,1.309,0,0,0-1.147-1.012,3.009,3.009,0,0,0-1.5.391,3.864,3.864,0,0,0,1.236-1.763c.193-.751-.183-1.716-.787-1.622-.683.109-1.043,1.314-1.6,1.773C87.582,230.348,88.854,228.622,87.415,228.022Z" transform="translate(-60.038 -215.835)" fill="#29b6f6"/>
          <path id="Path_921" data-name="Path 921" d="M65.4,222.235a4.338,4.338,0,0,0-1.043,3.238c.031,1.314.475,2.691,1.413,3.16,1.231.615,2.811-.8,3.071-2.519a4.213,4.213,0,0,0-1.778-4.13A1.5,1.5,0,0,0,65.4,222.235Z" transform="translate(-50.231 -212.911)" fill="#29b6f6"/>
          <path id="Path_922" data-name="Path 922" d="M80.831,217.534l.313.334a1.366,1.366,0,0,0-2.263-.089,2.477,2.477,0,0,0-.063,2.9,1.413,1.413,0,0,0,2.274-.344,2.086,2.086,0,0,0,2.727-.819c.652-1.006.521-2.7-.308-3.264s-2.18.443-2.086,1.695l-.365-.521Z" transform="translate(-56.942 -210.16)" fill="#29b6f6"/>
          <path id="Path_923" data-name="Path 923" d="M99.937,221.4a7.15,7.15,0,0,0-1.528,2.748c-.245,1.079.1,2.409.933,2.607s1.627-.7,2.122-1.643a4.2,4.2,0,0,0,.558-2.816c-.229-.923-1.278-1.413-1.82-.657Z" transform="translate(-66.49 -212.639)" fill="#29b6f6"/>
          <path id="Path_924" data-name="Path 924" d="M72.64,207.906a1.2,1.2,0,0,0-1.94-.563,2.665,2.665,0,0,0-.657,2.607,2.049,2.049,0,0,0,1.747,1.517,1.924,1.924,0,0,0,1.883-2.133,1.674,1.674,0,0,0,1.789.761,4.662,4.662,0,0,0,1.893-1.012,3.475,3.475,0,0,0,1.6-2.738,1.669,1.669,0,0,0-1.46-1.627,2.675,2.675,0,0,0-2.013,1.069c-.443.5-.813,1.106-1.293,1.564a1.359,1.359,0,0,1-1.617.391Z" transform="translate(-52.903 -204.72)" fill="#29b6f6"/>
        </g>
      </g>
      <g id="freepik--Keyboard--inject-2" transform="translate(89.718 166.587)">
        <rect id="Rectangle_40" data-name="Rectangle 40" width="120.288" height="50.661" transform="translate(0 0.511)" fill="#a7e3ff" stroke="#263238" stroke-linecap="round" stroke-linejoin="round" stroke-width="1"/>
        <rect id="Rectangle_41" data-name="Rectangle 41" width="11.316" height="6.263" transform="translate(2.513 3.577)" fill="#fff" stroke="#263238" stroke-width="1"/>
        <rect id="Rectangle_42" data-name="Rectangle 42" width="17.824" height="6.263" transform="translate(99.679 34.115)" fill="#fff" stroke="#263238" stroke-width="1"/>
        <rect id="Rectangle_43" data-name="Rectangle 43" width="11.003" height="6.263" transform="translate(106.5 11.399)" fill="#fff" stroke="#263238" stroke-width="1"/>
        <rect id="Rectangle_44" data-name="Rectangle 44" width="11.316" height="6.263" transform="translate(2.513 26.392)" fill="#fff" stroke="#263238" stroke-width="1"/>
        <rect id="Rectangle_45" data-name="Rectangle 45" width="9.162" height="6.263" transform="translate(2.513 18.846)" fill="#fff" stroke="#263238" stroke-width="1"/>
        <rect id="Rectangle_46" data-name="Rectangle 46" width="6.263" height="6.263" transform="translate(2.513 11.212)" fill="#fff" stroke="#263238" stroke-width="1"/>
        <rect id="Rectangle_47" data-name="Rectangle 47" width="6.263" height="6.263" transform="translate(10.513 11.212)" fill="#fff" stroke="#263238" stroke-width="1"/>
        <rect id="Rectangle_48" data-name="Rectangle 48" width="6.263" height="6.263" transform="translate(18.507 11.212)" fill="#fff" stroke="#263238" stroke-width="1"/>
        <rect id="Rectangle_49" data-name="Rectangle 49" width="6.263" height="6.263" transform="translate(26.501 11.212)" fill="#fff" stroke="#263238" stroke-width="1"/>
        <rect id="Rectangle_50" data-name="Rectangle 50" width="6.263" height="6.263" transform="translate(34.501 11.212)" fill="#fff" stroke="#263238" stroke-width="1"/>
        <rect id="Rectangle_51" data-name="Rectangle 51" width="6.263" height="6.263" transform="translate(42.495 11.212)" fill="#fff" stroke="#263238" stroke-width="1"/>
        <rect id="Rectangle_52" data-name="Rectangle 52" width="6.263" height="6.263" transform="translate(50.489 11.212)" fill="#fff" stroke="#263238" stroke-width="1"/>
        <rect id="Rectangle_53" data-name="Rectangle 53" width="6.263" height="6.263" transform="translate(58.488 11.212)" fill="#fff" stroke="#263238" stroke-width="1"/>
        <rect id="Rectangle_54" data-name="Rectangle 54" width="6.263" height="6.263" transform="translate(66.482 11.212)" fill="#fff" stroke="#263238" stroke-width="1"/>
        <rect id="Rectangle_55" data-name="Rectangle 55" width="6.263" height="6.263" transform="translate(74.477 11.212)" fill="#fff" stroke="#263238" stroke-width="1"/>
        <rect id="Rectangle_56" data-name="Rectangle 56" width="6.263" height="6.263" transform="translate(82.476 11.212)" fill="#fff" stroke="#263238" stroke-width="1"/>
        <rect id="Rectangle_57" data-name="Rectangle 57" width="6.263" height="6.263" transform="translate(90.47 11.212)" fill="#fff" stroke="#263238" stroke-width="1"/>
        <rect id="Rectangle_58" data-name="Rectangle 58" width="6.263" height="6.263" transform="translate(98.47 11.212)" fill="#fff" stroke="#263238" stroke-width="1"/>
        <rect id="Rectangle_59" data-name="Rectangle 59" width="6.263" height="6.263" transform="translate(2.513 41.843)" fill="#fff" stroke="#263238" stroke-width="1"/>
        <rect id="Rectangle_60" data-name="Rectangle 60" width="6.263" height="6.263" transform="translate(10.513 41.843)" fill="#fff" stroke="#263238" stroke-width="1"/>
        <rect id="Rectangle_61" data-name="Rectangle 61" width="6.263" height="6.263" transform="translate(18.507 41.843)" fill="#fff" stroke="#263238" stroke-width="1"/>
        <rect id="Rectangle_62" data-name="Rectangle 62" width="7.645" height="6.263" transform="translate(26.501 41.843)" fill="#fff" stroke="#263238" stroke-width="1"/>
        <rect id="Rectangle_63" data-name="Rectangle 63" width="38.25" height="6.263" transform="translate(35.877 41.843)" fill="#fff" stroke="#263238" stroke-width="1"/>
        <rect id="Rectangle_64" data-name="Rectangle 64" width="6.263" height="6.263" transform="translate(86.987 41.843)" fill="#fff" stroke="#263238" stroke-width="1"/>
        <rect id="Rectangle_65" data-name="Rectangle 65" width="6.263" height="6.263" transform="translate(94.981 41.843)" fill="#fff" stroke="#263238" stroke-width="1"/>
        <rect id="Rectangle_66" data-name="Rectangle 66" width="6.263" height="6.263" transform="translate(102.991 41.843)" fill="#fff" stroke="#263238" stroke-width="1"/>
        <rect id="Rectangle_67" data-name="Rectangle 67" width="9.725" height="6.263" transform="translate(75.692 41.843)" fill="#fff" stroke="#263238" stroke-width="1"/>
        <rect id="Rectangle_68" data-name="Rectangle 68" width="6.263" height="6.263" transform="translate(111.24 41.843)" fill="#fff" stroke="#263238" stroke-width="1"/>
        <rect id="Rectangle_69" data-name="Rectangle 69" width="6.263" height="6.263" transform="translate(13.454 18.846)" fill="#fff" stroke="#263238" stroke-width="1"/>
        <rect id="Rectangle_70" data-name="Rectangle 70" width="6.263" height="6.263" transform="translate(21.448 18.846)" fill="#fff" stroke="#263238" stroke-width="1"/>
        <rect id="Rectangle_71" data-name="Rectangle 71" width="6.263" height="6.263" transform="translate(29.448 18.846)" fill="#fff" stroke="#263238" stroke-width="1"/>
        <rect id="Rectangle_72" data-name="Rectangle 72" width="6.263" height="6.263" transform="translate(37.442 18.846)" fill="#fff" stroke="#263238" stroke-width="1"/>
        <rect id="Rectangle_73" data-name="Rectangle 73" width="6.263" height="6.263" transform="translate(45.441 18.846)" fill="#fff" stroke="#263238" stroke-width="1"/>
        <rect id="Rectangle_74" data-name="Rectangle 74" width="6.263" height="6.263" transform="translate(53.435 18.846)" fill="#fff" stroke="#263238" stroke-width="1"/>
        <rect id="Rectangle_75" data-name="Rectangle 75" width="6.263" height="6.263" transform="translate(61.429 18.846)" fill="#fff" stroke="#263238" stroke-width="1"/>
        <rect id="Rectangle_76" data-name="Rectangle 76" width="6.263" height="6.263" transform="translate(69.429 18.846)" fill="#fff" stroke="#263238" stroke-width="1"/>
        <rect id="Rectangle_77" data-name="Rectangle 77" width="6.263" height="6.263" transform="translate(77.423 18.846)" fill="#fff" stroke="#263238" stroke-width="1"/>
        <rect id="Rectangle_78" data-name="Rectangle 78" width="6.263" height="6.263" transform="translate(85.417 18.846)" fill="#fff" stroke="#263238" stroke-width="1"/>
        <rect id="Rectangle_79" data-name="Rectangle 79" width="6.263" height="6.263" transform="translate(93.417 18.846)" fill="#fff" stroke="#263238" stroke-width="1"/>
        <rect id="Rectangle_80" data-name="Rectangle 80" width="6.263" height="6.263" transform="translate(101.411 18.846)" fill="#fff" stroke="#263238" stroke-width="1"/>
        <path id="Path_925" data-name="Path 925" d="M363.578,307.92v13.9h-6.263v-7.634H355.48V307.92Z" transform="translate(-246.075 -289.074)" fill="#fff" stroke="#263238" stroke-width="1"/>
        <rect id="Rectangle_81" data-name="Rectangle 81" width="6.263" height="6.263" transform="translate(15.29 26.48)" fill="#fff" stroke="#263238" stroke-width="1"/>
        <rect id="Rectangle_82" data-name="Rectangle 82" width="6.263" height="6.263" transform="translate(23.284 26.48)" fill="#fff" stroke="#263238" stroke-width="1"/>
        <rect id="Rectangle_83" data-name="Rectangle 83" width="6.263" height="6.263" transform="translate(31.278 26.48)" fill="#fff" stroke="#263238" stroke-width="1"/>
        <rect id="Rectangle_84" data-name="Rectangle 84" width="6.263" height="6.263" transform="translate(39.277 26.48)" fill="#fff" stroke="#263238" stroke-width="1"/>
        <rect id="Rectangle_85" data-name="Rectangle 85" width="6.263" height="6.263" transform="translate(47.271 26.48)" fill="#fff" stroke="#263238" stroke-width="1"/>
        <rect id="Rectangle_86" data-name="Rectangle 86" width="6.263" height="6.263" transform="translate(55.271 26.48)" fill="#fff" stroke="#263238" stroke-width="1"/>
        <rect id="Rectangle_87" data-name="Rectangle 87" width="6.263" height="6.263" transform="translate(63.265 26.48)" fill="#fff" stroke="#263238" stroke-width="1"/>
        <rect id="Rectangle_88" data-name="Rectangle 88" width="6.263" height="6.263" transform="translate(71.259 26.48)" fill="#fff" stroke="#263238" stroke-width="1"/>
        <rect id="Rectangle_89" data-name="Rectangle 89" width="6.263" height="6.263" transform="translate(79.259 26.48)" fill="#fff" stroke="#263238" stroke-width="1"/>
        <rect id="Rectangle_90" data-name="Rectangle 90" width="6.263" height="6.263" transform="translate(87.253 26.48)" fill="#fff" stroke="#263238" stroke-width="1"/>
        <rect id="Rectangle_91" data-name="Rectangle 91" width="6.263" height="6.263" transform="translate(95.247 26.48)" fill="#fff" stroke="#263238" stroke-width="1"/>
        <rect id="Rectangle_92" data-name="Rectangle 92" width="6.263" height="6.263" transform="translate(103.246 26.48)" fill="#fff" stroke="#263238" stroke-width="1"/>
        <rect id="Rectangle_93" data-name="Rectangle 93" width="6.263" height="6.263" transform="translate(11.89 34.115)" fill="#fff" stroke="#263238" stroke-width="1"/>
        <rect id="Rectangle_94" data-name="Rectangle 94" width="6.263" height="6.263" transform="translate(19.884 34.115)" fill="#fff" stroke="#263238" stroke-width="1"/>
        <rect id="Rectangle_95" data-name="Rectangle 95" width="6.263" height="6.263" transform="translate(27.883 34.115)" fill="#fff" stroke="#263238" stroke-width="1"/>
        <rect id="Rectangle_96" data-name="Rectangle 96" width="6.263" height="6.263" transform="translate(35.877 34.115)" fill="#fff" stroke="#263238" stroke-width="1"/>
        <rect id="Rectangle_97" data-name="Rectangle 97" width="6.263" height="6.263" transform="translate(43.871 34.115)" fill="#fff" stroke="#263238" stroke-width="1"/>
        <rect id="Rectangle_98" data-name="Rectangle 98" width="6.263" height="6.263" transform="translate(51.871 34.115)" fill="#fff" stroke="#263238" stroke-width="1"/>
        <rect id="Rectangle_99" data-name="Rectangle 99" width="6.263" height="6.263" transform="translate(59.865 34.115)" fill="#fff" stroke="#263238" stroke-width="1"/>
        <rect id="Rectangle_100" data-name="Rectangle 100" width="6.263" height="6.263" transform="translate(67.864 34.115)" fill="#fff" stroke="#263238" stroke-width="1"/>
        <rect id="Rectangle_101" data-name="Rectangle 101" width="6.263" height="6.263" transform="translate(75.859 34.115)" fill="#fff" stroke="#263238" stroke-width="1"/>
        <rect id="Rectangle_102" data-name="Rectangle 102" width="6.263" height="6.263" transform="translate(83.853 34.115)" fill="#fff" stroke="#263238" stroke-width="1"/>
        <rect id="Rectangle_103" data-name="Rectangle 103" width="6.263" height="6.263" transform="translate(91.852 34.115)" fill="#fff" stroke="#263238" stroke-width="1"/>
        <rect id="Rectangle_104" data-name="Rectangle 104" width="6.263" height="6.263" transform="translate(15.29 3.953)" fill="#fff" stroke="#263238" stroke-width="1"/>
        <rect id="Rectangle_105" data-name="Rectangle 105" width="6.263" height="6.263" transform="translate(23.284 3.953)" fill="#fff" stroke="#263238" stroke-width="1"/>
        <rect id="Rectangle_106" data-name="Rectangle 106" width="6.263" height="6.263" transform="translate(31.278 3.953)" fill="#fff" stroke="#263238" stroke-width="1"/>
        <rect id="Rectangle_107" data-name="Rectangle 107" width="6.263" height="6.263" transform="translate(39.277 3.953)" fill="#fff" stroke="#263238" stroke-width="1"/>
        <rect id="Rectangle_108" data-name="Rectangle 108" width="6.263" height="6.263" transform="translate(47.271 3.953)" fill="#fff" stroke="#263238" stroke-width="1"/>
        <rect id="Rectangle_109" data-name="Rectangle 109" width="6.263" height="6.263" transform="translate(55.271 3.953)" fill="#fff" stroke="#263238" stroke-width="1"/>
        <rect id="Rectangle_110" data-name="Rectangle 110" width="6.263" height="6.263" transform="translate(63.265 3.953)" fill="#fff" stroke="#263238" stroke-width="1"/>
        <rect id="Rectangle_111" data-name="Rectangle 111" width="6.263" height="6.263" transform="translate(71.259 3.953)" fill="#fff" stroke="#263238" stroke-width="1"/>
        <rect id="Rectangle_112" data-name="Rectangle 112" width="6.263" height="6.263" transform="translate(79.259 3.953)" fill="#fff" stroke="#263238" stroke-width="1"/>
        <rect id="Rectangle_113" data-name="Rectangle 113" width="6.263" height="6.263" transform="translate(87.253 3.953)" fill="#fff" stroke="#263238" stroke-width="1"/>
        <rect id="Rectangle_114" data-name="Rectangle 114" width="6.263" height="6.263" transform="translate(95.247 3.953)" fill="#fff" stroke="#263238" stroke-width="1"/>
        <rect id="Rectangle_115" data-name="Rectangle 115" width="6.263" height="6.263" transform="translate(103.246 3.953)" fill="#fff" stroke="#263238" stroke-width="1"/>
        <rect id="Rectangle_116" data-name="Rectangle 116" width="6.263" height="6.263" transform="translate(111.24 3.953)" fill="#fff" stroke="#263238" stroke-width="1"/>
        <rect id="Rectangle_117" data-name="Rectangle 117" width="7.587" height="6.263" transform="translate(2.513 34.115)" fill="#fff" stroke="#263238" stroke-width="1"/>
        <path id="Path_926" data-name="Path 926" d="M145.68,272.614l2.514-.834H264.336l1.653.824Z" transform="translate(-145.68 -271.78)" fill="#263238"/>
      </g>
      <g id="freepik--Hands--inject-2" transform="translate(96.721 178.323)">
        <path id="Path_927" data-name="Path 927" d="M292.829,370.641l-2.446-14.732a12.03,12.03,0,0,0-3.311-5.767c-4.865-4.693-11.3-9.512-11.571-15.644-.422-9.387-1.888-9.121-1.731-11.441a28.193,28.193,0,0,0,1.674-3.442,20.062,20.062,0,0,0,.709-2.785,1.9,1.9,0,0,1,2.086-1.486,3.228,3.228,0,0,1,1.768.829,4.9,4.9,0,0,1,1.325,3.39,14.491,14.491,0,0,1-.521,3.682,24.071,24.071,0,0,1,1.564,6.471c.558-1.721.98-3.457,1.538-5.173.115-.063.073-.2.182-.261-.787-1.69-.12-1.6-1.679-5.314-2.607-6.258-5.548-12.291-7.64-20.155a4.469,4.469,0,0,1,.047-2.211c.756-2.248,3.071-1.731,4.083-.422a4.318,4.318,0,0,1,.626,1.137,60.729,60.729,0,0,0,4.991,9.621l5.679,8.656a12.093,12.093,0,0,0,2.279-2.347h0a58.625,58.625,0,0,0,.443-6.607s-.448,1.1-1.444,1.043c-.72-.052-2.18.365-3.217-.8a2.717,2.717,0,0,1-.094-3.41L290.738,300a3.9,3.9,0,0,1,4.036-.485,19.2,19.2,0,0,1,4.542,3.181,9.287,9.287,0,0,1,3.953.761,13.6,13.6,0,0,1,3.729,3.39,7.546,7.546,0,0,1,3.077.824c.24.172,3.478,5.215,2.31,9.141-.694,2.341-1.121,5.736-1.434,6.654l-1.59,22.992,3.207,15.123-6.857,3.822a49.021,49.021,0,0,1-7.838,3.51Z" transform="translate(-213.972 -294.655)" opacity="0.2"/>
        <path id="Path_928" data-name="Path 928" d="M312.9,343.405l.063-23.054c.25-.928.454-4.349.986-6.732.907-3.994-2.659-8.813-2.91-8.969a7.658,7.658,0,0,0-3.129-.61,13.7,13.7,0,0,0-3.948-3.129,9.318,9.318,0,0,0-3.994-.521,19.091,19.091,0,0,0-4.745-2.873,3.906,3.906,0,0,0-3.995.751l-2.331,3.65a2.717,2.717,0,0,0,.318,3.4c1.116,1.1,2.545.584,3.264.584,1,0,1.371-1.126,1.371-1.126a59.18,59.18,0,0,1,0,6.617h0a12.074,12.074,0,0,1-2.122,2.493l-6.258-8.255a59.711,59.711,0,0,1-5.616-9.272,4.432,4.432,0,0,0-.7-1.09c-1.1-1.241-3.437-1.6-4.047.688a4.537,4.537,0,0,0,.1,2.211c2.607,7.707,5.934,13.532,8.964,19.6,1.8,3.6,1.132,3.562,2.029,5.189-.1.073-.052.209-.167.276-.438,1.752-.746,3.509-1.189,5.262a23.988,23.988,0,0,0-2-6.352,14.343,14.343,0,0,0,.276-3.713,4.892,4.892,0,0,0-1.564-3.29,3.218,3.218,0,0,0-1.82-.709,1.9,1.9,0,0,0-2,1.627,19.555,19.555,0,0,1-.521,2.821,28.4,28.4,0,0,1-1.439,3.546c0,2.326,1.439,1.945,2.487,11.3.814,7.3,10.2,12.1,15.31,17.365l5.444,17.136a105.5,105.5,0,0,0,18.231-9.538Z" transform="translate(-214.573 -294.286)" fill="#ffbda7"/>
        <g id="Group_52" data-name="Group 52" transform="translate(60.441)" clip-path="url(#clip-path)">
          <path id="Path_929" data-name="Path 929" d="M340.588,320.848a4.01,4.01,0,0,1,1.194-1.8,1.528,1.528,0,0,1,2,.068q-.584-1.789-1.241-3.562a5.507,5.507,0,0,0-1.45-2.44,1.947,1.947,0,0,0-2.607,0,28.185,28.185,0,0,1,.146,8.244c-.193,1.481-.443,3.181.553,4.292.276.224.756-.177.579-.485-.083-.146-.375-.156-.521-.146A26.5,26.5,0,0,1,340.588,320.848Z" transform="translate(-305.37 -303.053)" fill="#29b6f6"/>
          <path id="Path_930" data-name="Path 930" d="M340.588,320.848a4.01,4.01,0,0,1,1.194-1.8,1.528,1.528,0,0,1,2,.068q-.584-1.789-1.241-3.562a5.507,5.507,0,0,0-1.45-2.44,1.947,1.947,0,0,0-2.607,0,28.185,28.185,0,0,1,.146,8.244c-.193,1.481-.443,3.181.553,4.292.276.224.756-.177.579-.485-.083-.146-.375-.156-.521-.146A26.5,26.5,0,0,1,340.588,320.848Z" transform="translate(-305.37 -303.053)" fill="#29b6f6"/>
          <path id="Path_931" data-name="Path 931" d="M340.588,320.848a4.01,4.01,0,0,1,1.194-1.8,1.528,1.528,0,0,1,2,.068q-.584-1.789-1.241-3.562a5.507,5.507,0,0,0-1.45-2.44,1.947,1.947,0,0,0-2.607,0,28.185,28.185,0,0,1,.146,8.244c-.193,1.481-.443,3.181.553,4.292.276.224.756-.177.579-.485-.083-.146-.375-.156-.521-.146A26.5,26.5,0,0,1,340.588,320.848Z" transform="translate(-305.37 -303.053)" fill="#ffbda7"/>
          <path id="Path_932" data-name="Path 932" d="M325.183,315.4a14.745,14.745,0,0,0,.282,2.993,3.723,3.723,0,0,0,1.669,2.4,15.032,15.032,0,0,1,.042-5.987l.521-3.65a2.7,2.7,0,0,1,.37-1.21.939.939,0,0,1,1.1-.4c-.521.3-1.184-.1-1.5-.615a15.35,15.35,0,0,0-.8-1.606,3.351,3.351,0,0,0-3.223-.855C323.958,309.472,325.063,312.32,325.183,315.4Z" transform="translate(-298.288 -300.073)" fill="#29b6f6"/>
          <path id="Path_933" data-name="Path 933" d="M325.183,315.4a14.745,14.745,0,0,0,.282,2.993,3.723,3.723,0,0,0,1.669,2.4,15.032,15.032,0,0,1,.042-5.987l.521-3.65a2.7,2.7,0,0,1,.37-1.21.939.939,0,0,1,1.1-.4c-.521.3-1.184-.1-1.5-.615a15.35,15.35,0,0,0-.8-1.606,3.351,3.351,0,0,0-3.223-.855C323.958,309.472,325.063,312.32,325.183,315.4Z" transform="translate(-298.288 -300.073)" fill="#29b6f6"/>
          <g id="Group_49" data-name="Group 49" transform="translate(25.362 6.307)">
            <path id="Path_934" data-name="Path 934" d="M325.183,315.4a14.745,14.745,0,0,0,.282,2.993,3.723,3.723,0,0,0,1.669,2.4,15.032,15.032,0,0,1,.042-5.987l.521-3.65a2.7,2.7,0,0,1,.37-1.21.939.939,0,0,1,1.1-.4c-.521.3-1.184-.1-1.5-.615a15.35,15.35,0,0,0-.8-1.606,3.351,3.351,0,0,0-3.223-.855C323.958,309.472,325.063,312.32,325.183,315.4Z" transform="translate(-323.65 -306.38)" fill="#ffbda7"/>
          </g>
          <path id="Path_935" data-name="Path 935" d="M306.171,306.288a1.831,1.831,0,0,1-.553-1.1,1.564,1.564,0,0,0-.61-1.043c-1.6,1.017-.725,3.994-2.347,4.98-.313.193-.714.3-.887.626a.824.824,0,0,0,.172.918,1.564,1.564,0,0,0,.887.417,3.572,3.572,0,0,0,3.41-1.481,4.207,4.207,0,0,0,.761-3.322A.8.8,0,0,1,306.171,306.288Z" transform="translate(-287.786 -299.006)" fill="#29b6f6"/>
          <path id="Path_936" data-name="Path 936" d="M278.329,342.195c0,.109-.047.25.042.323s.318-.063.422-.209a2.79,2.79,0,0,1,3.1-1.006c.422,0,.568-.652.292-.97a1.507,1.507,0,0,0-1.168-.375,2.273,2.273,0,0,1-1.231-.2,1.22,1.22,0,0,1-.521-1.314C279,339.7,278.673,340.943,278.329,342.195Z" transform="translate(-276.594 -315.415)" fill="#29b6f6"/>
          <g id="Group_50" data-name="Group 50" transform="translate(1.722 5.144)">
            <path id="Path_937" data-name="Path 937" d="M306.171,306.288a1.831,1.831,0,0,1-.553-1.1,1.564,1.564,0,0,0-.61-1.043c-1.6,1.017-.725,3.994-2.347,4.98-.313.193-.714.3-.887.626a.824.824,0,0,0,.172.918,1.564,1.564,0,0,0,.887.417,3.572,3.572,0,0,0,3.41-1.481,4.207,4.207,0,0,0,.761-3.322A.8.8,0,0,1,306.171,306.288Z" transform="translate(-289.508 -304.15)" fill="#ffbda7"/>
            <path id="Path_938" data-name="Path 938" d="M278.329,342.195c0,.109-.047.25.042.323s.318-.063.422-.209a2.79,2.79,0,0,1,3.1-1.006c.422,0,.568-.652.292-.97a1.507,1.507,0,0,0-1.168-.375,2.273,2.273,0,0,1-1.231-.2,1.22,1.22,0,0,1-.521-1.314C279,339.7,278.673,340.943,278.329,342.195Z" transform="translate(-278.316 -320.559)" fill="#ffbda7"/>
          </g>
          <path id="Path_939" data-name="Path 939" d="M311.839,303.846a7.018,7.018,0,0,1-2.675-.61c-.991-.584-1.674-1.825-2.826-1.877-1.043-.047-1.789.892-2.367,1.737a3.165,3.165,0,0,1,2.055-2.936,5.1,5.1,0,0,1,3.729.146,13.99,13.99,0,0,1,3.233,2.018,4.332,4.332,0,0,1,1.1,1.043C315.369,305.416,312.642,303.956,311.839,303.846Z" transform="translate(-288.87 -296.96)" fill="#29b6f6"/>
          <path id="Path_940" data-name="Path 940" d="M311.839,303.846a7.018,7.018,0,0,1-2.675-.61c-.991-.584-1.674-1.825-2.826-1.877-1.043-.047-1.789.892-2.367,1.737a3.165,3.165,0,0,1,2.055-2.936,5.1,5.1,0,0,1,3.729.146,13.99,13.99,0,0,1,3.233,2.018,4.332,4.332,0,0,1,1.1,1.043C315.369,305.416,312.642,303.956,311.839,303.846Z" transform="translate(-288.87 -296.96)" fill="#ffbda7"/>
          <path id="Path_941" data-name="Path 941" d="M287.779,363.959a3.6,3.6,0,0,0,.167-.349A.4.4,0,0,0,287.779,363.959Z" transform="translate(-281.122 -327.459)" fill="#29b6f6"/>
          <path id="Path_942" data-name="Path 942" d="M285.841,341.422c-.1-1.283.078-2.576.026-3.864a5.066,5.066,0,0,0-1.33-3.53c-1.345-1.267-5.032-.621-3.8,1.789a1.564,1.564,0,0,0,1.914.714,1.392,1.392,0,0,0,.652-1.882,6.68,6.68,0,0,1-.318,7.593,6.059,6.059,0,0,1,1.471,6.909.761.761,0,0,1,.86,0,2.607,2.607,0,0,1,.662,1.179c.183.422.521.86.98.829a7.8,7.8,0,0,0,0-4.891A27.549,27.549,0,0,1,285.841,341.422Z" transform="translate(-277.635 -312.999)" fill="#29b6f6"/>
          <path id="Path_943" data-name="Path 943" d="M314.357,301.463a5.215,5.215,0,0,0-2.467-1.043Z" transform="translate(-292.66 -297.221)" fill="#29b6f6"/>
          <path id="Path_944" data-name="Path 944" d="M322.753,318.718c-.2-.887-.61-1.71-.855-2.607-.568-2.039-.209-4.219-.469-6.32a10.909,10.909,0,0,0-3.875-7.014l-.933-.4a5.262,5.262,0,0,1,1.877,2.733,49.191,49.191,0,0,1,1.272,7.666,102.792,102.792,0,0,0,2.164,11.827C322.554,322.686,323.185,320.673,322.753,318.718Z" transform="translate(-294.924 -298.159)" fill="#29b6f6"/>
          <path id="Path_945" data-name="Path 945" d="M307.23,311.575a3.28,3.28,0,0,0,1.1-2.143,8.863,8.863,0,0,0-.057-2.2.73.73,0,0,1-.824.5,1.851,1.851,0,0,1-.986-.9l-.188.652-.078-.355-.25.318c.37,1.043.73,2.258.156,3.212a3.77,3.77,0,0,1-1.173,1.085,1.982,1.982,0,0,0,2.3-.167Z" transform="translate(-289.33 -300.289)" fill="#29b6f6"/>
          <path id="Path_946" data-name="Path 946" d="M311.28,307.1l.031.261a.417.417,0,0,0-.031-.261Z" transform="translate(-292.368 -300.418)" fill="#29b6f6"/>
          <path id="Path_947" data-name="Path 947" d="M278.98,295.75c.209,0,1.225-.1,1.335.036a15.858,15.858,0,0,1,3.5,10.111c.735-.579,1.747.224,2.321.965a170.211,170.211,0,0,1,9.908,14.132c-.594-2.154-.61-4.443-1.246-6.581C294.347,313.079,279.882,294.89,278.98,295.75Z" transform="translate(-276.912 -293.318)" fill="#ffbda7"/>
          <path id="Path_948" data-name="Path 948" d="M337.4,326.491a22.846,22.846,0,0,0,1.632-7.217,11.811,11.811,0,0,0-1.637-6.534c-.3-.485-1.564-2.487-2.237-2.326-1.225.292.381,2.42.662,2.952,1.043,2.008,2.143,4.13,2.086,6.4a16.731,16.731,0,0,1-1.377,5.032,10.842,10.842,0,0,0-.735,3.577c-.089.136-.172.276-.271.4a5.356,5.356,0,0,1-3.275,2.164c.521-1.564,1.006-3.129,1.512-4.693a1.982,1.982,0,0,0-.078-1.705,1.46,1.46,0,0,0,.162-.678,3.446,3.446,0,0,0-.443-1.2c-.7-1.5-.464-3.249-.292-4.9a15.481,15.481,0,0,0-.308-6.08,6.546,6.546,0,0,0-3.916-4.417l.521.521-.657-.48,1.22,2.545-.448.641a1.446,1.446,0,0,1,1.841.85,4.474,4.474,0,0,1,.151,2.248,44.95,44.95,0,0,0,.615,12.651,6.143,6.143,0,0,1-.751,2.779,2.738,2.738,0,0,1-2.607,1.413,2.743,2.743,0,0,0-1.006-2.779c-1.043,1.46-.428,3.729-.271,5.392a58.639,58.639,0,0,0,1.215,7.488,24.207,24.207,0,0,1,1.33-6.258q.845,3.087,1.7,6.179a3.65,3.65,0,0,1,.323-1.684,1.257,1.257,0,0,1,1.439-.668,1.778,1.778,0,0,1,.86,1.074,19.164,19.164,0,0,1,1.043,11.279,1.592,1.592,0,0,0,2.018-.777,4.694,4.694,0,0,0,.37-2.347Q337.579,336.926,337.4,326.491Z" transform="translate(-299.972 -300.499)" fill="#ffbda7"/>
          <path id="Path_949" data-name="Path 949" d="M312.842,347.993c-.334.584,1.043,2.91,1.257,3.463q1.721,4.208,3.447,8.422a39.869,39.869,0,0,0-2.67-10.784C314.641,348.514,313.5,346.83,312.842,347.993Z" transform="translate(-293.091 -319.795)" fill="#29b6f6"/>
          <path id="Path_950" data-name="Path 950" d="M313.539,314.2c-.2.3-.474.662-.813.558s-.375-.521-.37-.85q.052-2.925.1-5.856c-1.564,1.132-1.377,2.607-1.486,4.3-.063.975.219,5.632-.448,6.2a17.381,17.381,0,0,0,3.88-4.725C314.129,313.6,313.732,313.9,313.539,314.2Z" transform="translate(-292.005 -300.872)" fill="#29b6f6"/>
          <g id="Group_51" data-name="Group 51" transform="translate(2.068 -1.055)">
            <path id="Path_951" data-name="Path 951" d="M287.779,363.959a3.6,3.6,0,0,0,.167-.349A.4.4,0,0,0,287.779,363.959Z" transform="translate(-283.19 -326.405)" fill="#ffbda7"/>
            <path id="Path_952" data-name="Path 952" d="M285.841,341.422c-.1-1.283.078-2.576.026-3.864a5.066,5.066,0,0,0-1.33-3.53c-1.345-1.267-5.032-.621-3.8,1.789a1.564,1.564,0,0,0,1.914.714,1.392,1.392,0,0,0,.652-1.882,6.68,6.68,0,0,1-.318,7.593,6.059,6.059,0,0,1,1.471,6.909.761.761,0,0,1,.86,0,2.607,2.607,0,0,1,.662,1.179c.183.422.521.86.98.829a7.8,7.8,0,0,0,0-4.891A27.549,27.549,0,0,1,285.841,341.422Z" transform="translate(-279.703 -311.945)" fill="#ffbda7"/>
            <path id="Path_953" data-name="Path 953" d="M314.357,301.463a5.215,5.215,0,0,0-2.467-1.043Z" transform="translate(-294.728 -296.167)" fill="#ffbda7"/>
            <path id="Path_954" data-name="Path 954" d="M322.753,318.718c-.2-.887-.61-1.71-.855-2.607-.568-2.039-.209-4.219-.469-6.32a10.909,10.909,0,0,0-3.875-7.014l-.933-.4a5.262,5.262,0,0,1,1.877,2.733,49.191,49.191,0,0,1,1.272,7.666,102.792,102.792,0,0,0,2.164,11.827C322.554,322.686,323.185,320.673,322.753,318.718Z" transform="translate(-296.992 -297.104)" fill="#ffbda7"/>
            <path id="Path_955" data-name="Path 955" d="M307.23,311.575a3.28,3.28,0,0,0,1.1-2.143,8.863,8.863,0,0,0-.057-2.2.73.73,0,0,1-.824.5,1.851,1.851,0,0,1-.986-.9l-.188.652-.078-.355-.25.318c.37,1.043.73,2.258.156,3.212a3.77,3.77,0,0,1-1.173,1.085,1.982,1.982,0,0,0,2.3-.167Z" transform="translate(-291.398 -299.234)" fill="#ffbda7"/>
            <path id="Path_956" data-name="Path 956" d="M311.28,307.1l.031.261a.417.417,0,0,0-.031-.261Z" transform="translate(-294.436 -299.363)" fill="#ffbda7"/>
            <path id="Path_959" data-name="Path 959" d="M312.842,347.993c-.334.584,1.043,2.91,1.257,3.463q1.721,4.208,3.447,8.422a39.869,39.869,0,0,0-2.67-10.784C314.641,348.514,313.5,346.83,312.842,347.993Z" transform="translate(-295.159 -318.74)" fill="#ffbda7"/>
            <path id="Path_960" data-name="Path 960" d="M313.539,314.2c-.2.3-.474.662-.813.558s-.375-.521-.37-.85q.052-2.925.1-5.856c-1.564,1.132-1.377,2.607-1.486,4.3-.063.975.219,5.632-.448,6.2a17.381,17.381,0,0,0,3.88-4.725C314.129,313.6,313.732,313.9,313.539,314.2Z" transform="translate(-294.073 -299.818)" fill="#ffbda7"/>
          </g>
        </g>
        <path id="Path_962" data-name="Path 962" d="M324,307.59a41.06,41.06,0,0,1,1.418,10.429,5.637,5.637,0,0,0,.188,1.752,1.742,1.742,0,0,0,1.194,1.194" transform="translate(-238.014 -300.652)" fill="none"/>
        <path id="Path_963" data-name="Path 963" d="M338.11,314.16c1.564,3.264-.036,10.56.078,11.071a1.841,1.841,0,0,0,.881,1.252" transform="translate(-244.767 -303.796)" fill="none"/>
        <path id="Path_964" data-name="Path 964" d="M309.937,305.917c-.183,1.043-.334,2.237-.521,3.275a6.018,6.018,0,0,1-2.086-4.172" transform="translate(-230.037 -299.422)" fill="none"/>
        <path id="Path_965" data-name="Path 965" d="M292.132,360.09l-1.132.475" transform="translate(-222.223 -325.775)" fill="none"/>
        <path id="Path_966" data-name="Path 966" d="M293.6,361.82a6.518,6.518,0,0,0,0,2.639" transform="translate(-223.401 -326.603)" fill="none"/>
        <path id="Path_967" data-name="Path 967" d="M306.36,343.14c.417.746.829,1.5,1.246,2.248" transform="translate(-229.573 -317.664)" fill="none"/>
        <path id="Path_968" data-name="Path 968" d="M311,325.752,312.241,324" transform="translate(-231.794 -308.505)" fill="none"/>
        <path id="Path_969" data-name="Path 969" d="M344.085,343.14l-.375,1.371" transform="translate(-247.446 -317.664)" fill="none"/>
        <path id="Path_970" data-name="Path 970" d="M338.61,332.714q.521-1.752,1.1-3.5" transform="translate(-245.006 -310.998)" fill="none"/>
        <path id="Path_971" data-name="Path 971" d="M345.65,323.854a1.413,1.413,0,0,1,1.9.589" transform="translate(-248.375 -308.359)" fill="none"/>
        <path id="Path_972" data-name="Path 972" d="M331.28,312.439a2.7,2.7,0,0,1,2.508.574" transform="translate(-241.498 -302.925)" fill="none"/>
        <path id="Path_973" data-name="Path 973" d="M286.74,318.059a3.812,3.812,0,0,1,3.233-1.22" transform="translate(-220.185 -305.067)" fill="none"/>
        <path id="Path_974" data-name="Path 974" d="M277.71,299.734a3.494,3.494,0,0,1,2.607-.615" transform="translate(-215.863 -296.576)" fill="none"/>
        <path id="Path_975" data-name="Path 975" d="M278.168,345.09a6.655,6.655,0,0,0-1.528,1.716Z" transform="translate(-215.351 -318.597)" fill="#fff"/>
        <path id="Path_976" data-name="Path 976" d="M280.53,338.468c.824-.589,2.138.725,2.894.052a1.2,1.2,0,0,0,.256-1.126,3.912,3.912,0,0,1-.151-1.194" transform="translate(-217.213 -314.343)" fill="none"/>
        <path id="Path_977" data-name="Path 977" d="M325.12,333.61a9.444,9.444,0,0,1,.574,6.685" transform="translate(-238.55 -313.103)" fill="none"/>
        <path id="Path_978" data-name="Path 978" d="M336.261,339.78a4.344,4.344,0,0,1-.521,2.868" transform="translate(-243.632 -316.056)" fill="none"/>
        <path id="Path_979" data-name="Path 979" d="M299.085,368.237,293.641,351.1c-5.11-5.262-14.5-10.075-15.31-17.365-1.043-9.355-2.487-8.975-2.487-11.3a28.408,28.408,0,0,0,1.439-3.546,19.562,19.562,0,0,0,.521-2.821,1.9,1.9,0,0,1,2-1.627,3.218,3.218,0,0,1,1.82.709,4.891,4.891,0,0,1,1.564,3.291,14.342,14.342,0,0,1-.276,3.713,23.986,23.986,0,0,1,2,6.352c.443-1.752.751-3.51,1.189-5.262.115-.068.063-.2.167-.276-.9-1.627-.229-1.564-2.029-5.189-3.03-6.07-6.352-11.895-8.964-19.6a4.537,4.537,0,0,1-.1-2.211c.61-2.289,2.952-1.929,4.047-.688a4.431,4.431,0,0,1,.7,1.09,59.713,59.713,0,0,0,5.616,9.272l6.258,8.255a12.076,12.076,0,0,0,2.122-2.493h0a59.18,59.18,0,0,0,0-6.617s-.375,1.126-1.371,1.126c-.72,0-2.148.521-3.264-.584a2.717,2.717,0,0,1-.318-3.4l2.331-3.65a3.906,3.906,0,0,1,3.994-.751,19.092,19.092,0,0,1,4.745,2.873,9.32,9.32,0,0,1,3.995.521,13.642,13.642,0,0,1,3.948,3.129,7.862,7.862,0,0,1,3.129.61c.25.156,3.817,4.975,2.91,8.969-.521,2.383-.735,5.8-.986,6.732l-.063,23.054,4.307,15.279" transform="translate(-214.607 -294.29)" fill="none" stroke="#263238" stroke-width="1"/>
        <path id="Path_980" data-name="Path 980" d="M324,307.59a41.06,41.06,0,0,1,1.418,10.429,5.637,5.637,0,0,0,.188,1.752,1.742,1.742,0,0,0,1.194,1.194" transform="translate(-238.014 -300.652)" fill="none" stroke="#263238" stroke-width="1"/>
        <path id="Path_981" data-name="Path 981" d="M338.11,314.16c1.564,3.264-.036,10.56.078,11.071a1.841,1.841,0,0,0,.881,1.252" transform="translate(-244.767 -303.796)" fill="none" stroke="#263238" stroke-width="1"/>
        <path id="Path_982" data-name="Path 982" d="M309.937,305.917c-.183,1.043-.334,2.237-.521,3.275a6.018,6.018,0,0,1-2.086-4.172" transform="translate(-230.037 -299.422)" fill="none" stroke="#263238" stroke-width="1"/>
        <path id="Path_983" data-name="Path 983" d="M292.132,360.09l-1.132.475" transform="translate(-222.223 -325.775)" fill="none" stroke="#263238" stroke-width="1"/>
        <path id="Path_984" data-name="Path 984" d="M293.6,361.82a6.518,6.518,0,0,0,0,2.639" transform="translate(-223.401 -326.603)" fill="none" stroke="#263238" stroke-width="1"/>
        <path id="Path_985" data-name="Path 985" d="M306.36,343.14c.417.746.829,1.5,1.246,2.248" transform="translate(-229.573 -317.664)" fill="none" stroke="#263238" stroke-width="1"/>
        <path id="Path_986" data-name="Path 986" d="M311,325.752,312.241,324" transform="translate(-231.794 -308.505)" fill="none" stroke="#263238" stroke-width="1"/>
        <path id="Path_987" data-name="Path 987" d="M344.085,343.14l-.375,1.371" transform="translate(-247.446 -317.664)" fill="none" stroke="#263238" stroke-width="1"/>
        <path id="Path_988" data-name="Path 988" d="M338.61,332.714q.521-1.752,1.1-3.5" transform="translate(-245.006 -310.998)" fill="none" stroke="#263238" stroke-width="1"/>
        <path id="Path_989" data-name="Path 989" d="M345.65,323.854a1.413,1.413,0,0,1,1.9.589" transform="translate(-248.375 -308.359)" fill="none" stroke="#263238" stroke-width="1"/>
        <path id="Path_990" data-name="Path 990" d="M331.28,312.439a2.7,2.7,0,0,1,2.508.574" transform="translate(-241.498 -302.925)" fill="none" stroke="#263238" stroke-width="1"/>
        <path id="Path_991" data-name="Path 991" d="M286.74,318.059a3.812,3.812,0,0,1,3.233-1.22" transform="translate(-220.185 -305.067)" fill="none" stroke="#263238" stroke-width="1"/>
        <path id="Path_992" data-name="Path 992" d="M277.71,299.734a3.494,3.494,0,0,1,2.607-.615" transform="translate(-215.863 -296.576)" fill="none" stroke="#263238" stroke-width="1"/>
        <path id="Path_993" data-name="Path 993" d="M278.168,345.09a6.655,6.655,0,0,0-1.528,1.716" transform="translate(-215.351 -318.597)" fill="none" stroke="#263238" stroke-width="1"/>
        <path id="Path_994" data-name="Path 994" d="M280.53,338.468c.824-.589,2.138.725,2.894.052a1.2,1.2,0,0,0,.256-1.126,3.912,3.912,0,0,1-.151-1.194" transform="translate(-217.213 -314.343)" fill="none" stroke="#263238" stroke-width="1"/>
        <path id="Path_995" data-name="Path 995" d="M325.12,333.61a9.444,9.444,0,0,1,.574,6.685" transform="translate(-238.55 -313.103)" fill="none" stroke="#263238" stroke-width="1"/>
        <path id="Path_996" data-name="Path 996" d="M336.261,339.78a4.344,4.344,0,0,1-.521,2.868" transform="translate(-243.632 -316.056)" fill="none" stroke="#263238" stroke-width="1"/>
        <path id="Path_997" data-name="Path 997" d="M205.783,328.22a3.159,3.159,0,0,1-.047,1.085c-.339,1.564-1.319,6.143-1.679,8.646-.428,3.056-5.366,12.515-5.366,12.515s-4.547,5.653-6.863,8.594c-1.137,1.444-2.936,7.3-4.464,12.859q-2.894-.876-5.736-1.888-2.347-.837-4.693-1.757a76.7,76.7,0,0,1-8.145-3.963c.866-3.129,1.444-5.564,1.434-5.7a38.874,38.874,0,0,1,1.856-3.953l-1.643-21.631-.97-3.29a24.714,24.714,0,0,1-.954-5.215,25.208,25.208,0,0,1,.673-7.994l2.832-4.2,1.325-.1,4.1-5.736s2.216-.667,2.785,1-1.846,4.787-1.846,4.787l-.829,5.147,1.971,4.818,1.043.375s.344-8.484.11-10.179l2.138-7.713a36.784,36.784,0,0,0,1.7-3.89,2.193,2.193,0,0,1,4.067-.308,3.353,3.353,0,0,1,.209,2.748c-.548,1.591-1,2.842-1,2.842s-.521,6.56-.652,6.743.965,9.767.965,9.767l.855.381.3-9.152,1.778-8.6s-.146-4.135,2.769-3.65a2.253,2.253,0,0,1,2.143,1.335c.777,1.486.036,11.384.036,11.384l.72,10.231,1.152,7.89,1.356-5.408s.078-7.749,4.97-8.411c0,0,1.455-.261,1.752.751s-.725,3.077-.579,5.058C205.486,325.842,205.684,327.412,205.783,328.22Z" transform="translate(-163.575 -296.669)" opacity="0.2"/>
        <path id="Path_998" data-name="Path 998" d="M199.846,316.672c-.224-1.043-1.69-.881-1.69-.881-4.928.292-5.59,8.015-5.59,8.015l-1.768,5.288-.521-7.958.052-10.257s1.491-9.814.829-11.352a2.248,2.248,0,0,0-2.039-1.491c-2.868-.72-3.035,3.416-3.035,3.416l-2.42,8.437-1,9.1-.824-.438s-.391-9.658-.224-9.819,1.158-6.67,1.158-6.67.548-1.215,1.215-2.759a3.353,3.353,0,0,0,0-2.759,2.2,2.2,0,0,0-4.083,0,36.712,36.712,0,0,1-1.982,3.749l-2.764,7.556c.1,1.71-.876,10.148-.876,10.148l-1-.454-1.6-4.954,1.22-5.074s2.644-2.92,2.2-4.631-2.7-1.21-2.7-1.21l-4.542,5.392h-1.33l-3.129,3.968a25.172,25.172,0,0,0-.72,13.188l.72,3.353v21.672a39.253,39.253,0,0,0-2.148,3.8c0,.151-.886,2.889-2.122,6.3a106.164,106.164,0,0,0,13.365,6.941q2.347.923,4.693,1.757c1.982-5.564,4.3-11.514,5.575-12.906,2.534-2.753,7.5-8.052,7.5-8.052s5.637-9.058,6.3-12.067c.521-2.472,1.867-6.962,2.326-8.5a3.009,3.009,0,0,0,.125-1.079c-.037-.813-.115-2.394-.115-3.786C198.887,319.686,200.065,317.7,199.846,316.672Z" transform="translate(-159.124 -294.7)" fill="#ffbda7"/>
        <g id="Group_54" data-name="Group 54" transform="translate(0.016 0.452)" clip-path="url(#clip-path-2)">
          <path id="Path_999" data-name="Path 999" d="M167.86,312.631a2.549,2.549,0,0,1,3.556-.521,3.739,3.739,0,0,1,.892,2.086,4.448,4.448,0,0,0,.787,2.148,1.436,1.436,0,0,0,2.034.255c.073,1.142.141,2.284.214,3.426a13.584,13.584,0,0,0,1.794-7,15.2,15.2,0,0,1,.073-3.546,2.838,2.838,0,0,1,2.357-2.331c1.314-.057,2.352,1.22,2.607,2.513a15.568,15.568,0,0,1-.12,3.932,11.962,11.962,0,0,0,1.126,5.846l.829-1.679c.25,1.126.521,2.248.746,3.369q.323-3.708.647-7.41a5.4,5.4,0,0,1,.454-2.034,1.8,1.8,0,0,1,1.674-1.043c.939.094,1.481,1.1,1.794,1.982,2.352,6.649,1.382,13.944.386,20.921.652.12,1.2-.521,1.366-1.184a15.131,15.131,0,0,1,.349-1.95c.245-.621,1-1.126,1.564-.772.824.521.25,2.117,1.111,2.56a11.9,11.9,0,0,1,2.362-5.7c.579-.751,1.444-1.5,2.362-1.257a1.856,1.856,0,0,1,1.236,1.564c.1.7,1.111-2.19.933-1.507.4-4.021-.4-4.443,0-8.469.073-.725,1.246-1.982.746-2.513s-1.893-1.252-2.524-.96a12.674,12.674,0,0,0-3.082,1.872c-2.566,3.541-2.388,8.662-3.186,12.959-.683-6.55-1.356-13.209-.156-19.68.662-3.572,1.882-7.3.73-10.737-.521-1.564-1.924-3.129-3.556-2.847-1.314.24-2.086,1.564-2.644,2.8a56.678,56.678,0,0,0-3.379,13.037l2.931-13.376a9.048,9.048,0,0,0,.3-3.515,3.09,3.09,0,0,0-2.169-2.555,3.772,3.772,0,0,0-3.16,1.231c-3.129,2.837-4.255,7.165-5.267,11.243a8.093,8.093,0,0,0,.6-3.29,2.761,2.761,0,0,0-1.914-2.5c-1.424-.308-2.712.96-3.337,2.268s-.928,2.826-1.924,3.885a2.366,2.366,0,0,0-2.993-.162,5.783,5.783,0,0,0-1.9,2.607,24.259,24.259,0,0,0-2.018,11.723,4.292,4.292,0,0,1,4.281-2.441c-.1-.887-.2-1.773-.308-2.665" transform="translate(-160.997 -293.291)" fill="#29b6f6"/>
          <path id="Path_1000" data-name="Path 1000" d="M178.766,347.774c-.047.657-.089,1.314-.136,1.971a.949.949,0,0,1,1.444-.365,2.159,2.159,0,0,1,.329-1.22c.167-.4.183-.96-.2-1.147s-.907.3-1.152.751a4.044,4.044,0,0,0-.057-.49Z" transform="translate(-168.467 -319.949)" fill="#29b6f6"/>
          <path id="Path_1001" data-name="Path 1001" d="M192.273,345.876a4.61,4.61,0,0,0-1.043,2.18,2.247,2.247,0,0,1,.767-.563.772.772,0,0,1,.866.2c.115.156.156.386.334.474a.412.412,0,0,0,.521-.188,1.189,1.189,0,0,0,.13-.574,3.171,3.171,0,0,0-.063-1.132,1.1,1.1,0,0,0-.751-.787.678.678,0,0,0-.819.574Z" transform="translate(-174.496 -319.23)" fill="#29b6f6"/>
          <path id="Path_1002" data-name="Path 1002" d="M206.115,348.585a5.924,5.924,0,0,0-1.1,2.607,2.284,2.284,0,0,0,1.017-.548,2.013,2.013,0,0,1,1.043-.522.725.725,0,0,1,.808.636,4.907,4.907,0,0,1,.042-1.325,2.79,2.79,0,0,0-.094-1.314,1.111,1.111,0,0,0-1.006-.74.7.7,0,0,0-.615.939Z" transform="translate(-181.095 -320.145)" fill="#29b6f6"/>
          <path id="Path_1003" data-name="Path 1003" d="M168.35,354.661a5.215,5.215,0,0,0-.61,2.451.855.855,0,0,1,.767-.761,1.711,1.711,0,0,1,1.111.3,3.014,3.014,0,0,0,.073-1.2,1.043,1.043,0,0,0-.761-.834c-.4-.063-.84.318-.73.7l-.12-.3Z" transform="translate(-163.255 -323.603)" fill="#29b6f6"/>
          <path id="Path_1004" data-name="Path 1004" d="M167.86,312.631a2.549,2.549,0,0,1,3.556-.521,3.739,3.739,0,0,1,.892,2.086,4.448,4.448,0,0,0,.787,2.148,1.436,1.436,0,0,0,2.034.255c.073,1.142.141,2.284.214,3.426a13.584,13.584,0,0,0,1.794-7,15.2,15.2,0,0,1,.073-3.546,2.838,2.838,0,0,1,2.357-2.331c1.314-.057,2.352,1.22,2.607,2.513a15.568,15.568,0,0,1-.12,3.932,11.962,11.962,0,0,0,1.126,5.846l.829-1.679c.25,1.126.521,2.248.746,3.369q.323-3.708.647-7.41a5.4,5.4,0,0,1,.454-2.034,1.8,1.8,0,0,1,1.674-1.043c.939.094,1.481,1.1,1.794,1.982,2.352,6.649,1.382,13.944.386,20.921.652.12,1.2-.521,1.366-1.184a15.131,15.131,0,0,1,.349-1.95c.245-.621,1-1.126,1.564-.772.824.521.25,2.117,1.111,2.56a11.9,11.9,0,0,1,2.362-5.7c.579-.751,1.444-1.5,2.362-1.257a1.856,1.856,0,0,1,1.236,1.564c.1.7,1.111-2.19.933-1.507.4-4.021-.4-4.443,0-8.469.073-.725,1.246-1.982.746-2.513s-1.893-1.252-2.524-.96a12.674,12.674,0,0,0-3.082,1.872c-2.566,3.541-2.388,8.662-3.186,12.959-.683-6.55-1.356-13.209-.156-19.68.662-3.572,1.882-7.3.73-10.737-.521-1.564-1.924-3.129-3.556-2.847-1.314.24-2.086,1.564-2.644,2.8a56.678,56.678,0,0,0-3.379,13.037l2.931-13.376a9.048,9.048,0,0,0,.3-3.515,3.09,3.09,0,0,0-2.169-2.555,3.772,3.772,0,0,0-3.16,1.231c-3.129,2.837-4.255,7.165-5.267,11.243a8.093,8.093,0,0,0,.6-3.29,2.761,2.761,0,0,0-1.914-2.5c-1.424-.308-2.712.96-3.337,2.268s-.928,2.826-1.924,3.885a2.366,2.366,0,0,0-2.993-.162,5.783,5.783,0,0,0-1.9,2.607,24.259,24.259,0,0,0-2.018,11.723,4.292,4.292,0,0,1,4.281-2.441c-.1-.887-.2-1.773-.308-2.665" transform="translate(-160.997 -293.291)" fill="#ffbda7"/>
          <g id="Group_53" data-name="Group 53" transform="translate(4.485 26.239)">
            <path id="Path_1005" data-name="Path 1005" d="M178.766,347.774c-.047.657-.089,1.314-.136,1.971a.949.949,0,0,1,1.444-.365,2.159,2.159,0,0,1,.329-1.22c.167-.4.183-.96-.2-1.147s-.907.3-1.152.751a4.044,4.044,0,0,0-.057-.49Z" transform="translate(-172.951 -346.188)" fill="#ffbda7"/>
            <path id="Path_1006" data-name="Path 1006" d="M192.273,345.876a4.61,4.61,0,0,0-1.043,2.18,2.247,2.247,0,0,1,.767-.563.772.772,0,0,1,.866.2c.115.156.156.386.334.474a.412.412,0,0,0,.521-.188,1.189,1.189,0,0,0,.13-.574,3.171,3.171,0,0,0-.063-1.132,1.1,1.1,0,0,0-.751-.787.678.678,0,0,0-.819.574Z" transform="translate(-178.981 -345.469)" fill="#ffbda7"/>
            <path id="Path_1007" data-name="Path 1007" d="M206.115,348.585a5.924,5.924,0,0,0-1.1,2.607,2.284,2.284,0,0,0,1.017-.548,2.013,2.013,0,0,1,1.043-.522.725.725,0,0,1,.808.636,4.907,4.907,0,0,1,.042-1.325,2.79,2.79,0,0,0-.094-1.314,1.111,1.111,0,0,0-1.006-.74.7.7,0,0,0-.615.939Z" transform="translate(-185.58 -346.384)" fill="#ffbda7"/>
            <path id="Path_1008" data-name="Path 1008" d="M168.35,354.661a5.215,5.215,0,0,0-.61,2.451.855.855,0,0,1,.767-.761,1.711,1.711,0,0,1,1.111.3,3.014,3.014,0,0,0,.073-1.2,1.043,1.043,0,0,0-.761-.834c-.4-.063-.84.318-.73.7l-.12-.3Z" transform="translate(-167.74 -349.842)" fill="#ffbda7"/>
          </g>
        </g>
        <path id="Path_1010" data-name="Path 1010" d="M159.11,359.365c1.236-3.416,2.122-6.153,2.122-6.3a39.254,39.254,0,0,1,2.148-3.8V327.587l-.72-3.353a25.171,25.171,0,0,1,.72-13.188l3.129-3.968h1.33l4.516-5.4s2.263-.521,2.7,1.21-2.2,4.631-2.2,4.631l-1.22,5.074,1.6,4.954,1,.454s.98-8.437.876-10.148l2.764-7.556a36.705,36.705,0,0,0,1.982-3.749,2.2,2.2,0,0,1,4.083,0,3.353,3.353,0,0,1,0,2.759c-.667,1.564-1.215,2.759-1.215,2.759s-.991,6.5-1.158,6.67.224,9.819.224,9.819l.824.438,1-9.1,2.42-8.437s.167-4.135,3.035-3.416a2.248,2.248,0,0,1,2.039,1.491c.662,1.538-.829,11.352-.829,11.352l-.037,10.268.521,7.958,1.768-5.288s.662-7.723,5.59-8.015c0,0,1.465-.151,1.69.881s-.96,3.014-.96,5c0,1.392.078,2.972.115,3.786a3.009,3.009,0,0,1-.125,1.079c-.459,1.564-1.783,6.028-2.326,8.5-.662,3.009-6.3,12.067-6.3,12.067s-4.964,5.3-7.5,8.052c-1.278,1.392-3.593,7.342-5.575,12.906" transform="translate(-159.11 -294.7)" fill="none" stroke="#263238" stroke-width="1"/>
        <path id="Path_1011" data-name="Path 1011" d="M187.32,340.52a3.129,3.129,0,0,1-.74,2.972" transform="translate(-172.255 -316.41)" fill="#fff" stroke="#263238" stroke-width="1"/>
        <path id="Path_1012" data-name="Path 1012" d="M171.84,339.053a6.292,6.292,0,0,0,1.22-3.937c-.375-2.56-1.564-5.507-1.043-8.041.334-1.617.667-3.238,1.006-4.855" transform="translate(-165.202 -307.653)" fill="#fff" stroke="#263238" stroke-width="1"/>
        <path id="Path_1013" data-name="Path 1013" d="M211.71,307.45a5.116,5.116,0,0,1,2.607,0,6.839,6.839,0,0,1,.026-.73" transform="translate(-184.281 -300.236)" fill="none" stroke="#263238" stroke-width="1"/>
        <path id="Path_1014" data-name="Path 1014" d="M198.58,300.6a1.669,1.669,0,0,0,2.607-1.392" transform="translate(-177.998 -296.642)" fill="none" stroke="#263238" stroke-width="1"/>
        <path id="Path_1015" data-name="Path 1015" d="M232.517,336.59a3.2,3.2,0,0,0-2.394,3.3l1.278.386" transform="translate(-193.089 -314.53)" fill="none" stroke="#263238" stroke-width="1"/>
        <path id="Path_1016" data-name="Path 1016" d="M202.527,337.81c.057.876-.052,2.967,0,3.843" transform="translate(-179.879 -315.113)" fill="#fff" stroke="#263238" stroke-width="1"/>
        <path id="Path_1017" data-name="Path 1017" d="M204.088,340.14q-.156,2.143-.318,4.3v-.548" transform="translate(-180.481 -316.228)" fill="#fff" stroke="#263238" stroke-width="1"/>
        <path id="Path_1018" data-name="Path 1018" d="M219.19,363.31a7.165,7.165,0,0,1-.49,4.725" transform="translate(-187.625 -327.316)" fill="#fff" stroke="#263238" stroke-width="1"/>
        <path id="Path_1019" data-name="Path 1019" d="M193.546,348.9c-1.137,1.246-.97,4.24-.167,5.882" transform="translate(-175.201 -320.42)" fill="none" stroke="#263238" stroke-width="1"/>
        <path id="Path_1020" data-name="Path 1020" d="M209.122,352.85a5.856,5.856,0,0,1-1.392,3.822" transform="translate(-182.376 -322.31)" fill="none" stroke="#263238" stroke-width="1"/>
        <path id="Path_1021" data-name="Path 1021" d="M178.357,350a5.329,5.329,0,0,0,.777,3.65" transform="translate(-168.292 -320.947)" fill="none" stroke="#263238" stroke-width="1"/>
        <path id="Path_1022" data-name="Path 1022" d="M169.125,357.51a4.448,4.448,0,0,0,.8,2.785" transform="translate(-163.9 -324.54)" fill="none" stroke="#263238" stroke-width="1"/>
        <path id="Path_1023" data-name="Path 1023" d="M181.85,310.9a1.653,1.653,0,0,1,1.825.292l.641-.85" transform="translate(-169.992 -301.968)" fill="none" stroke="#263238" stroke-width="1"/>
        <path id="Path_1024" data-name="Path 1024" d="M192.11,318.473a2.169,2.169,0,0,1,2.759.464" transform="translate(-174.901 -305.715)" fill="none" stroke="#263238" stroke-width="1"/>
        <path id="Path_1025" data-name="Path 1025" d="M208.13,323.475a3.494,3.494,0,0,1,2.967.063" transform="translate(-182.567 -308.11)" fill="none" stroke="#263238" stroke-width="1"/>
        <path id="Path_1026" data-name="Path 1026" d="M172.48,330.88a2.821,2.821,0,0,1,2.733-1.356" transform="translate(-165.508 -311.14)" fill="none" stroke="#263238" stroke-width="1"/>
        <path id="Path_1027" data-name="Path 1027" d="M165.77,340.427a1.481,1.481,0,0,1,1.236-1.387" transform="translate(-162.297 -315.702)" fill="none" stroke="#263238" stroke-width="1"/>
      </g>
      <g id="freepik--Coffee--inject-2" transform="translate(214.947 173.889)">
        <circle id="Ellipse_6" data-name="Ellipse 6" cx="21.615" cy="21.615" r="21.615" transform="translate(0 6.456)" fill="#006e9f" stroke="#263238" stroke-linecap="round" stroke-linejoin="round" stroke-width="1"/>
        <path id="Path_1028" data-name="Path 1028" d="M439.027,211.418c-4.61,7.556-6.258,6.534-21.964,14.08-7.984,3.828-15.7-8.463-10.476-21.078.256-.615,2.508-3.729,2.508-3.729a11.514,11.514,0,0,1,20.118-4.756,12.432,12.432,0,0,1,11.045-2.639c.182.521.355,1.043.521,1.564.063.2.13.391.188.589.2.61.386,1.22.558,1.836q.521,1.752.96,3.525a7.066,7.066,0,0,0-5.131.308c-1.152.563-2.117,1.491-3.317,1.95s-2.858.2-3.317-1c.579,2.409,3.129,1.69,5.538,2.164C440.013,204.957,440.967,208.237,439.027,211.418Z" transform="translate(-392.945 -182.779)" opacity="0.2"/>
        <path id="Path_1029" data-name="Path 1029" d="M451.687,222.031a28.945,28.945,0,0,1,5.7-.245,3.52,3.52,0,0,1,2.248,1.272,1.237,1.237,0,0,1,.266.694l.209,3.025a1.236,1.236,0,0,1-.334.933c-.756.787-3.035,2.221-9.783,2.738C440.491,231.172,451.687,222.031,451.687,222.031Z" transform="translate(-412.702 -197.12)" fill="#fff" stroke="#263238" stroke-linecap="round" stroke-linejoin="round" stroke-width="1"/>
        <path id="Path_1030" data-name="Path 1030" d="M423.411,202.721a14.44,14.44,0,0,1,3.171,9.209c0,3.6-4.172,15.91-14.857,17.412-11.311,1.564-20.405-8.093-18.465-19.743C394.6,201.527,414.332,191.436,423.411,202.721Z" transform="translate(-387.257 -185.627)" fill="#fff" stroke="#263238" stroke-linecap="round" stroke-linejoin="round" stroke-width="1"/>
        <ellipse id="Ellipse_7" data-name="Ellipse 7" cx="16.411" cy="15.535" rx="16.411" ry="15.535" transform="translate(5.924 9.939)" fill="#fff"/>
        <ellipse id="Ellipse_8" data-name="Ellipse 8" cx="13.475" cy="12.75" rx="13.475" ry="12.75" transform="translate(8.829 13.537)" fill="#263238"/>
        <path id="Path_1031" data-name="Path 1031" d="M426.172,209.159c0-8.578-7.348-15.529-16.411-15.529S393.35,200.6,393.35,209.159" transform="translate(-387.426 -183.686)" fill="none" stroke="#263238" stroke-linecap="round" stroke-linejoin="round" stroke-width="1"/>
        <path id="Path_1032" data-name="Path 1032" d="M448,233.923a15.013,15.013,0,0,0,4.328-10.513" transform="translate(-413.578 -197.936)" fill="none" stroke="#263238" stroke-linecap="round" stroke-linejoin="round" stroke-width="1"/>
        <path id="Path_1033" data-name="Path 1033" d="M402.78,244.67a16.833,16.833,0,0,0,11.472,4.448,17.13,17.13,0,0,0,7.619-1.768" transform="translate(-391.939 -208.11)" fill="none" stroke="#263238" stroke-linecap="round" stroke-linejoin="round" stroke-width="1"/>
        <path id="Path_1034" data-name="Path 1034" d="M398.24,239.36c.214.323.443.636.678.939" transform="translate(-389.766 -205.569)" fill="none" stroke="#263238" stroke-linecap="round" stroke-linejoin="round" stroke-width="1"/>
        <path id="Path_1035" data-name="Path 1035" d="M393.35,223.41a14.8,14.8,0,0,0,1.564,6.628" transform="translate(-387.426 -197.936)" fill="none" stroke="#263238" stroke-linecap="round" stroke-linejoin="round" stroke-width="1"/>
        <path id="Path_1036" data-name="Path 1036" d="M463.956,230.679s-2.925-2.049-7.676-.193" transform="translate(-417.54 -200.95)" fill="#fff" stroke="#263238" stroke-linecap="round" stroke-linejoin="round" stroke-width="1"/>
        <path id="Path_1037" data-name="Path 1037" d="M460.61,234.29a29.778,29.778,0,0,1-6.07.954" transform="translate(-416.707 -203.142)" fill="#fff" stroke="#263238" stroke-linecap="round" stroke-linejoin="round" stroke-width="1"/>
        <path id="Path_1038" data-name="Path 1038" d="M468.42,233.05a2.837,2.837,0,0,1-.73.381" transform="translate(-423 -202.549)" fill="#fff" stroke="#263238" stroke-linecap="round" stroke-linejoin="round" stroke-width="1"/>
      </g>
      <g id="freepik--Monitor--inject-2" transform="translate(62.304 51.953)">
        <path id="Path_1040" data-name="Path 1040" d="M278.6,83.438a66.227,66.227,0,0,1-10.377,7.3c-18.987,11.232-40.435,17.959-62.253,21.24s-44.033,3.181-66.018,1.371c-4.318-.355-8.709-.793-12.677-2.534a14.858,14.858,0,0,1-7.822-7.389c4.761-5.423,9.188-10.909,14.116-16.087q1.763-1.851,3.609-3.65c1.043-1,2.086-1.976,3.2-2.936,1.262-1.079,2.529-2.18,3.869-3.223,1.851-1.439,3.8-2.821,5.887-4.14.521-.329,1.043-.647,1.528-.96,52-32.331,90.267-21.766,115.8,0q2.9,2.493,5.59,5.1c1.085,1.043,2.133,2.133,3.129,3.228.115.115.219.235.329.36Q277.586,82.28,278.6,83.438Z" transform="translate(-105.714 -51.953)" opacity="0.2"/>
        <path id="Path_1041" data-name="Path 1041" d="M268.048,96.681l-174.938.8,2.644-3.968a6.868,6.868,0,0,1,5.7-3.051h158.3a6.852,6.852,0,0,1,5.34,2.56Z" transform="translate(-93.11 -70.38)" fill="#fff" stroke="#263238" stroke-linecap="round" stroke-linejoin="round" stroke-width="1"/>
        <rect id="Rectangle_118" data-name="Rectangle 118" width="45.201" height="45.201" rx="22.601" transform="translate(63.124 52.521)" fill="#757575" stroke="#263238" stroke-linecap="round" stroke-linejoin="round" stroke-width="1"/>
        <path id="Path_1042" data-name="Path 1042" d="M229.91,203.34v6.425a3.65,3.65,0,0,0,3.65,3.65H255.6a3.65,3.65,0,0,0,3.65-3.624c.026-2.894.182-6.451.182-6.451Z" transform="translate(-158.573 -124.396)" fill="#999" stroke="#263238" stroke-linecap="round" stroke-linejoin="round" stroke-width="1"/>
        <path id="Path_1043" data-name="Path 1043" d="M245.125,156.147H116.212a3.3,3.3,0,0,1-3.077-2.086L93.252,103.014a2.034,2.034,0,0,1,1.888-2.774H266.182a2.034,2.034,0,0,1,1.9,2.774L248.2,154.045A3.3,3.3,0,0,1,245.125,156.147Z" transform="translate(-93.111 -75.06)" fill="#bfbfbf" stroke="#263238" stroke-linecap="round" stroke-linejoin="round" stroke-width="1"/>
        <path id="Path_1044" data-name="Path 1044" d="M249.558,154.671H118.423L100.38,106.44H267.517Z" transform="translate(-96.589 -78.027)" fill="#263238"/>
        <rect id="Rectangle_119" data-name="Rectangle 119" width="29.234" height="2.002" transform="translate(71.478 81.019)" fill="#263238"/>
        <path id="Path_1045" data-name="Path 1045" d="M251.633,155.32h-92.6c-.521,0-.991-.229-1.085-.521L144.773,112.93c-.146-.469.266-.85.923-.85H264.967c.657,0,1.043.381.918.85L252.718,154.8A1.207,1.207,0,0,1,251.633,155.32Z" transform="translate(-117.818 -80.726)" fill="#afe6ff"/>
        <path id="Path_1046" data-name="Path 1046" d="M254.441,159.389H162.526l-11.2-36.769H265.637Z" transform="translate(-120.97 -85.769)" fill="#263238"/>
        <path id="Path_1047" data-name="Path 1047" d="M181.539,140.13h-17.4c-.433,0-.714.229-.631.521a.944.944,0,0,0,.918.521h17.3c.428,0,.73-.229.683-.521S181.967,140.13,181.539,140.13Z" transform="translate(-126.79 -94.148)" fill="#fff"/>
        <path id="Path_1048" data-name="Path 1048" d="M185.043,146.22h-14.8c-.422,0-.7.224-.626.521a.923.923,0,0,0,.892.5h14.716c.422,0,.72-.224.673-.5S185.455,146.22,185.043,146.22Z" transform="translate(-129.715 -97.063)" fill="#fff"/>
        <path id="Path_1049" data-name="Path 1049" d="M184.306,152.1H167.514c-.417,0-.688.219-.615.48a.918.918,0,0,0,.886.48h16.687c.412,0,.709-.214.662-.48S184.723,152.1,184.306,152.1Z" transform="translate(-128.414 -99.876)" fill="#fff" opacity="0.5"/>
        <path id="Path_1050" data-name="Path 1050" d="M191.7,157.78h-9.861c-.407,0-.688.209-.626.464s.443.464.85.464h9.809c.407,0,.7-.209.652-.464S192.106,157.78,191.7,157.78Z" transform="translate(-135.265 -102.594)" fill="#fff"/>
        <path id="Path_1051" data-name="Path 1051" d="M186.892,163.26H170.664c-.4,0-.667.2-.594.454a.877.877,0,0,0,.85.443h16.134c.4,0,.688-.2.647-.443S187.293,163.26,186.892,163.26Z" transform="translate(-129.931 -105.217)" fill="#fff"/>
        <path id="Path_1052" data-name="Path 1052" d="M190.731,168.57h-13.1c-.4,0-.662.193-.6.433s.433.433.824.433h13.037c.391,0,.673-.193.631-.433S191.127,168.57,190.731,168.57Z" transform="translate(-133.264 -107.758)" fill="#fff"/>
        <path id="Path_1053" data-name="Path 1053" d="M191.876,173.7H178.991c-.391,0-.652.188-.589.417s.422.422.808.422h12.823c.386,0,.662-.188.621-.422S192.267,173.7,191.876,173.7Z" transform="translate(-133.92 -110.213)" fill="#fff"/>
        <path id="Path_1054" data-name="Path 1054" d="M191.7,178.66H177.62c-.381,0-.641.183-.579.407s.417.407.8.407H191.83c.381,0,.657-.183.615-.407S192.086,178.66,191.7,178.66Z" transform="translate(-133.269 -112.586)" fill="#fff"/>
        <path id="Path_1055" data-name="Path 1055" d="M197.172,183.47h-9.084c-.375,0-.636.177-.584.4s.4.391.772.391h9.037c.375,0,.647-.177.61-.391S197.547,183.47,197.172,183.47Z" transform="translate(-138.277 -114.888)" fill="#fff" opacity="0.5"/>
        <path id="Path_1056" data-name="Path 1056" d="M184.429,133.806H171.46c-.438,0-.73.24-.652.521a.939.939,0,0,0,.923.521h12.891c.438,0,.746-.235.694-.521A.866.866,0,0,0,184.429,133.806Z" transform="translate(-130.285 -91.12)" fill="#fff" opacity="0.5"/>
        <path id="Path_1057" data-name="Path 1057" d="M178.555,127.256H160.5c-.443,0-.735.25-.647.558a1,1,0,0,0,.96.553h17.944c.443,0,.761-.25.7-.553A.881.881,0,0,0,178.555,127.256Z" transform="translate(-125.042 -87.986)" fill="#fff"/>
        <path id="Path_1058" data-name="Path 1058" d="M192.647,188.13H177.686c-.37,0-.621.172-.563.381s.407.381.777.381h14.888c.365,0,.636-.167.6-.381S193.017,188.13,192.647,188.13Z" transform="translate(-133.308 -117.118)" fill="#fff"/>
        <path id="Path_1059" data-name="Path 1059" d="M209.643,141.168h3.374l-.167-1.288h-3.4Z" transform="translate(-148.782 -94.029)" fill="#fff" opacity="0.5"/>
        <path id="Path_1060" data-name="Path 1060" d="M210.548,147.226h3.317l-.162-1.246H210.36Z" transform="translate(-149.217 -96.948)" fill="#fff" opacity="0.5"/>
        <path id="Path_1061" data-name="Path 1061" d="M211.427,153.069h3.259l-.156-1.2h-3.28Z" transform="translate(-149.643 -99.766)" fill="#fff" opacity="0.5"/>
        <path id="Path_1062" data-name="Path 1062" d="M212.272,158.718h3.207l-.156-1.158H212.1Z" transform="translate(-150.05 -102.489)" fill="#fff" opacity="0.5"/>
        <path id="Path_1063" data-name="Path 1063" d="M213.1,164.171h3.15l-.151-1.121H212.93Z" transform="translate(-150.447 -105.116)" fill="#fff" opacity="0.5"/>
        <path id="Path_1064" data-name="Path 1064" d="M213.882,169.445h3.1l-.141-1.085H213.72Z" transform="translate(-150.825 -107.657)" fill="#fff" opacity="0.5"/>
        <path id="Path_1065" data-name="Path 1065" d="M214.656,174.548H217.7l-.136-1.048H214.5Z" transform="translate(-151.199 -110.117)" fill="#fff" opacity="0.5"/>
        <path id="Path_1066" data-name="Path 1066" d="M215.391,179.482h3l-.13-1.012H215.24Z" transform="translate(-151.553 -112.495)" fill="#fff" opacity="0.5"/>
        <path id="Path_1067" data-name="Path 1067" d="M216.111,184.266h2.952l-.13-.986H215.96Z" transform="translate(-151.897 -114.797)" fill="#fff" opacity="0.5"/>
        <path id="Path_1068" data-name="Path 1068" d="M208.7,134.895h3.437l-.172-1.335H208.5Z" transform="translate(-148.327 -91.004)" fill="#fff" opacity="0.5"/>
        <path id="Path_1069" data-name="Path 1069" d="M207.719,128.377h3.5l-.177-1.387h-3.53Z" transform="translate(-147.854 -87.86)" fill="#fff" opacity="0.5"/>
        <path id="Path_1070" data-name="Path 1070" d="M216.806,188.9h2.9l-.125-.954H216.66Z" transform="translate(-152.232 -117.032)" fill="#fff" opacity="0.5"/>
        <path id="Path_1071" data-name="Path 1071" d="M251.05,179.067c0-.224.292-.407.673-.407H301.69c.381,0,.636.183.574.407a.845.845,0,0,1-.8.407H251.749C251.368,179.474,251.055,179.291,251.05,179.067Z" transform="translate(-168.689 -112.586)" fill="#fff"/>
        <path id="Path_1072" data-name="Path 1072" d="M323.14,174.54H295.47c-.386,0-.678-.188-.652-.422s.36-.417.751-.417h27.81c.386,0,.647.188.579.417a.85.85,0,0,1-.819.422Z" transform="translate(-189.632 -110.213)" fill="#fff"/>
        <path id="Path_1073" data-name="Path 1073" d="M274.957,174.54h-8.594c-.386,0-.7-.188-.694-.422s.318-.417.709-.417h8.641c.386,0,.688.188.667.417S275.343,174.54,274.957,174.54Z" transform="translate(-175.685 -110.213)" fill="#fff" opacity="0.5"/>
        <path id="Path_1074" data-name="Path 1074" d="M281.432,169.436H242.4c-.391,0-.72-.193-.735-.433s.292-.433.688-.433h39.236c.391,0,.678.193.631.433S281.828,169.436,281.432,169.436Z" transform="translate(-164.2 -107.758)" fill="#fff"/>
        <path id="Path_1075" data-name="Path 1075" d="M226.821,168.57h2.785c.391,0,.73.193.751.433s-.282.433-.673.433h-2.769c-.391,0-.73-.193-.756-.433S226.43,168.57,226.821,168.57Z" transform="translate(-156.777 -107.758)" fill="#fff" opacity="0.5"/>
        <path id="Path_1076" data-name="Path 1076" d="M293.583,163.714c-.052.245-.417.443-.819.443H255.99c-.4,0-.725-.2-.73-.443s.318-.454.714-.454h36.978C293.353,163.26,293.635,163.463,293.583,163.714Z" transform="translate(-170.703 -105.217)" fill="#fff"/>
        <path id="Path_1077" data-name="Path 1077" d="M226.246,163.26h10.429c.4,0,.735.2.746.454s-.308.443-.7.443H226.34c-.4,0-.74-.2-.772-.443S225.844,163.26,226.246,163.26Z" transform="translate(-156.494 -105.217)" fill="#fff"/>
        <path id="Path_1078" data-name="Path 1078" d="M225.652,157.78h40.122c.407,0,.709.209.673.464s-.391.464-.8.464h-39.9c-.4,0-.756-.209-.782-.464S225.245,157.78,225.652,157.78Z" transform="translate(-156.207 -102.594)" fill="#fff"/>
        <path id="Path_1079" data-name="Path 1079" d="M275.565,153.06c-.412,0-.735-.214-.725-.48s.355-.48.772-.48h21.167c.417,0,.714.219.667.48s-.417.48-.829.48Z" transform="translate(-180.073 -99.876)" fill="#fff"/>
        <path id="Path_1080" data-name="Path 1080" d="M225.037,152.1h18.319c.417,0,.751.219.751.48s-.339.48-.751.48H225.141c-.417,0-.772-.214-.8-.48S224.62,152.1,225.037,152.1Z" transform="translate(-155.905 -99.876)" fill="#fff"/>
        <path id="Path_1081" data-name="Path 1081" d="M309.953,147.2H259.521c-.417,0-.761-.224-.761-.5s.339-.521.761-.521h50.713c.422,0,.7.224.621.521a.944.944,0,0,1-.9.5Z" transform="translate(-172.378 -97.043)" fill="#fff"/>
        <path id="Path_1082" data-name="Path 1082" d="M317.238,141.153H272.866c-.428,0-.767-.229-.756-.521s.365-.521.793-.521h44.633c.428,0,.709.229.626.521a.954.954,0,0,1-.923.521Z" transform="translate(-178.766 -94.139)" fill="#fff"/>
        <path id="Path_1083" data-name="Path 1083" d="M351.3,134.9h-9.293c-.438,0-.735-.235-.667-.521a.923.923,0,0,1,.918-.521h9.329c.438,0,.725.24.636.521a.97.97,0,0,1-.923.521Z" transform="translate(-211.891 -91.144)" fill="#fff" opacity="0.5"/>
        <path id="Path_1084" data-name="Path 1084" d="M298.132,134.9h-34.12c-.433,0-.787-.235-.782-.521s.355-.521.793-.521h34.323c.438,0,.74.24.683.521A.892.892,0,0,1,298.132,134.9Z" transform="translate(-174.517 -91.148)" fill="#fff"/>
        <path id="Path_1085" data-name="Path 1085" d="M228.424,183.47h31.513c.375,0,.662.177.636.4s-.339.391-.714.391H228.523c-.375,0-.7-.177-.725-.391S228.059,183.47,228.424,183.47Z" transform="translate(-157.561 -114.888)" fill="#fff"/>
        <path id="Path_1086" data-name="Path 1086" d="M228.945,188.13h48.413c.365,0,.631.172.584.381s-.375.381-.746.381H229.028c-.37,0-.688-.167-.709-.381S228.575,188.13,228.945,188.13Z" transform="translate(-157.811 -117.118)" fill="#fff"/>
        <path id="Path_1087" data-name="Path 1087" d="M303.586,128.371H278.941c-.443,0-.787-.25-.772-.553s.386-.558.834-.558h24.791c.448,0,.761.25.7.558A.907.907,0,0,1,303.586,128.371Z" transform="translate(-181.666 -87.99)" fill="#fff"/>
        <path id="Path_1088" data-name="Path 1088" d="M244.877,128.371H222.454c-.443,0-.834-.25-.866-.553s.3-.558.746-.558h22.554c.443,0,.8.25.8.558S245.32,128.371,244.877,128.371Z" transform="translate(-154.589 -87.99)" fill="#fff" opacity="0.5"/>
        <path id="Path_1089" data-name="Path 1089" d="M299.953,183.47c.375,0,.657.177.626.4s-.36.391-.735.391h-2.42c-.37,0-.652-.177-.626-.391s.349-.4.725-.4Z" transform="translate(-190.58 -114.888)" fill="#fff" opacity="0.5"/>
        <path id="Path_1090" data-name="Path 1090" d="M241.223,179.067c0,.224-.287.407-.667.407h-3.317c-.381,0-.7-.183-.72-.407s.276-.407.657-.407h3.332C240.889,178.66,241.213,178.837,241.223,179.067Z" transform="translate(-161.735 -112.586)" fill="#fff" opacity="0.5"/>
        <path id="Path_1091" data-name="Path 1091" d="M317.368,158.244c-.047.256-.417.464-.819.464h-3.88c-.407,0-.7-.209-.662-.464s.407-.464.814-.464h3.9C317.128,157.78,317.42,157.989,317.368,158.244Z" transform="translate(-197.857 -102.594)" fill="#fff" opacity="0.5"/>
        <path id="Path_1092" data-name="Path 1092" d="M341.875,163.256c.4,0,.673.2.6.454a.866.866,0,0,1-.84.443h-3.092c-.4,0-.673-.2-.615-.443a.845.845,0,0,1,.834-.454Z" transform="translate(-210.261 -105.213)" fill="#fff" opacity="0.5"/>
        <path id="Path_1093" data-name="Path 1093" d="M247.792,147.2c-.417,0-.767-.224-.782-.5s.323-.521.746-.521h3.29c.422,0,.767.224.772.521s-.334.5-.751.5Z" transform="translate(-166.755 -97.043)" fill="#fff" opacity="0.5"/>
        <path id="Path_1094" data-name="Path 1094" d="M159.59,115.9a1.111,1.111,0,0,1-1.1,1.564,2.315,2.315,0,0,1-2.055-1.564,1.111,1.111,0,0,1,1.085-1.564A2.3,2.3,0,0,1,159.59,115.9Z" transform="translate(-123.368 -81.805)" fill="#fff"/>
        <path id="Path_1095" data-name="Path 1095" d="M167.749,115.953a1.147,1.147,0,0,1-1.147,1.564,2.227,2.227,0,0,1-2-1.564,1.152,1.152,0,0,1,1.137-1.564A2.211,2.211,0,0,1,167.749,115.953Z" transform="translate(-127.283 -81.83)" fill="#fff"/>
        <path id="Path_1096" data-name="Path 1096" d="M175.993,115.9a1.184,1.184,0,0,1-1.194,1.564,2.133,2.133,0,0,1-1.956-1.564,1.189,1.189,0,0,1,1.189-1.564A2.117,2.117,0,0,1,175.993,115.9Z" transform="translate(-131.235 -81.806)" fill="#fff"/>
        <path id="Path_1097" data-name="Path 1097" d="M100.38,106.44,114.434,144l16.953-37.562Z" transform="translate(-96.589 -78.027)" fill="#fff" opacity="0.1"/>
        <path id="Path_1098" data-name="Path 1098" d="M145.85,154.671l28.123-48.231H203.41l-41.389,48.231Z" transform="translate(-118.348 -78.027)" fill="#fff" opacity="0.1"/>
        <path id="Path_1099" data-name="Path 1099" d="M240.335,105.98,196.5,154.451h6.753l45.4-48.231Z" transform="translate(-142.585 -77.807)" fill="#fff" opacity="0.1"/>
        <path id="Path_1100" data-name="Path 1100" d="M297.16,154.671l48.174-48.231h6.8l-49.67,48.231Z" transform="translate(-190.754 -78.027)" fill="#fff" opacity="0.1"/>
      </g>
      <g id="freepik--speech-bubbles--inject-2" transform="translate(69.672 141.702)">
        <path id="Path_1101" data-name="Path 1101" d="M159.415,239.07h-11a2.607,2.607,0,0,0-2.607,2.607v5.35a2.607,2.607,0,0,0,2.607,2.607h2.873l2.18,4.938,3.071-4.938h2.873a2.607,2.607,0,0,0,2.607-2.607v-5.387a2.607,2.607,0,0,0-2.607-2.571Z" transform="translate(-125.697 -231.243)" fill="#fff" stroke="#263238" stroke-linecap="round" stroke-linejoin="round" stroke-width="1"/>
        <path id="Path_1102" data-name="Path 1102" d="M158.42,244.461a.522.522,0,1,1,.521.485A.521.521,0,0,1,158.42,244.461Zm.115,1.09h.84v3.577h-.84Z" transform="translate(-131.731 -233.573)" fill="#263238"/>
        <path id="Path_1103" data-name="Path 1103" d="M162.833,245.515v.214h.98v.673h-.954v2.879h-.84V246.4h-.589v-.673h.589v-.224a1.158,1.158,0,0,1,1.278-1.241,1.376,1.376,0,0,1,.761.193l-.235.631a.829.829,0,0,0-.464-.146C163.015,244.942,162.833,245.135,162.833,245.515Z" transform="translate(-133.171 -233.725)" fill="#263238"/>
        <path id="Path_1104" data-name="Path 1104" d="M223.621,240.5H212.607A2.607,2.607,0,0,0,210,243.107v5.356a2.607,2.607,0,0,0,2.607,2.607h2.879l2.175,4.938,3.071-4.938h2.879a2.607,2.607,0,0,0,2.607-2.607v-5.376A2.607,2.607,0,0,0,223.621,240.5Z" transform="translate(-156.414 -231.927)" fill="#fff" stroke="#263238" stroke-linecap="round" stroke-linejoin="round" stroke-width="1"/>
        <path id="Path_1105" data-name="Path 1105" d="M216.114,250.49H213.3a1.085,1.085,0,0,0,1.163.86,1.283,1.283,0,0,0,.97-.391l.448.521a2.008,2.008,0,0,1-3.416-1.252,1.778,1.778,0,0,1,1.846-1.83,1.742,1.742,0,0,1,1.81,1.851C216.125,250.312,216.12,250.412,216.114,250.49Zm-2.816-.553h2.055a.97.97,0,0,0-1.012-.871A.986.986,0,0,0,213.3,249.937Z" transform="translate(-157.595 -235.706)" fill="#263238"/>
        <path id="Path_1106" data-name="Path 1106" d="M221,245.8h.834v4.97H221Z" transform="translate(-161.677 -234.463)" fill="#263238"/>
        <path id="Path_1107" data-name="Path 1107" d="M224,251.654l.318-.636a2.409,2.409,0,0,0,1.246.355c.521,0,.751-.146.751-.4,0-.683-2.211-.042-2.211-1.465,0-.678.61-1.121,1.564-1.121a2.873,2.873,0,0,1,1.34.308l-.323.636a1.971,1.971,0,0,0-1.043-.266c-.521,0-.751.167-.751.4,0,.725,2.211.078,2.211,1.481,0,.667-.615,1.106-1.622,1.106A2.816,2.816,0,0,1,224,251.654Z" transform="translate(-163.113 -235.702)" fill="#263238"/>
        <path id="Path_1108" data-name="Path 1108" d="M234.424,250.49h-2.811a1.085,1.085,0,0,0,1.163.86,1.283,1.283,0,0,0,.97-.391l.448.521a2.008,2.008,0,0,1-3.416-1.252,1.778,1.778,0,0,1,1.846-1.83,1.742,1.742,0,0,1,1.81,1.851C234.435,250.312,234.43,250.412,234.424,250.49Zm-2.816-.553h2.029a.97.97,0,0,0-1.012-.871A.986.986,0,0,0,231.608,249.937Z" transform="translate(-166.357 -235.706)" fill="#263238"/>
        <path id="Path_1109" data-name="Path 1109" d="M285.89,239.9h-11a2.607,2.607,0,0,0-2.607,2.581v5.355a2.607,2.607,0,0,0,2.607,2.607h2.879l2.175,4.938,3.071-4.938h2.879a2.607,2.607,0,0,0,2.607-2.607v-5.356a2.607,2.607,0,0,0-2.607-2.581Z" transform="translate(-186.216 -231.64)" fill="#fff" stroke="#263238" stroke-linecap="round" stroke-linejoin="round" stroke-width="1"/>
        <path id="Path_1110" data-name="Path 1110" d="M280.833,246.346v.214h.98v.673h-.959v2.879h-.834v-2.879h-.589v-.673h.589v-.224a1.158,1.158,0,0,1,1.272-1.241,1.324,1.324,0,0,1,.756.193l-.235.631a.8.8,0,0,0-.459-.146C281.015,245.772,280.833,245.965,280.833,246.346Z" transform="translate(-189.638 -234.123)" fill="#263238"/>
        <path id="Path_1111" data-name="Path 1111" d="M284.419,249.472a1.909,1.909,0,1,1,1.9,1.836,1.8,1.8,0,0,1-1.9-1.836Zm2.967,0a1.043,1.043,0,1,0-.276.789A1.043,1.043,0,0,0,287.386,249.472Z" transform="translate(-192.024 -235.272)" fill="#263238"/>
        <path id="Path_1112" data-name="Path 1112" d="M295.326,247.775v.8a1.352,1.352,0,0,0-.193,0,.975.975,0,0,0-1.043,1.106v1.737h-.84v-3.577h.8v.521a1.413,1.413,0,0,1,1.278-.584Z" transform="translate(-196.251 -235.405)" fill="#263238"/>
        <path id="Path_1113" data-name="Path 1113" d="M347.25,239.07h-11a2.607,2.607,0,0,0-2.607,2.607v5.35a2.607,2.607,0,0,0,2.607,2.607h2.878l2.175,4.938,3.071-4.938h2.879a2.607,2.607,0,0,0,2.607-2.607v-5.387A2.607,2.607,0,0,0,347.25,239.07Z" transform="translate(-215.579 -231.243)" fill="#fff" stroke="#263238" stroke-linecap="round" stroke-linejoin="round" stroke-width="1"/>
        <path id="Path_1114" data-name="Path 1114" d="M346.45,246.69h3.087v.683H346.45Zm0,1.622h3.087v.673H346.45Z" transform="translate(-221.709 -234.889)" fill="#263238"/>
        <path id="Path_1115" data-name="Path 1115" d="M191.59,227.19H180.607A2.607,2.607,0,0,0,178,229.8v5.35a2.607,2.607,0,0,0,2.607,2.607h2.879l2.175,4.938,3.071-4.938h2.879a2.607,2.607,0,0,0,2.607-2.607v-5.371a2.607,2.607,0,0,0-2.628-2.587Z" transform="translate(-141.101 -225.558)" fill="#fff" stroke="#263238" stroke-linecap="round" stroke-linejoin="round" stroke-width="1"/>
        <path id="Path_1116" data-name="Path 1116" d="M188.55,231.45h1.6v.673h-.767v4.928h.767v.673h-1.6Z" transform="translate(-146.149 -227.596)" fill="#263238"/>
        <path id="Path_1117" data-name="Path 1117" d="M195.6,237.723v-.673h.756v-4.928H195.6v-.673h1.59v6.258Z" transform="translate(-149.523 -227.596)" fill="#263238"/>
        <path id="Path_1118" data-name="Path 1118" d="M254.29,226.14h-11a2.607,2.607,0,0,0-2.607,2.607v5.35a2.607,2.607,0,0,0,2.607,2.607h2.879l2.18,4.938,3.071-4.938h2.873A2.607,2.607,0,0,0,256.9,234.1v-5.371A2.607,2.607,0,0,0,254.29,226.14Z" transform="translate(-171.095 -225.055)" fill="#fff" stroke="#263238" stroke-linecap="round" stroke-linejoin="round" stroke-width="1"/>
        <path id="Path_1119" data-name="Path 1119" d="M251.079,233.5c.266.083.4.266.4.683v1.272a.448.448,0,0,0,.521.521h.141v.673H251.8a1,1,0,0,1-1.137-1.1v-1.377c0-.224-.115-.323-.3-.323h-.219v-.683h.219c.188,0,.3-.1.3-.323v-1.377a1,1,0,0,1,1.137-1.1h.339v.673H252a.448.448,0,0,0-.521.521v1.272C251.475,233.232,251.345,233.415,251.079,233.5Z" transform="translate(-175.622 -227.079)" fill="#263238"/>
        <path id="Path_1120" data-name="Path 1120" d="M259.9,233.116v.667h-.229c-.182,0-.3.1-.3.323v1.377a1,1,0,0,1-1.142,1.1h-.339v-.657h.141a.454.454,0,0,0,.521-.521v-1.272c0-.417.12-.6.386-.683-.266-.089-.386-.271-.386-.688v-1.272a.454.454,0,0,0-.521-.521h-.141v-.673h.339a1,1,0,0,1,1.142,1.1v1.377c0,.224.115.323.3.323Z" transform="translate(-179.33 -227.035)" fill="#263238"/>
        <path id="Path_1121" data-name="Path 1121" d="M316.35,224.06h-11a2.607,2.607,0,0,0-2.607,2.607v5.35a2.607,2.607,0,0,0,2.607,2.607h2.873l2.18,4.938,3.072-4.938h2.878a2.607,2.607,0,0,0,2.607-2.607v-5.382A2.607,2.607,0,0,0,316.35,224.06Z" transform="translate(-200.792 -224.06)" fill="#fff" stroke="#263238" stroke-linecap="round" stroke-linejoin="round" stroke-width="1"/>
        <path id="Path_1122" data-name="Path 1122" d="M317.448,231.1a.553.553,0,1,1,.258.523A.553.553,0,0,1,317.448,231.1Zm1.1,2.55a1.565,1.565,0,0,1-.156.579l-.344.944h-.521l.271-1.043a.522.522,0,0,1-.318-.5.545.545,0,1,1,1.09,0Z" transform="translate(-207.829 -227.14)" fill="#263238"/>
        <path id="Path_1123" data-name="Path 1123" d="M243.967,389.293h11a2.607,2.607,0,0,0,2.607-2.607v-5.329a2.607,2.607,0,0,0-2.607-2.607h-2.873l-.84-4.938-4.412,4.938h-2.873a2.607,2.607,0,0,0-2.607,2.607v5.35A2.607,2.607,0,0,0,243.967,389.293Z" transform="translate(-171.42 -295.72)" fill="#fff" stroke="#263238" stroke-linecap="round" stroke-linejoin="round" stroke-width="1"/>
        <path id="Path_1124" data-name="Path 1124" d="M250.937,390.683l-2.31.887,2.31.86v.7l-3.087-1.2v-.725l3.087-1.2Z" transform="translate(-174.526 -303.472)" fill="#263238"/>
        <path id="Path_1125" data-name="Path 1125" d="M256.421,386.63h.746l-2.211,6.315h-.746Z" transform="translate(-177.569 -301.854)" fill="#263238"/>
        <path id="Path_1126" data-name="Path 1126" d="M263.277,391.179v.725l-3.087,1.2v-.7l2.31-.86-2.31-.866V390Z" transform="translate(-180.431 -303.467)" fill="#263238"/>
        <path id="Path_1127" data-name="Path 1127" d="M109.847,314.543h11a2.607,2.607,0,0,0,2.607-2.581v-5.355A2.607,2.607,0,0,0,120.845,304h-2.873l.626-4.938L112.721,304h-2.873a2.607,2.607,0,0,0-2.607,2.607v5.355A2.607,2.607,0,0,0,109.847,314.543Z" transform="translate(-107.24 -259.95)" fill="#fff" stroke="#263238" stroke-linecap="round" stroke-linejoin="round" stroke-width="1"/>
        <path id="Path_1128" data-name="Path 1128" d="M118.49,318.379a.521.521,0,1,1,.521.521A.521.521,0,0,1,118.49,318.379Zm.047-4.219h.991l-.167,3.129H118.7Z" transform="translate(-112.623 -267.175)" fill="#263238"/>
        <path id="Path_1129" data-name="Path 1129" d="M122.14,316.46h3.087v.673H122.14Zm0,1.622h3.087v.673H122.14Z" transform="translate(-114.37 -268.276)" fill="#263238"/>
      </g>
    </g>
  </g>
</svg>
