<svg xmlns="http://www.w3.org/2000/svg" width="35.579" height="31.155" viewBox="0 0 35.579 31.155">
  <path id="lamp-light-svgrepo-com" d="M4.37,3.537a1.833,1.833,0,0,0,0,2.592L6.2,7.961A1.833,1.833,0,0,0,8.794,5.369L6.961,3.537A1.833,1.833,0,0,0,4.37,3.537Zm29.322,0a1.833,1.833,0,0,1,2.592,2.592L34.451,7.961a1.833,1.833,0,1,1-2.592-2.592ZM34.451,23.7l1.833,1.833a1.833,1.833,0,0,1-2.592,2.592l-1.833-1.833A1.833,1.833,0,1,1,34.451,23.7ZM4.37,28.12a1.833,1.833,0,0,1,0-2.592L6.2,23.7a1.833,1.833,0,1,1,2.592,2.592L6.961,28.12A1.833,1.833,0,0,1,4.37,28.12ZM35.746,17.661a1.833,1.833,0,0,0,0-3.665h-.759a1.833,1.833,0,1,0,0,3.665ZM2,16.208a1.833,1.833,0,0,0,1.833,1.832h.759a1.833,1.833,0,0,0,0-3.665H3.833A1.833,1.833,0,0,0,2,16.208Zm24.624,8.635a11,11,0,1,0-12.6,0,4.583,4.583,0,0,0,2.635,7.388q0,.045,0,.091a1.833,1.833,0,0,0,1.833,1.833h3.665a1.833,1.833,0,0,0,1.833-1.833q0-.046,0-.091a4.582,4.582,0,0,0,2.635-7.388Zm-6.3-1.684A7.331,7.331,0,1,0,13,15.828,7.331,7.331,0,0,0,20.326,23.159Zm0,3.665H17.577a.916.916,0,0,0-.916.916c0,.506.41,2.524.916,2.524h5.5c.506,0,.916-2.018.916-2.524a.916.916,0,0,0-.916-.916H20.326Z" transform="translate(-2 -3)" fill="#707070" fill-rule="evenodd"/>
</svg>
