<svg xmlns="http://www.w3.org/2000/svg" width="286.876" height="259.376" viewBox="0 0 286.876 259.376">
  <g id="college_project-amico" data-name="college project-amico" transform="translate(-11.728 -49.5)">
    <g id="freepik--Floor--inject-2" transform="translate(11.728 143.248)">
      <path id="freepik--floor--inject-2-2" data-name="freepik--floor--inject-2" d="M53.728,229.492c-56.019,32.344-55.983,84.781,0,117.118s146.837,32.344,202.862,0,56.013-84.775,0-117.118S109.747,197.154,53.728,229.492Z" transform="translate(-11.728 -205.236)" fill="#efefef"/>
    </g>
    <g id="freepik--Shadows--inject-2" transform="translate(39.251 155.631)">
      <path id="freepik--Shadow--inject-2" d="M361.624,277.223l-22.273,12.87a6.355,6.355,0,0,1-5.719-.241l-81.957-47.308c-1.691-.975-1.872-2.456-.409-3.3l22.273-12.87a6.374,6.374,0,0,1,5.719.241L361.2,273.924C362.907,274.9,363.087,276.38,361.624,277.223Z" transform="translate(-134.202 -225.807)" fill="#e0e0e0"/>
      <path id="freepik--shadow--inject-2-2" data-name="freepik--shadow--inject-2" d="M160.837,351.938,85.8,308.6c-1.932-1.12-1.932-2.926,0-4.039L186.33,246.528a7.741,7.741,0,0,1,6.995,0l75.029,43.341c1.932,1.114,1.932,2.92,0,4.039l-100.54,58.029a7.741,7.741,0,0,1-6.977,0Z" transform="translate(-68.158 -233.722)" fill="#e0e0e0"/>
      <path id="freepik--shadow--inject-2-3" data-name="freepik--shadow--inject-2" d="M156.012,430.65c-.379,1.035-1.481,1.673-3.323,1.92l-30.1-17.589-3.407-3.455a.265.265,0,0,1,.271-.433l6.272,2.077Z" transform="translate(-81.994 -299.553)" fill="#e0e0e0"/>
      <path id="freepik--shadow--inject-2-4" data-name="freepik--shadow--inject-2" d="M135.75,406.726l34.5,19.949,5.327,1.084a.163.163,0,0,0,.175-.241l-1.667-3.058-34.5-19.955C138.531,403.9,134.925,406.251,135.75,406.726Z" transform="translate(-88.568 -296.896)" fill="#e0e0e0"/>
      <path id="freepik--shadow--inject-2-5" data-name="freepik--shadow--inject-2" d="M307.634,408.441l67.829-39.164L331.375,343.82,263.54,382.984Z" transform="translate(-139.481 -272.78)" fill="#e0e0e0"/>
      <ellipse id="freepik--shadow--inject-2-6" data-name="freepik--shadow--inject-2" cx="19.889" cy="11.485" rx="19.889" ry="11.485" transform="translate(0 85.733)" fill="#e0e0e0"/>
    </g>
    <g id="freepik--Pen--inject-2" transform="translate(87.251 260.085)">
      <g id="freepik--pen--inject-2-2" data-name="freepik--pen--inject-2">
        <g id="freepik--pen--inject-2-3" data-name="freepik--pen--inject-2">
          <path id="Path_10460" data-name="Path 10460" d="M139.808,399.474a.637.637,0,0,1,.15.054l-.295-.169-.054-.03h-.349a1.3,1.3,0,0,0-.644.2A3.154,3.154,0,0,0,137.19,402a1.614,1.614,0,0,0,.036.355v.066h0a.336.336,0,0,0,0,.072.788.788,0,0,0,.114.211.734.734,0,0,0,.211.193l.343.193a.6.6,0,0,1-.15-.12,1.15,1.15,0,0,0,.819-.175A3.166,3.166,0,0,0,140,400.323,1.168,1.168,0,0,0,139.808,399.474Z" transform="translate(-137.19 -399.33)" fill="#29b6f6"/>
          <path id="Path_10461" data-name="Path 10461" d="M173.308,418.737l-2.017,3.509-.343-.2-32.735-18.914a.6.6,0,0,1-.15-.12,1.132,1.132,0,0,1-.265-.807,3.16,3.16,0,0,1,1.427-2.474,1.306,1.306,0,0,1,.644-.193h.181a.639.639,0,0,1,.15.054h0Z" transform="translate(-137.431 -399.414)" fill="#f0f0f0"/>
          <path id="Path_10462" data-name="Path 10462" d="M194.163,431.471c.789-.458,1.427-.084,1.427.825a3.142,3.142,0,0,1-1.427,2.474c-.789.457-1.433.09-1.433-.825A3.166,3.166,0,0,1,194.163,431.471Z" transform="translate(-159.297 -412.045)" fill="#29b6f6"/>
          <path id="Path_10463" data-name="Path 10463" d="M197.263,433.622l-.036-.042-1.806-2h0l-.03-.036h0a.927.927,0,0,0-1.144,0,3.167,3.167,0,0,0-1.433,2.474.927.927,0,0,0,.554.981h.1l2.643.6a.6.6,0,0,0,.457-.1,1.806,1.806,0,0,0,.819-1.415.638.638,0,0,0-.126-.457Z" transform="translate(-159.327 -412.072)" fill="#e0e0e0"/>
          <path id="Path_10464" data-name="Path 10464" d="M155.324,410.3h-.048a.349.349,0,0,0-.331.048,1.12,1.12,0,0,0-.506.879.379.379,0,0,0,.114.307h0l.06.036,25.03,14.447,1.427-.825Z" transform="translate(-144.055 -403.686)" fill="#455a64"/>
          <path id="Path_10465" data-name="Path 10465" d="M193,433.644l2.017,1.168,1.427-.825-2.733-1.577a3.377,3.377,0,0,0-.71,1.234Z" transform="translate(-159.404 -412.497)" fill="#37474f"/>
          <path id="Path_10466" data-name="Path 10466" d="M199.073,435.387h0l-1.655-1.806-.042-.048a.644.644,0,0,0-.819,0,2.233,2.233,0,0,0-1.011,1.746.668.668,0,0,0,.385.7H196l2.408.53h0a.385.385,0,0,0,.265-.054,1.017,1.017,0,0,0,.457-.795A.367.367,0,0,0,199.073,435.387Z" transform="translate(-160.415 -412.886)" fill="#29b6f6"/>
          <path id="Path_10467" data-name="Path 10467" d="M199.073,435.387h0l-1.655-1.806-.042-.048a.644.644,0,0,0-.819,0,2.233,2.233,0,0,0-1.011,1.746.668.668,0,0,0,.385.7H196l2.408.53h0a.385.385,0,0,0,.265-.054,1.017,1.017,0,0,0,.457-.795A.367.367,0,0,0,199.073,435.387Z" transform="translate(-160.415 -412.886)" opacity="0.1"/>
          <path id="Path_10468" data-name="Path 10468" d="M200.075,436.28a1,1,0,0,1-.464.795.361.361,0,0,1-.259.054h0l-1.2-.271c-.193-.042-.319-.223-.319-.512a1.637,1.637,0,0,1,.734-1.276.482.482,0,0,1,.6,0l.036.036.819.9h0a.367.367,0,0,1,.054.271Z" transform="translate(-161.327 -413.514)" fill="#29b6f6"/>
          <path id="Path_10469" data-name="Path 10469" d="M200.493,436.67a.283.283,0,0,1,.457.265,1.017,1.017,0,0,1-.457.795.287.287,0,0,1-.464-.265,1,1,0,0,1,.464-.795Z" transform="translate(-162.203 -414.169)" opacity="0.1"/>
          <path id="Path_10470" data-name="Path 10470" d="M146.349,405.1a.355.355,0,0,0-.355.036,1.1,1.1,0,0,0-.506.879.337.337,0,0,0,.15.325h0l5.339,3.088a.379.379,0,0,1-.114-.307,1.12,1.12,0,0,1,.506-.879.349.349,0,0,1,.331-.048Z" transform="translate(-140.492 -401.614)" fill="#fafafa"/>
          <path id="Path_10471" data-name="Path 10471" d="M146.5,405.43a1.126,1.126,0,0,1-.506.873.355.355,0,0,1-.355.036.343.343,0,0,1-.15-.325,1.1,1.1,0,0,1,.506-.879.355.355,0,0,1,.355-.036A.367.367,0,0,1,146.5,405.43Z" transform="translate(-140.492 -401.614)" fill="#f5f5f5"/>
          <path id="Path_10472" data-name="Path 10472" d="M142.433,401.231h0l-2.113-1.2h-.048a.909.909,0,0,0-.873.108,2.829,2.829,0,0,0-1.282,2.227.9.9,0,0,0,.379.831h0l2.131,1.2h0a.909.909,0,0,0,.885-.1,2.859,2.859,0,0,0,1.288-2.233A.915.915,0,0,0,142.433,401.231Z" transform="translate(-137.557 -399.581)" fill="#29b6f6"/>
          <path id="Path_10473" data-name="Path 10473" d="M142.433,401.231h0l-2.113-1.2h-.048a.909.909,0,0,0-.873.108,2.829,2.829,0,0,0-1.282,2.227.9.9,0,0,0,.379.831h0l2.131,1.2h0a.909.909,0,0,0,.885-.1,2.859,2.859,0,0,0,1.288-2.233A.915.915,0,0,0,142.433,401.231Z" transform="translate(-137.557 -399.581)" opacity="0.05"/>
          <path id="Path_10474" data-name="Path 10474" d="M142.882,402.074c.71-.409,1.288-.078,1.288.74a2.859,2.859,0,0,1-1.288,2.233c-.71.409-1.282.072-1.282-.746a2.841,2.841,0,0,1,1.282-2.227Z" transform="translate(-138.945 -400.352)" opacity="0.1"/>
          <path id="Path_10475" data-name="Path 10475" d="M201.682,437.636h0l-.873-.524h0a.144.144,0,0,0-.169,0,.518.518,0,0,0-.241.4.169.169,0,0,0,.072.157h0l.867.524h0a.3.3,0,0,0,.163.042.337.337,0,0,0,.337-.337A.349.349,0,0,0,201.682,437.636Z" transform="translate(-162.349 -414.358)" fill="#455a64"/>
          <path id="Path_10476" data-name="Path 10476" d="M202.319,438.015h0a.145.145,0,0,0-.048-.036h0a.18.18,0,0,0-.15,0,.505.505,0,0,0-.241.409.15.15,0,0,0,.066.145h0a.229.229,0,0,0,.108,0,.337.337,0,0,0,.337-.337A.325.325,0,0,0,202.319,438.015Z" transform="translate(-162.938 -414.707)" fill="#263238"/>
        </g>
      </g>
    </g>
    <g id="freepik--Pencil--inject-2" transform="translate(76.92 265.81)">
      <g id="freepik--pencil--inject-2-2" data-name="freepik--pencil--inject-2" transform="translate(0 0)">
        <path id="Path_10477" data-name="Path 10477" d="M125.834,409.944l-5.58-1.1a.181.181,0,0,0-.169.289l3.792,4.286Z" transform="translate(-120.035 -408.843)" fill="#ffa8a7"/>
        <path id="Path_10478" data-name="Path 10478" d="M120.085,409.138a.181.181,0,0,1,.169-.289l1.09.217h0a.945.945,0,0,0-.451.891v.1Z" transform="translate(-120.035 -408.843)" fill="#263238"/>
        <path id="Path_10479" data-name="Path 10479" d="M151.074,428.322l-.457-.259-.554-.319-23.723-13.6a2.54,2.54,0,0,1,.157-1.854,2.6,2.6,0,0,1,1.806-1.631l23.711,13.6,1.053.6C152.356,424.517,150.37,427.966,151.074,428.322Z" transform="translate(-122.497 -409.564)" fill="#29b6f6"/>
        <path id="Path_10480" data-name="Path 10480" d="M163.824,435.649l-1.017-.6c-.3-.163-.132-.9.223-1.667.464-1.017,1.385-2,1.806-1.806l.752.433.265.157c-.4-.211-1.318.771-1.806,1.806-.337.734-.506,1.451-.253,1.643h0Z" transform="translate(-136.993 -417.879)" fill="#ebebeb"/>
        <path id="Path_10481" data-name="Path 10481" d="M164.084,435.817c-.7-.373,1.306-3.828,2-3.455l1.023.6c-.7-.367-2.7,3.082-2,3.455Z" transform="translate(-137.505 -418.191)" fill="#29b6f6"/>
        <path id="Path_10482" data-name="Path 10482" d="M166.732,437.291l-1.011-.6c-.692-.355,1.2-3.7,1.944-3.485h.042l1.011.6C168.015,433.486,166.028,436.936,166.732,437.291Z" transform="translate(-138.155 -418.533)" fill="#ebebeb"/>
        <path id="Path_10483" data-name="Path 10483" d="M120.053,408.936l.193-.1,4.051,2.221,24.861,14.261c.036-.066.072-.072.1,0-.6.927-1.047,2.095-.65,2.3l-.457-.259-.554-.319-23.723-13.6h0l-3.792-4.286a.187.187,0,0,1-.024-.223Z" transform="translate(-120.026 -408.84)" opacity="0.15"/>
        <path id="Path_10484" data-name="Path 10484" d="M171.676,440.153,167.4,437.7c-.3-.157-.138-.885.211-1.649.464-1.017,1.372-2.011,1.806-1.806h0l4.3,2.456c.849.494.066,2.348-.885,3.172a1.023,1.023,0,0,1-1.15.283Z" transform="translate(-138.818 -418.94)" fill="#f28f8f"/>
        <path id="Path_10485" data-name="Path 10485" d="M174.132,440.446a3.1,3.1,0,0,1,1.752-2.113.692.692,0,0,1,.638.09c.644.6-.108,2.293-1.005,3.076a1.029,1.029,0,0,1-1.108.283C174.09,441.6,173.97,441.126,174.132,440.446Z" transform="translate(-141.534 -420.563)" opacity="0.1"/>
      </g>
    </g>
    <g id="freepik--book-2--inject-2" transform="translate(169.456 55.74)">
      <g id="freepik--Book--inject-2">
        <path id="Path_10486" data-name="Path 10486" d="M416.6,120.19v2.727s-1.047-.957-1.108-1.649S416.6,120.19,416.6,120.19Z" transform="translate(-330.166 -83.877)"/>
        <path id="Path_10487" data-name="Path 10487" d="M409.408,119.1a2.853,2.853,0,0,0,2.1,3.642c2.974.933,4.846,0,5.291.831s-14.11,9.228-14.11,9.228l2.763-12.039Z" transform="translate(-325.073 -83.443)" fill="#29b6f6"/>
        <path id="Path_10488" data-name="Path 10488" d="M409.408,119.1a2.853,2.853,0,0,0,2.1,3.642c2.974.933,4.846,0,5.291.831s-14.11,9.228-14.11,9.228l2.763-12.039Z" transform="translate(-325.073 -83.443)" opacity="0.3"/>
        <path id="Path_10489" data-name="Path 10489" d="M370.35,211.453v.175l-5.7-3.3-56.94-32.651V64.02c0-1.74.951-2.594,2.125-1.914l2.125,1.234,58.391,33.71-.054.512Z" transform="translate(-287.267 -60.664)" fill="#29b6f6"/>
        <path id="Path_10490" data-name="Path 10490" d="M370.35,211.453v.175l-5.7-3.3-56.94-32.651V64.02c0-1.74.951-2.594,2.125-1.914l2.125,1.234,58.391,33.71-.054.512Z" transform="translate(-287.267 -60.664)" opacity="0.2"/>
        <path id="Path_10491" data-name="Path 10491" d="M388.61,139.169l-3.07-3.449,15.651-9.029c2.366,1.806,4.184,2.739,6.3,1.848Z" transform="translate(-318.246 -86.464)" fill="#455a64"/>
        <path id="Path_10492" data-name="Path 10492" d="M359.409,101.218,301.578,67.833a3.979,3.979,0,0,0-3.612,0L282.49,76.755l58.643,33.559a5.386,5.386,0,0,1,4.262.734c1.728,1.391,1.625-.373,1.625-.373l13.177-7.609C359.126,101.628,359.409,101.218,359.409,101.218Z" transform="translate(-277.229 -62.865)" fill="#f5f5f5"/>
        <path id="Path_10493" data-name="Path 10493" d="M384.035,143.493c-.6-.343-.855-.74-.572-.9l.488-.283c.548-.313.042-1.126-1.138-1.806s-2.576-.987-3.124-.668l-.494.283c-.283.163-1.306-.175-2.306-.746l.355,108.432,1.463.837a1.318,1.318,0,0,0,.855-.078l.488-.283c.548-.313,1.938,0,3.118.662s1.685,1.493,1.144,1.806l-.494.283c-.277.163,0,.56.6.909Z" transform="translate(-314.803 -91.511)" fill="#29b6f6"/>
        <path id="Path_10494" data-name="Path 10494" d="M384.035,143.493c-.6-.343-.855-.74-.572-.9l.488-.283c.548-.313.042-1.126-1.138-1.806s-2.576-.987-3.124-.668l-.494.283c-.283.163-1.306-.175-2.306-.746l.355,108.432,1.463.837a1.318,1.318,0,0,0,.855-.078l.488-.283c.548-.313,1.938,0,3.118.662s1.685,1.493,1.144,1.806l-.494.283c-.277.163,0,.56.6.909Z" transform="translate(-314.803 -91.511)" fill="#fff" opacity="0.25"/>
        <path id="Path_10495" data-name="Path 10495" d="M337.654,225.417v.169l-1.457-.837L273.75,188.7V83.612c0-1.734.951-2.594,2.125-1.908l2.125,1.2,59.643,32.982Z" transform="translate(-273.75 -68.464)" fill="#29b6f6"/>
        <path id="Path_10496" data-name="Path 10496" d="M337.654,225.417v.169l-1.457-.837L273.75,188.7V83.612c0-1.734.951-2.594,2.125-1.908l2.125,1.2,59.643,32.982Z" transform="translate(-273.75 -68.464)" fill="#fff" opacity="0.4"/>
        <path id="Path_10497" data-name="Path 10497" d="M387.62,253.558V145l3.877,1.565v108.2a3.612,3.612,0,0,1-2.143-.211Z" transform="translate(-319.074 -93.752)" fill="#29b6f6"/>
        <path id="Path_10498" data-name="Path 10498" d="M387.62,253.558V145l3.877,1.565v108.2a3.612,3.612,0,0,1-2.143-.211Z" transform="translate(-319.074 -93.752)" fill="#fff" opacity="0.4"/>
        <path id="Path_10499" data-name="Path 10499" d="M414.946,235.059a.872.872,0,0,1,0,.211.235.235,0,0,1-.03.138,1.2,1.2,0,0,1-.12.289.854.854,0,0,1-.072.15,2.909,2.909,0,0,1-.331.47,5.2,5.2,0,0,1-.433.47c-.175.157-.355.313-.548.47a3.126,3.126,0,0,1-.349.265l-.283.2c-.217.15-.445.295-.692.439l-13.454,7.765a12.852,12.852,0,0,1-4.533,1.613V139.329l20.876-12.509V235.059Z" transform="translate(-321.654 -86.516)" fill="#29b6f6"/>
        <g id="Group_3095" data-name="Group 3095" transform="translate(72.446 40.304)" opacity="0.7">
          <path id="Path_10500" data-name="Path 10500" d="M414.946,235.059a.872.872,0,0,1,0,.211.235.235,0,0,1-.03.138,1.2,1.2,0,0,1-.12.289.854.854,0,0,1-.072.15,2.909,2.909,0,0,1-.331.47,5.2,5.2,0,0,1-.433.47c-.175.157-.355.313-.548.47a3.126,3.126,0,0,1-.349.265l-.283.2c-.217.15-.445.295-.692.439l-13.454,7.765a12.852,12.852,0,0,1-4.533,1.613V139.329l20.876-12.509V235.059Z" transform="translate(-394.1 -126.82)" fill="#fff"/>
        </g>
        <path id="Path_10501" data-name="Path 10501" d="M394.06,154.527v13.045c8.343-2.835,15.5-6.682,20.876-12.039V142.47C409.561,147.846,402.4,151.692,394.06,154.527Z" transform="translate(-321.638 -92.745)" fill="#fafafa"/>
        <path id="Path_10502" data-name="Path 10502" d="M394.06,275.237v13.045c8.343-2.835,15.5-6.682,20.876-12.039V263.18C409.561,268.556,402.4,272.4,394.06,275.237Z" transform="translate(-321.638 -140.792)" fill="#fafafa"/>
        <path id="Path_10503" data-name="Path 10503" d="M351.24,118.879l-1.047-1.806a9.571,9.571,0,0,1-4.479,1.409,2.787,2.787,0,0,0-.367-1.77,5.5,5.5,0,0,0-2.017-1.854,8.078,8.078,0,0,0-3.052-1.035,1.494,1.494,0,0,0-.229,0,3.455,3.455,0,0,0-1.866.349L282.8,82.2l-1.884-1.078-2.408-1.391a1.282,1.282,0,0,0-1.306-.1l-2.125,1.2a1.3,1.3,0,0,1,1.33.078h.036l6.351,3.7,53.575,30.923a3.731,3.731,0,0,0,2.318.758l.488-.283a1.716,1.716,0,0,1,1.114-.072,6.068,6.068,0,0,1,2,.728c1.2.686,1.686,1.5,1.144,1.806l-.488.283c-.283.163-.03.56.566.909l1.065.6C345.745,120.95,348.736,120.324,351.24,118.879Z" transform="translate(-274.279 -67.68)" fill="#29b6f6"/>
        <path id="Path_10504" data-name="Path 10504" d="M351.24,118.879l-1.047-1.806a9.571,9.571,0,0,1-4.479,1.409,2.787,2.787,0,0,0-.367-1.77,5.5,5.5,0,0,0-2.017-1.854,8.078,8.078,0,0,0-3.052-1.035,1.494,1.494,0,0,0-.229,0,3.455,3.455,0,0,0-1.866.349L282.8,82.2l-1.884-1.078-2.408-1.391a1.282,1.282,0,0,0-1.306-.1l-2.125,1.2a1.3,1.3,0,0,1,1.33.078h.036l6.351,3.7,53.575,30.923a3.731,3.731,0,0,0,2.318.758l.488-.283a1.716,1.716,0,0,1,1.114-.072,6.068,6.068,0,0,1,2,.728c1.2.686,1.686,1.5,1.144,1.806l-.488.283c-.283.163-.03.56.566.909l1.065.6C345.745,120.95,348.736,120.324,351.24,118.879Z" transform="translate(-274.279 -67.68)" fill="#fff" opacity="0.6"/>
        <path id="Path_10505" data-name="Path 10505" d="M363.722,109.248l13.448-7.765c.193-.114.379-.229.554-.343l.427-.307a.12.12,0,0,0,.042-.036c-1.541.668-3.612,0-5-.771a5.322,5.322,0,0,1-1.974-1.806,2.811,2.811,0,0,1-.337-1.974l-.187-.108-.373-.211L316.751,65.009s-1.4-.819-3.07-1.806c-.289-.163-.6-.343-.885-.506l-2.564-1.475a1.2,1.2,0,0,0-1.162,0l.6-.337,1.547-.891a1.2,1.2,0,0,1,1.084,0h.03c.307.175.6.367.957.548l.6.343c.349.211.7.409,1.029.6.235.132.445.247.638.367s.319.181.451.259l.795.451L359.34,87.137l13.586,7.826c.969.548,1.535,1.132,1.306,1.324a.693.693,0,0,1-.078.06l-.476.271c-.6.343-.114,1.168,1.065,1.848a2.805,2.805,0,0,0,2.691.379l.6-.331a.975.975,0,0,1,.849-.126c.09.042.2.114.313.181s.415.241.668.385l.837.482a.843.843,0,0,1,.445.963.289.289,0,0,1-.03.138,1.2,1.2,0,0,1-.12.289h0a.5.5,0,0,1-.06.144,2.959,2.959,0,0,1-.337.47,6.164,6.164,0,0,1-.427.47c-.175.157-.355.307-.554.47a3.049,3.049,0,0,1-.343.265l-.283.2c-.217.15-.451.295-.692.433l-13.532,7.789Z" transform="translate(-287.809 -59.866)" fill="#29b6f6"/>
        <path id="Path_10506" data-name="Path 10506" d="M363.722,109.248l13.448-7.765c.193-.114.379-.229.554-.343l.427-.307a.12.12,0,0,0,.042-.036c-1.541.668-3.612,0-5-.771a5.322,5.322,0,0,1-1.974-1.806,2.811,2.811,0,0,1-.337-1.974l-.187-.108-.373-.211L316.751,65.009s-1.4-.819-3.07-1.806c-.289-.163-.6-.343-.885-.506l-2.564-1.475a1.2,1.2,0,0,0-1.162,0l.6-.337,1.547-.891a1.2,1.2,0,0,1,1.084,0h.03c.307.175.6.367.957.548l.6.343c.349.211.7.409,1.029.6.235.132.445.247.638.367s.319.181.451.259l.795.451L359.34,87.137l13.586,7.826c.969.548,1.535,1.132,1.306,1.324a.693.693,0,0,1-.078.06l-.476.271c-.6.343-.114,1.168,1.065,1.848a2.805,2.805,0,0,0,2.691.379l.6-.331a.975.975,0,0,1,.849-.126c.09.042.2.114.313.181s.415.241.668.385l.837.482a.843.843,0,0,1,.445.963.289.289,0,0,1-.03.138,1.2,1.2,0,0,1-.12.289h0a.5.5,0,0,1-.06.144,2.959,2.959,0,0,1-.337.47,6.164,6.164,0,0,1-.427.47c-.175.157-.355.307-.554.47a3.049,3.049,0,0,1-.343.265l-.283.2c-.217.15-.451.295-.692.433l-13.532,7.789Z" transform="translate(-287.809 -59.866)" fill="#fff" opacity="0.6"/>
      </g>
    </g>
    <g id="freepik--book-1--inject-2" transform="translate(167.686 224.425)">
      <g id="freepik--book--inject-2-2" data-name="freepik--book--inject-2">
        <path id="Path_10507" data-name="Path 10507" d="M310.732,405.785l62.484-36.076L333.3,346.66l-62.49,36.076Z" transform="translate(-270.81 -342.705)" fill="#29b6f6"/>
        <path id="Path_10508" data-name="Path 10508" d="M310.732,405.785l62.484-36.076L333.3,346.66l-62.49,36.076Z" transform="translate(-270.81 -342.705)" opacity="0.15"/>
        <path id="Path_10509" data-name="Path 10509" d="M387.65,399.229v-1.114c0-1.379,2.45-5.309,5.514-7.079l24.795-14.327v4.99Z" transform="translate(-317.316 -354.666)" fill="#f5f5f5"/>
        <path id="Path_10510" data-name="Path 10510" d="M392.711,362.138l-24.819,14.333c-3.07,1.764-5.532,5.695-5.52,7.067v1.12L324.22,362.613h0v-1.12c0-1.372,2.456-5.3,5.52-7.073L354.553,340.1h0Z" transform="translate(-292.069 -340.094)" fill="#fafafa"/>
        <path id="Path_10511" data-name="Path 10511" d="M392.711,362.134l-24.819,14.333c-3.07,1.764-5.532,5.695-5.52,7.067v1.12L324.22,362.609h0v-1.12c0-1.372,2.456-5.3,5.52-7.073l24.825-14.327Z" transform="translate(-292.069 -340.09)" fill="#fafafa"/>
        <path id="Path_10512" data-name="Path 10512" d="M384,410.23l-2.378-1.379-3.13-1.806a6.14,6.14,0,0,1,3.853.56A3.221,3.221,0,0,1,384,410.23Z" transform="translate(-313.671 -366.702)" fill="#f0f0f0"/>
        <path id="Path_10513" data-name="Path 10513" d="M384,410.23l-2.378-1.379-3.13-1.806a6.14,6.14,0,0,1,3.853.56A3.221,3.221,0,0,1,384,410.23Z" transform="translate(-313.671 -366.702)" fill="#e0e0e0"/>
        <path id="Path_10514" data-name="Path 10514" d="M310.738,430.681l-.006-1.041L270.81,406.59v1.035Z" transform="translate(-270.81 -366.559)" fill="#29b6f6"/>
        <path id="Path_10515" data-name="Path 10515" d="M310.738,430.681l-.006-1.041L270.81,406.59v1.035Z" transform="translate(-270.81 -366.559)" opacity="0.3"/>
        <path id="Path_10516" data-name="Path 10516" d="M337.136,422.067l62.49-36.076-.012-1.041L337.13,421.026Z" transform="translate(-297.208 -357.946)" fill="#29b6f6"/>
        <path id="Path_10517" data-name="Path 10517" d="M367.531,411.3c0-1.379-2.522-2.522-5.6-.765L337.12,424.757V429.9l30.417-17.559S367.543,412.681,367.531,411.3Z" transform="translate(-297.204 -367.775)" fill="#f5f5f5"/>
        <path id="Path_10518" data-name="Path 10518" d="M311.873,425.315v-5.141L273.69,398.13v5.141Z" transform="translate(-271.956 -363.192)" fill="#ebebeb"/>
        <path id="Path_10519" data-name="Path 10519" d="M336.7,395.865l-1.114.638-23.705,13.58-33.71-19.474-4.455-2.576,24.813-14.212c2.251-1.294,3.509-1.2,4.394-.686h0L341.64,395.48C340.219,394.691,338.594,394.86,336.7,395.865Z" transform="translate(-271.968 -353.102)" fill="#fafafa"/>
        <path id="Path_10520" data-name="Path 10520" d="M334.24,419.828l21.135-12.19,1.108-.638.813.47-1.108.638L335.053,420.3Z" transform="translate(-296.057 -366.723)" fill="#e0e0e0"/>
        <path id="Path_10521" data-name="Path 10521" d="M331,417.958l21.129-12.19,1.114-.638.813.47-1.114.632-21.129,12.2Z" transform="translate(-294.768 -365.978)" fill="#e0e0e0"/>
        <path id="Path_10522" data-name="Path 10522" d="M327.76,416.088l21.129-12.2L350,403.26l.813.47-1.114.632-21.129,12.2Z" transform="translate(-293.478 -365.234)" fill="#e0e0e0"/>
        <path id="Path_10523" data-name="Path 10523" d="M324.51,414.218l21.135-12.2,1.114-.632.813.47-1.114.632-21.129,12.2Z" transform="translate(-292.185 -364.49)" fill="#e0e0e0"/>
        <path id="Path_10524" data-name="Path 10524" d="M321.27,412.338l21.135-12.19,1.114-.638.813.47-1.114.638-21.135,12.2Z" transform="translate(-290.895 -363.741)" fill="#e0e0e0"/>
        <path id="Path_10525" data-name="Path 10525" d="M318.03,410.468l21.135-12.19,1.108-.638.813.47-1.108.638-21.135,12.19Z" transform="translate(-289.605 -362.997)" fill="#e0e0e0"/>
        <path id="Path_10526" data-name="Path 10526" d="M314.79,408.6l21.129-12.19,1.114-.638.813.47-1.108.638L315.6,409.067Z" transform="translate(-288.316 -362.253)" fill="#e0e0e0"/>
        <path id="Path_10527" data-name="Path 10527" d="M311.55,406.728l21.129-12.2,1.114-.632.813.47-1.114.638L312.363,407.2Z" transform="translate(-287.026 -361.508)" fill="#e0e0e0"/>
        <path id="Path_10528" data-name="Path 10528" d="M308.31,404.858l21.129-12.2,1.114-.632.813.47-1.114.632-21.129,12.2Z" transform="translate(-285.736 -360.764)" fill="#e0e0e0"/>
        <path id="Path_10529" data-name="Path 10529" d="M305.06,402.988l21.135-12.2,1.114-.632.813.47-1.114.632-21.129,12.2Z" transform="translate(-284.443 -360.02)" fill="#e0e0e0"/>
        <path id="Path_10530" data-name="Path 10530" d="M301.82,401.114l21.135-12.2,1.108-.638.819.47-1.114.638-21.135,12.2Z" transform="translate(-283.153 -359.271)" fill="#e0e0e0"/>
        <path id="Path_10531" data-name="Path 10531" d="M298.58,399.238l21.135-12.19,1.108-.638.813.47-1.108.638-21.135,12.19Z" transform="translate(-281.863 -358.527)" fill="#e0e0e0"/>
        <path id="Path_10532" data-name="Path 10532" d="M295.34,397.368l21.129-12.19,1.114-.638.813.47-1.114.638-21.129,12.19Z" transform="translate(-280.574 -357.783)" fill="#e0e0e0"/>
        <path id="Path_10533" data-name="Path 10533" d="M292.1,395.5l21.129-12.19,1.114-.638.813.47-1.114.632-21.129,12.2Z" transform="translate(-279.284 -357.038)" fill="#e0e0e0"/>
        <path id="Path_10534" data-name="Path 10534" d="M288.86,393.628l21.129-12.2,1.114-.632.813.47-1.114.632-21.129,12.2Z" transform="translate(-277.995 -356.294)" fill="#e0e0e0"/>
        <path id="Path_10535" data-name="Path 10535" d="M285.61,391.758l21.135-12.2,1.114-.632.813.47-1.114.632-21.135,12.2Z" transform="translate(-276.701 -355.55)" fill="#e0e0e0"/>
        <path id="Path_10536" data-name="Path 10536" d="M282.37,389.884l21.135-12.2,1.108-.638.819.47-1.114.638-21.135,12.2Z" transform="translate(-275.411 -354.801)" fill="#e0e0e0"/>
        <path id="Path_10537" data-name="Path 10537" d="M341.169,394.583c-.458.042-1.433.355-1.962.476-2.257.512-6.242,2.324-10.053,4.214-5.093,2.546-9.89,5.267-9.89,5.267L284.35,384.4l18.414-10.552a7.929,7.929,0,0,1,2.275-.945,4.936,4.936,0,0,1,1.6.548l.247-.427a2.4,2.4,0,0,1,.277.138L345.871,395.5A6.272,6.272,0,0,0,341.169,394.583Z" transform="translate(-276.199 -353.15)" opacity="0.1"/>
        <path id="Path_10538" data-name="Path 10538" d="M334.6,435.34l3.792-1.92-3.768,2.293-3.78-2.185Z" transform="translate(-294.704 -377.239)" fill="#e6e6e6"/>
        <path id="Path_10539" data-name="Path 10539" d="M331.967,437.9l6.947-4.009-6.947,3.738-7.807-4.244Z" transform="translate(-292.045 -377.227)" fill="#e6e6e6"/>
        <path id="Path_10540" data-name="Path 10540" d="M273.69,400.01l5.839,3.521-5.839-2.98Z" transform="translate(-271.956 -363.94)" fill="#e6e6e6"/>
        <path id="Path_10541" data-name="Path 10541" d="M273.7,403.35l8.674,5.3-8.68-4.822Z" transform="translate(-271.956 -365.27)" fill="#e6e6e6"/>
        <path id="Path_10542" data-name="Path 10542" d="M339.057,392.566a13.124,13.124,0,0,0-1.493.253c-2.257.506-6.236,2.324-10.047,4.214-5.093,2.546-9.89,5.267-9.89,5.267L279.42,380.268s14.537-8.343,20.214-9.433c2.679-.518,4.322-.156,5.321.409h0l37.924,21.9a6.14,6.14,0,0,0-3.822-.578Z" transform="translate(-274.237 -352.228)" fill="#f5f5f5"/>
        <path id="Path_10543" data-name="Path 10543" d="M362.29,403.435a6.158,6.158,0,0,0-3.859-.56,12.822,12.822,0,0,0-1.487.253,36.433,36.433,0,0,0-6.236,2.408c-1.246.6-2.54,1.2-3.81,1.842-3.07,1.535-6.02,3.13-7.9,4.16l.873.5c1.866-1.029,4.816-2.625,7.892-4.16,1.276-.638,2.564-1.27,3.81-1.842a36.953,36.953,0,0,1,6.236-2.408,13.033,13.033,0,0,1,1.487-.253,6.2,6.2,0,0,1,3.859.56Z" transform="translate(-297.952 -365.042)" fill="#e0e0e0"/>
        <path id="Path_10544" data-name="Path 10544" d="M359.044,401.568a6.242,6.242,0,0,0-3.859-.56,14.619,14.619,0,0,0-1.487.259,36.118,36.118,0,0,0-6.236,2.408c-1.24.572-2.534,1.2-3.81,1.806-3.064,1.535-6.02,3.13-7.892,4.16l.867.5c1.866-1.023,4.816-2.625,7.892-4.16,1.276-.638,2.57-1.264,3.81-1.836a36.617,36.617,0,0,1,6.236-2.408,14.442,14.442,0,0,1,1.493-.259,6.225,6.225,0,0,1,3.853.56Z" transform="translate(-296.662 -364.3)" fill="#e0e0e0"/>
        <path id="Path_10545" data-name="Path 10545" d="M355.794,399.685a6.14,6.14,0,0,0-3.853-.56,13.123,13.123,0,0,0-1.493.253,36.817,36.817,0,0,0-6.236,2.408c-1.24.6-2.534,1.2-3.81,1.842-3.064,1.535-6.02,3.13-7.892,4.16l.867.5c1.872-1.029,4.816-2.625,7.892-4.16,1.276-.638,2.57-1.27,3.81-1.842a36.821,36.821,0,0,1,6.236-2.408,13.138,13.138,0,0,1,1.493-.253,6.249,6.249,0,0,1,3.859.56Z" transform="translate(-295.369 -363.55)" fill="#e0e0e0"/>
        <path id="Path_10546" data-name="Path 10546" d="M352.6,397.808a6.248,6.248,0,0,0-3.859-.56,14.344,14.344,0,0,0-1.487.259,36.117,36.117,0,0,0-6.242,2.408c-1.24.572-2.534,1.2-3.81,1.806-3.064,1.535-6.02,3.13-7.892,4.16l.867.5c1.872-1.023,4.816-2.625,7.9-4.16,1.27-.638,2.564-1.264,3.81-1.836a36.428,36.428,0,0,1,6.236-2.408,12.806,12.806,0,0,1,1.487-.253,6.206,6.206,0,0,1,3.859.554Z" transform="translate(-294.095 -362.804)" fill="#e0e0e0"/>
        <path id="Path_10547" data-name="Path 10547" d="M349.3,395.935a6.158,6.158,0,0,0-3.859-.56,12.824,12.824,0,0,0-1.487.253,36.432,36.432,0,0,0-6.236,2.408c-1.246.6-2.534,1.2-3.81,1.842-3.07,1.535-6.02,3.13-7.9,4.16l.873.5c1.866-1.029,4.816-2.625,7.892-4.16,1.276-.638,2.564-1.264,3.81-1.842a37.145,37.145,0,0,1,6.236-2.408,13.045,13.045,0,0,1,1.487-.253,6.242,6.242,0,0,1,3.859.56Z" transform="translate(-292.782 -362.057)" fill="#e0e0e0"/>
        <path id="Path_10548" data-name="Path 10548" d="M346.054,394.058a6.224,6.224,0,0,0-3.853-.56,14.457,14.457,0,0,0-1.493.259,36.124,36.124,0,0,0-6.236,2.408c-1.24.572-2.534,1.2-3.81,1.806-3.064,1.535-6.02,3.13-7.892,4.16l.867.5c1.866-1.023,4.816-2.625,7.892-4.16,1.276-.638,2.57-1.264,3.81-1.836a36.622,36.622,0,0,1,6.236-2.408,13.115,13.115,0,0,1,1.493-.253,6.188,6.188,0,0,1,3.853.554Z" transform="translate(-291.492 -361.311)" fill="#e0e0e0"/>
        <path id="Path_10549" data-name="Path 10549" d="M342.8,392.185a6.14,6.14,0,0,0-3.853-.56,13.13,13.13,0,0,0-1.493.253,36.82,36.82,0,0,0-6.236,2.408c-1.24.6-2.534,1.2-3.81,1.842-3.064,1.535-6.02,3.13-7.892,4.16l.867.5c1.872-1.029,4.816-2.625,7.892-4.16,1.276-.638,2.57-1.264,3.81-1.842a37.171,37.171,0,0,1,6.242-2.408,14.251,14.251,0,0,1,1.487-.253,6.249,6.249,0,0,1,3.859.56Z" transform="translate(-290.198 -360.564)" fill="#e0e0e0"/>
        <path id="Path_10550" data-name="Path 10550" d="M339.6,390.308a6.248,6.248,0,0,0-3.859-.56,14.343,14.343,0,0,0-1.487.259,36.654,36.654,0,0,0-6.242,2.408c-1.24.572-2.534,1.2-3.81,1.806-3.064,1.535-6.02,3.13-7.892,4.16l.867.5c1.872-1.023,4.816-2.625,7.9-4.16,1.27-.638,2.564-1.264,3.81-1.836a36.43,36.43,0,0,1,6.236-2.408,12.822,12.822,0,0,1,1.487-.253,6.206,6.206,0,0,1,3.859.554Z" transform="translate(-288.921 -359.819)" fill="#e0e0e0"/>
        <path id="Path_10551" data-name="Path 10551" d="M333.324,388.375a14.358,14.358,0,0,0-1.493.253c-2.257.512-6.236,2.33-10.047,4.214-3.064,1.535-6.02,3.13-7.892,4.16l-.873-.5c1.872-1.029,4.816-2.625,7.9-4.16,3.81-1.914,7.789-3.726,10.047-4.214a13.039,13.039,0,0,1,1.487-.253,6.158,6.158,0,0,1,3.859.56l.867.5a6.225,6.225,0,0,0-3.853-.56Z" transform="translate(-287.611 -359.072)" fill="#e0e0e0"/>
        <path id="Path_10552" data-name="Path 10552" d="M330.078,386.5a13.137,13.137,0,0,0-1.493.253c-2.257.506-6.236,2.324-10.047,4.214-3.064,1.535-6.02,3.136-7.892,4.16l-.867-.5c1.866-1.029,4.816-2.625,7.892-4.16,3.81-1.908,7.789-3.726,10.047-4.214a14.451,14.451,0,0,1,1.493-.259,6.225,6.225,0,0,1,3.853.56l.867.5A6.188,6.188,0,0,0,330.078,386.5Z" transform="translate(-286.321 -358.326)" fill="#e0e0e0"/>
        <path id="Path_10553" data-name="Path 10553" d="M326.828,384.609a12.918,12.918,0,0,0-1.487.259c-2.257.506-6.236,2.324-10.053,4.214-3.064,1.535-6.02,3.13-7.892,4.16l-.867-.5c1.872-1.029,4.816-2.625,7.892-4.16,3.81-1.908,7.8-3.726,10.047-4.214a13.131,13.131,0,0,1,1.493-.253,6.164,6.164,0,0,1,3.859.56l.867.5A6.248,6.248,0,0,0,326.828,384.609Z" transform="translate(-285.028 -357.575)" fill="#e0e0e0"/>
        <path id="Path_10554" data-name="Path 10554" d="M323.578,382.754a13.039,13.039,0,0,0-1.487.253c-2.257.506-6.236,2.324-10.047,4.214-3.07,1.535-6.02,3.136-7.9,4.16l-.867-.5c1.872-1.029,4.816-2.625,7.892-4.16,3.816-1.908,7.8-3.726,10.053-4.214a14.358,14.358,0,0,1,1.487-.259,6.242,6.242,0,0,1,3.859.56l.867.5a6.207,6.207,0,0,0-3.859-.554Z" transform="translate(-283.734 -356.833)" fill="#e0e0e0"/>
        <path id="Path_10555" data-name="Path 10555" d="M320.338,380.88a12.994,12.994,0,0,0-1.493.259c-2.257.506-6.236,2.324-10.047,4.214-3.064,1.535-6.02,3.13-7.892,4.16l-.867-.5c1.866-1.029,4.816-2.625,7.892-4.16,3.81-1.908,7.789-3.726,10.047-4.214a13.047,13.047,0,0,1,1.487-.253,6.2,6.2,0,0,1,3.859.56l.867.5a6.224,6.224,0,0,0-3.853-.566Z" transform="translate(-282.445 -356.092)" fill="#e0e0e0"/>
        <path id="Path_10556" data-name="Path 10556" d="M317.088,379a13.13,13.13,0,0,0-1.493.253c-2.257.506-6.236,2.324-10.047,4.214-3.064,1.535-6.02,3.13-7.892,4.154l-.867-.5c1.866-1.029,4.816-2.625,7.892-4.16,3.81-1.908,7.789-3.726,10.047-4.214a14.443,14.443,0,0,1,1.493-.259,6.224,6.224,0,0,1,3.853.56l.867.5A6.188,6.188,0,0,0,317.088,379Z" transform="translate(-281.151 -355.337)" fill="#e0e0e0"/>
        <path id="Path_10557" data-name="Path 10557" d="M313.838,377.131a12.924,12.924,0,0,0-1.487.259c-2.257.506-6.236,2.324-10.053,4.214-3.064,1.535-6.02,3.13-7.892,4.16l-.867-.5c1.872-1.029,4.816-2.625,7.892-4.16,3.81-1.908,7.826-3.726,10.047-4.214a13.13,13.13,0,0,1,1.493-.253,6.206,6.206,0,0,1,3.859.56l.867.5a6.248,6.248,0,0,0-3.859-.566Z" transform="translate(-279.857 -354.599)" fill="#e0e0e0"/>
        <path id="Path_10558" data-name="Path 10558" d="M310.578,375.25a13.031,13.031,0,0,0-1.487.253c-2.257.506-6.236,2.324-10.047,4.214-3.07,1.535-6.02,3.13-7.9,4.154l-.867-.5c1.872-1.029,4.816-2.625,7.9-4.16,3.81-1.908,7.789-3.726,10.047-4.214a14.35,14.35,0,0,1,1.487-.259,6.243,6.243,0,0,1,3.859.56l.867.5a6.206,6.206,0,0,0-3.859-.548Z" transform="translate(-278.56 -353.844)" fill="#e0e0e0"/>
        <path id="Path_10559" data-name="Path 10559" d="M307.348,373.38a12.992,12.992,0,0,0-1.493.259c-2.257.506-6.236,2.324-10.047,4.214-3.064,1.535-6.02,3.13-7.892,4.16l-.867-.5c1.866-1.029,4.816-2.625,7.892-4.16,3.81-1.908,7.789-3.726,10.047-4.214a13.032,13.032,0,0,1,1.487-.253,6.2,6.2,0,0,1,3.859.56l.867.5a6.224,6.224,0,0,0-3.853-.566Z" transform="translate(-277.274 -353.106)" fill="#e0e0e0"/>
        <path id="Path_10560" data-name="Path 10560" d="M388.3,388.313a12.43,12.43,0,0,0-3.088,2.643l-.795-.457a12.429,12.429,0,0,1,3.088-2.643l22.273-12.816.795.457Z" transform="translate(-316.031 -354.001)" fill="#e0e0e0"/>
        <path id="Path_10561" data-name="Path 10561" d="M388.3,388.313a12.43,12.43,0,0,0-3.088,2.643l-.795-.457a12.429,12.429,0,0,1,3.088-2.643l22.273-12.816.795.457Z" transform="translate(-316.031 -354.001)" fill="#e0e0e0"/>
        <path id="Path_10562" data-name="Path 10562" d="M385.059,386.443a12.46,12.46,0,0,0-3.094,2.643l-.795-.457a12.435,12.435,0,0,1,3.094-2.643l22.273-12.816.789.457Z" transform="translate(-314.737 -353.257)" fill="#e0e0e0"/>
        <path id="Path_10563" data-name="Path 10563" d="M381.813,384.569a12.412,12.412,0,0,0-3.088,2.643l-.795-.458a12.438,12.438,0,0,1,3.088-2.649l22.273-12.816.795.464Z" transform="translate(-313.448 -352.509)" fill="#e0e0e0"/>
        <path id="Path_10564" data-name="Path 10564" d="M378.573,382.693a12.466,12.466,0,0,0-3.094,2.649l-.789-.464a12.431,12.431,0,0,1,3.088-2.643l22.273-12.816.795.457Z" transform="translate(-312.158 -351.764)" fill="#e0e0e0"/>
        <path id="Path_10565" data-name="Path 10565" d="M375.329,380.823a12.462,12.462,0,0,0-3.094,2.643l-.795-.457a12.462,12.462,0,0,1,3.094-2.643l22.243-12.816.795.458Z" transform="translate(-310.864 -351.02)" fill="#e0e0e0"/>
        <path id="Path_10566" data-name="Path 10566" d="M372.083,378.953a12.539,12.539,0,0,0-3.088,2.643l-.795-.458a12.413,12.413,0,0,1,3.088-2.643l22.273-12.816.795.457Z" transform="translate(-309.575 -350.276)" fill="#e0e0e0"/>
        <path id="Path_10567" data-name="Path 10567" d="M368.839,377.073a12.466,12.466,0,0,0-3.094,2.649l-.795-.457a12.467,12.467,0,0,1,3.094-2.649L390.317,363.8l.795.464Z" transform="translate(-308.281 -349.527)" fill="#e0e0e0"/>
        <path id="Path_10568" data-name="Path 10568" d="M365.593,375.223a12.435,12.435,0,0,0-3.088,2.649l-.795-.463a12.46,12.46,0,0,1,3.094-2.643l22.243-12.816.795.457Z" transform="translate(-306.991 -348.791)" fill="#e0e0e0"/>
        <path id="Path_10569" data-name="Path 10569" d="M362.353,373.333a12.431,12.431,0,0,0-3.088,2.643l-.795-.457a12.539,12.539,0,0,1,3.088-2.643l22.273-12.816.795.458Z" transform="translate(-305.702 -348.039)" fill="#e0e0e0"/>
        <path id="Path_10570" data-name="Path 10570" d="M359.109,371.463a12.437,12.437,0,0,0-3.094,2.643l-.795-.458a12.314,12.314,0,0,1,3.094-2.643l22.273-12.816.795.458Z" transform="translate(-304.408 -347.294)" fill="#e0e0e0"/>
        <path id="Path_10571" data-name="Path 10571" d="M355.871,369.583a12.436,12.436,0,0,0-3.088,2.649l-.783-.457a12.435,12.435,0,0,1,3.088-2.649l22.273-12.816.795.457Z" transform="translate(-303.127 -346.546)" fill="#e0e0e0"/>
        <path id="Path_10572" data-name="Path 10572" d="M352.623,367.713a12.328,12.328,0,0,0-3.088,2.649l-.795-.464a12.43,12.43,0,0,1,3.088-2.643L374.1,354.44l.795.457Z" transform="translate(-301.829 -345.802)" fill="#e0e0e0"/>
        <path id="Path_10573" data-name="Path 10573" d="M349.429,365.843a12.461,12.461,0,0,0-3.094,2.643l-.795-.457a12.436,12.436,0,0,1,3.094-2.643l22.273-12.816.789.457Z" transform="translate(-300.555 -345.057)" fill="#e0e0e0"/>
        <path id="Path_10574" data-name="Path 10574" d="M346.133,363.969a12.412,12.412,0,0,0-3.088,2.643l-.795-.457a12.437,12.437,0,0,1,3.088-2.649l22.273-12.816.795.464Z" transform="translate(-299.246 -344.309)" fill="#e0e0e0"/>
        <path id="Path_10575" data-name="Path 10575" d="M342.893,362.093a12.468,12.468,0,0,0-3.094,2.649l-.789-.458a12.328,12.328,0,0,1,3.088-2.649l22.273-12.816.795.458Z" transform="translate(-297.956 -343.565)" fill="#e0e0e0"/>
        <path id="Path_10576" data-name="Path 10576" d="M339.649,360.223a12.461,12.461,0,0,0-3.094,2.643l-.795-.457a12.461,12.461,0,0,1,3.094-2.643l22.273-12.816.795.458Z" transform="translate(-296.662 -342.82)" fill="#e0e0e0"/>
        <path id="Path_10577" data-name="Path 10577" d="M336.433,358.353A12.54,12.54,0,0,0,333.345,361l-.795-.458a12.412,12.412,0,0,1,3.088-2.643l22.273-12.816.795.458Z" transform="translate(-295.385 -342.076)" fill="#e0e0e0"/>
        <path id="Path_10578" data-name="Path 10578" d="M429.39,381.882l5.2-2.745.006-.427Z" transform="translate(-333.931 -355.462)" fill="#e6e6e6"/>
        <path id="Path_10579" data-name="Path 10579" d="M432.3,381.753,423.63,386.6l8.674-5.165Z" transform="translate(-331.638 -356.549)" fill="#e6e6e6"/>
        <path id="Path_10580" data-name="Path 10580" d="M289.31,377.023c4.689-2.474,10.974-5.586,14.261-6.188,2.679-.518,4.322-.156,5.321.409h0l37.924,21.9a6.14,6.14,0,0,0-3.853-.56s-18.775-11.437-30.9-15.362a39.068,39.068,0,0,0-22.754-.2Z" transform="translate(-278.174 -352.228)" opacity="0.02"/>
      </g>
    </g>
    <g id="freepik--speech-bubble--inject-2" transform="translate(35.483 87.134)">
      <g id="freepik--speech-bubble--inject-2-2" data-name="freepik--speech-bubble--inject-2" transform="translate(0)">
        <g id="freepik--speech-bubble--inject-2-3" data-name="freepik--speech-bubble--inject-2">
          <path id="Path_10581" data-name="Path 10581" d="M94.83,145.048v-9.963l8.373-.879a.783.783,0,0,1,.482.1l4.394,2.546a.789.789,0,0,1,.175,1.234l-9.029,9.511Z" transform="translate(-68.56 -120.848)" fill="#29b6f6"/>
          <path id="Path_10582" data-name="Path 10582" d="M51.19,158.684V127.869a1.559,1.559,0,0,1,.7-1.2l25.126-14.477a1.535,1.535,0,0,1,1.4,0l3.907,2.312a1.559,1.559,0,0,1,.7,1.2v30.809a1.535,1.535,0,0,1-.7,1.2L57.192,162.163a1.523,1.523,0,0,1-1.4,0l-3.907-2.306a1.577,1.577,0,0,1-.7-1.174Z" transform="translate(-51.19 -112.018)" fill="#29b6f6"/>
          <path id="Path_10583" data-name="Path 10583" d="M57.1,172.31c-.331.132-.6-.054-.6-.457V141.038a1.451,1.451,0,0,1,.2-.692l-5.321-3.106a1.4,1.4,0,0,0-.187.668v30.815a1.559,1.559,0,0,0,.7,1.2l3.907,2.306a1.535,1.535,0,0,0,1.3.078Z" transform="translate(-51.19 -122.057)" opacity="0.15"/>
          <path id="Path_10584" data-name="Path 10584" d="M93.752,130.043l-7.224.758V117.835c0-.451-.313-.6-.7-.409L60.7,131.873a1.565,1.565,0,0,0-.7,1.2v30.815c0,.445.313.6.7.4l25.126-14.447a1.535,1.535,0,0,0,.7-1.2v-8.987l7.874-8.283a.789.789,0,0,0-.65-1.33Z" transform="translate(-54.697 -114.138)" fill="#29b6f6"/>
          <path id="Path_10585" data-name="Path 10585" d="M93.752,130.043l-7.224.758V117.835c0-.451-.313-.6-.7-.409L60.7,131.873a1.565,1.565,0,0,0-.7,1.2v30.815c0,.445.313.6.7.4l25.126-14.447a1.535,1.535,0,0,0,.7-1.2v-8.987l7.874-8.283a.789.789,0,0,0-.65-1.33Z" transform="translate(-54.697 -114.138)" fill="#fff" opacity="0.35"/>
        </g>
        <path id="freepik--Check--inject-2" d="M83.379,131.437a2.209,2.209,0,0,0-2.883,1.174L72.17,152.421,70.19,150.5a2.2,2.2,0,1,0-3.07,3.154l4.3,4.178a2.222,2.222,0,0,0,3.564-.746L84.559,134.3A2.209,2.209,0,0,0,83.379,131.437Z" transform="translate(-57.236 -119.68)" fill="#fafafa"/>
      </g>
    </g>
    <g id="freepik--Character--inject-2" transform="translate(62.559 49.5)">
      <g id="freepik--book--inject-2-3" data-name="freepik--book--inject-2" transform="translate(1.102 106.129)">
        <path id="Path_10586" data-name="Path 10586" d="M104.708,346.873l2.661-1.421-2.408-.6A1.806,1.806,0,0,0,104.708,346.873Z" transform="translate(-100.59 -273.189)" fill="#29b6f6"/>
        <path id="Path_10587" data-name="Path 10587" d="M104.708,346.873l2.661-1.421-2.408-.6A1.806,1.806,0,0,0,104.708,346.873Z" transform="translate(-100.59 -273.189)" opacity="0.5"/>
        <path id="Path_10588" data-name="Path 10588" d="M178.18,349.035a5.971,5.971,0,0,1-5.418,0L112,313.958,202.963,262.3l2.125-1.2,60.75,34.222c1.487.867,1.487,2.269,0,3.124Z" transform="translate(-103.573 -239.854)" fill="#29b6f6"/>
        <path id="Path_10589" data-name="Path 10589" d="M150.424,298.53l-21.183,12.19L115.522,302.8,99.57,312.02v10.649c0,1.391,1.559,3.377,2.131,3.052a15.69,15.69,0,0,1,3.052,1.078,22.85,22.85,0,0,1,4.4,3.263L157.834,302.8Z" transform="translate(-98.625 -254.752)" fill="#29b6f6"/>
        <path id="Path_10590" data-name="Path 10590" d="M150.424,298.53l-21.183,12.19L115.522,302.8,99.57,312.02v10.649c0,1.391,1.559,3.377,2.131,3.052a15.69,15.69,0,0,1,3.052,1.078,22.85,22.85,0,0,1,4.4,3.263L157.834,302.8Z" transform="translate(-98.625 -254.752)" opacity="0.15"/>
        <path id="Path_10591" data-name="Path 10591" d="M111.141,321.354v11.552l-.187-.114a5.46,5.46,0,0,0-2.594-.807,2.715,2.715,0,0,0-1.71.4V318.76Z" transform="translate(-101.443 -262.804)" fill="#37474f"/>
        <path id="Path_10592" data-name="Path 10592" d="M117.09,338.63a3.546,3.546,0,0,0-.764-1.968,6.273,6.273,0,0,0-.746-.861l-.253-.241-.337-.283-.277-.211c-.2-.144-.4-.277-.6-.4v-11.5l2.944,1.71v-.054Z" transform="translate(-104.412 -264.556)" fill="#e0e0e0"/>
        <path id="Path_10593" data-name="Path 10593" d="M99.57,331.219c0,1.391,1.559,3.377,2.131,3.052h0l2.131-1.384V324.1l-2.137-3.672-1.162-.415-.963.56Z" transform="translate(-98.625 -263.302)" opacity="0.4"/>
        <path id="Path_10594" data-name="Path 10594" d="M178.283,360.114V373.3a3.612,3.612,0,0,1-1.806-.427l-6.67-3.847-50.758-29.3V325.91Z" transform="translate(-106.379 -265.65)" fill="#ebebeb"/>
        <path id="Path_10595" data-name="Path 10595" d="M306.266,300.44v9.969a4.015,4.015,0,0,1-1.806,3.124L225.9,358.891l-6.658,3.847a3.612,3.612,0,0,1-1.806.427v-11.7Z" transform="translate(-145.541 -255.512)" fill="#f5f5f5"/>
        <path id="Path_10596" data-name="Path 10596" d="M200.085,232.258l-90.963,52.509v1.2c0,.674-.945.927-2.113.247s-2.125-1.517-2.125-2.685l-.114-1.156,92.66-53.491.373-.217a1.2,1.2,0,0,1,.157.56v.56C197.978,230.488,198.917,231.571,200.085,232.258Z" transform="translate(-100.695 -226.945)" fill="#29b6f6"/>
        <path id="Path_10597" data-name="Path 10597" d="M200.085,232.258l-90.963,52.509v1.2c0,.674-.945.927-2.113.247s-2.125-1.517-2.125-2.685l-.114-1.156,92.66-53.491.373-.217a1.2,1.2,0,0,1,.157.56v.56C197.978,230.488,198.917,231.571,200.085,232.258Z" transform="translate(-100.695 -226.945)" opacity="0.1"/>
        <path id="Path_10598" data-name="Path 10598" d="M172.575,321.705l-59.4-34.312c-.758-.4-1.445-.716-1.734-.566l.385-.217L202.77,234.1l1.059-.6a3.406,3.406,0,0,1,2.865.427l58.95,34.035c1.487.867,1.487,2.269,0,3.124l-87.688,50.619a6.02,6.02,0,0,1-5.382,0Z" transform="translate(-103.35 -228.801)" fill="#29b6f6"/>
        <path id="Path_10599" data-name="Path 10599" d="M195.155,227.548l-.373.217-92.66,53.491a.7.7,0,0,0-.2-.253l-.313-.175-.668-.385-.819-.482a.849.849,0,0,0-1.053.1.259.259,0,0,0-.1.1,1.6,1.6,0,0,0-.283.385,2.726,2.726,0,0,0-.241.518,5.864,5.864,0,0,0-.187.6c-.054.229-.09.464-.138.71a3.315,3.315,0,0,0-.048.427v-1.445a5.532,5.532,0,0,1,2.7-4.172l87.664-50.613a5.416,5.416,0,0,1,4.816-.343l1.1.644h.042c.072.048.265.156.47.271h0A.939.939,0,0,1,195.155,227.548Z" transform="translate(-98.028 -225.805)" fill="#29b6f6"/>
        <path id="Path_10600" data-name="Path 10600" d="M167.226,378.9l-3.666-2.125-55.032-31.754a3.516,3.516,0,0,0-.746-1.968,7.988,7.988,0,0,0-2.408-2.113,5.418,5.418,0,0,0-2.594-.813,2.763,2.763,0,0,0-1.71.56,9.553,9.553,0,0,1-1.005-4.551H98c0,2.871.945,5.761,2.113,6.423l1.053.6c.6.343,1.059.361,1.059.036v-.524c0-.6.945-.6,2.125.084s2.077,1.722,2.077,2.324v.6c0,.325.813,1.041,1.806,1.619l53.19,30.7,5.761,3.323h0a5.6,5.6,0,0,0,2.7.638V379.56a5.465,5.465,0,0,1-2.655-.656Z" transform="translate(-98 -269.722)" fill="#29b6f6"/>
        <path id="Path_10601" data-name="Path 10601" d="M167.226,378.9l-3.666-2.125-55.032-31.754a3.516,3.516,0,0,0-.746-1.968,7.988,7.988,0,0,0-2.408-2.113,5.418,5.418,0,0,0-2.594-.813,2.763,2.763,0,0,0-1.71.56,9.553,9.553,0,0,1-1.005-4.551H98c0,2.871.945,5.761,2.113,6.423l1.053.6c.6.343,1.059.361,1.059.036v-.524c0-.6.945-.6,2.125.084s2.077,1.722,2.077,2.324v.6c0,.325.813,1.041,1.806,1.619l53.19,30.7,5.761,3.323h0a5.6,5.6,0,0,0,2.7.638V379.56a5.465,5.465,0,0,1-2.655-.656Z" transform="translate(-98 -269.722)" opacity="0.3"/>
        <path id="Path_10602" data-name="Path 10602" d="M167.258,354.432h0l-3.666-2.125L121.31,327.916l-13.49-7.789c-.957-.56-1.74-.758-1.806-.47a.042.042,0,0,0,0,.036v.6c0,.674-.945.674-2.113,0s-1.655-1.469-1.655-2.113v-.668a.969.969,0,0,0-.313-.795l-.313-.175-.668-.385-.819-.482a.849.849,0,0,0-1.053.1.259.259,0,0,0-.1.1,1.066,1.066,0,0,0-.187.247.565.565,0,0,0-.1.138,2.727,2.727,0,0,0-.241.518,5.866,5.866,0,0,0-.187.6c-.054.229-.09.464-.138.71a3.317,3.317,0,0,0-.048.427v9.427h2.083v-8.915l.054-.524a.132.132,0,0,1,0-.048c.187,1.655,1.806,3.13,3.148,3.913a5.2,5.2,0,0,0,2.492.795,2.805,2.805,0,0,0,1.866-.692l.187.108.361.217,53.19,30.7,5.761,3.323h.042a5.6,5.6,0,0,0,2.655.6V355.01A5.562,5.562,0,0,1,167.258,354.432Z" transform="translate(-98.032 -261.522)" fill="#29b6f6"/>
        <path id="Path_10603" data-name="Path 10603" d="M167.258,354.432h0l-3.666-2.125L121.31,327.916l-13.49-7.789c-.957-.56-1.74-.758-1.806-.47a.042.042,0,0,0,0,.036v.6c0,.674-.945.674-2.113,0s-1.655-1.469-1.655-2.113v-.668a.969.969,0,0,0-.313-.795l-.313-.175-.668-.385-.819-.482a.849.849,0,0,0-1.053.1.259.259,0,0,0-.1.1,1.066,1.066,0,0,0-.187.247.565.565,0,0,0-.1.138,2.727,2.727,0,0,0-.241.518,5.866,5.866,0,0,0-.187.6c-.054.229-.09.464-.138.71a3.317,3.317,0,0,0-.048.427v9.427h2.083v-8.915l.054-.524a.132.132,0,0,1,0-.048c.187,1.655,1.806,3.13,3.148,3.913a5.2,5.2,0,0,0,2.492.795,2.805,2.805,0,0,0,1.866-.692l.187.108.361.217,53.19,30.7,5.761,3.323h.042a5.6,5.6,0,0,0,2.655.6V355.01A5.562,5.562,0,0,1,167.258,354.432Z" transform="translate(-98.032 -261.522)" opacity="0.3"/>
        <path id="Path_10604" data-name="Path 10604" d="M308.952,293.41v2.444a1.866,1.866,0,0,1-1.072,1.541h-.042l-81.9,47.308-5.719,3.323h0a5.61,5.61,0,0,1-2.7.638v-2.408a5.466,5.466,0,0,0,2.709-.644l3.654-2.113h0l83.986-48.506a1.848,1.848,0,0,0,1.084-1.583Z" transform="translate(-145.573 -252.714)" fill="#29b6f6"/>
        <path id="Path_10605" data-name="Path 10605" d="M308.952,293.41v2.444a1.866,1.866,0,0,1-1.072,1.541h-.042l-81.9,47.308-5.719,3.323h0a5.61,5.61,0,0,1-2.7.638v-2.408a5.466,5.466,0,0,0,2.709-.644l3.654-2.113h0l83.986-48.506a1.848,1.848,0,0,0,1.084-1.583Z" transform="translate(-145.573 -252.714)" opacity="0.2"/>
        <path id="Path_10606" data-name="Path 10606" d="M308.952,320.45v2.444a1.866,1.866,0,0,1-1.072,1.541h-.042l-81.9,47.308-5.719,3.323h0a5.61,5.61,0,0,1-2.7.638V373.3a5.467,5.467,0,0,0,2.709-.644l3.654-2.113h0l83.986-48.506a1.848,1.848,0,0,0,1.084-1.583Z" transform="translate(-145.573 -263.477)" fill="#29b6f6"/>
        <path id="Path_10607" data-name="Path 10607" d="M308.952,320.45v2.444a1.866,1.866,0,0,1-1.072,1.541h-.042l-81.9,47.308-5.719,3.323h0a5.61,5.61,0,0,1-2.7.638V373.3a5.467,5.467,0,0,0,2.709-.644l3.654-2.113h0l83.986-48.506a1.848,1.848,0,0,0,1.084-1.583Z" transform="translate(-145.573 -263.477)" opacity="0.2"/>
      </g>
      <g id="freepik--book--inject-2-4" data-name="freepik--book--inject-2" transform="translate(5.195 78.749)">
        <path id="Path_10608" data-name="Path 10608" d="M104.8,268.059l71.032,40.458L270.3,254.3,199.272,213.84Z" transform="translate(-104.8 -193.662)" fill="#29b6f6"/>
        <path id="Path_10609" data-name="Path 10609" d="M104.8,268.059l71.032,40.458L270.3,254.3,199.272,213.84Z" transform="translate(-104.8 -193.662)" fill="#fff" opacity="0.2"/>
        <path id="Path_10610" data-name="Path 10610" d="M178.054,331.416,109.045,291.9q2.167-6.134-.295-14.3L177.4,316.782S178.451,320.231,178.054,331.416Z" transform="translate(-106.372 -219.041)" fill="#f5f5f5"/>
        <path id="Path_10611" data-name="Path 10611" d="M173.019,309.435a11.625,11.625,0,0,1,5.3,9.126v10.661c0,3.359-2.372,4.719-5.3,3.04L104.81,293.206v-2.643L172.3,329.011c1.758,1.005,3.178.193,3.172-1.806l-.048-9.878a6.977,6.977,0,0,0-3.184-5.478l-67.42-38.459v-3.01Z" transform="translate(-104.804 -216.167)" fill="#29b6f6"/>
        <path id="Path_10612" data-name="Path 10612" d="M173.019,309.435a11.625,11.625,0,0,1,5.3,9.126v10.661c0,3.359-2.372,4.719-5.3,3.04L104.81,293.206v-2.643L172.3,329.011c1.758,1.005,3.178.193,3.172-1.806l-.048-9.878a6.977,6.977,0,0,0-3.184-5.478l-67.42-38.459v-3.01Z" transform="translate(-104.804 -216.167)" fill="#fff" opacity="0.4"/>
        <path id="Path_10613" data-name="Path 10613" d="M104.81,234.539l94.466-54.219,68.209,39.061a11.624,11.624,0,0,1,5.3,9.12v10.667a3.7,3.7,0,0,1-1.553,3.4l-94.466,54.213a3.673,3.673,0,0,0,1.553-3.4V282.708a11.639,11.639,0,0,0-5.3-9.12Z" transform="translate(-104.804 -180.32)" fill="#29b6f6"/>
        <path id="Path_10614" data-name="Path 10614" d="M104.81,234.539l94.466-54.219,68.209,39.061a11.624,11.624,0,0,1,5.3,9.12v10.667a3.7,3.7,0,0,1-1.553,3.4l-94.466,54.213a3.673,3.673,0,0,0,1.553-3.4V282.708a11.639,11.639,0,0,0-5.3-9.12Z" transform="translate(-104.804 -180.32)" fill="#fff" opacity="0.85"/>
        <path id="Path_10615" data-name="Path 10615" d="M224.36,305.947a10.745,10.745,0,0,1,1.553,5.189v10.673a3.7,3.7,0,0,1-1.553,3.4L318.826,271a3.673,3.673,0,0,0,1.553-3.4V256.929a10.727,10.727,0,0,0-1.553-5.189Z" transform="translate(-152.389 -208.748)" fill="#29b6f6"/>
        <path id="Path_10616" data-name="Path 10616" d="M224.36,305.947a10.745,10.745,0,0,1,1.553,5.189v10.673a3.7,3.7,0,0,1-1.553,3.4L318.826,271a3.673,3.673,0,0,0,1.553-3.4V256.929a10.727,10.727,0,0,0-1.553-5.189Z" transform="translate(-152.389 -208.748)" fill="#fff" opacity="0.6"/>
        <path id="Path_10617" data-name="Path 10617" d="M357.688,263.49c1.716,7.458,1.692,13.905,0,19.377L353.3,285.4c1.692-5.472,1.716-11.919,0-19.383Z" transform="translate(-203.712 -213.425)" fill="#fff"/>
        <path id="Path_10618" data-name="Path 10618" d="M253.448,323.66c1.722,7.464,1.7,13.911,0,19.383l-4.388,2.528c1.7-5.472,1.722-11.913,0-19.377Z" transform="translate(-162.221 -237.374)" fill="#fff"/>
      </g>
      <g id="freepik--book--inject-2-5" data-name="freepik--book--inject-2" transform="translate(0 62.996)">
        <path id="Path_10619" data-name="Path 10619" d="M198.141,335.018l2.306-1.324a3.711,3.711,0,0,0-1.932-.138C197.906,333.838,198.141,335.018,198.141,335.018Z" transform="translate(-136.74 -225.521)"/>
        <path id="Path_10620" data-name="Path 10620" d="M195.19,328.474a2.793,2.793,0,0,1,4.111,0c2.239,2.059,2.354,4.1,3.281,4.063s.915-11.877.915-11.877l-8.837,3.66Z" transform="translate(-135.373 -220.427)" fill="#29b6f6"/>
        <path id="Path_10621" data-name="Path 10621" d="M195.19,328.474a2.793,2.793,0,0,1,4.111,0c2.239,2.059,2.354,4.1,3.281,4.063s.915-11.877.915-11.877l-8.837,3.66Z" transform="translate(-135.373 -220.427)" opacity="0.3"/>
        <path id="Path_10622" data-name="Path 10622" d="M252.747,215.012l.144-.084-5.574-3.227L191.9,179.49,97.488,234.022c-1.469.849-1.734,2.071-.6,2.733l2.077,1.2,57,32.921.4-.295Z" transform="translate(-96.176 -164.236)" fill="#29b6f6"/>
        <path id="Path_10623" data-name="Path 10623" d="M252.747,215.012l.144-.084-5.574-3.227L191.9,179.49,97.488,234.022c-1.469.849-1.734,2.071-.6,2.733l2.077,1.2,57,32.921.4-.295Z" transform="translate(-96.176 -164.236)" opacity="0.2"/>
        <path id="Path_10624" data-name="Path 10624" d="M205.242,307.155l-4.412-.915v13.1c2.667,1.132,4.358,2.2,4.641,4.43Z" transform="translate(-137.828 -214.687)" fill="#455a64"/>
        <path id="Path_10625" data-name="Path 10625" d="M159.05,296.326l-56.464-32.6a3.925,3.925,0,0,1-1.806-3.076V247.79l57.042,33.234a5.23,5.23,0,0,0,2.7,3.239c2.023.777.482,1.565.482,1.565v10.245C159.261,295.887,159.05,296.326,159.05,296.326Z" transform="translate(-98.005 -191.422)" fill="#f5f5f5"/>
        <path id="Path_10626" data-name="Path 10626" d="M201.609,269.283c-.6-.337-1.041-.355-1.047-.036v.548c0,.6-.933.6-2.095-.078s-2.089-1.7-2.089-2.312v-.56c0-.313-.789-1.023-1.758-1.583l91.866-52.642,1.427.831a1.342,1.342,0,0,1,.349.758v.554c0,.6.933,1.649,2.077,2.312s2.089.7,2.089.084v-.554c0-.319.464-.295,1.047.042Z" transform="translate(-135.357 -177.423)" fill="#29b6f6"/>
        <path id="Path_10627" data-name="Path 10627" d="M201.609,269.283c-.6-.337-1.041-.355-1.047-.036v.548c0,.6-.933.6-2.095-.078s-2.089-1.7-2.089-2.312v-.56c0-.313-.789-1.023-1.758-1.583l91.866-52.642,1.427.831a1.342,1.342,0,0,1,.349.758v.554c0,.6.933,1.649,2.077,2.312s2.089.7,2.089.084v-.554c0-.319.464-.295,1.047.042Z" transform="translate(-135.357 -177.423)" opacity="0.4"/>
        <path id="Path_10628" data-name="Path 10628" d="M248.593,190.262l.144-.084-1.421-.825-60.949-35.2-88.88,51.311c-1.469.849-1.734,2.071-.6,2.727l2.077,1.2L155.975,243.7Z" transform="translate(-96.176 -154.15)" fill="#29b6f6"/>
        <path id="Path_10629" data-name="Path 10629" d="M248.593,190.262l.144-.084-1.421-.825-60.949-35.2-88.88,51.311c-1.469.849-1.734,2.071-.6,2.727l2.077,1.2L155.975,243.7Z" transform="translate(-96.176 -154.15)" opacity="0.2"/>
        <path id="Path_10630" data-name="Path 10630" d="M296.443,218.35,204.65,271.323l3.214,2.51,91.5-52.822a3.534,3.534,0,0,0-1.2-1.71Z" transform="translate(-139.349 -179.704)" fill="#29b6f6"/>
        <path id="Path_10631" data-name="Path 10631" d="M296.443,218.35,204.65,271.323l3.214,2.51,91.5-52.822a3.534,3.534,0,0,0-1.2-1.71Z" transform="translate(-139.349 -179.704)" opacity="0.2"/>
        <path id="Path_10632" data-name="Path 10632" d="M300.873,241.979a1.465,1.465,0,0,0,.169-.12.343.343,0,0,0,.1-.09,1.242,1.242,0,0,0,.181-.247.644.644,0,0,0,.09-.132,2.852,2.852,0,0,0,.241-.512,5.752,5.752,0,0,0,.181-.6c.054-.223.1-.451.132-.692a3.22,3.22,0,0,0,.054-.421,1.3,1.3,0,0,1,.03-.337v-11.4a12.641,12.641,0,0,0-.813-4.623l-91.5,52.828-.391,19.2L300.849,242Z" transform="translate(-141.22 -181.475)" fill="#29b6f6"/>
        <path id="Path_10633" data-name="Path 10633" d="M231.09,294.169l11.028-6.369c1.679,8.427,1.92,11.811,0,18.98l-11.028,6.369C233.01,305.979,232.769,302.608,231.09,294.169Z" transform="translate(-149.873 -207.348)" fill="#29b6f6"/>
        <path id="Path_10634" data-name="Path 10634" d="M231.09,294.169l11.028-6.369c.668,8.674.68,12.093,0,18.98l-11.028,6.369A96.1,96.1,0,0,0,231.09,294.169Z" transform="translate(-149.873 -207.348)" fill="#fff" opacity="0.4"/>
        <path id="Path_10635" data-name="Path 10635" d="M256.2,282.308l4.111-2.378c1.68,8.427,1.92,11.811,0,18.98l-4.111,2.372C258.12,294.118,257.885,290.747,256.2,282.308Z" transform="translate(-159.868 -204.215)" fill="#29b6f6"/>
        <path id="Path_10636" data-name="Path 10636" d="M256.2,282.308l4.111-2.378a98.834,98.834,0,0,1,0,18.98l-4.111,2.372A84.726,84.726,0,0,0,256.2,282.308Z" transform="translate(-159.868 -204.215)" fill="#fff" opacity="0.4"/>
        <path id="Path_10637" data-name="Path 10637" d="M339,234.482l4.111-2.372a99.32,99.32,0,0,1,0,18.98L339,253.462A84.779,84.779,0,0,0,339,234.482Z" transform="translate(-192.825 -185.181)" fill="#fff" opacity="0.4"/>
        <path id="Path_10638" data-name="Path 10638" d="M165.564,287.94h-2.041a9.276,9.276,0,0,0-.993-4.473,2.7,2.7,0,0,1-1.679.554,5.352,5.352,0,0,1-2.546-.8,7.826,7.826,0,0,1-2.366-2.077c-.042-.066-.1-.126-.126-.187a3.353,3.353,0,0,1-.6-1.752l-54.08-31.224-1.806-1.065-2.348-1.348a1.24,1.24,0,0,1-.716-1.059V242.1a1.27,1.27,0,0,0,.716,1.09h.03l6.206,3.576,52.3,30.2c.975.56,1.77,1.27,1.77,1.583v.554a1.7,1.7,0,0,0,.482.975,6.019,6.019,0,0,0,1.6,1.342c1.156.662,2.089.692,2.089.078v-.554c0-.313.457-.295,1.041.042l1.035.6C164.637,282.275,165.564,285.116,165.564,287.94Z" transform="translate(-96.206 -189.157)" fill="#29b6f6"/>
        <path id="Path_10639" data-name="Path 10639" d="M165.564,287.94h-2.041a9.276,9.276,0,0,0-.993-4.473,2.7,2.7,0,0,1-1.679.554,5.352,5.352,0,0,1-2.546-.8,7.826,7.826,0,0,1-2.366-2.077c-.042-.066-.1-.126-.126-.187a3.353,3.353,0,0,1-.6-1.752l-54.08-31.224-1.806-1.065-2.348-1.348a1.24,1.24,0,0,1-.716-1.059V242.1a1.27,1.27,0,0,0,.716,1.09h.03l6.206,3.576,52.3,30.2c.975.56,1.77,1.27,1.77,1.583v.554a1.7,1.7,0,0,0,.482.975,6.019,6.019,0,0,0,1.6,1.342c1.156.662,2.089.692,2.089.078v-.554c0-.313.457-.295,1.041.042l1.035.6C164.637,282.275,165.564,285.116,165.564,287.94Z" transform="translate(-96.206 -189.157)" opacity="0.3"/>
        <path id="Path_10640" data-name="Path 10640" d="M163.488,300.167v11.239l-.054.518a.132.132,0,0,1,0,.048c-.187-1.625-1.746-3.082-3.094-3.853a5.2,5.2,0,0,0-2.5-.777,2.769,2.769,0,0,0-1.806.674l-.181-.1-.361-.211-52.359-30.2-3.01-1.734c-.277-.163-.6-.325-.861-.5l-2.528-1.463a1.2,1.2,0,0,1-.566-.987v2.408a1.138,1.138,0,0,0,.524.921h0c.295.175.6.349.933.542l.6.337,1.005.6c.223.132.427.259.6.361s.307.181.445.253l.764.451,41.536,23.976,13.243,7.657c.939.554,1.71.746,1.758.464a.4.4,0,0,0,0-.1v-.536c0-.662.933-.662,2.083,0a2.753,2.753,0,0,1,1.637,2.089v.656a.945.945,0,0,0,.307.777,3.273,3.273,0,0,0,.307.175l.656.379.807.47a.825.825,0,0,0,1.035-.09.24.24,0,0,0,.1-.09,1.263,1.263,0,0,0,.187-.247h0a.482.482,0,0,0,.09-.12,2.831,2.831,0,0,0,.235-.512,5.749,5.749,0,0,0,.187-.6c.048-.223.09-.451.132-.692a3.22,3.22,0,0,0,.048-.421,1.3,1.3,0,0,1,.03-.337V300.167Z" transform="translate(-96.17 -201.385)" fill="#29b6f6"/>
        <path id="Path_10641" data-name="Path 10641" d="M163.488,300.167v11.239l-.054.518a.132.132,0,0,1,0,.048c-.187-1.625-1.746-3.082-3.094-3.853a5.2,5.2,0,0,0-2.5-.777,2.769,2.769,0,0,0-1.806.674l-.181-.1-.361-.211-52.359-30.2-3.01-1.734c-.277-.163-.6-.325-.861-.5l-2.528-1.463a1.2,1.2,0,0,1-.566-.987v2.408a1.138,1.138,0,0,0,.524.921h0c.295.175.6.349.933.542l.6.337,1.005.6c.223.132.427.259.6.361s.307.181.445.253l.764.451,41.536,23.976,13.243,7.657c.939.554,1.71.746,1.758.464a.4.4,0,0,0,0-.1v-.536c0-.662.933-.662,2.083,0a2.753,2.753,0,0,1,1.637,2.089v.656a.945.945,0,0,0,.307.777,3.273,3.273,0,0,0,.307.175l.656.379.807.47a.825.825,0,0,0,1.035-.09.24.24,0,0,0,.1-.09,1.263,1.263,0,0,0,.187-.247h0a.482.482,0,0,0,.09-.12,2.831,2.831,0,0,0,.235-.512,5.749,5.749,0,0,0,.187-.6c.048-.223.09-.451.132-.692a3.22,3.22,0,0,0,.048-.421,1.3,1.3,0,0,1,.03-.337V300.167Z" transform="translate(-96.17 -201.385)" opacity="0.3"/>
      </g>
      <g id="freepik--character--inject-2-2" data-name="freepik--character--inject-2" transform="translate(23.759)">
        <g id="freepik--Bottom--inject-2" transform="translate(8.708 84.695)">
          <path id="Path_10642" data-name="Path 10642" d="M242.138,252.719l4.737-11.329,13.424,5.3c-6.152,7.061-12.719,15.573-14.08,18.541,0,0-7.1-1.029-8.464-4.5S240.35,254.043,242.138,252.719Z" transform="translate(-184.881 -210.574)" fill="#ffa8a7"/>
          <path id="Path_10643" data-name="Path 10643" d="M230.061,268.31a5.809,5.809,0,0,0-1.421,1.806c-.4.7,0,3.925-.337,5.46a40.5,40.5,0,0,1-1.2,3.889c-.638,2.143-1.968,4.154.09,9.385s4.906,7.591,7.224,8.734a5.911,5.911,0,0,0,2.757.458s2.859-1.33,2.275-3.04S230.061,268.31,230.061,268.31Z" transform="translate(-180.347 -221.289)" fill="#263238"/>
          <path id="Path_10644" data-name="Path 10644" d="M244.065,269.852a6.549,6.549,0,0,1-1.029,1.938,14.7,14.7,0,0,0-1.511,5.5c-1.108,8.608,2.582,12.641-1.746,16.181-1.258.933-4.015.909-8.578-4.129-2.33-2.57-3.961-8.09-3.323-10.691s1.655-4.346,2.047-6.339-.157-5.616.795-7.374a7.826,7.826,0,0,1,2.48-2.474c.771-.554,2.492-1.33,3.287-1.86s1.2-1.1,1.776-.542l-.861,1.252c-1.336,2.167-.9,2.408-.783,3.534a17.094,17.094,0,0,1-.295,3.515c.957-1.415,1.306-2.613,2.474-2.492s1.306.054,3.076,1.487S244.1,269.358,244.065,269.852Z" transform="translate(-181.005 -217.913)" fill="#29b6f6"/>
          <path id="Path_10645" data-name="Path 10645" d="M244.065,269.852a6.549,6.549,0,0,1-1.029,1.938,14.7,14.7,0,0,0-1.511,5.5c-1.108,8.608,2.582,12.641-1.746,16.181-1.258.933-4.015.909-8.578-4.129-2.33-2.57-3.961-8.09-3.323-10.691s1.655-4.346,2.047-6.339-.157-5.616.795-7.374a7.826,7.826,0,0,1,2.48-2.474c.771-.554,2.492-1.33,3.287-1.86s1.2-1.1,1.776-.542l-.861,1.252c-1.336,2.167-.9,2.408-.783,3.534a17.094,17.094,0,0,1-.295,3.515c.957-1.415,1.306-2.613,2.474-2.492s1.306.054,3.076,1.487S244.1,269.358,244.065,269.852Z" transform="translate(-181.005 -217.913)" opacity="0.4"/>
          <path id="Path_10646" data-name="Path 10646" d="M231.2,300.1c-2.33-2.57-3.961-8.09-3.323-10.691a24.08,24.08,0,0,1,.795-2.54c0,.175-.06.355-.072.506,0,.331-.048.662-.054,1a7.633,7.633,0,0,0,.71,3.816c.554,1.017,1.86,3.612,3.293,3.54.807,0,1.433-.867,1.673-1.806.1-.391.247-1.433.247-1.433a12.55,12.55,0,0,1,3.816,1.2c2.173,1.2,2.119,1.529,2.119,1.529a5.5,5.5,0,0,0,.066,1.806,4.563,4.563,0,0,0,.9,1.752,3.009,3.009,0,0,0,.56.385,5.525,5.525,0,0,1-2.155,5.008C238.521,305.164,235.764,305.14,231.2,300.1Z" transform="translate(-181.005 -228.677)" opacity="0.3"/>
          <path id="Path_10647" data-name="Path 10647" d="M249.644,287.556a28.611,28.611,0,0,0,0,6.814c-.6,2.227-1.306,2.215-1.487,1.1s.975-5.893,1.806-9.836C249.819,286.286,249.723,286.936,249.644,287.556Z" transform="translate(-189.125 -228.183)" fill="#263238"/>
          <path id="Path_10648" data-name="Path 10648" d="M238.941,264.07a4.731,4.731,0,0,1,.6-3.166c.2-.108.379-.217.53-.313.855-.6,1.2-1.1,1.776-.542l-.861,1.252c-1.336,2.167-.9,2.408-.783,3.534a17.1,17.1,0,0,1-.3,3.515c-.6,3.744-1.288,5.032-1.439,8.542s.722,5.791.247,6.02-1.5-.09-1.884-2.865.494-7.543,1.2-9.83S239.224,265.545,238.941,264.07Z" transform="translate(-184.586 -217.904)" fill="#263238"/>
          <path id="Path_10649" data-name="Path 10649" d="M238.467,296.257a.386.386,0,0,0,.181.084,8.344,8.344,0,0,1,5.8,2.841.349.349,0,1,0,.494-.488,9.016,9.016,0,0,0-6.206-3.046.349.349,0,0,0-.271.6Z" transform="translate(-185.232 -232.171)" fill="#ebebeb"/>
          <path id="Path_10650" data-name="Path 10650" d="M238.843,291.375a.385.385,0,0,0,.181.084,9.349,9.349,0,0,1,6.116,3.118.355.355,0,0,0,.506,0,.361.361,0,0,0,0-.506,10.039,10.039,0,0,0-6.513-3.323.355.355,0,0,0-.289.6Z" transform="translate(-185.385 -230.22)" fill="#ebebeb"/>
          <path id="Path_10651" data-name="Path 10651" d="M238.329,286.037a.361.361,0,0,0,.2.1,10.725,10.725,0,0,1,6.838,3.509.394.394,0,0,0,.554-.56,11.323,11.323,0,0,0-7.272-3.726.391.391,0,0,0-.451.325A.373.373,0,0,0,238.329,286.037Z" transform="translate(-185.166 -228.072)" fill="#ebebeb"/>
          <path id="Path_10652" data-name="Path 10652" d="M238.765,281.481a.439.439,0,0,0,.193.09A10.317,10.317,0,0,1,245.646,285a.4.4,0,0,0,.548,0,.391.391,0,0,0,0-.548,10.942,10.942,0,0,0-7.115-3.612.385.385,0,0,0-.439.325.379.379,0,0,0,.126.319Z" transform="translate(-185.343 -226.274)" fill="#ebebeb"/>
          <path id="Path_10653" data-name="Path 10653" d="M240.093,276.921a.379.379,0,0,0,.2.09,10.386,10.386,0,0,1,6.688,3.425.379.379,0,0,0,.542,0,.391.391,0,0,0,0-.548,11.083,11.083,0,0,0-7.115-3.642.379.379,0,0,0-.439.319A.385.385,0,0,0,240.093,276.921Z" transform="translate(-185.87 -224.446)" fill="#ebebeb"/>
          <path id="Path_10654" data-name="Path 10654" d="M216.181,193.54s28.816-3.413,40.1-3.341c11.516.072,12.581,8.716,9.7,14.014-5.514,10.137-23.338,30.851-23.338,30.851s-7.163-2.167-9.144-7.741l3.738-10.029-22.315,3.076-4.063-2.926Z" transform="translate(-174.287 -190.198)" fill="#29b6f6"/>
          <path id="Path_10655" data-name="Path 10655" d="M216.181,193.54s28.816-3.413,40.1-3.341c11.516.072,12.581,8.716,9.7,14.014-5.514,10.137-23.338,30.851-23.338,30.851s-7.163-2.167-9.144-7.741l3.738-10.029-22.315,3.076-4.063-2.926Z" transform="translate(-174.287 -190.198)" fill="#fff" opacity="0.4"/>
          <path id="Path_10656" data-name="Path 10656" d="M259.889,244.658c-2.474-3.16-4.123-3.895-8.578-5.418l-2.841,7.621c1.98,5.574,9.144,7.741,9.144,7.741s2.059-2.408,4.984-5.941a44.156,44.156,0,0,0-2.709-4Z" transform="translate(-189.257 -209.719)" fill="#29b6f6" opacity="0.4"/>
          <path id="Path_10657" data-name="Path 10657" d="M239.589,215.454c-1.445,2.155-2.7,4.087-3.768,5.929s-4.388,2.745-7.753,2.053a64.61,64.61,0,0,1-11.588-3.792A15.4,15.4,0,0,0,218,211.969a15.206,15.206,0,0,1-5.123,8.229l.843,5.851,1.607,1.962,19.2-2.649h0l3.118-.427c3.961-9.445,5.484-13.6,10.384-15.537C248.035,209.4,243.857,209.085,239.589,215.454Z" transform="translate(-175.091 -197.839)" fill="#29b6f6" opacity="0.4"/>
          <path id="Path_10658" data-name="Path 10658" d="M275.34,299.472,264.8,288.215l10.354-8.975c4.846,7.506,9.571,14.682,12.641,17.457,0,0-2.041,6.874-5.917,7.278S276.171,301.645,275.34,299.472Z" transform="translate(-195.757 -225.64)" fill="#ffa8a7"/>
          <path id="Path_10659" data-name="Path 10659" d="M286.45,322.757a6.116,6.116,0,0,0,1.421,1.932c.6.6,3.943,1.114,5.418,1.866s1.806,1.168,3.612,2.287c1.974,1.24,3.612,3.142,9.469,2.528s9.029-2.823,10.835-4.858a6.218,6.218,0,0,0,1.2-2.649s-.542-3.245-2.408-3.136S286.45,322.757,286.45,322.757Z" transform="translate(-204.375 -242.153)" fill="#263238"/>
          <path id="Path_10660" data-name="Path 10660" d="M293.061,304.04c.548.2,1.258,1.162,1.661,1.577a15.242,15.242,0,0,0,5.111,3.052c8.349,3.515,13.466.933,15.8,6.266.6,1.529-.2,4.3-6.543,7.488-3.239,1.631-9.252,1.728-11.7.361s-3.907-2.877-5.8-3.828-5.7-1.409-7.224-2.859a8.229,8.229,0,0,1-1.806-3.184c-.343-.933-1.306-4.135-1.306-4.135,1.806,1.95,3.521,1.174,4.653,1.36a17.377,17.377,0,0,1,3.473,1.282c-1.156-1.36-2.263-2.047-1.806-3.19s.421-1.294,2.354-2.679S292.567,303.866,293.061,304.04Z" transform="translate(-202.305 -235.494)" fill="#29b6f6"/>
          <path id="Path_10661" data-name="Path 10661" d="M293.061,304.04c.548.2,1.258,1.162,1.661,1.577a15.242,15.242,0,0,0,5.111,3.052c8.349,3.515,13.466.933,15.8,6.266.6,1.529-.2,4.3-6.543,7.488-3.239,1.631-9.252,1.728-11.7.361s-3.907-2.877-5.8-3.828-5.7-1.409-7.224-2.859a8.229,8.229,0,0,1-1.806-3.184c-.343-.933-1.306-4.135-1.306-4.135,1.806,1.95,3.521,1.174,4.653,1.36a17.377,17.377,0,0,1,3.473,1.282c-1.156-1.36-2.263-2.047-1.806-3.19s.421-1.294,2.354-2.679S292.567,303.866,293.061,304.04Z" transform="translate(-202.305 -235.494)" opacity="0.4"/>
          <path id="Path_10662" data-name="Path 10662" d="M318.216,327.3c-3.239,1.631-9.252,1.728-11.7.361a26.125,26.125,0,0,1-2.33-1.511c.175.072.343.163.488.217.325.12.656.229.993.331a8.012,8.012,0,0,0,4.033.355c1.2-.283,4.129-.873,4.485-2.33a2.228,2.228,0,0,0-1.336-2.185c-.367-.217-1.378-.65-1.378-.65a13.243,13.243,0,0,1,2.312-3.5c1.806-1.842,2.125-1.7,2.125-1.7a5.9,5.9,0,0,0,1.854.439,4.779,4.779,0,0,0,2.011-.421,3.15,3.15,0,0,0,.542-.458,5.778,5.778,0,0,1,4.443,3.564C325.349,321.343,324.542,324.112,318.216,327.3Z" transform="translate(-211.436 -240.371)" opacity="0.3"/>
          <path id="Path_10663" data-name="Path 10663" d="M310.894,311.227a29.743,29.743,0,0,0,6.85,1.95c2.071,1.246,1.866,1.932.692,1.806s-5.664-2.625-9.4-4.563C309.66,310.7,310.292,310.974,310.894,311.227Z" transform="translate(-213.366 -238.051)" fill="#263238"/>
          <path id="Path_10664" data-name="Path 10664" d="M284.631,314.117a6.34,6.34,0,0,1-2.932-.536c-.6-.3-.951-1.691-.921-2.312l.987,1.041a12.082,12.082,0,0,0,3.979.752,17.378,17.378,0,0,1,3.473,1.282c3.612,1.637,4.707,2.7,8.193,3.828s6.02.891,6.134,1.433-.506,1.481-3.407,1.1-7.452-2.6-9.559-3.943S286.19,314.214,284.631,314.117Z" transform="translate(-202.117 -238.389)" fill="#263238"/>
          <path id="Path_10665" data-name="Path 10665" d="M316.234,322.238a.4.4,0,0,0,.138-.163,8.7,8.7,0,0,1,4.479-5.044.373.373,0,0,0,.138-.494.361.361,0,0,0-.494-.138,9.468,9.468,0,0,0-4.816,5.418.361.361,0,0,0,.193.476.367.367,0,0,0,.361-.054Z" transform="translate(-215.998 -240.412)" fill="#ebebeb"/>
          <path id="Path_10666" data-name="Path 10666" d="M311.442,320.33a.349.349,0,0,0,.138-.157,9.732,9.732,0,0,1,4.846-5.285.373.373,0,0,0,.144-.512.379.379,0,0,0-.512-.138,10.485,10.485,0,0,0-5.159,5.628.373.373,0,0,0,.542.464Z" transform="translate(-214.094 -239.551)" fill="#ebebeb"/>
          <path id="Path_10667" data-name="Path 10667" d="M305.922,318.885a.349.349,0,0,0,.144-.175,11.056,11.056,0,0,1,5.418-5.9.415.415,0,0,0,.157-.56.409.409,0,0,0-.56-.157,11.88,11.88,0,0,0-5.785,6.278.415.415,0,0,0,.2.548A.421.421,0,0,0,305.922,318.885Z" transform="translate(-211.861 -238.696)" fill="#ebebeb"/>
          <path id="Path_10668" data-name="Path 10668" d="M301.444,317.267a.379.379,0,0,0,.144-.175,10.9,10.9,0,0,1,5.315-5.773.4.4,0,0,0-.4-.7,11.589,11.589,0,0,0-5.652,6.152.4.4,0,0,0,.6.5Z" transform="translate(-210.092 -238.108)" fill="#ebebeb"/>
          <path id="Path_10669" data-name="Path 10669" d="M297.257,314.66a.439.439,0,0,0,.144-.169,10.771,10.771,0,0,1,5.315-5.779.409.409,0,0,0,.151-.548.4.4,0,0,0-.548-.151,11.555,11.555,0,0,0-5.652,6.146.4.4,0,0,0,.2.53A.409.409,0,0,0,297.257,314.66Z" transform="translate(-208.427 -237.072)" fill="#ebebeb"/>
          <path id="Path_10670" data-name="Path 10670" d="M235.689,254.4c-2.528,4.539-9.348,8.307-9.348,8.307s-2.9-2.625-9.878-8.307c-4.924-4-8.975-7.964-11.871-12.8-8.343-1.667-22.176-.909-37.544-6.941-7.669-3.01-14.056-10.149-15.651-17.626a59.8,59.8,0,0,1-1.282-13.436c.138-13.707,43.943-7.26,43.943-7.26L187.893,214.4s18.534,7.067,24.843,9.668c2.9,1.2,3.726,1.15,7.151,5.911C227.725,240.872,235.689,254.4,235.689,254.4Z" transform="translate(-150.104 -192.039)" fill="#29b6f6"/>
          <path id="Path_10671" data-name="Path 10671" d="M235.689,254.4c-2.528,4.539-9.348,8.307-9.348,8.307s-2.9-2.625-9.878-8.307c-4.924-4-8.975-7.964-11.871-12.8-8.343-1.667-22.176-.909-37.544-6.941-7.669-3.01-14.056-10.149-15.651-17.626a59.8,59.8,0,0,1-1.282-13.436c.138-13.707,43.943-7.26,43.943-7.26L187.893,214.4s18.534,7.067,24.843,9.668c2.9,1.2,3.726,1.15,7.151,5.911C227.725,240.872,235.689,254.4,235.689,254.4Z" transform="translate(-150.104 -192.039)" fill="#fff" opacity="0.4"/>
          <path id="Path_10672" data-name="Path 10672" d="M232.556,267.687l.542-.367c-3.714-3.491-13.075-12.563-15.922-16.41-.981-1.324-1.746-2.51-2.408-3.558-1.6-2.456-2.649-4.075-4.569-4.545-.409-.1-1.4-.3-2.9-.6-7.627-1.565-27.883-5.713-34.914-9.517-.2-.114-.4-.241-.6-.355,2.408-2.408,2.143-6.965.3-9.77-1.974-3.01-3.479-8.987-2.408-11.9l-.6-.223c-1.27,3.4.6,9.631,2.45,12.473,1.728,2.637,1.914,7-.343,9.078-6.736-4.214-10.131-11.582-9.83-21.412h-.638c-.331,10.655,3.612,18.5,11.347,22.694,7.115,3.853,27.438,8.018,35.088,9.583,1.439.295,2.48.506,2.877.6,1.673.409,2.667,1.95,4.184,4.274.68,1.053,1.457,2.245,2.45,3.612C219.656,255.322,229.106,264.436,232.556,267.687Z" transform="translate(-154.321 -198.255)" fill="#29b6f6" opacity="0.4"/>
        </g>
        <g id="freepik--Top--inject-2">
          <path id="Path_10673" data-name="Path 10673" d="M208.044,76.679c-.933-1.385-2.613-1.89-4.166-2.215-.6-.132-.6,1.168-.036,1.294,1.571.367,3.612.807,3.828,2.727a26.94,26.94,0,0,1,0,3.118q0,1.562,0,3.124,0,3.112-.03,6.23c0,2.2-.114,4.418,0,6.622.036.536,1.041,1.27,1.114.421.211-2.462.1-4.978.108-7.446s.048-4.918.054-7.374C208.9,81.085,209.278,78.509,208.044,76.679Z" transform="translate(-162.619 -59.433)" fill="#29b6f6"/>
          <path id="Path_10674" data-name="Path 10674" d="M186.586,68.173,171.332,49.717,170.17,49.5,144.4,70.731l15.206,18.456,1.162.223Z" transform="translate(-139.126 -49.5)" fill="#455a64"/>
          <path id="Path_10675" data-name="Path 10675" d="M172.1,49.86,146.32,71.091l15.212,18.462L187.35,68.316Z" transform="translate(-139.89 -49.643)" fill="#263238"/>
          <path id="Path_10676" data-name="Path 10676" d="M150.905,87.952a4.581,4.581,0,0,1-.355,3.389,4.816,4.816,0,0,1-2.607,1.914,11.065,11.065,0,0,0-4.521,2.631c-1.439,1.6-1.806,3.329-1.511,5.887a.819.819,0,0,1-.187.638,1.065,1.065,0,0,1-.427.241,8.771,8.771,0,0,0-4.972,5.3c-.831,2.336-1.053,5.6.157,7.826a11.877,11.877,0,0,0,4.015,4.34c3.431,2.245,7.657,3.106,11.678,3.509l.686.066c8.969.777,19.263,1.005,27.179-3.257,3.913-2.095,8.084-4.376,8.578-10.938a9.282,9.282,0,0,0-6.513-9.788c.909-1.637,1.806-2.907.909-5.55-.566-1.643-2.2-2.9-3.54-3.991a5.082,5.082,0,0,1-1.956-4.045,17.886,17.886,0,0,1,.157-3.2c1.276-.65,1.439-2.462,1.065-3.714,0,0-1.144-3.148-1.174-3.2a10.893,10.893,0,0,0-8.084-4.214c-2.739-.247-5.363-.6-8.1,0a17.18,17.18,0,0,0-7.374,3.612,10.836,10.836,0,0,0-2.149,2.4,10.053,10.053,0,0,0-1.4,3.865,13.906,13.906,0,0,0,.126,5.038C150.676,87.115,150.779,87.53,150.905,87.952Z" transform="translate(-135.638 -58.245)" fill="#b16668"/>
          <g id="freepik--Arm--inject-2" transform="translate(39.167 44.979)">
            <path id="freepik--arm--inject-2-2" data-name="freepik--arm--inject-2" d="M200.737,124.419c7.934-1.354,10.5,4.539,11.191,8.247.789,4.262.7,14.279.7,14.279L224.142,155l-4.063,7.47s-10.4-4.545-13.845-6.254c-3.8-1.878-3.3-3.064-3.828-8.939S200.467,127.79,200.737,124.419Z" transform="translate(-200.703 -124.221)" fill="#37474f"/>
          </g>
          <path id="Path_10677" data-name="Path 10677" d="M148.273,181.1c.126-1.655-.837-15.591.409-28.353.4-4.081,4.473-21.43,5.478-24.5l8.042-2.281s7-.879,15.651-1.324l1.914-.09c.548.554,9.029,6.748,11.636,13.58,1.252,3.293,1.342,11.654,1.469,17.836.132,6.3.8,8.151,2.137,9.029-.909,6.808-10.462,15.127-21.924,17.782C159.326,185.944,149.134,181.6,148.273,181.1Z" transform="translate(-140.573 -79.373)" fill="#455a64"/>
          <path id="Path_10678" data-name="Path 10678" d="M148.43,206.938c.247,12.689,2.926,17.457,9.367,22.6,6.983,5.574,20.816,8.036,27.04,8.632,8.506.8,17.625,1.035,17.625,1.035s-.789-9.186,3.437-15.332,17.583-28.485,31.742-32.777c-2.552-1.98-7.025-2.077-21.93-.734s-20.2,1.95-22.273-.885Z" transform="translate(-140.73 -105.212)" fill="#455a64"/>
          <path id="Path_10679" data-name="Path 10679" d="M188.739,143.9a14.507,14.507,0,0,0,3.756-2.7c-.271-.439-.56-.867-.861-1.288-.138.163-.283.319-.439.476a12.834,12.834,0,0,1-2.751,1.992,30.26,30.26,0,0,1-7.224,2.793,43.124,43.124,0,0,1-16.5.662,67.764,67.764,0,0,1-9.517-2.083c-.6-.169-.752,1.071-.259,1.2C165.81,148.169,178.337,149.379,188.739,143.9Z" transform="translate(-143.205 -85.486)" fill="#37474f"/>
          <g id="freepik--Laptop--inject-2" transform="translate(0.807 48.873)">
            <path id="Path_10680" data-name="Path 10680" d="M192.78,227.795v.758a2.149,2.149,0,0,0,1.065,1.86l20.4,11.859a2.107,2.107,0,0,0,1.072.289,2.185,2.185,0,0,0,1.072-.277L254,220.788a2.143,2.143,0,0,0,1.078-1.854v-.524l-39.73,22.724Z" transform="translate(-159.19 -165.606)" fill="#e0e0e0"/>
            <path id="Path_10681" data-name="Path 10681" d="M255.073,209.741l-22.188-12.936a1.27,1.27,0,0,0-1.282,0l-38.694,22.11a.283.283,0,0,0,0,.488l22.4,13.063Z" transform="translate(-159.185 -156.937)" fill="#f0f0f0"/>
            <path id="Path_10682" data-name="Path 10682" d="M221.977,235.126,210.01,228.15l35.173-20.1,12.027,6.935Z" transform="translate(-166.048 -161.482)" fill="#fafafa"/>
            <path id="Path_10683" data-name="Path 10683" d="M220.24,216.96l.217.132,5.869,3.419,10.48-6,.223-.12-6.092-3.546Z" transform="translate(-170.12 -162.597)" fill="#e0e0e0"/>
            <path id="Path_10684" data-name="Path 10684" d="M220.6,217.256l5.869,3.419,10.48-6-5.869-3.419Z" transform="translate(-170.263 -162.76)" fill="#fafafa"/>
            <g id="Group_3096" data-name="Group 3096" transform="translate(56.128 52.804)" opacity="0.2">
              <path id="Path_10685" data-name="Path 10685" d="M230.22,241.134v1.427a2.185,2.185,0,0,0,1.072-.277l37.611-21.5a2.143,2.143,0,0,0,1.078-1.854v-.524Z" transform="translate(-230.22 -218.41)"/>
            </g>
            <path id="Path_10686" data-name="Path 10686" d="M246.879,188.984a3.184,3.184,0,0,1,.313.644c.343.873.7,1.71,1.065,2.57a5.382,5.382,0,0,0,.993,1.667c.379.385,1.553,1.126,1.962.427a.758.758,0,0,0,0-.53c-.144-.752-.325-1.493-.506-2.233-.078-.319-.307-1.288,0-1.517a.7.7,0,0,1,.295-.09,2,2,0,0,0,1.2-.692.915.915,0,0,1,.247-.235,1.258,1.258,0,0,1,.451-.048.987.987,0,0,0,.668-.385,1.306,1.306,0,0,0,.2-.343,2.913,2.913,0,0,0,.15-1.1c0-.7-.03-1.4-.066-2.095a3.751,3.751,0,0,0-.126-.9,4.882,4.882,0,0,0-1.451-1.77c-.6-.6-1.264-1.2-1.938-1.758a5.683,5.683,0,0,0-1.692-1.15,13.071,13.071,0,0,0-2.095-.488,30.85,30.85,0,0,1-6.393-1.9c-.259-.108-2.318-1.2-3.233-1.716-2.733,2.161-4.292,4.605-4.063,7.47a21.388,21.388,0,0,1,2.293,1.535,12.129,12.129,0,0,1,2.558,2.558,12.214,12.214,0,0,0,1.9,2.227c1.252,1.035,2.932,1.451,4.123,2.552a1.709,1.709,0,0,0,.915.6.975.975,0,0,0,.927-.9,2.48,2.48,0,0,0-.361-1.366,11.931,11.931,0,0,0-1.686-2.468,3.828,3.828,0,0,1,3.184,1.246A1.519,1.519,0,0,1,246.879,188.984Z" transform="translate(-175.136 -148.466)" fill="#ffa8a7"/>
            <g id="freepik--arm--inject-2-3" data-name="freepik--arm--inject-2">
              <path id="Path_10687" data-name="Path 10687" d="M138.35,166.513c.674-9.956,1.481-17,2.438-24.361.6-4.485,3.01-8.969,9.379-10.932,5.55,3.425,5.231,15.019,4.665,17.836l-2.468,17.668s2.889,2.041,7.958,5.376c4.214,2.793,7.043,5.261,11.9,5.514s6.8-.036,9.385.891c1.379.488,4.521,1.637,5.6,2.095s3.064,2.221,4.876,3.377c1.71,1.2-.271,2.035-1.559,1.752a16.307,16.307,0,0,1-3.907-1.589,22.17,22.17,0,0,0-3.335-1.023,19.261,19.261,0,0,1,.939,3.744c.054.692.259,1.523-.313,2.071a5.218,5.218,0,0,1-1.409.7,1.036,1.036,0,0,1-.241.686,1.728,1.728,0,0,1-1.2.4,5.28,5.28,0,0,1-.71-.054,1.276,1.276,0,0,1-.728,1.047,5.634,5.634,0,0,1-2.95.3c-.15-.048-1.288-.572-1.625-.716a2.956,2.956,0,0,1-1.132-.6c-.265-.343.355-1.2.915-1.348a5.833,5.833,0,0,1,1.89,0,6.62,6.62,0,0,1-.656-1.583c-.566-.789-4.214.295-7.537-.06-2.51-.265-4.461-2.5-5.61-2.932-7.374-2.763-11.239-3.714-18.878-7.326C137.742,174.471,138,171.774,138.35,166.513Z" transform="translate(-137.465 -130.901)" fill="#ffa8a7"/>
              <path id="Path_10688" data-name="Path 10688" d="M212.966,216.267c-.445-.909-1.1-1.986-1.836-2.2a8.343,8.343,0,0,1,1.2,2.023C212.533,216.159,212.749,216.213,212.966,216.267Z" transform="translate(-166.494 -163.878)" fill="#f28f8f"/>
              <path id="Path_10689" data-name="Path 10689" d="M210.146,223.251a7.825,7.825,0,0,0-.072-2.053,19.037,19.037,0,0,0-.4-2,8.649,8.649,0,0,0-.686-1.95,3.75,3.75,0,0,0-1.33-1.553,2.9,2.9,0,0,1,.6.789,6.913,6.913,0,0,1,.445.9,14.106,14.106,0,0,1,.6,1.914c.169.65.325,1.312.482,1.968A16.859,16.859,0,0,1,210.146,223.251Z" transform="translate(-165.112 -164.523)" fill="#f28f8f"/>
              <path id="Path_10690" data-name="Path 10690" d="M206.618,225.021a9.362,9.362,0,0,0-.132-2.011,17.125,17.125,0,0,0-.427-1.968,13.438,13.438,0,0,0-.68-1.9,3.865,3.865,0,0,0-1.138-1.655,2.516,2.516,0,0,1,.506.843c.132.3.247.6.355.921.2.6.4,1.258.6,1.9C206.034,222.4,206.377,223.678,206.618,225.021Z" transform="translate(-163.751 -165.24)" fill="#f28f8f"/>
              <path id="Path_10691" data-name="Path 10691" d="M199.05,227.627a3.43,3.43,0,0,1,.843.06c.271.048.47.169.813.253l-.15-.211a.807.807,0,0,0,.078.4.946.946,0,0,0,.211.295,1.144,1.144,0,0,0,.6.331,2.481,2.481,0,0,1-.373-.494,1.114,1.114,0,0,1-.1-.253.668.668,0,0,1,0-.229v-.157l-.157-.054a2.523,2.523,0,0,0-.795-.114,1.68,1.68,0,0,0-.969.175Z" transform="translate(-161.685 -169.2)" fill="#f28f8f"/>
              <path id="Path_10692" data-name="Path 10692" d="M149.759,130.69c-2.9.211-7.32,1.409-9.029,4.214s-1.625,10.51-2.113,15.446c-.6,6.152-1.174,12.5-1.535,17.349-.253,3.491-.175,5.965,1.806,7.7s15.163,6.146,15.163,6.146c.06-2.48,2.083-8.3,5.081-10.143l-6.688-5.081,2.51-18.276S156.658,133.646,149.759,130.69Z" transform="translate(-136.979 -130.69)" fill="#37474f"/>
            </g>
            <path id="Path_10693" data-name="Path 10693" d="M231.22,223.681a2.552,2.552,0,0,0,2.191-.157l37.442-21.406a2.534,2.534,0,0,0,1.246-1.77l4.214-24.367a2.4,2.4,0,0,0,.036-.415,2.528,2.528,0,0,0-.746-1.806l-38.911,22.273a1.878,1.878,0,0,0-.921,1.306Z" transform="translate(-174.49 -147.833)" fill="#fafafa"/>
            <path id="Path_10694" data-name="Path 10694" d="M230.22,223.079l.253.15a2.658,2.658,0,0,0,.349.169l4.533-26.372a1.878,1.878,0,0,1,.921-1.306l38.911-22.273a2.409,2.409,0,0,0-.518-.4L235.68,195.323a1.878,1.878,0,0,0-.921,1.306Z" transform="translate(-174.092 -147.551)" fill="#e0e0e0"/>
            <path id="Path_10695" data-name="Path 10695" d="M264.407,215.26a8.2,8.2,0,0,1,3.786-4.816c1.812-1.023,3.052-.548,2.769,1.084a8.2,8.2,0,0,1-3.786,4.816C265.364,217.367,264.148,216.891,264.407,215.26Z" transform="translate(-187.686 -162.221)" fill="#29b6f6"/>
          </g>
          <g id="freepik--Head--inject-2" transform="translate(14.11 16.827)">
            <g id="freepik--head--inject-2-2" data-name="freepik--head--inject-2">
              <g id="freepik--head--inject-2-3" data-name="freepik--head--inject-2">
                <path id="Path_10696" data-name="Path 10696" d="M164.894,97.725a4.3,4.3,0,0,1-3.889-1.342c-2.089-2.143-2.336-4.37-1.427-5.881a3.173,3.173,0,0,1,4.009-1.276c1.457.843,1.523,1.565,2.089,2.546s1.944.175,1.372-3.828c2.757-1.36,2.191-5.941,3.654-7.826,2.281-3.01,6.188-2.336,7.47-1.679a5.177,5.177,0,0,1,5.291-.47c1.9.939,3.708,2.787,4.214,10.095s-.253,10.787-1.661,12.593a8.05,8.05,0,0,1-6.393,2.889l.084,2.739s7.717,7.513-1.89,7.061a16.26,16.26,0,0,1-11.365-5.773V96.557S166.321,97.424,164.894,97.725Z" transform="translate(-159.079 -77.453)" fill="#ffa8a7"/>
                <circle id="Ellipse_1228" data-name="Ellipse 1228" cx="2.318" cy="2.318" r="2.318" transform="translate(10.439 10.677)" fill="#f28f8f"/>
                <path id="Path_10697" data-name="Path 10697" d="M201.23,97.026a2.293,2.293,0,0,0,3.389,2.041c0-1.2-.048-2.6-.157-4.154h0a2.227,2.227,0,0,0-.915-.193,2.318,2.318,0,0,0-2.318,2.306Z" transform="translate(-175.856 -84.326)" fill="#f28f8f"/>
                <path id="Path_10698" data-name="Path 10698" d="M185.128,94.954a1.2,1.2,0,1,1-1.2-1.2A1.2,1.2,0,0,1,185.128,94.954Z" transform="translate(-168.489 -83.94)" fill="#263238"/>
                <circle id="Ellipse_1229" data-name="Ellipse 1229" cx="1.204" cy="1.204" r="1.204" transform="translate(23.754 9.473)" fill="#263238"/>
                <path id="Path_10699" data-name="Path 10699" d="M192.043,107.872a2.143,2.143,0,0,1-2.474,1.716,2.107,2.107,0,0,1-1.746-2.408Z" transform="translate(-170.51 -89.285)" fill="#b16668"/>
                <path id="Path_10700" data-name="Path 10700" d="M187.85,108.26a2.107,2.107,0,0,0,1.74,1.746,2.287,2.287,0,0,0,.758,0A2.173,2.173,0,0,0,187.85,108.26Z" transform="translate(-170.531 -89.703)" fill="#f28f8f"/>
                <path id="Path_10701" data-name="Path 10701" d="M201.487,87.282l-2.787-.831a1.415,1.415,0,0,1,1.806-.987A1.493,1.493,0,0,1,201.487,87.282Z" transform="translate(-174.849 -80.614)" fill="#263238"/>
                <path id="Path_10702" data-name="Path 10702" d="M184.143,86.646l-2.926,1.078a1.463,1.463,0,0,1,.849-1.968A1.655,1.655,0,0,1,184.143,86.646Z" transform="translate(-167.841 -80.718)" fill="#263238"/>
                <path id="Path_10703" data-name="Path 10703" d="M195.313,89.436l-.548-.042a16.444,16.444,0,0,0-5.418.379c-1.7.6-2.281,1.162-3.245,1.2s-1.716-.506-3.612-.933a19.224,19.224,0,0,0-5.833.06l-.6.084a.867.867,0,0,0-.6.945,2.119,2.119,0,0,0,.6,1.053,1.2,1.2,0,0,1,.217.421,18.621,18.621,0,0,0,.9,2.926,3.925,3.925,0,0,0,.813,1.035,4.131,4.131,0,0,0,.4.3l.229.132a3.613,3.613,0,0,0,.668.265h.114l.175.042a1.709,1.709,0,0,0,.187.036,5.414,5.414,0,0,0,.6.066h.554a3.848,3.848,0,0,0,3.847-2.354c.524-1.15.271-2.721,1.372-2.757h.2c.825.15.819,1.6,1.4,2.631a4.49,4.49,0,0,0,.849,1.108l.2.175.108.078.108.072.1.066.108.06.084.048.06.03a3.714,3.714,0,0,0,.975.331h.09a5.111,5.111,0,0,0,1.168.066,3.26,3.26,0,0,0,3.251-2.185,17.884,17.884,0,0,0,.494-3.01.813.813,0,0,1,.181-.4,1.956,1.956,0,0,0,.433-1.114.921.921,0,0,0-.626-.825Zm-11.2,4.629a3.178,3.178,0,0,1-.734,1.6h0a3.383,3.383,0,0,1-2.546.993,3.058,3.058,0,0,1-2.576-1.041l-.09-.108-.078-.108-.066-.1a.518.518,0,0,1-.06-.1l-.042-.072-.036-.066-.06-.108h0c-.054-.114-.1-.217-.144-.325h0l-.072-.193c-.042-.114-.072-.223-.1-.313V94c-.235-.777-.548-2.306-.163-2.667a4.744,4.744,0,0,1,3.245-.668h.193a4.685,4.685,0,0,1,.819.1l.325.06a7.49,7.49,0,0,1,.807.217l.247.084.271.108.054.03.1.042a1.691,1.691,0,0,1,.56.391A3.679,3.679,0,0,1,184.111,94.065Zm10.36-.716a2.844,2.844,0,0,1-2.829,2.9,3.01,3.01,0,0,1-2.733-1.1h0l-.054-.072-.06-.084a.257.257,0,0,1,0-.042.825.825,0,0,1-.078-.12l-.078-.138a.451.451,0,0,1-.042-.072v-.036a.6.6,0,0,0,0-.06.256.256,0,0,0,0-.042,4.866,4.866,0,0,1-.2-.6,3.616,3.616,0,0,1-.1-2.372,4.863,4.863,0,0,1,2.841-1.27c.289-.048.56-.072.813-.09h.945a3.882,3.882,0,0,1,.415.054h.265l.12.036a1.533,1.533,0,0,1,.2.066h.036a1.674,1.674,0,0,1,.457.247C194.712,90.989,194.591,92.536,194.471,93.349Z" transform="translate(-165.594 -82.184)" fill="#37474f"/>
                <path id="Path_10704" data-name="Path 10704" d="M196.438,99.352l-4.069,1.71-.849-5.129c.157-.764.307-1.553.975-1.613Z" transform="translate(-171.992 -84.167)" fill="#f28f8f"/>
                <path id="Path_10705" data-name="Path 10705" d="M172.379,90.85l-5.809,3.7a6.977,6.977,0,0,1,.987.734l5.063-3.142Z" transform="translate(-162.061 -82.785)" fill="#37474f"/>
              </g>
            </g>
            <path id="Path_10706" data-name="Path 10706" d="M185.3,116.887c-3.756-.042-9.987-1.547-11.967-5.887.253,4.292,4.978,6.471,7.1,7a21.026,21.026,0,0,0,4.924.6Z" transform="translate(-164.751 -90.806)" fill="#f28f8f"/>
          </g>
          <path id="Path_10707" data-name="Path 10707" d="M159.371,84.18a18.747,18.747,0,0,1,8.139-7.422c5.3-2.245,11.2-.157,11.2-.157a9.14,9.14,0,0,1,5.261-1.2,5.935,5.935,0,0,1,3.57,1.6l-2.408-8.283S182.312,65.29,174.3,65.91c-8.181.626-14,4.37-16.47,9.656Z" transform="translate(-144.471 -56.002)" fill="#37474f"/>
        </g>
      </g>
    </g>
    <g id="freepik--coffee-cup--inject-2" transform="translate(37.096 179.627)">
      <g id="freepik--coffee-cup--inject-2-2" data-name="freepik--coffee-cup--inject-2">
        <path id="Path_10708" data-name="Path 10708" d="M91.382,306.636c7.555,4.364,7.555,11.437,0,15.8s-19.811,4.364-27.371,0-7.561-11.437,0-15.8S83.821,302.271,91.382,306.636Z" transform="translate(-55.649 -280.673)" fill="#263238"/>
        <path id="Path_10709" data-name="Path 10709" d="M91.407,286.5c-7.711-4.455-20.214-4.455-27.925,0-4.123,2.408-6.02,5.556-5.749,8.674h0l4.214,49.12h0c.181,2.149,1.692,4.268,4.533,5.905,6.068,3.5,15.91,3.5,21.978,0,2.841-1.637,4.352-3.756,4.533-5.905h0L97.2,295.169h0C97.445,292.057,95.531,288.885,91.407,286.5Z" transform="translate(-55.398 -272.632)" fill="#f0f0f0"/>
        <path id="Path_10710" data-name="Path 10710" d="M91.427,286.5c-6.357-3.672-15.964-4.31-23.477-1.932h0c-.6.2-1.24.421-1.806.662l-.187.072-.4.175-.343.157-.331.15-.427.217-.253.126c-.223.12-.451.241-.668.367-4.123,2.408-6.02,5.556-5.749,8.674h0L62,344.292h0c.181,2.149,1.692,4.268,4.533,5.905a20.9,20.9,0,0,0,8.127,2.474c-2.546-1.162-4.485-3.052-4.581-6.11-.066-2.029-.193-5.749-.343-10.125,6.622,1.866,14.814,1.2,20.31-1.956a11.51,11.51,0,0,0,4.16-3.8l1.619-18.95A12.558,12.558,0,0,1,91.2,316c-5.978,3.449-14.9,4.166-22.1,2.161-.15-4.316-.277-7.934-.343-9.842,8.054,2.017,17.764,1.126,24.343-2.679a17.049,17.049,0,0,0,3.461-2.582l.674-7.892h0C97.465,292.059,95.55,288.887,91.427,286.5Z" transform="translate(-55.417 -272.634)" opacity="0.1"/>
        <ellipse id="Ellipse_1230" data-name="Ellipse 1230" cx="19.744" cy="11.401" rx="19.744" ry="11.401" transform="translate(2.3 10.528)" fill="#e0e0e0"/>
        <path id="Path_10711" data-name="Path 10711" d="M91.5,277.624c-8.6-4.972-22.562-4.972-31.17,0-4.3,2.48-6.447,5.737-6.453,8.987v3.877c0,3.251,2.167,6.489,6.453,8.969,8.608,4.966,22.568,4.966,31.17,0,4.31-2.486,6.459-5.749,6.453-9.029v-3.822C97.962,283.367,95.813,280.11,91.5,277.624Z" transform="translate(-53.874 -268.944)" fill="#29b6f6"/>
        <path id="Path_10712" data-name="Path 10712" d="M91.5,277.624c-8.6-4.972-22.562-4.972-31.17,0-4.3,2.48-6.447,5.737-6.453,8.987v3.877c0,3.251,2.167,6.489,6.453,8.969,8.608,4.966,22.568,4.966,31.17,0,4.31-2.486,6.459-5.749,6.453-9.029v-3.822C97.962,283.367,95.813,280.11,91.5,277.624Z" transform="translate(-53.874 -268.944)" opacity="0.2"/>
        <path id="Path_10713" data-name="Path 10713" d="M67.105,275.66a26.57,26.57,0,0,0-6.772,2.667c-4.3,2.48-6.447,5.737-6.453,8.987v3.877c0,3.251,2.167,6.489,6.453,8.969a26.57,26.57,0,0,0,6.772,2.667Z" transform="translate(-53.874 -269.646)" opacity="0.2"/>
        <ellipse id="Ellipse_1231" data-name="Ellipse 1231" cx="22.044" cy="12.726" rx="22.044" ry="12.726" transform="translate(0 4.948)" fill="#29b6f6"/>
        <path id="Path_10714" data-name="Path 10714" d="M97.13,281.962h0l-.746-6.513h0c-.271-2.45-2.113-4.852-5.532-6.724-7.428-4.063-19.474-4.063-26.9,0-3.419,1.872-5.261,4.274-5.532,6.724h0l-.74,6.513h0c-.319,2.938,1.571,5.929,5.671,8.175,7.621,4.166,20.467,4.166,28.088,0C95.559,287.891,97.443,284.9,97.13,281.962Z" transform="translate(-55.372 -265.673)" fill="#29b6f6"/>
        <path id="Path_10715" data-name="Path 10715" d="M97.13,281.962h0l-.746-6.513h0c-.271-2.45-2.113-4.852-5.532-6.724-7.428-4.063-19.474-4.063-26.9,0-3.419,1.872-5.261,4.274-5.532,6.724h0l-.74,6.513h0c-.319,2.938,1.571,5.929,5.671,8.175,7.621,4.166,20.467,4.166,28.088,0C95.559,287.891,97.443,284.9,97.13,281.962Z" transform="translate(-55.372 -265.673)" opacity="0.2"/>
        <path id="Path_10716" data-name="Path 10716" d="M63.98,269.275c-3.419,1.872-5.261,4.274-5.532,6.724h0l-.74,6.513h0c-.319,2.938,1.571,5.929,5.671,8.175a23.753,23.753,0,0,0,5.237,2.029l.464-7.747.909-17.908a23.568,23.568,0,0,0-6.008,2.215Z" transform="translate(-55.384 -266.223)" opacity="0.2"/>
        <ellipse id="Ellipse_1232" data-name="Ellipse 1232" cx="19.022" cy="10.408" rx="19.022" ry="10.408" transform="translate(3.022)" fill="#29b6f6"/>
        <ellipse id="Ellipse_1233" data-name="Ellipse 1233" cx="16.397" cy="8.163" rx="16.397" ry="8.163" transform="translate(5.646 2.245)" fill="#29b6f6"/>
        <ellipse id="Ellipse_1234" data-name="Ellipse 1234" cx="16.397" cy="8.163" rx="16.397" ry="8.163" transform="translate(5.646 2.245)" opacity="0.2"/>
        <path id="Path_10717" data-name="Path 10717" d="M91.637,278.828c-6.4-3.19-16.789-3.19-23.194,0a9.149,9.149,0,0,0-4.214,3.654,9.414,9.414,0,0,0,4.214,3.66c6.4,3.184,16.789,3.184,23.194,0a9.188,9.188,0,0,0,4.214-3.66A9.181,9.181,0,0,0,91.637,278.828Z" transform="translate(-57.994 -269.955)" fill="#29b6f6"/>
        <path id="Path_10718" data-name="Path 10718" d="M91.637,278.828c-6.4-3.19-16.789-3.19-23.194,0a9.149,9.149,0,0,0-4.214,3.654,9.414,9.414,0,0,0,4.214,3.66c6.4,3.184,16.789,3.184,23.194,0a9.188,9.188,0,0,0,4.214-3.66A9.181,9.181,0,0,0,91.637,278.828Z" transform="translate(-57.994 -269.955)" fill="#fff" opacity="0.1"/>
        <path id="Path_10719" data-name="Path 10719" d="M93.569,274.7,74.246,285.86a23.061,23.061,0,0,1-6.176-1.932c-2.974-1.481-4.569-3.4-4.78-5.333.211-1.938,1.806-3.847,4.78-5.333,6.4-3.184,16.789-3.184,23.194,0a13.55,13.55,0,0,1,2.306,1.439Z" transform="translate(-57.619 -267.741)" fill="#29b6f6"/>
        <path id="Path_10720" data-name="Path 10720" d="M93.569,274.7,74.246,285.86a23.061,23.061,0,0,1-6.176-1.932c-2.974-1.481-4.569-3.4-4.78-5.333.211-1.938,1.806-3.847,4.78-5.333,6.4-3.184,16.789-3.184,23.194,0a13.55,13.55,0,0,1,2.306,1.439Z" transform="translate(-57.619 -267.741)" fill="#fff" opacity="0.2"/>
        <path id="Path_10721" data-name="Path 10721" d="M102.035,281.739,90,288.7a32.4,32.4,0,0,1-8.476-.313l19.323-11.16Z" transform="translate(-64.876 -270.271)" fill="#29b6f6"/>
        <path id="Path_10722" data-name="Path 10722" d="M102.035,281.739,90,288.7a32.4,32.4,0,0,1-8.476-.313l19.323-11.16Z" transform="translate(-64.876 -270.271)" opacity="0.1"/>
        <path id="Path_10723" data-name="Path 10723" d="M112.19,292.317l-2.787,1.607a1.156,1.156,0,0,1-1.029-.042h0c-.307-.175-.337-.439-.072-.6l2.787-1.607a1.144,1.144,0,0,1,1.023.042h0C112.418,291.9,112.448,292.167,112.19,292.317Z" transform="translate(-75.464 -275.98)" opacity="0.5"/>
        <path id="Path_10724" data-name="Path 10724" d="M97.046,322.86l-1.637,19.064c-.2,2.45-1.92,4.87-5.165,6.742-6.917,4-18.131,4-25.048,0-3.467-2-5.195-4.623-5.189-7.224L58.4,322.932c.265,2.643,2.143,5.231,5.634,7.224,7.561,4.364,19.811,4.364,27.371,0,3.521-2.035,5.418-4.659,5.64-7.326Z" transform="translate(-55.673 -288.422)" fill="#455a64"/>
        <path id="Path_10725" data-name="Path 10725" d="M104.165,347.136a8.831,8.831,0,0,1,2.6-1.686.506.506,0,0,0,.042-.915c-1.89-.939-4.545-.319-6.423,1.643-1.98,2.077-2.408,4.924-1.114,6.742a.518.518,0,0,0,.728.09,7.693,7.693,0,0,0,2.324-3.227,7.747,7.747,0,0,1,1.842-2.649Zm4.28-.993a.524.524,0,0,0-.662-.217,8.054,8.054,0,0,0-4.093,3.774,22.814,22.814,0,0,1-1.372,2.739,5.273,5.273,0,0,1-1.553,1.469c-.084.048-.048.253.06.3a5.791,5.791,0,0,0,6.248-1.728C108.891,350.579,109.4,347.961,108.445,346.143Z" transform="translate(-71.647 -296.89)" fill="#263238"/>
        <path id="Path_10726" data-name="Path 10726" d="M70.195,332.631a23.386,23.386,0,0,1-6.17-2.408c-3.491-2.017-5.37-4.605-5.634-7.224L60,341.48c0,2.625,1.722,5.249,5.189,7.224a21.374,21.374,0,0,0,5.658,2.2Z" transform="translate(-55.669 -288.489)" fill="#37474f"/>
      </g>
    </g>
  </g>
</svg>
