<svg xmlns="http://www.w3.org/2000/svg" xmlns:xlink="http://www.w3.org/1999/xlink" width="329.515" height="336.782" viewBox="0 0 329.515 336.782">
  <defs>
    <filter id="Path_850">
      <feOffset dx="2" dy="3" input="SourceAlpha"/>
      <feGaussianBlur stdDeviation="3" result="blur"/>
      <feFlood flood-opacity="0.569" result="color"/>
      <feComposite operator="out" in="SourceGraphic" in2="blur"/>
      <feComposite operator="in" in="color"/>
      <feComposite operator="in" in2="SourceGraphic"/>
    </filter>
  </defs>
  <g id="Typewriter-bro" transform="translate(7.7 8.724)">
    <path id="Path_633" data-name="Path 633" d="M146.734,28.354c71.549-6.347,71.693,34.009,103.936,71.624s39.15,54.677,26.992,98.039-53.119,77.388-103.8,58.1-79.708-.762-111.674-17.887-43.853-50.148-20.438-89.1S58.486,36.218,146.734,28.354Z" transform="translate(360.535 96.569) rotate(120)" fill="#3f3f3f"/>
    <g id="Reading_a_letter-rafiki" data-name="Reading a letter-rafiki" transform="translate(-50.548 -169.43)">
      <g id="freepik--Letter--inject-2" transform="translate(143.862 205.12)">
        <path id="Path_847" data-name="Path 847" d="M355.7,372.581H221.481a3.041,3.041,0,0,1-3.041-3.041V277.519l64.3-48.652a6.743,6.743,0,0,1,8.012-.106l67.984,48.759v92.044a3.041,3.041,0,0,1-3.041,3.018Z" transform="translate(-218.44 -172.476)" fill="#29b6f6"/>
        <path id="Path_848" data-name="Path 848" d="M355.7,372.581H221.481a3.041,3.041,0,0,1-3.041-3.041V277.519l64.3-48.652a6.743,6.743,0,0,1,8.012-.106l67.984,48.759v92.044a3.041,3.041,0,0,1-3.041,3.018Z" transform="translate(-218.44 -172.476)" opacity="0.37"/>
        <path id="Path_849" data-name="Path 849" d="M337.764,311.894H242.74a8.362,8.362,0,0,0,3.8-7.017V162.228a7.83,7.83,0,0,1,4.561-7.108h95.024a7.83,7.83,0,0,0-4.561,7.108v142.65a8.362,8.362,0,0,1-3.8,7.017Z" transform="translate(-224.267 -155.12)" fill="#29b6f6"/>
        <g data-type="innerShadowGroup">
          <path id="Path_850-2" data-name="Path 850" d="M337.764,311.894H242.74a8.362,8.362,0,0,0,3.8-7.017V162.228a7.83,7.83,0,0,1,4.561-7.108h95.024a7.83,7.83,0,0,0-4.561,7.108v142.65a8.362,8.362,0,0,1-3.8,7.017Z" transform="translate(-224.267 -155.12)" fill="#2a2a2a"/>
          <g transform="matrix(1, 0, 0, 1, -101.01, -44.41)" filter="url(#Path_850)">
            <path id="Path_850-3" data-name="Path 850" d="M337.764,311.894H242.74a8.362,8.362,0,0,0,3.8-7.017V162.228a7.83,7.83,0,0,1,4.561-7.108h95.024a7.83,7.83,0,0,0-4.561,7.108v142.65a8.362,8.362,0,0,1-3.8,7.017Z" transform="translate(-123.25 -110.71)" fill="#fff"/>
          </g>
          <path id="Path_850-4" data-name="Path 850" d="M337.764,311.894H242.74a8.362,8.362,0,0,0,3.8-7.017V162.228a7.83,7.83,0,0,1,4.561-7.108h95.024a7.83,7.83,0,0,0-4.561,7.108v142.65a8.362,8.362,0,0,1-3.8,7.017Z" transform="translate(-224.267 -155.12)" fill="none" stroke="rgba(0,0,0,0.22)" stroke-width="1"/>
        </g>
        <path id="Path_851" data-name="Path 851" d="M338.082,210.981c-1.346-.669-5.382.061-6.439.182s-1.558.061-2.524.175-1.064,0-1.232-.357-1.855-.122-2.281-.281-4.219.646-8.279.639-1.338.068-1.923-.639-2.539.525-2.965.6-1.429.106-1.581-.623-1.2.76-2.227.608,1.194-1.756-.213-1.034a17.884,17.884,0,0,1-4.645,1.034l1.026.76c-3.877.061-7.252.122-7.929.182s-1.095.061-1.855-1.163-.677.312-3.543,1.041-3.542.547-4.9-.122-2.022.061-3.041.182-1.558.061-2.524.175-1.057,0-1.232-.357-1.855-.122-2.281-.281-4.219.646-8.279.639-1.338.068-1.923-.639-2.539.525-2.957.6-1.437.106-1.581-.623-1.209.76-2.227.608,1.194-1.756-.22-1.034a17.947,17.947,0,0,1-4.645,1.034" transform="translate(-227.368 -168.296)" fill="none" stroke="#fff" stroke-linecap="round" stroke-linejoin="round" stroke-width="1"/>
        <path id="Path_852" data-name="Path 852" d="M281.783,173.661c-.426-.16-4.219.646-8.279.639s-1.338.068-1.916-.639-2.547.525-2.965.6-1.437.106-1.581-.623-1.2.76-2.227.608,1.194-1.756-.213-1.026a17.481,17.481,0,0,1-4.652,1.026" transform="translate(-228.394 -159.415)" fill="none" stroke="#fff" stroke-linecap="round" stroke-linejoin="round" stroke-width="1"/>
        <path id="Path_853" data-name="Path 853" d="M357.193,314.22c-.418-.16-4.211.646-8.271.639s-1.346.068-1.923-.639-2.539.525-2.965.6-1.429.106-1.581-.623-1.2.76-2.227.608,1.194-1.756-.213-1.034a17.92,17.92,0,0,1-4.652,1.034" transform="translate(-246.478 -193.121)" fill="none" stroke="#fff" stroke-linecap="round" stroke-linejoin="round" stroke-width="1"/>
        <path id="Path_854" data-name="Path 854" d="M255.56,222.171a2.189,2.189,0,0,1,1.71,0l.684-.487c.4.479,1.148.35,1.7.076a3.178,3.178,0,0,1,1.7-.608c-.038.258-.084.525-.122.76a8.713,8.713,0,0,0,2.349-.654.471.471,0,0,0,.2.631,1.232,1.232,0,0,0,.707.106l7.024-.251,1.239-.046a.289.289,0,0,1,.182.35,4.151,4.151,0,0,0,2.349-1.285,1.049,1.049,0,0,0,.8,1.171,2.152,2.152,0,0,0,1.52-.274,1.908,1.908,0,0,1,.654-.251.5.5,0,0,1,.54.357c.433-.2.9.144,1.361.266a3.042,3.042,0,0,0,.874.053l9.487-.388,2.319.449a17.8,17.8,0,0,0,4.652-1.026c1.406-.722-.806.844.213,1.026s2.083-1.338,2.227-.608,1.163.7,1.581.623,2.387-1.3,2.965-.593-2.136.623,1.923.631,7.853-.76,8.271-.631,2.113-.084,2.281.274.258.471,1.232.357,1.467-.053,2.524-.175,1.726-.844,3.079-.182,2.022.851,4.9.122,2.782-2.281,3.542-1.034,5.2,1.216,5.869,1.155" transform="translate(-227.342 -170.79)" fill="none" stroke="#fff" stroke-linecap="round" stroke-linejoin="round" stroke-width="1"/>
        <path id="Path_855" data-name="Path 855" d="M340.853,202.651c-.289,0,.289,0,0-.053-.456-.122.433-.464,0-.266-.038-.236-4.287-.372-4.523-.35a1.8,1.8,0,0,0-.654.243,2.151,2.151,0,0,1-1.52.274,1.049,1.049,0,0,1-.76-1.171,4.2,4.2,0,0,1-2.349,1.292.3.3,0,0,0-.182-.357l-1.239.046-7.024.258a1.308,1.308,0,0,1-.707-.114.471.471,0,0,1-.2-.631,8.712,8.712,0,0,1-2.349.654c.046-.266.084-.532.122-.76a3.246,3.246,0,0,0-1.7.608c-.547.274-1.3.4-1.7-.076l-.684.494a2.159,2.159,0,0,0-1.71,0l-6.842-.669a17.69,17.69,0,0,1-3.664-.213c-.5-.281-2.281.707-2.281.707h-2.281l-2.912.106v-.555a22.489,22.489,0,0,1-3.413.449c-1.642.061-2.022.3-2.1-.449s-2.2.205-3.892.555-1.346.281-1.855-.555-1.14.114-2.022.456a3.6,3.6,0,0,1-2.911,0c-.76-.464-4.052.289-5.39.3s-.053-.373-.334-1.019-1.239,1.095-2.144,1.019.76-1.741-.509-1.612a11.228,11.228,0,0,0-3.4,1.406" transform="translate(-230.26 -166.185)" fill="none" stroke="#fff" stroke-linecap="round" stroke-linejoin="round" stroke-width="1"/>
        <path id="Path_856" data-name="Path 856" d="M332.181,231.07c-.5,0-1.186-.388-1.148-1.482-.342-.335-.715.266-1.041.684s-.874.464-.965-.342a1,1,0,0,1-1.574-.122,1.285,1.285,0,0,1-1.467.927l-13.425-.563a1.52,1.52,0,0,1-.943-.266c-.2-.152-.372-.4-.578-.479-.547-.243-1.041.7-1.52,1.262s-1.308.449-1.391-.76c-.57,1.1-1.429,1.422-2.136.76-.319.266-.661.532-1,.41a1.6,1.6,0,0,1-.585-1.52,2.554,2.554,0,0,1-1.52,2.014,2.881,2.881,0,0,1-1.847-.35l-5.39.213a16.518,16.518,0,0,1-5.321-.433c.046.372-.525.517-.943.525l-3.542.061a1.915,1.915,0,0,1-.76-.1.517.517,0,0,1-.35-.578,4.8,4.8,0,0,1-2.227.046c-.418-.22-.874.2-1.308.388a2.919,2.919,0,0,1-1.239.16l-6.12-.1a1.779,1.779,0,0,1-1.482-.479,7.13,7.13,0,0,0-2.417,1.52,2.47,2.47,0,0,0,0-1.33,5.9,5.9,0,0,0-1.756,1c-.068-.829-.144-1.657-.22-2.478-1.216.137-2.06,1.292-3.284,1.414a15.707,15.707,0,0,0-2.068-.046c-.54.122-1.194.5-1.574.129-.106-.1-.16-.251-.3-.319a.7.7,0,0,0-.547.053,8.134,8.134,0,0,1-4.888.22" transform="translate(-227.282 -172.93)" fill="none" stroke="#fff" stroke-linecap="round" stroke-linejoin="round" stroke-width="1"/>
        <path id="Path_857" data-name="Path 857" d="M254.5,251.505a11.677,11.677,0,0,0,3.717-1.034c1.125-.73-.646.851.175,1.034s1.665-1.346,1.786-.616.927.707,1.262.631,1.908-1.308,2.372-.6-1.71.631,1.52.639,6.287-.76,6.621-.639,1.688-.084,1.824.281.205.464.981.357,1.178-.053,2.022-.175,1.384-.851,2.471-.182,1.619.844,3.915.122,2.227-2.281,2.836-1.041.943,1.224,1.482,1.163,3.246-.122,6.348-.182l5.61-.19a8.1,8.1,0,0,0,4.88-.213.7.7,0,0,1,.547-.053c.137.068.2.213.3.319.372.365,1.026,0,1.574-.137a17.193,17.193,0,0,1,2.068.053c1.216-.122,2.06-1.277,3.284-1.422.068.829.144,1.657.22,2.478a5.839,5.839,0,0,1,1.748-1,2.4,2.4,0,0,1,0,1.33,6.949,6.949,0,0,1,2.417-1.52c.289.418.927.471,1.475.479l6.127.1a2.949,2.949,0,0,0,1.239-.16c.433-.19.889-.608,1.308-.4a4.7,4.7,0,0,0,2.227-.038.517.517,0,0,0,.35.578,1.916,1.916,0,0,0,.76.091l3.543-.061c.418,0,.981-.144.943-.517,1.726.426,1.52.578,3.269.433" transform="translate(-227.087 -177.782)" fill="none" stroke="#fff" stroke-linecap="round" stroke-linejoin="round" stroke-width="1"/>
        <path id="Path_858" data-name="Path 858" d="M342.138,240.72c-2.281.722-1.33.54-2.41-.122s-1.619.061-2.463.182-1.254.061-2.03.175-.844,0-.981-.357-1.482-.122-1.824-.281-3.375.646-6.621.639-1.072.068-1.52-.639-2.03.525-2.372.6-1.148.106-1.262-.631-.965.76-1.786.616.958-1.756-.167-1.034a11.921,11.921,0,0,1-3.725,1.034l-6.424-.2-4.827.053c-.5,0-1.178-.388-1.14-1.52-.35-.335-.715.266-1.049.684s-.874.464-.958-.342a1.011,1.011,0,0,1-1.581-.122,1.285,1.285,0,0,1-1.46.927l-13.425-.563a1.52,1.52,0,0,1-.95-.266,3.23,3.23,0,0,0-.57-.479c-.555-.243-1.049.7-1.52,1.262s-1.315.456-1.391-.76c-.578,1.1-1.437,1.422-2.144.76-.319.266-.654.54-.988.41a1.612,1.612,0,0,1-.593-1.52,2.569,2.569,0,0,1-1.52,2.014,2.912,2.912,0,0,1-1.855-.35" transform="translate(-231.423 -175.244)" fill="none" stroke="#fff" stroke-linecap="round" stroke-linejoin="round" stroke-width="1"/>
        <path id="Path_859" data-name="Path 859" d="M356.207,175.213l-13.425-.57a1.467,1.467,0,0,1-.943-.266,3.329,3.329,0,0,0-.578-.479c-.547-.236-1.041.7-1.52,1.27s-1.315.449-1.391-.76c-.578,1.1-1.437,1.422-2.144.76-.319.266-.654.54-1,.418a1.619,1.619,0,0,1-.585-1.52,2.569,2.569,0,0,1-1.52,2.014,3,3,0,0,1-1.855-.35" transform="translate(-245.493 -159.614)" fill="none" stroke="#fff" stroke-linecap="round" stroke-linejoin="round" stroke-width="1"/>
        <path id="Path_860" data-name="Path 860" d="M356.207,322.453l-13.425-.563a1.52,1.52,0,0,1-.943-.266,3.384,3.384,0,0,0-.578-.487c-.547-.236-1.041.707-1.52,1.27s-1.315.448-1.391-.76c-.578,1.1-1.437,1.422-2.144.76-.319.266-.654.532-1,.41a1.619,1.619,0,0,1-.585-1.52,2.57,2.57,0,0,1-1.52,2.014,2.9,2.9,0,0,1-1.855-.35" transform="translate(-245.493 -194.924)" fill="none" stroke="#fff" stroke-linecap="round" stroke-linejoin="round" stroke-width="1"/>
        <path id="Path_861" data-name="Path 861" d="M254.5,270.36a12.467,12.467,0,0,0,6.082-.22,1.072,1.072,0,0,1,.684-.053c.167.068.236.213.372.319.471.365,1.277,0,1.954-.137.829-.152,1.71.122,2.562.053,1.52-.122,2.562-1.277,4.082-1.422l.274,2.478a8.133,8.133,0,0,1,2.174-1,1.954,1.954,0,0,1,0,1.33,9.183,9.183,0,0,1,3-1.52,2.592,2.592,0,0,0,1.84.479l7.6.1a4.44,4.44,0,0,0,1.52-.16c.54-.19,1.1-.608,1.627-.388a7.367,7.367,0,0,0,2.767-.046c-.1.228.129.471.426.578a3.163,3.163,0,0,0,.973.1l4.4-.068c.517,0,1.224-.144,1.171-.517a25.619,25.619,0,0,0,6.614.433l5.428.289a4.249,4.249,0,0,1,2.425,0l.965-.494a2.664,2.664,0,0,0,2.41.076,6.082,6.082,0,0,1,2.417-.608c-.053.266-.114.525-.167.76a16.655,16.655,0,0,0,3.33-.654c-.205.205,0,.509.274.631a2.622,2.622,0,0,0,1.011.114l9.958-.258,1.764-.046c.2.038.327.213.258.357a6.081,6.081,0,0,0,3.079-1.285c-.182.509-.707,1.034,0,1.163" transform="translate(-227.087 -182.405)" fill="none" stroke="#fff" stroke-linecap="round" stroke-linejoin="round" stroke-width="1"/>
        <path id="Path_862" data-name="Path 862" d="M337.6,260.418c-.525-.213.54.2,0,.4s.517.16,0,.16l-8.484-.106a2.63,2.63,0,0,1-1.84-.471,9.32,9.32,0,0,0-3,1.52,1.931,1.931,0,0,0,0-1.323,7.686,7.686,0,0,0-2.174,1l-.274-2.478c-1.52.144-2.562,1.3-4.082,1.422a24.131,24.131,0,0,0-2.562-.053c-.677.129-1.52.5-1.954.129-.137-.1-.205-.251-.372-.319a1.125,1.125,0,0,0-.684.053,12.285,12.285,0,0,1-6.082.22l-2.227.2-13.463.388a6.179,6.179,0,0,1-1.247-.053c-.654-.122-1.315-.464-1.931-.266-.061-.236-.433-.372-.76-.357a3.18,3.18,0,0,0-.92.251,4.212,4.212,0,0,1-2.121.274c-.715-.129-1.315-.661-1.133-1.171a6.842,6.842,0,0,1-3.33,1.285c.061-.137-.061-.312-.266-.357l-1.756.053-9.959.251a2.592,2.592,0,0,1-1.011-.106c-.3-.129-.479-.433-.281-.631a16.452,16.452,0,0,1-3.33.654c.061-.266.114-.532.175-.8a5.93,5.93,0,0,0-2.417.616,2.689,2.689,0,0,1-2.41-.076l-.973.487a4.31,4.31,0,0,0-2.425,0" transform="translate(-227.042 -180.058)" fill="none" stroke="#fff" stroke-linecap="round" stroke-linejoin="round" stroke-width="1"/>
        <path id="Path_863" data-name="Path 863" d="M254.29,280.594a6.081,6.081,0,0,0,1.923.167,2.068,2.068,0,0,0,1.612-1,.76.76,0,0,0,.608.76,1.992,1.992,0,0,0,1.034-.205,2.121,2.121,0,0,0,2.227-.4c.084.608.927.669,1.444.388s1.034-.76,1.6-.631a4.468,4.468,0,0,1,.6.236,2.866,2.866,0,0,0,.981.137l13.965.281a1.794,1.794,0,0,0,1.52-.464,1.863,1.863,0,0,0,1.642.061c.091.4.661.372,1,.167s.722-.5,1.079-.335c-.038.54.669.76,1.194.76h5.017l1.779-.091a4.25,4.25,0,0,1,2.425,0l.973-.494a2.688,2.688,0,0,0,2.41.076,5.915,5.915,0,0,1,2.417-.608c-.061.266-.114.525-.175.76a16.623,16.623,0,0,0,3.337-.654c-.205.205,0,.509.274.631a2.592,2.592,0,0,0,1.011.114l9.959-.258,1.756-.046c.205.038.327.213.266.357a6.941,6.941,0,0,0,3.33-1.292c-.182.517.426,1.041,1.133,1.171a4.112,4.112,0,0,0,2.121-.274,3.147,3.147,0,0,1,.927-.243c.327,0,.7.114.76.35a4.227,4.227,0,0,1,1.931.266,5.672,5.672,0,0,0,1.247.053" transform="translate(-227.037 -184.832)" fill="none" stroke="#fff" stroke-linecap="round" stroke-linejoin="round" stroke-width="1"/>
        <path id="Path_864" data-name="Path 864" d="M358.751,293.3v92.052a3.041,3.041,0,0,1-2.714,3H221.179a3.041,3.041,0,0,1-2.7-3V293.3l59.759,41.248,3.269,2.281,5.245,3.626,5.542-3.626,3.451-2.281Z" transform="translate(-218.45 -188.257)" fill="#61cdff"/>
        <path id="Path_865" data-name="Path 865" d="M358.75,397.16v.9a3.216,3.216,0,0,1-2.714,3.284H221.178a3.216,3.216,0,0,1-2.7-3.284v-.912l59.759-49.6,3.269,2.281,5.245,3.626,5.542-3.626,3.451-2.281Z" transform="translate(-218.449 -201.266)" opacity="0.2"/>
        <path id="Path_866" data-name="Path 866" d="M358.741,397.51v.829a3.041,3.041,0,0,1-3.041,3.041H221.481a3.041,3.041,0,0,1-3.041-3.041v-.829l63.027-47.717,1.277-.965a6.751,6.751,0,0,1,8.012-.106l1.52,1.072Z" transform="translate(-218.44 -201.244)" fill="#61cdff"/>
      </g>
      <g id="freepik--Character--inject-2" transform="translate(97.649 210.8)">
        <path id="Path_867" data-name="Path 867" d="M188.013,164.628a6.127,6.127,0,0,1,5.732-1.923c3.8.6,11.4,7.229,10.7,14.39s-2.912,13.683-5.162,13.972c0,0-2-2.547-12.505-2.227s-8.6-6.325-6.887-11.623S181.095,162.142,188.013,164.628Z" transform="translate(-162.659 -162.591)" fill="#263238"/>
        <path id="Path_868" data-name="Path 868" d="M208.585,204.08c2.091,1.954,8.879,13.455,9.677,13.957s1.14-4.736,1.14-4.736l3.7-.654s2,12.688-3.368,11.532c-6.021-1.308-13.927-12.285-13.927-12.285s.57-3.558.859-4.858A8.383,8.383,0,0,1,208.585,204.08Z" transform="translate(-169.198 -172.541)" fill="#29b6f6"/>
        <path id="Path_869" data-name="Path 869" d="M219.737,224.179c-4.652-1.011-10.422-7.784-12.809-10.818-.707-.9-1.117-1.467-1.117-1.467s.3-1.878.57-3.4c.106-.578.213-1.1.289-1.46a8.413,8.413,0,0,1,1.916-2.957c2.091,1.954,8.879,13.455,9.677,13.957s1.14-4.736,1.14-4.736l3.7-.654S225.1,225.3,219.737,224.179Z" transform="translate(-169.198 -172.541)" fill="#81d4fa"/>
        <path id="Path_870" data-name="Path 870" d="M206.927,214.755c-.707-.9-1.117-1.467-1.117-1.467s.3-1.878.57-3.4A9.442,9.442,0,0,1,206.927,214.755Z" transform="translate(-169.198 -173.934)" opacity="0.2"/>
        <path id="Path_871" data-name="Path 871" d="M195.909,212.22c-.973,2.919-1.733,5.443-2.349,7.708a86.374,86.374,0,0,0-3.185,17.393l-23.406-2.516c-.616-16.724,0-25.945.509-30.537.57-4.888,1.33-5.055,1.33-5.055s5.321-.41,9.943-.281a74.724,74.724,0,0,1,10.643,1.33,69.545,69.545,0,0,1,9.814,2.577c-.57,1.52-1.087,2.98-1.566,4.341C197,208.989,196.426,210.662,195.909,212.22Z" transform="translate(-159.822 -171.3)" fill="#29b6f6"/>
        <path id="Path_872" data-name="Path 872" d="M199.208,202.838c-.57,1.52-1.087,2.98-1.566,4.341-.639,1.809-1.216,3.482-1.733,5.04-.973,2.919-1.733,5.443-2.349,7.708a86.373,86.373,0,0,0-3.185,17.393L166.968,234.8c-.076-2.06-.129-4-.175-5.838-.091-4.135-.106-7.716-.061-10.81v-1.6c.106-5.108.357-8.757.608-11.281.046-.365.076-.7.114-1.011.57-4.888,1.33-5.055,1.33-5.055s5.321-.41,9.943-.289a75.838,75.838,0,0,1,10.643,1.338,69.549,69.549,0,0,1,9.837,2.577Z" transform="translate(-159.821 -171.299)" fill="#81d4fa"/>
        <path id="Path_873" data-name="Path 873" d="M169.659,208.126s-.555,6.173-2.889,10.445c.106-5.108.357-8.757.608-11.281A10.262,10.262,0,0,1,169.659,208.126Z" transform="translate(-159.836 -173.31)" opacity="0.2"/>
        <path id="Path_874" data-name="Path 874" d="M189.2,234.072l-6.933-.836s-1.041,2.068-2.691,2.281-5.5-2.737-5.5-2.737a19.947,19.947,0,0,1-7.283,2.281c-.091-4.135-.106-7.716-.061-10.81,2.121.152,7.6.9,15.348,4.4C183.031,229.062,189.2,234.072,189.2,234.072Z" transform="translate(-159.821 -177.378)" opacity="0.2"/>
        <path id="Path_875" data-name="Path 875" d="M222.68,405.26l-4.8.844-1.969-6.538-1.794-6,5.527-1.938,1.612,7.214Z" transform="translate(-171.191 -217.517)" fill="#ffbda7"/>
        <path id="Path_876" data-name="Path 876" d="M221.286,399.008l-5.344.7-1.8-6.066,5.519-1.961Z" transform="translate(-171.196 -217.529)" opacity="0.2"/>
        <path id="Path_877" data-name="Path 877" d="M181.253,408.019H176.38l-.8-6.857-.722-6.256,5.777-.965.327,7.45Z" transform="translate(-161.776 -218.071)" fill="#ffbda7"/>
        <path id="Path_878" data-name="Path 878" d="M180.964,401.463l-5.382-.243-.722-6.287,5.777-.973Z" transform="translate(-161.776 -218.075)" opacity="0.2"/>
        <path id="Path_879" data-name="Path 879" d="M208.793,359.679l-7.883,1.391c-7.952-19.818-13.607-36.36-17.606-50.089-2.151-7.4-3.945-14-5.238-19.841l.243,21.574v48.6H170.54C151.071,268.57,165,245.415,165,245.415l23.171-1.855a105.166,105.166,0,0,1,1.954,13.083l1.049,7.731,9.122,47.033Z" transform="translate(-158.254 -182.008)" fill="#272727"/>
        <path id="Path_880" data-name="Path 880" d="M188.986,319.466c-2.151-7.4-3.8-14-5.116-19.841a182.521,182.521,0,0,1,1.52-20.685S188.788,305.592,188.986,319.466Z" transform="translate(-163.937 -190.493)" opacity="0.2"/>
        <path id="Path_881" data-name="Path 881" d="M166.783,241.11l24,1.406-.38,4.135-24.182-1.46Z" transform="translate(-159.704 -181.421)" fill="#2192c5"/>
        <path id="Path_882" data-name="Path 882" d="M187.035,242.366a1.673,1.673,0,0,0-1.117-.547l-2.95-.19a1.224,1.224,0,0,0-1.338,1.27v1.9a1.748,1.748,0,0,0,1.467,1.688h.129l2.95.182a1.224,1.224,0,0,0,1.33-1.27v-1.893A1.7,1.7,0,0,0,187.035,242.366Zm-.927,3.55-2.95-.182a.8.8,0,0,1-.547-.266.844.844,0,0,1-.228-.563v-1.893a.6.6,0,0,1,.654-.616l2.95.182h.061a.867.867,0,0,1,.479.266.821.821,0,0,1,.228.555v.289a.319.319,0,0,0-.114,0l-.829-.061a.433.433,0,0,0-.464.471.616.616,0,0,0,.54.547l.829.061h.038v.623a.593.593,0,0,1-.646.585Z" transform="translate(-163.399 -181.544)"/>
        <path id="Path_883" data-name="Path 883" d="M175.144,408.01c0-.5,6.264-.106,6.264-.106s3.839,3.907,7.6,4.789,1.65,3.117-2.524,3.117H176.132C173.168,415.809,175.023,413.263,175.144,408.01Z" transform="translate(-161.68 -221.384)" fill="#272727"/>
        <path id="Path_884" data-name="Path 884" d="M187.082,409.139a7.821,7.821,0,0,1-2.592-.76l-.053-.038h0a.19.19,0,0,1,0-.129c0-.061.547-1.52,1.4-1.87a.935.935,0,0,1,.806,0q.433.205.411.525c0,.327-.464.661-.973.927a2.562,2.562,0,0,1,1.406.152.677.677,0,0,1,.327.426.616.616,0,0,1-.144.669A.889.889,0,0,1,187.082,409.139Zm-2.015-.9c.92.4,2.06.76,2.357.494,0,0,.106-.084,0-.327a.335.335,0,0,0-.175-.22,4.112,4.112,0,0,0-2.182.053Zm1.117-1.718a.654.654,0,0,0-.259.053,2.8,2.8,0,0,0-1.072,1.346c.927-.357,1.824-.836,1.84-1.117,0-.091-.137-.175-.22-.213a.7.7,0,0,0-.289-.068Z" transform="translate(-164.07 -221.023)" fill="#263238"/>
        <path id="Path_885" data-name="Path 885" d="M217.144,408.01c0-.5,6.264-.106,6.264-.106s3.839,3.907,7.6,4.789,1.65,3.117-2.524,3.117H218.132C215.168,415.809,217.023,413.263,217.144,408.01Z" transform="translate(-171.752 -221.384)" fill="#272727"/>
        <path id="Path_886" data-name="Path 886" d="M229.082,409.139a7.821,7.821,0,0,1-2.592-.76l-.053-.038h0a.19.19,0,0,1,0-.129c0-.061.547-1.52,1.4-1.87a.935.935,0,0,1,.806,0q.433.205.41.525c0,.327-.464.661-.973.927a2.562,2.562,0,0,1,1.406.152.676.676,0,0,1,.327.426.616.616,0,0,1-.144.669.89.89,0,0,1-.585.1Zm-2.015-.9c.92.4,2.06.76,2.357.494,0,0,.106-.084,0-.327a.334.334,0,0,0-.175-.22,4.112,4.112,0,0,0-2.182.053Zm1.117-1.718a.654.654,0,0,0-.259.053,2.8,2.8,0,0,0-1.072,1.346c.927-.357,1.824-.836,1.84-1.117,0-.091-.137-.175-.22-.213a.7.7,0,0,0-.289-.068Z" transform="translate(-174.142 -221.023)" fill="#263238"/>
        <path id="Path_887" data-name="Path 887" d="M215.675,197.17s-6.667,6.188-6.941,8.438-1.794,10.772-1.794,10.772h11.593s1.809-8.164,2.706-9.616,5.717-5.511,5.717-5.511Z" transform="translate(-169.469 -170.884)" fill="#29b6f6"/>
        <path id="Path_888" data-name="Path 888" d="M215.675,197.17s-6.667,6.188-6.941,8.438-1.794,10.772-1.794,10.772h11.593s1.809-8.164,2.706-9.616,5.717-5.511,5.717-5.511Z" transform="translate(-169.469 -170.884)" fill="#2192c5"/>
        <path id="Path_889" data-name="Path 889" d="M174.16,198.9a16.078,16.078,0,0,0,11.555,7.435c7.9.9,10.643-5.017,10.643-5.017A54.607,54.607,0,0,0,174.16,198.9Z" transform="translate(-161.608 -171.226)" fill="#ffbda7"/>
        <path id="Path_890" data-name="Path 890" d="M187.883,202.856c-4.941-2.623-5.663-5.428-5.663-5.428,4.47-1.862,3.763-8.278,3.763-8.278l5.808,3.527a19.925,19.925,0,0,0-1.239,2.531c-1.475,3.8.22,4.462.22,4.462C191.1,202.134,187.883,202.856,187.883,202.856Z" transform="translate(-163.541 -168.96)" fill="#ffbda7"/>
        <path id="Path_891" data-name="Path 891" d="M192.98,192.67a19.925,19.925,0,0,0-1.239,2.531,7.426,7.426,0,0,1-4.561-6.082Z" transform="translate(-164.731 -168.953)" opacity="0.2"/>
        <path id="Path_892" data-name="Path 892" d="M195.569,169c5.542,1.748,6.386,5.321,4.987,11.122-1.748,7.3-4.934,11.867-11.4,8.149C180.41,183.227,186.363,166.084,195.569,169Z" transform="translate(-164.179 -164.048)" fill="#ffbda7"/>
        <path id="Path_893" data-name="Path 893" d="M200.668,181.83a12.261,12.261,0,0,0,.889,2.813,1.6,1.6,0,0,1-1.657.16Z" transform="translate(-167.781 -167.205)" fill="#d4827d"/>
        <path id="Path_894" data-name="Path 894" d="M196.286,179.511c-.129.456-.487.76-.76.669a.811.811,0,0,1-.319-1c.129-.464.494-.76.76-.669A.811.811,0,0,1,196.286,179.511Z" transform="translate(-166.645 -166.406)" fill="#263238"/>
        <path id="Path_895" data-name="Path 895" d="M196.05,178.469l1.117-.1S196.422,179.062,196.05,178.469Z" transform="translate(-166.858 -166.375)" fill="#263238"/>
        <path id="Path_896" data-name="Path 896" d="M203.814,181.563c-.137.456-.494.76-.8.669s-.449-.532-.312-.988.487-.76.8-.669S203.943,181.107,203.814,181.563Z" transform="translate(-168.441 -166.9)" fill="#263238"/>
        <path id="Path_897" data-name="Path 897" d="M203.59,180.526l1.11-.106S203.962,181.119,203.59,180.526Z" transform="translate(-168.666 -166.867)" fill="#263238"/>
        <path id="Path_898" data-name="Path 898" d="M197.318,174.684a3.041,3.041,0,0,0-2.668.076" transform="translate(-166.522 -165.426)" fill="none" stroke="#263238" stroke-linecap="round" stroke-linejoin="round" stroke-width="0.725"/>
        <path id="Path_899" data-name="Path 899" d="M203.55,176.14a2.722,2.722,0,0,1,2.068,1.148" transform="translate(-168.656 -165.84)" fill="none" stroke="#263238" stroke-linecap="round" stroke-linejoin="round" stroke-width="0.725"/>
        <path id="Path_900" data-name="Path 900" d="M196.744,187.587a14.277,14.277,0,0,0-1.254,1.718l-.35-.144c-1.52-.677-2.06-1.52-2.144-2.22a2.189,2.189,0,0,1,.144-1.026,2.22,2.22,0,0,1,.281-.525,8.043,8.043,0,0,0,2.79,1.954C196.531,187.5,196.744,187.587,196.744,187.587Z" transform="translate(-166.123 -168.059)" fill="#263238"/>
        <path id="Path_901" data-name="Path 901" d="M196.261,187.384l-.38.5c-1.467-.639-2.417-1.285-2.691-1.931a2.22,2.22,0,0,1,.281-.525,8.043,8.043,0,0,0,2.79,1.954Z" transform="translate(-166.172 -168.068)" fill="#fff"/>
        <path id="Path_902" data-name="Path 902" d="M195.144,189.65c-1.52-.677-2.06-1.52-2.144-2.22a5.321,5.321,0,0,1,1.581,1.095A1.977,1.977,0,0,1,195.144,189.65Z" transform="translate(-166.126 -168.548)" fill="#de5753"/>
        <path id="Path_903" data-name="Path 903" d="M186.281,175.608s4.029-3.733,4.744-7.374c0,0,12.4-1.019,9.419,10.3,0,0,4.2-9.556-5.253-12.786s-13.82,10.719-10.217,16.42C184.973,182.169,183.772,177.988,186.281,175.608Z" transform="translate(-163.9 -163.234)" fill="#263238"/>
        <path id="Path_904" data-name="Path 904" d="M186.535,179.813a2.547,2.547,0,0,0-1.916-3.041c-1.779-.35-3.71,2.912.3,5.108C185.486,182.192,186.026,181.7,186.535,179.813Z" transform="translate(-163.622 -165.986)" fill="#ffbda7"/>
        <path id="Path_905" data-name="Path 905" d="M226.125,212.99l-.289-2.44s.563-1.52.289-2.144c-.517-1.239-3.8-2.767-4.3-3.041s-2.813,3.413-2.509,4.158,4.113,2.455,4.113,2.455v1.52Z" transform="translate(-172.432 -172.845)" fill="#ffbda7"/>
        <path id="Path_906" data-name="Path 906" d="M197.473,228.322l-3.147-4.462s-8.081.935-8.187,1.178l-2.471,5.77a.5.5,0,0,0,.3.669l10.278,3.482a.5.5,0,0,0,.616-.274l2.577-5.793A1.224,1.224,0,0,0,197.473,228.322Z" transform="translate(-163.879 -177.284)" fill="#2192c5"/>
        <path id="Path_907" data-name="Path 907" d="M198.287,228.523a9.069,9.069,0,0,1-4.751.456c-2.653-.593-6.606-3.961-6.606-3.961.106-.243,8.187-1.178,8.187-1.178l3.147,4.462S198.28,228.409,198.287,228.523Z" transform="translate(-164.671 -177.279)" opacity="0.1"/>
        <path id="Path_908" data-name="Path 908" d="M187.63,225.59a37.47,37.47,0,0,0,10.825,3.352S192.328,226.905,187.63,225.59Z" transform="translate(-164.839 -177.699)" opacity="0.1"/>
        <path id="Path_909" data-name="Path 909" d="M167.631,228.887l8.917.646s1.406-.943,2.167-.76,4.82,2.4,4.9,3.041-2.075,3.512-3.041,3.375-4.2-2.585-4.424-2.934l-10.643.2Z" transform="translate(-159.534 -178.457)" fill="#ffbda7"/>
        <path id="Path_910" data-name="Path 910" d="M167.327,199.232c1.072.342,1.923,3.672-.882,9.328,0,0-3.8,8.583-3.041,10.019.859,1.741,8.522,3.162,8.522,3.162l-.608,4.911s-10.164,1.406-13.068-4.934S163.708,198.061,167.327,199.232Z" transform="translate(-157.649 -171.365)" fill="#29b6f6"/>
        <path id="Path_911" data-name="Path 911" d="M167.327,199.232c1.072.342,1.923,3.672-.882,9.328,0,0-3.8,8.583-3.041,10.019.859,1.741,8.522,3.162,8.522,3.162l-.608,4.911s-10.164,1.406-13.068-4.934S163.708,198.061,167.327,199.232Z" transform="translate(-157.649 -171.365)" fill="#81d4fa"/>
        <path id="Path_912" data-name="Path 912" d="M197.51,165.33s4.561-3.223,9.677,3.892a14.847,14.847,0,0,1,2.007,14.071" transform="translate(-167.208 -163.074)" fill="none" stroke="#263238" stroke-linecap="round" stroke-linejoin="round" stroke-width="0.5"/>
      </g>
    </g>
    <g id="Group_47" data-name="Group 47" transform="translate(-58.276 -90.31)">
      <circle id="Ellipse_3" data-name="Ellipse 3" cx="11.5" cy="11.5" r="11.5" transform="translate(277 223)" fill="#ff5e5e"/>
      <text id="_1" data-name="1" transform="translate(291 242)" fill="#fff" font-size="32" font-family="FFHekaya-Light, FF Hekaya" font-weight="300"><tspan x="-7" y="0">1</tspan></text>
    </g>
  </g>
</svg>
