<svg xmlns="http://www.w3.org/2000/svg" width="36.164" height="36.164" viewBox="0 0 36.164 36.164">
  <g id="form-new-svgrepo-com" transform="translate(-6 -6)">
    <path id="Path_1340" data-name="Path 1340" d="M6,10.747A4.747,4.747,0,0,1,10.747,6H33.8a4.747,4.747,0,0,1,4.747,4.747V22.313a11.714,11.714,0,0,0-2.26-1.124V10.747A2.486,2.486,0,0,0,33.8,8.26H10.747A2.486,2.486,0,0,0,8.26,10.747V33.8a2.486,2.486,0,0,0,2.486,2.486H21.189a11.714,11.714,0,0,0,1.124,2.26H10.747A4.747,4.747,0,0,1,6,33.8Z" transform="translate(0 0)" fill="#ddd"/>
    <path id="Path_1341" data-name="Path 1341" d="M10,21.068a4.068,4.068,0,1,1,4.068,4.068A4.068,4.068,0,0,1,10,21.068Zm4.068-1.808a1.808,1.808,0,1,0,1.808,1.808A1.808,1.808,0,0,0,14.068,19.26Z" transform="translate(-0.384 -1.055)" fill="#ddd"/>
    <path id="Path_1342" data-name="Path 1342" d="M14.068,29a4.068,4.068,0,1,0,4.068,4.068A4.068,4.068,0,0,0,14.068,29ZM12.26,33.068a1.808,1.808,0,1,1,1.808,1.808A1.808,1.808,0,0,1,12.26,33.068Z" transform="translate(-0.384 -2.206)" fill="#ddd"/>
    <path id="Path_1343" data-name="Path 1343" d="M21,20.13A1.13,1.13,0,0,1,22.131,19H35.24a1.13,1.13,0,0,1,0,2.26H22.131A1.13,1.13,0,0,1,21,20.13Z" transform="translate(-1.439 -1.247)" fill="#ddd"/>
    <path id="Path_1344" data-name="Path 1344" d="M11.143,11.1a1.13,1.13,0,0,0,0,2.26H34.168a1.13,1.13,0,1,0,0-2.26Z" transform="translate(-0.385 -0.489)" fill="#ddd"/>
    <path id="Path_1345" data-name="Path 1345" d="M43.89,33.945A9.945,9.945,0,1,1,33.945,24,9.945,9.945,0,0,1,43.89,33.945Zm-9.041-6.329a.9.9,0,1,0-1.808,0v5.425H27.616a.9.9,0,1,0,0,1.808h5.425v5.425a.9.9,0,1,0,1.808,0V34.849h5.425a.9.9,0,1,0,0-1.808H34.849Z" transform="translate(-1.726 -1.726)" fill="#ddd"/>
  </g>
</svg>
