<svg xmlns="http://www.w3.org/2000/svg" xmlns:xlink="http://www.w3.org/1999/xlink" width="111.333" height="110.933" viewBox="0 0 111.333 110.933">
  <defs>
    <clipPath id="clip-path">
      <path id="Path_1186" data-name="Path 1186" d="M292.374,103.6l-7.253,61.747a1.35,1.35,0,0,1-1.5,1.184L236.46,161l7.566-64.44,47.162,5.538a1.35,1.35,0,0,1,1.186,1.507Z" transform="translate(-236.46 -96.56)" fill="#29b6f6"/>
    </clipPath>
    <clipPath id="clip-path-2">
      <path id="Path_1204" data-name="Path 1204" d="M179.068,77v62.183a1.356,1.356,0,0,1-1.353,1.353h-47.5V75.65h47.5A1.35,1.35,0,0,1,179.068,77Z" transform="translate(-130.22 -75.65)" fill="#29b6f6" stroke="#263238" stroke-width="1"/>
    </clipPath>
    <clipPath id="clip-path-3">
      <path id="Path_1208" data-name="Path 1208" d="M297.552,237.748v16.51a1.16,1.16,0,0,1-1.027,1.153l-.549.062-4.8.513V236l5.345.593A1.163,1.163,0,0,1,297.552,237.748Z" transform="translate(-291.18 -236)" fill="#999" stroke="#263238" stroke-linecap="round" stroke-linejoin="round" stroke-width="1"/>
    </clipPath>
    <clipPath id="clip-path-4">
      <path id="Path_1259" data-name="Path 1259" d="M177.99,103.185V119.7a1.16,1.16,0,0,1-1.027,1.153l-1.086.118v20.6a1.284,1.284,0,0,1-1.068,1.268,1.1,1.1,0,0,1-.223.021l-44.266-.036V80l44.266.036a1.1,1.1,0,0,1,.223.023,1.284,1.284,0,0,1,1.068,1.266v20.6l1.086.121A1.158,1.158,0,0,1,177.99,103.185Z" transform="translate(-130.32 -80)" fill="#fff" stroke="#263238" stroke-width="1"/>
    </clipPath>
    <clipPath id="clip-path-5">
      <path id="Path_1263" data-name="Path 1263" d="M100.567,72.624v62.9l-8.236,2.49-.1.026a.986.986,0,0,1-1.255-1.027V94.251l-.454-.282a2.265,2.265,0,0,1-.234-1.284V74.521c0-.652.1-1.173.234-1.207l.462-.118V71.143a.983.983,0,0,1,1.255-1.027l.1.026Z" transform="translate(-90.29 -70.076)" fill="#bfbfbf" stroke="#263238" stroke-width="1"/>
    </clipPath>
    <clipPath id="clip-path-6">
      <path id="Path_1268" data-name="Path 1268" d="M112.268,299.383a7.172,7.172,0,0,1-.693-3.194c-.141-2.352-.041-3.907-.411-4.827,0,0-.46-.829-1.012-1.748s-.46-3.969-.37-6.893.637-3.594,1.8-4.015c2.824-1.027,3.527,2.472,4.827,6.418s1.207,6.744,1.666,7.738a26.442,26.442,0,0,1,2.216,4.947" transform="translate(-109.715 -278.524)" fill="#fff" stroke="#263238" stroke-linecap="round" stroke-linejoin="round" stroke-width="1"/>
    </clipPath>
    <clipPath id="clip-path-7">
      <path id="Path_1300" data-name="Path 1300" d="M294.307,300.864c-1.612-3.581-3.453-5.625-3.081-7.558s-.277-9.2-1.027-12.066-1.851-7.06,0-7.923,3.1,1.027,3.1,1.027c1.1,1.15,2.485,4.6,3.176,7.042a19.505,19.505,0,0,1,.513,5.476s1.027,1.564,1.933,3.13,1.979,1.243,1.979,1.243" transform="translate(-289.184 -273.091)" fill="#fff" stroke="#263238" stroke-linecap="round" stroke-linejoin="round" stroke-width="1"/>
    </clipPath>
  </defs>
  <g id="File_bundle-bro" data-name="File bundle-bro" transform="translate(-38.15 -33.184)">
    <g id="freepik--background-simple--inject-75" transform="translate(38.15 33.184)">
      <path id="Path_1156" data-name="Path 1156" d="M69.31,143.383C39.5,131.869,47.367,115.726,41.883,94.366s-4.878-29.524,8.472-44.443,36.415-20.441,52.864-2.8S134.889,63.088,144.3,76.2s7.651,28.631-9.348,39.583S106.084,157.581,69.31,143.383Z" transform="translate(-38.634 -36.118)" fill="#f6bf29"/>
      <path id="Path_1157" data-name="Path 1157" d="M69.31,143.383C39.5,131.869,47.367,115.726,41.883,94.366s-4.878-29.524,8.472-44.443,36.415-20.441,52.864-2.8S134.889,63.088,144.3,76.2s7.651,28.631-9.348,39.583S106.084,157.581,69.31,143.383Z" transform="translate(-38.634 -36.118)" fill="#fff" opacity="0.4"/>
    </g>
    <g id="freepik--book-2--inject-75" transform="translate(88.939 48.702)">
      <path id="Path_1181" data-name="Path 1181" d="M292.374,103.6l-7.253,61.747a1.35,1.35,0,0,1-1.5,1.184L236.46,161l7.566-64.44,47.162,5.538a1.35,1.35,0,0,1,1.186,1.507Z" transform="translate(-236.46 -96.56)" fill="#f6bf29"/>
      <g id="Group_3067" data-name="Group 3067" transform="translate(0 0)" clip-path="url(#clip-path)">
        <text id="PHOTO" transform="matrix(0.996, 0.087, -0.087, 0.996, 47.378, 37.982)" fill="#263238" stroke="#263238" stroke-width="0.5" font-size="8" font-family="BerlinSansFB-Reg, Berlin Sans FB"><tspan x="-26" y="0">PHOTO</tspan></text>
      </g>
      <path id="Path_1187" data-name="Path 1187" d="M292.374,103.6l-7.253,61.747a1.35,1.35,0,0,1-1.5,1.184L236.46,161l7.566-64.44,47.162,5.538a1.35,1.35,0,0,1,1.186,1.507Z" transform="translate(-236.46 -96.56)" fill="none" stroke="#263238" stroke-width="1"/>
    </g>
    <g id="freepik--book-1--inject-75" transform="translate(40.694 40.485)">
      <path id="Path_1188" data-name="Path 1188" d="M266.779,154.936a2.21,2.21,0,0,1-2.146,2.254l-26.782.77,7.212-61.421,20.59,2.418.384,19.077Z" transform="translate(-187.248 -87.37)" fill="rgba(0,0,0,0.7)" opacity="0.1"/>
      <path id="Path_1189" data-name="Path 1189" d="M111.1,276.445a11.942,11.942,0,0,1,3.679-3.615s6.018,4.436,8.167,13.864a29.465,29.465,0,0,1,1.954,7.445c.2,3.163-3.7,9.918-4.78,12.688s-4.708.621-10.413,9.8l4.3-15.039-2.331-13.45Z" transform="translate(-92.006 -218.401)" fill="rgba(0,0,0,0.7)" opacity="0.2"/>
      <path id="Path_1190" data-name="Path 1190" d="M59.9,323.044c1.556-5.106,3.5-13.642,4.239-14.88,1.1-1.879,1.838-1.525,3.145-2.721s2.567-7.64,1.738-10.31c-.169-.549-.344-1.042-.513-1.484h0c-.144-.359-.285-.691-.424-.991-.051-.11-.1-.218-.151-.323-.454-.94-.863-1.592-1.122-2.146-.46-.994-.367-3.795-1.666-7.738s-2-7.427-4.827-6.418c-1.155.413-1.7,1.094-1.8,4.015s-.185,5.974.37,6.893c.175.29.339.57.485.822l.133.239c.164.277.285.5.347.606a.466.466,0,0,1,.026.046.147.147,0,0,1,.018.033h0l-.041-.026-.139-.087c-.046-.033-.105-.069-.167-.116s-.208-.149-.331-.257c-.062-.049-.128-.1-.2-.159l-.105-.087c-.074-.059-.149-.123-.226-.2l-.257-.229-.311-.3a9.545,9.545,0,0,1-.77-.837c-.049-.054-.1-.113-.149-.175l-.241-.29-.216-.277c-.105-.131-.208-.272-.308-.416-.054-.072-.108-.144-.157-.218-.105-.149-.211-.3-.313-.462s-.211-.323-.316-.5c-.054-.082-.105-.169-.157-.257-.1-.175-.205-.357-.308-.542l-.154-.285-.18-.341-.123-.257c-.051-.1-.1-.205-.149-.311s-.077-.164-.116-.257-.1-.216-.146-.326-.1-.226-.144-.341-.095-.228-.144-.347a23.9,23.9,0,0,1-.77-2.282c-.028-.092-.056-.187-.082-.282-.051-.185-.1-.367-.149-.557-.036-.141-.074-.285-.108-.431-.175-.734-.331-1.507-.462-2.326a8.783,8.783,0,0,0-2.38,5.468c0,4.911-.614,10.559-.552,14.082.008,1.933.521,7.376.521,7.684h0a.018.018,0,0,1,0,.015,19.112,19.112,0,0,0-1.158,2.483h0a9.568,9.568,0,0,0-.588,2.508,20.009,20.009,0,0,1-1.841,4.416c-1.656,3.337-4.166,8.518-5.812,11.468Z" transform="translate(-40.75 -219.954)" fill="#ffbda7"/>
      <path id="Path_1191" data-name="Path 1191" d="M123.192,398.55a4.257,4.257,0,0,0-1.307,1.5,90.855,90.855,0,0,0-3.194,9.191,10.711,10.711,0,0,1,.064-5.035C119.76,400.1,121.4,399.5,123.192,398.55Z" transform="translate(-98.482 -311.844)" fill="#ffa283" opacity="0.4"/>
      <path id="Path_1192" data-name="Path 1192" d="M85.043,293.668c-2.519-2.886-6.146-4.141-6.675-2.9a54.931,54.931,0,0,0-1.766,6.5l-.154-.257a12.3,12.3,0,0,1-1.448-5l-1.012.611a4.172,4.172,0,0,0-1.977,2.952c-.388,2.567-1.076,6.755-1.366,6.162s-4.665,5.6-7.645,9.884a20.027,20.027,0,0,0,1.841-4.416,9.568,9.568,0,0,1,.588-2.508h0c.626-1.33,1.073-2.282,1.158-2.483a.018.018,0,0,0,0-.015h0c0-.3-.513-5.743-.552-7.666-.054-3.553.56-9.2.56-14.113a8.783,8.783,0,0,1,2.38-5.468c.131.819.288,1.592.462,2.326.033.146.072.29.108.431.046.19.1.372.149.557.026.095.054.19.082.282a23.894,23.894,0,0,0,.77,2.282c.046.118.095.234.144.347s.095.228.144.341.1.221.146.326.077.169.116.257.1.208.149.311l.123.257.18.341.154.285c.1.185.205.367.308.542l.157.257c.105.169.211.336.316.5s.208.313.313.462c.051.074.1.149.157.218.1.144.205.285.308.416l.216.277.241.29.149.175c.272.316.531.59.77.837l.311.3.257.228c.077.072.151.133.226.2l.105.087c.069.059.136.11.2.159.123.1.236.177.331.257l.167.116.139.087.041.026h0a.147.147,0,0,0-.018-.033.464.464,0,0,0-.026-.046c-.062-.11-.182-.329-.347-.606l-.133-.239c-.146-.257-.311-.531-.485-.822-.555-.919-.46-3.969-.37-6.893s.637-3.594,1.8-4.015c2.824-1.027,3.53,2.472,4.827,6.418s1.207,6.744,1.666,7.738c.257.555.668,1.207,1.122,2.146.051.1.1.213.151.324A7.315,7.315,0,0,1,85.043,293.668Z" transform="translate(-57.288 -219.984)" fill="#ffa283" opacity="0.4"/>
      <path id="Path_1193" data-name="Path 1193" d="M115.75,362.111s.021-.085.054-.241C116.826,363.549,115.75,362.111,115.75,362.111Z" transform="translate(-96.495 -284.581)" fill="#29b6f6" opacity="0.4"/>
      <path id="Path_1194" data-name="Path 1194" d="M70.343,319.869c1.494-4.837,3.338-10.6,3.956-11.653,1.107-1.879,1.841-1.525,3.148-2.721s2.567-7.64,1.738-10.31a26.626,26.626,0,0,0-2.216-4.947c-.46-.991-.367-3.794-1.666-7.738s-2-7.427-4.827-6.418c-1.155.416-1.7,1.094-1.8,4.015s-.182,5.972.37,6.893,1.012,1.748,1.012,1.748S64.263,285.459,62.6,275a8.783,8.783,0,0,0-2.38,5.468c0,4.911-.614,10.559-.552,14.084.039,1.91.552,7.353.552,7.661a14.223,14.223,0,0,0-1.761,5.037c-.074.994-1.969,4.783-4.036,8.66" transform="translate(-50.91 -220.014)" fill="none" stroke="#263238" stroke-linecap="round" stroke-linejoin="round" stroke-width="1"/>
      <path id="Path_1195" data-name="Path 1195" d="M115.36,328.53c.37.919.257,2.472.411,4.827a7.4,7.4,0,0,0,.693,3.194" transform="translate(-96.205 -259.801)" fill="none" stroke="#263238" stroke-linecap="round" stroke-linejoin="round" stroke-width="1"/>
      <path id="Path_1196" data-name="Path 1196" d="M115.912,352.53a34.267,34.267,0,0,0-.552,3.594" transform="translate(-96.205 -277.639)" fill="none" stroke="#263238" stroke-linecap="round" stroke-linejoin="round" stroke-width="1"/>
      <path id="Path_1197" data-name="Path 1197" d="M89.91,338.75s.729,5.936.732,7.959" transform="translate(-77.289 -267.397)" fill="none" stroke="#263238" stroke-linecap="round" stroke-linejoin="round" stroke-width="1"/>
      <path id="Path_1198" data-name="Path 1198" d="M123.493,400.59c-2.082,1.284-3.189,1.748-3.833,4.234" transform="translate(-99.401 -313.361)" fill="none" stroke="#263238" stroke-linecap="round" stroke-linejoin="round" stroke-width="1"/>
      <path id="Path_1199" data-name="Path 1199" d="M77,365.243a24.05,24.05,0,0,0,1.058-5.443" transform="translate(-67.693 -283.043)" fill="none" stroke="#263238" stroke-linecap="round" stroke-linejoin="round" stroke-width="1"/>
      <path id="Path_1200" data-name="Path 1200" d="M80.274,133.356l12-3.743V64.626l-12-3.743a.933.933,0,0,0-1.3.911v70.65A.934.934,0,0,0,80.274,133.356Z" transform="translate(-69.158 -60.822)" fill="#f6bf29" stroke="#263238" stroke-width="1"/>
      <path id="Path_1201" data-name="Path 1201" d="M96.015,65.981v64.984l-10.552,3.289A1.119,1.119,0,0,1,84,133.186V63.761a1.119,1.119,0,0,1,1.453-1.068Z" transform="translate(-72.896 -62.174)" fill="rgba(0,0,0,0.7)" opacity="0.3"/>
      <path id="Path_1202" data-name="Path 1202" d="M179.068,77v62.183a1.356,1.356,0,0,1-1.353,1.353h-47.5V75.65h47.5A1.35,1.35,0,0,1,179.068,77Z" transform="translate(-107.25 -71.843)" fill="#f6bf29"/>
      <g id="Group_3068" data-name="Group 3068" transform="translate(22.97 3.807)" clip-path="url(#clip-path-2)">
        <path id="Path_1203" data-name="Path 1203" d="M178.6,102.739v38.767a1.343,1.343,0,0,1-.888.334h-47.5V77.4h45.665a1.13,1.13,0,0,1,1.132,1.13v23.021l.454.021a1.173,1.173,0,0,1,1.132,1.168Z" transform="translate(-130.22 -76.951)" fill="rgba(0,0,0,0.7)" opacity="0.3"/>
      </g>
      <path id="Path_1205" data-name="Path 1205" d="M179.068,77v62.183a1.356,1.356,0,0,1-1.353,1.353h-47.5V75.65h47.5A1.35,1.35,0,0,1,179.068,77Z" transform="translate(-107.25 -71.843)" fill="none" stroke="#263238" stroke-width="1"/>
      <path id="Path_1206" data-name="Path 1206" d="M297.552,237.748v16.51a1.16,1.16,0,0,1-1.027,1.153l-.549.062-4.8.513V236l5.345.593A1.163,1.163,0,0,1,297.552,237.748Z" transform="translate(-226.887 -191.026)" fill="#999"/>
      <g id="Group_3069" data-name="Group 3069" transform="translate(64.293 44.974)" clip-path="url(#clip-path-3)">
        <path id="Path_1207" data-name="Path 1207" d="M297.552,237.748v.788l-1.576.288v16.641l-4.8.513V236l5.345.593A1.163,1.163,0,0,1,297.552,237.748Z" transform="translate(-291.18 -236)" fill="rgba(0,0,0,0.7)" opacity="0.2"/>
      </g>
      <path id="Path_1209" data-name="Path 1209" d="M297.552,237.748v16.51a1.16,1.16,0,0,1-1.027,1.153l-.549.062-4.8.513V236l5.345.593A1.163,1.163,0,0,1,297.552,237.748Z" transform="translate(-226.887 -191.026)" fill="none" stroke="#263238" stroke-linecap="round" stroke-linejoin="round" stroke-width="1"/>
      <path id="Path_1210" data-name="Path 1210" d="M177.99,103.185V119.7a1.16,1.16,0,0,1-1.027,1.153l-1.086.118v20.6a1.284,1.284,0,0,1-1.068,1.268,1.1,1.1,0,0,1-.223.021l-44.266-.036V80l44.266.036a1.1,1.1,0,0,1,.223.023,1.284,1.284,0,0,1,1.068,1.266v20.6l1.086.121A1.158,1.158,0,0,1,177.99,103.185Z" transform="translate(-109.324 -75.076)" fill="#fff"/>
      <g id="Group_3070" data-name="Group 3070" transform="translate(22.996 4.924)" clip-path="url(#clip-path-4)">
        <path id="Path_1211" data-name="Path 1211" d="M306.791,103.334v16.51A1.16,1.16,0,0,1,305.764,121l-1.086.118v20.6a1.284,1.284,0,0,1-1.068,1.268V80.2a1.284,1.284,0,0,1,1.068,1.266v20.6l1.086.121a1.158,1.158,0,0,1,1.027,1.153Z" transform="translate(-259.121 -80.149)" fill="#bfbfbf"/>
        <path id="Path_1212" data-name="Path 1212" d="M167.012,103.345v12.518H153.39V99.83h10.1l2.365,2.362Z" transform="translate(-147.467 -94.739)" fill="#f6bf29" stroke="#263238" stroke-linecap="round" stroke-linejoin="round" stroke-width="0.5"/>
        <path id="Path_1213" data-name="Path 1213" d="M169.189,105.3v6.9H157.87V104.01H167.9Z" transform="translate(-150.797 -97.846)" fill="#fff" opacity="0.5"/>
        <path id="Path_1214" data-name="Path 1214" d="M169.189,105.3v6.9H157.87V104.01H167.9Z" transform="translate(-150.797 -97.846)" fill="none" stroke="#263238" stroke-linecap="round" stroke-linejoin="round" stroke-width="0.5"/>
        <path id="Path_1215" data-name="Path 1215" d="M171.28,144.387h.167c.157,0,.28-.056.28-.3V141.73h.485v2.326c0,.619-.331.77-.7.77a1.725,1.725,0,0,1-.234,0Z" transform="translate(-160.764 -125.882)" fill="#263238"/>
        <path id="Path_1216" data-name="Path 1216" d="M177.643,142.515v.4c0,.5-.239.77-.727.77h-.228v1.163H176.2v-3.1h.719C177.4,141.75,177.643,142.02,177.643,142.515Zm-.955-.323v1.047h.231c.157,0,.239-.069.239-.293v-.462c0-.223-.082-.293-.239-.293Z" transform="translate(-164.421 -125.897)" fill="#263238"/>
        <path id="Path_1217" data-name="Path 1217" d="M183.31,143.039h.68v.981a.727.727,0,1,1-1.451,0v-1.61a.727.727,0,1,1,1.451,0v.3h-.46v-.331c0-.221-.1-.306-.257-.306s-.257.085-.257.306v1.664c0,.221.1.3.257.3s.257-.08.257-.3v-.57h-.221Z" transform="translate(-169.133 -125.815)" fill="#263238"/>
        <path id="Path_1218" data-name="Path 1218" d="M196.267,103.345H192.75V99.83l2.365,2.362Z" transform="translate(-176.722 -94.739)" fill="#f6bf29" stroke="#263238" stroke-linecap="round" stroke-linejoin="round" stroke-width="0.5"/>
        <path id="Path_1219" data-name="Path 1219" d="M169.189,118.4v3.466H157.87v-1.7l3.1-2.4,2.883,2.431,3.743-3.191Z" transform="translate(-150.797 -107.508)" fill="#f6bf29" stroke="#263238" stroke-linecap="round" stroke-linejoin="round" stroke-width="0.5"/>
        <circle id="Ellipse_1218" data-name="Ellipse 1218" cx="1.166" cy="1.166" r="1.166" transform="translate(9.866 7.171)" fill="#f6bf29" stroke="#263238" stroke-linecap="round" stroke-linejoin="round" stroke-width="0.5"/>
        <path id="Path_1220" data-name="Path 1220" d="M240.722,103.345v12.518H227.1V99.83h10.108l2.365,2.362Z" transform="translate(-202.253 -94.739)" fill="#f6bf29" stroke="#263238" stroke-linecap="round" stroke-linejoin="round" stroke-width="0.5"/>
        <path id="Path_1221" data-name="Path 1221" d="M242.9,105.3v6.9H231.58V104.01h10.031Z" transform="translate(-205.583 -97.846)" fill="#fff" opacity="0.5"/>
        <path id="Path_1222" data-name="Path 1222" d="M242.9,105.3v6.9H231.58V104.01h10.031Z" transform="translate(-205.583 -97.846)" fill="none" stroke="#263238" stroke-linecap="round" stroke-linejoin="round" stroke-width="0.5"/>
        <line id="Line_9" data-name="Line 9" x2="7.776" transform="translate(27.768 12.202)" fill="none" stroke="#263238" stroke-linecap="round" stroke-linejoin="round" stroke-width="0.5"/>
        <path id="Path_1223" data-name="Path 1223" d="M237.9,113.52a4.064,4.064,0,0,0,8.077,0" transform="translate(-210.281 -104.914)" fill="none" stroke="#263238" stroke-linecap="round" stroke-linejoin="round" stroke-width="0.5"/>
        <path id="Path_1224" data-name="Path 1224" d="M237.247,112.446a.341.341,0,1,1-.161-.32A.341.341,0,0,1,237.247,112.446Z" transform="translate(-209.288 -103.84)" fill="#29b6f6" stroke="#263238" stroke-linecap="round" stroke-linejoin="round" stroke-width="0.5"/>
        <path id="Path_1225" data-name="Path 1225" d="M268.707,112.446a.341.341,0,1,1-.161-.32A.341.341,0,0,1,268.707,112.446Z" transform="translate(-232.672 -103.84)" fill="#29b6f6" stroke="#263238" stroke-linecap="round" stroke-linejoin="round" stroke-width="1"/>
        <rect id="Rectangle_129" data-name="Rectangle 129" width="0.598" height="0.598" transform="translate(27.319 11.92)" fill="#29b6f6" stroke="#263238" stroke-linecap="round" stroke-linejoin="round" stroke-width="0.5"/>
        <rect id="Rectangle_130" data-name="Rectangle 130" width="0.598" height="0.598" transform="translate(31.357 11.92)" fill="#29b6f6" stroke="#263238" stroke-linecap="round" stroke-linejoin="round" stroke-width="0.5"/>
        <rect id="Rectangle_131" data-name="Rectangle 131" width="0.598" height="0.598" transform="translate(35.396 11.92)" fill="#29b6f6" stroke="#263238" stroke-linecap="round" stroke-linejoin="round" stroke-width="0.5"/>
        <path id="Path_1226" data-name="Path 1226" d="M269.985,103.345H266.47V99.83l2.365,2.362Z" transform="translate(-231.516 -94.739)" fill="#f6bf29" stroke="#263238" stroke-linecap="round" stroke-linejoin="round" stroke-width="0.5"/>
        <path id="Path_1227" data-name="Path 1227" d="M245.168,143.054h.668v.442h-.668v.906h.84v.442H244.68V141.75h1.327v.442h-.84Z" transform="translate(-215.32 -125.897)" fill="#263238"/>
        <path id="Path_1228" data-name="Path 1228" d="M252.448,142.515v.4c0,.5-.239.77-.727.77h-.231v1.163H251v-3.1h.716A.666.666,0,0,1,252.448,142.515Zm-.958-.323v1.047h.231c.154,0,.239-.069.239-.293v-.462c0-.223-.085-.293-.239-.293Z" transform="translate(-220.018 -125.897)" fill="#263238"/>
        <path id="Path_1229" data-name="Path 1229" d="M257.949,141.61c.475,0,.716.282.716.77v.1h-.46v-.128c0-.221-.087-.306-.244-.306s-.241.085-.241.306.1.393.416.673a1.2,1.2,0,0,1,.534.968.727.727,0,1,1-1.451,0v-.19h.457v.218c0,.221.1.3.257.3s.257-.08.257-.3-.095-.393-.413-.673a1.2,1.2,0,0,1-.537-.968A.662.662,0,0,1,257.949,141.61Z" transform="translate(-224.641 -125.793)" fill="#263238"/>
        <path id="Path_1249" data-name="Path 1249" d="M167.012,176.577V189.1H153.39V173.06h10.1l2.365,2.365Z" transform="translate(-147.467 -149.169)" fill="#f6bf29" stroke="#263238" stroke-linecap="round" stroke-linejoin="round" stroke-width="0.5"/>
        <path id="Path_1250" data-name="Path 1250" d="M169.182,178.539v6.9H157.86V177.25h10.033Z" transform="translate(-150.79 -152.283)" fill="#fff" opacity="0.5"/>
        <path id="Path_1251" data-name="Path 1251" d="M169.182,178.539v6.9H157.86V177.25h10.033Z" transform="translate(-150.79 -152.283)" fill="none" stroke="#263238" stroke-linecap="round" stroke-linejoin="round" stroke-width="0.5"/>
        <path id="Path_1252" data-name="Path 1252" d="M196.267,176.577H192.75V173.06l2.365,2.365Z" transform="translate(-176.722 -149.169)" fill="#f6bf29" stroke="#263238" stroke-linecap="round" stroke-linejoin="round" stroke-width="0.5"/>
        <path id="Path_1253" data-name="Path 1253" d="M169.417,185.131s-.367-.639-1.322-.121c-.881.478-.77,1.623.126,1.623,1.047,0,1.489-1.045,2.105-2.141.647-1.145,1.184-2.311,1.255-2.462,0,0-.737,4.557-.829,5.155s.667.113.737-.162" transform="translate(-157.946 -155.836)" fill="none" stroke="#263238" stroke-linecap="round" stroke-linejoin="round" stroke-width="0.5"/>
        <path id="Path_1254" data-name="Path 1254" d="M185.849,193.316a1.33,1.33,0,0,0-1.576.9.524.524,0,0,0,.416.77c.737,0,1.027-.434,1.358-1.679,0,0-.465,1.679-.234,1.679a.557.557,0,0,0,.485-.311" transform="translate(-170.386 -164.197)" fill="none" stroke="#263238" stroke-linecap="round" stroke-linejoin="round" stroke-width="0.5"/>
        <line id="Line_11" data-name="Line 11" x2="1.897" transform="translate(12.231 29.119)" fill="none" stroke="#263238" stroke-linecap="round" stroke-linejoin="round" stroke-width="0.5"/>
        <path id="Path_1255" data-name="Path 1255" d="M171,215.65a.74.74,0,1,1,1.479,0v1.61a.74.74,0,1,1-1.479,0Zm.488,1.641c0,.221.1.306.257.306s.257-.085.257-.306v-1.671c0-.221-.1-.306-.257-.306s-.257.085-.257.306Z" transform="translate(-160.556 -180.252)" fill="#263238"/>
        <path id="Path_1256" data-name="Path 1256" d="M177.41,215h1.5v.444H178.4v2.637h-.485v-2.642H177.4Z" transform="translate(-165.313 -180.341)" fill="#263238"/>
        <path id="Path_1257" data-name="Path 1257" d="M184.6,216.371h.629v.444H184.6V218.1h-.485V215h1.284v.444h-.8Z" transform="translate(-170.3 -180.341)" fill="#263238"/>
        <path id="Path_1258" data-name="Path 1258" d="M130.26,75.64l21.884,33.85v29.95H130.4Z" transform="translate(-129.279 -76.59)" fill="rgba(0,0,0,0.7)" stroke="#707070" stroke-width="0.5" opacity="0.1"/>
      </g>
      <path id="Path_1260" data-name="Path 1260" d="M177.99,103.185V119.7a1.16,1.16,0,0,1-1.027,1.153l-1.086.118v20.6a1.284,1.284,0,0,1-1.068,1.268,1.1,1.1,0,0,1-.223.021l-44.266-.036V80l44.266.036a1.1,1.1,0,0,1,.223.023,1.284,1.284,0,0,1,1.068,1.266v20.6l1.086.121A1.158,1.158,0,0,1,177.99,103.185Z" transform="translate(-107.324 -75.076)" fill="none" stroke="#263238" stroke-width="1"/>
      <path id="Path_1261" data-name="Path 1261" d="M100.567,72.624v62.9l-8.236,2.49-.1.026a.986.986,0,0,1-1.255-1.027V94.251l-.454-.282a2.265,2.265,0,0,1-.234-1.284V74.521c0-.652.1-1.173.234-1.207l.462-.118V71.143a.983.983,0,0,1,1.255-1.027l.1.026Z" transform="translate(-77.571 -67.7)" fill="#bfbfbf"/>
      <g id="Group_3071" data-name="Group 3071" transform="translate(12.719 2.376)" clip-path="url(#clip-path-5)">
        <path id="Path_1262" data-name="Path 1262" d="M92.233,70.112v67.916A.986.986,0,0,1,90.978,137V94.25l-.454-.282a2.265,2.265,0,0,1-.234-1.284V74.52c0-.652.1-1.173.234-1.207l.462-.118V71.142a.983.983,0,0,1,1.248-1.029Z" transform="translate(-90.29 -70.075)" fill="#263238"/>
      </g>
      <path id="Path_1264" data-name="Path 1264" d="M100.567,72.624v62.9l-8.236,2.49-.1.026a.986.986,0,0,1-1.255-1.027V94.251l-.454-.282a2.265,2.265,0,0,1-.234-1.284V74.521c0-.652.1-1.173.234-1.207l.462-.118V71.143a.983.983,0,0,1,1.255-1.027l.1.026Z" transform="translate(-77.571 -67.7)" fill="none" stroke="#263238" stroke-width="1"/>
      <path id="Path_1265" data-name="Path 1265" d="M127.673,286.782h-8.352v.1l-3.384,1.055-.578-11.766a12.478,12.478,0,0,1,3.825-3.759l.136.105A26.08,26.08,0,0,1,127.673,286.782Z" transform="translate(-96.205 -218.089)" fill="rgba(0,0,0,0.7)" opacity="0.2"/>
      <path id="Path_1266" data-name="Path 1266" d="M112.268,299.383a7.172,7.172,0,0,1-.693-3.194c-.141-2.352-.041-3.907-.411-4.827,0,0-.46-.829-1.012-1.748s-.46-3.969-.37-6.893.637-3.594,1.8-4.015c2.824-1.027,3.527,2.472,4.827,6.418s1.207,6.744,1.666,7.738a26.442,26.442,0,0,1,2.216,4.947" transform="translate(-92.009 -222.633)" fill="#ffbda7"/>
      <g id="Group_3072" data-name="Group 3072" transform="translate(17.706 55.891)" clip-path="url(#clip-path-6)">
        <path id="Path_1267" data-name="Path 1267" d="M122.223,295.544c-1.43-1.6-2.839-2.673-3.017-3.165-.272-.77.683-4.76-.734-6.079s-3.222.131-4.151-.2-.822-1.974-.822-5.135a2.284,2.284,0,0,1,2.072-2.359c1.877.257,2.544,3.253,3.64,6.572,1.3,3.943,1.207,6.744,1.666,7.738C121.178,293.567,121.681,294.343,122.223,295.544Z" transform="translate(-112.525 -278.588)" fill="#ffa283" opacity="0.4"/>
      </g>
      <path id="Path_1269" data-name="Path 1269" d="M112.268,299.383a7.172,7.172,0,0,1-.693-3.194c-.141-2.352-.041-3.907-.411-4.827,0,0-.46-.829-1.012-1.748s-.46-3.969-.37-6.893.637-3.594,1.8-4.015c2.824-1.027,3.527,2.472,4.827,6.418s1.207,6.744,1.666,7.738a26.442,26.442,0,0,1,2.216,4.947" transform="translate(-92.009 -222.633)" fill="none" stroke="#263238" stroke-linecap="round" stroke-linejoin="round" stroke-width="1"/>
    </g>
    <g id="freepik--left-hand--inject-75" transform="translate(91.406 83.766)">
      <path id="Path_1271" data-name="Path 1271" d="M285.1,280.09a16.93,16.93,0,0,1,.5,3.168c-.1.675.611.675.614.675a29.578,29.578,0,0,1,.123,5.982c-.37,1.933,1.471,3.977,3.081,7.558s2.714,4.239,4.462,5.933,1.5,3.338,2.593,5.319c.629,1.153,1.7,6.349,2.485,10.526h18.611c-2.727-5.242-6.906-13.276-7.4-14.215-.737-1.407-.367-2.133-1.564-4.762,0,0-1.345-19.291-2.467-20.623s-4.773-2.988-5.8-4-5.361-6.719-6.875-7.086-5.058,2.4-5.058,2.4-1.284-1.872-3.1-1.027c-1.214.565-1.163,2.567-.77,4.688-.018.028-.642,1.027-.96,1.576a22.038,22.038,0,0,0-.965,4.005A1.575,1.575,0,0,0,285.1,280.09Z" transform="translate(-273.222 -259.444)" fill="#ffbda7"/>
      <path id="Path_1272" data-name="Path 1272" d="M295.1,286.1s1.284,1.81.552,1.848-2.824-.952-3.979-3.864c-.27-.678-.585-1.386-.911-2.08a1.908,1.908,0,0,0-3.566.311l-.513,1.823s-.706,0-.614-.675a15.5,15.5,0,0,0-.475-3.081l.193-.385-2.531-.639c.1-.467.216-1.027.341-1.54.018-.072.033-.141.054-.208v-.036c.015-.059.028-.113.046-.167a5.288,5.288,0,0,1,.339-1.012c.316-.544.942-1.54.96-1.579-.4-2.118-.447-4.123.77-4.688,1.83-.852,3.1,1.027,3.1,1.027l.141-.11a.514.514,0,0,0,.072-.049c.3-.223.886-.644,1.571-1.068.1-.062.2-.123.308-.182a10.9,10.9,0,0,1,1.445-.729c.169-.064.336-.123.5-.169.051-.013.105-.031.159-.041a15.82,15.82,0,0,1,.357,5.1l1.661,2.534a9.057,9.057,0,0,0,1.073,2.6,13.3,13.3,0,0,1,1.217,2.6s.306-.257.734.185a12.344,12.344,0,0,0-1.643,2.624A3.427,3.427,0,0,1,295.1,286.1Z" transform="translate(-273.705 -259.652)" fill="#ffa283" opacity="0.4"/>
      <path id="Path_1273" data-name="Path 1273" d="M352.838,307.547a43.472,43.472,0,0,0-1.212-9.592s.257,5.032-.429,6.418a42.156,42.156,0,0,1-.257-7.417c.3-2.922-6.328-6.932-6.6-9.127.837.994,1.54,1.836,1.874,2.172,1.027,1.014,4.68,2.67,5.8,4s2.429,20.025,2.47,20.61A16.348,16.348,0,0,1,352.838,307.547Z" transform="translate(-319.111 -273.789)" fill="#ffa283" opacity="0.4"/>
      <path id="Path_1274" data-name="Path 1274" d="M331.494,415.484a24.768,24.768,0,0,0-1.284-4.58c-1-1.823-.873-3.363-2.21-4.9a4.35,4.35,0,0,0,.647.444c1.15.583,2.434,3.027,2.734,4.742A28.1,28.1,0,0,1,331.494,415.484Z" transform="translate(-306.966 -361.621)" fill="#ffa283" opacity="0.4"/>
      <path id="Path_1275" data-name="Path 1275" d="M284.535,292.26s-.639,1.027-.96,1.579a21.875,21.875,0,0,0-.965,4.005c0,.323,1.982,1.471,2.991-.968" transform="translate(-273.229 -277.082)" fill="none" stroke="#263238" stroke-linecap="round" stroke-linejoin="round" stroke-width="1"/>
      <path id="Path_1276" data-name="Path 1276" d="M302.959,316.315a46.567,46.567,0,0,0-3.194-10.7c-.929-2.095-3.024-3.258-4.418-5.119-1.63-2.567-2.567-5.35-3.956-7.91-.465-3.489-.234-6.981-.7-10.7-.465-2.567-1.163-5.117-1.628-7.676,0-1.4-.465-2.793.929-3.723a3.061,3.061,0,0,1,3.155,1.027c1.225-.94-.1-.141,0,0,1.266-1.027,2.662-2.431,4.29-2.2,3.723.231,5.119,4.652,7.679,6.978.7.7,1.628.932,2.326,1.63,1.4.929,3.258,1.394,3.723,3.024,1.628,6.747,1.4,13.029,2.326,19.768a21.524,21.524,0,0,0,.932,3.723c1.163,2.567,2.442,5.06,3.748,7.535" transform="translate(-277.971 -260.009)" fill="none" stroke="#263238" stroke-linecap="round" stroke-linejoin="round" stroke-width="1"/>
      <path id="Path_1277" data-name="Path 1277" d="M305.19,278c1.1,1.15,2.485,4.6,3.176,7.042a19.506,19.506,0,0,1,.513,5.476s1.027,1.564,1.933,3.13,1.979,1.243,1.979,1.243" transform="translate(-290.012 -266.483)" fill="none" stroke="#263238" stroke-linecap="round" stroke-linejoin="round" stroke-width="1"/>
      <path id="Path_1278" data-name="Path 1278" d="M322.91,322.784a1.882,1.882,0,0,0,1.848-.683c.829-.968.275-2.072,3.13-2.531" transform="translate(-303.183 -297.381)" fill="none" stroke="#263238" stroke-linecap="round" stroke-linejoin="round" stroke-width="1"/>
      <path id="Path_1279" data-name="Path 1279" d="M322.2,300.239a8.151,8.151,0,0,0-.978-2.95,4.284,4.284,0,0,1-.691-2.483s-2.069-1.764-2.254-2.547" transform="translate(-299.741 -277.082)" fill="none" stroke="#263238" stroke-linecap="round" stroke-linejoin="round" stroke-width="1"/>
      <path id="Path_1280" data-name="Path 1280" d="M315.585,279.23s-.11,1.271-.208,1.979c-.182,1.366-.472,1.725-1.317,2.036" transform="translate(-296.605 -267.397)" fill="none" stroke="#263238" stroke-linecap="round" stroke-linejoin="round" stroke-width="1"/>
      <path id="Path_1281" data-name="Path 1281" d="M317.56,305.41a4.038,4.038,0,0,0,1.7.714s-.182,1.633.185,2.054,1.058.737,1.15,1.427" transform="translate(-299.206 -286.856)" fill="none" stroke="#263238" stroke-linecap="round" stroke-linejoin="round" stroke-width="1"/>
      <path id="Path_1282" data-name="Path 1282" d="M319.28,315.29a1.628,1.628,0,0,0,1.078.223" transform="translate(-300.485 -294.199)" fill="none" stroke="#263238" stroke-linecap="round" stroke-linejoin="round" stroke-width="1"/>
      <path id="Path_1283" data-name="Path 1283" d="M322.884,327.27s-.8.842-1.5.606" transform="translate(-302.046 -303.104)" fill="none" stroke="#263238" stroke-linecap="round" stroke-linejoin="round" stroke-width="1"/>
      <path id="Path_1284" data-name="Path 1284" d="M292.33,313.56a16.932,16.932,0,0,1,.5,3.168c-.1.675.614.675.614.675" transform="translate(-280.454 -292.914)" fill="none" stroke="#263238" stroke-linecap="round" stroke-linejoin="round" stroke-width="1"/>
      <path id="Path_1285" data-name="Path 1285" d="M327.06,298.583a3.81,3.81,0,0,1,.95-1.243" transform="translate(-306.267 -280.858)" fill="none" stroke="#263238" stroke-linecap="round" stroke-linejoin="round" stroke-width="1"/>
      <path id="Path_1286" data-name="Path 1286" d="M324.31,334.35a3.851,3.851,0,0,1,2.131,1.13" transform="translate(-304.223 -308.366)" fill="none" stroke="#263238" stroke-linecap="round" stroke-linejoin="round" stroke-width="1"/>
      <path id="Path_1287" data-name="Path 1287" d="M351.68,296.26c1.825,2.21,3.481,3.453,4.311,4.441s-.026,3.168.416,7.158" transform="translate(-324.566 -280.055)" fill="none" stroke="#263238" stroke-linecap="round" stroke-linejoin="round" stroke-width="1"/>
      <path id="Path_1288" data-name="Path 1288" d="M358.4,315.29a4.757,4.757,0,0,0,.562,3.081" transform="translate(-329.522 -294.199)" fill="none" stroke="#263238" stroke-linecap="round" stroke-linejoin="round" stroke-width="1"/>
      <path id="Path_1289" data-name="Path 1289" d="M326.52,404.38c2.485,1.972,2.567,2.524,3.13,3.72" transform="translate(-305.866 -360.417)" fill="none" stroke="#263238" stroke-linecap="round" stroke-linejoin="round" stroke-width="1"/>
      <path id="Path_1290" data-name="Path 1290" d="M379.089,375.516a15.044,15.044,0,0,1-1.658-5.756" transform="translate(-343.706 -334.685)" fill="none" stroke="#263238" stroke-linecap="round" stroke-linejoin="round" stroke-width="1"/>
      <path id="Path_1302" data-name="Path 1302" d="M7.371,1.612" transform="translate(7.001 7.319)" fill="none" stroke="#263238" stroke-linecap="round" stroke-width="1"/>
      <path id="Path_1298" data-name="Path 1298" d="M294.307,300.864c-1.612-3.581-3.453-5.625-3.081-7.558s-.277-9.2-1.027-12.066-1.851-7.06,0-7.923,3.1,1.027,3.1,1.027c1.1,1.15,2.485,4.6,3.176,7.042a19.505,19.505,0,0,1,.513,5.476s1.027,1.564,1.933,3.13,1.979,1.243,1.979,1.243" transform="translate(-278.115 -262.835)" fill="#ffbda7"/>
      <g id="Group_3073" data-name="Group 3073" transform="translate(11.069 10.257)" clip-path="url(#clip-path-7)">
        <path id="Path_1299" data-name="Path 1299" d="M294.151,289.8s-3.055.336-2.824,4.3a53.332,53.332,0,0,0-1.132-9.7c-.529-1.995-1.222-4.649-.96-6.362a2.885,2.885,0,0,1,2.768-.542,3.247,3.247,0,0,1,1.959,3.489s-2.78.472-2.855,2.1S293.016,284.714,294.151,289.8Z" transform="translate(-289.179 -276.239)" fill="#ffa283" opacity="0.4"/>
      </g>
      <path id="Path_1301" data-name="Path 1301" d="M294.307,300.864c-1.612-3.581-3.453-5.625-3.081-7.558s-.277-9.2-1.027-12.066-1.851-7.06,0-7.923,3.1,1.027,3.1,1.027c1.1,1.15,2.485,4.6,3.176,7.042a19.505,19.505,0,0,1,.513,5.476s1.027,1.564,1.933,3.13,1.979,1.243,1.979,1.243" transform="translate(-278.115 -262.835)" fill="none" stroke="#263238" stroke-linecap="round" stroke-linejoin="round" stroke-width="1"/>
    </g>
  </g>
</svg>
