<svg xmlns="http://www.w3.org/2000/svg" width="33.726" height="35.477" viewBox="0 0 33.726 35.477">
  <g id="Layer_2" transform="translate(-38.792 -27.5)">
    <g id="Group_3094" data-name="Group 3094" transform="translate(38.792 27.5)">
      <path id="Path_1337" data-name="Path 1337" d="M104.658,29.6a7.382,7.382,0,0,0-2.348,5.456,9.887,9.887,0,0,0,2.167,6,6.812,6.812,0,0,0,11.3,0,9.9,9.9,0,0,0,2.167-6A7.382,7.382,0,0,0,115.6,29.6a8.163,8.163,0,0,0-10.94,0Zm10.8,5.456c0,2.955-2.379,6.523-5.333,6.523s-5.333-3.568-5.333-6.523a4.925,4.925,0,0,1,1.56-3.641,5.676,5.676,0,0,1,7.546,0A4.925,4.925,0,0,1,115.461,35.06Z" transform="translate(-97.379 -27.5)" fill="#ddd"/>
      <path id="Path_1338" data-name="Path 1338" d="M64.758,253.009a7.685,7.685,0,0,0-2.512.416,9.622,9.622,0,0,0-.835-.845,11.1,11.1,0,0,0-2.244-1.546,13.061,13.061,0,0,0-1.3-.6,1.241,1.241,0,0,0-1.1.093,9.891,9.891,0,0,1-10.451,0,1.242,1.242,0,0,0-1.1-.093,12.914,12.914,0,0,0-1.3.595,9.767,9.767,0,0,0-4.226,4.076,10.06,10.06,0,0,0-.791,5.839,46.7,46.7,0,0,0,1.212,6.66,1.243,1.243,0,0,0,1.2.921H61.772a1.237,1.237,0,0,0,.817-.307,7.761,7.761,0,1,0,2.17-15.213ZM42.277,266.046a47.485,47.485,0,0,1-.912-5.385,7.6,7.6,0,0,1,.541-4.43,7.283,7.283,0,0,1,3.165-3q.252-.133.519-.254a12.33,12.33,0,0,0,11.9,0c.179.082.352.166.52.255a8.6,8.6,0,0,1,1.745,1.2c.078.07.155.141.23.214l-.042.033-.07.056-.127.1-.067.057-.136.12-.05.045c-.061.056-.121.113-.18.17l-.026.026q-.075.073-.147.149l-.055.058c-.039.041-.077.082-.114.124l-.057.064c-.037.042-.074.085-.109.127l-.051.061c-.043.052-.085.1-.127.158l-.026.034c-.05.065-.1.131-.147.2-.012.015-.023.032-.033.048-.036.051-.071.1-.106.154-.016.023-.03.045-.045.068l-.091.141-.044.071c-.03.05-.06.1-.089.15l-.036.062c-.081.142-.158.287-.229.435l-.03.064c-.025.053-.05.106-.074.16l-.034.078c-.023.051-.043.1-.064.154-.011.026-.021.051-.031.077-.023.057-.044.115-.066.172-.007.019-.015.039-.022.059-.028.078-.055.156-.08.234l-.012.037c-.021.066-.041.132-.061.2-.008.026-.015.052-.022.078-.015.054-.03.109-.043.163-.007.029-.015.057-.021.086-.013.054-.026.109-.038.164l-.018.081c-.014.066-.026.133-.039.2,0,.016-.006.03-.009.046-.014.082-.027.165-.039.248,0,.022-.005.044-.009.066-.008.061-.016.122-.023.183,0,.029-.006.059-.009.089-.005.055-.01.111-.015.166,0,.03,0,.061-.006.092,0,.058-.007.116-.009.175,0,.026,0,.054,0,.08,0,.085,0,.17,0,.255a7.74,7.74,0,0,0,1.224,4.185c.057.089.116.175.176.262l.055.077c.043.061.088.121.134.181l.063.081c.05.064.1.126.152.188l.047.057c.068.079.137.158.207.234a.068.068,0,0,0,.01.011H42.277Zm22.481,0a5.228,5.228,0,0,1-2.284-.519,5.308,5.308,0,0,1-2.993-4.757c0-.126,0-.251.013-.375a5.276,5.276,0,1,1,5.263,5.651Z" transform="translate(-38.792 -233.052)" fill="#ddd"/>
      <path id="Path_1339" data-name="Path 1339" d="M336.608,344.623h-.771v-.771a1.242,1.242,0,0,0-2.484,0v.771h-.771a1.242,1.242,0,1,0,0,2.484h.771v.771a1.242,1.242,0,1,0,2.484,0v-.771h.771a1.242,1.242,0,1,0,0-2.484Z" transform="translate(-308.629 -318.148)" fill="#ddd"/>
    </g>
  </g>
</svg>
