<svg xmlns="http://www.w3.org/2000/svg" width="25.36" height="25.36" viewBox="0 0 25.36 25.36">
  <path id="status-svgrepo-com" d="M22.535,6.983a1.608,1.608,0,0,1,2.1.881A12.862,12.862,0,0,1,6.376,23.913a1.608,1.608,0,1,1,1.585-2.8A9.647,9.647,0,0,0,21.654,9.079,1.608,1.608,0,0,1,22.535,6.983ZM3.391,15.172a9.8,9.8,0,0,0,.954,2.337A1.608,1.608,0,1,1,1.55,19.1,13.016,13.016,0,0,1,.282,15.992a1.608,1.608,0,1,1,3.109-.82Zm.424-9.513a1.608,1.608,0,0,1,.579,2.2,9.713,9.713,0,0,0-.977,2.324,1.608,1.608,0,1,1-3.1-.85,12.929,12.929,0,0,1,1.3-3.094A1.608,1.608,0,0,1,3.815,5.659ZM16.116.318a12.927,12.927,0,0,1,3.094,1.3A1.608,1.608,0,1,1,17.59,4.4a9.714,9.714,0,0,0-2.324-.977,1.608,1.608,0,0,1,.85-3.1Zm-4.7,1.11a1.608,1.608,0,0,1-1.144,1.965,9.8,9.8,0,0,0-2.337.954,1.608,1.608,0,0,1-1.59-2.795A13.013,13.013,0,0,1,9.456.284,1.608,1.608,0,0,1,11.421,1.428Z" transform="translate(-0.228 -0.23)" fill="#81d4fa" fill-rule="evenodd"/>
</svg>
