<svg xmlns="http://www.w3.org/2000/svg" width="28.758" height="37.064" viewBox="0 0 28.758 37.064">
  <g id="education-learning-quill-school-study-writing-svgrepo-com" transform="translate(0)">
    <path id="Path_9391" data-name="Path 9391" d="M343.435,206.828l-.071,0a30.7,30.7,0,0,1-6.033-1.38c-1.958-.755-3.005-1.779-3.2-3.134a3.824,3.824,0,0,1,1.736-3.638,24.218,24.218,0,0,1,4.414-2.51,25.788,25.788,0,0,0,5.427-3.184,7.114,7.114,0,0,0,1.754-2.112,5.318,5.318,0,0,0,.6-2.7,6.59,6.59,0,0,0-2.768-4.77.458.458,0,0,1,.489-.772,7.5,7.5,0,0,1,3.19,5.484.059.059,0,0,0,0,.019,6.735,6.735,0,0,1-2.674,5.542,26.561,26.561,0,0,1-5.621,3.311,23.75,23.75,0,0,0-4.243,2.4,4.267,4.267,0,0,0-1.153,1.307,2.426,2.426,0,0,0-.25,1.488,2.2,2.2,0,0,0,.774,1.365,5.9,5.9,0,0,0,1.85,1.049,30.892,30.892,0,0,0,5.848,1.328.456.456,0,0,1-.071.907Z" transform="translate(-334.093 -181.572)" fill="#4c5f78"/>
    <path id="Path_9392" data-name="Path 9392" d="M837.612,1380.835a.456.456,0,0,1-.2-.868c.741-.35,1.509-.7,2.254-1.03a37.87,37.87,0,0,0,5.49-2.808,5.963,5.963,0,0,0,1.592-1.469,2.046,2.046,0,0,0,.393-1.479,2.438,2.438,0,0,0-1.13-1.646,8.931,8.931,0,0,0-2.714-1.167.456.456,0,0,1,.248-.878,9.789,9.789,0,0,1,2.995,1.3,3.338,3.338,0,0,1,1.5,2.26,2.937,2.937,0,0,1-.545,2.129,6.907,6.907,0,0,1-1.827,1.7,38.4,38.4,0,0,1-5.631,2.887c-.741.333-1.5.676-2.239,1.022A.43.43,0,0,1,837.612,1380.835Z" transform="translate(-826.687 -1343.771)" fill="#4c5f78"/>
    <path id="Path_9393" data-name="Path 9393" d="M793.8,153.517l4.909-2.6A27.415,27.415,0,0,0,802.29,134.5c-6.439,7.432-9.048,6.624-13.843,12.087l-.957,4.083-1.172-1.353c-6.266,8.986-1.777,19.285-1.777,19.285,1.349-5.417,8.151-9.812,11.234-13.654q.624-.712,1.174-1.432Z" transform="translate(-773.642 -134.5)" fill="#29b6f6"/>
    <path id="Path_9394" data-name="Path 9394" d="M1000.9,151.658l.959-4.083c4.705-5.361,6.776-6.018,12.934-13.063V134.5c-6.439,7.432-9.048,6.624-13.843,12.087l-.947,4.035Z" transform="translate(-986.142 -134.5)" fill="#8cdafd"/>
    <path id="Path_9395" data-name="Path 9395" d="M787.2,847.522l-.885-1.022c-6.266,8.986-1.777,19.285-1.777,19.285a8.954,8.954,0,0,1,.268-.882C783.848,861.532,782.589,854.173,787.2,847.522Z" transform="translate(-773.642 -831.683)" fill="#8cdafd"/>
    <path id="Path_9396" data-name="Path 9396" d="M837.13,1049.732c-2.712,3.382-8.308,7.192-10.53,11.75a16.427,16.427,0,0,0,.649,1.9c1.349-5.417,8.152-9.812,11.234-13.654q.624-.712,1.174-1.432H838.3Q837.754,1049.018,837.13,1049.732Z" transform="translate(-816.351 -1029.283)" fill="#0098dc"/>
    <path id="Path_9397" data-name="Path 9397" d="M1247.641,134.5q-.662.762-1.269,1.413a26.9,26.9,0,0,1-3.663,15l-4.909,2.6h1.351l4.909-2.6A27.414,27.414,0,0,0,1247.641,134.5Z" transform="translate(-1218.993 -134.5)" fill="#0098dc"/>
    <path id="Path_9398" data-name="Path 9398" d="M869.281,718.174a25.378,25.378,0,0,0-6.358,7.756,29.7,29.7,0,0,0-2.834,7.946,34.109,34.109,0,0,0-.689,6.023,10.442,10.442,0,0,1,1.074-2.533,32.9,32.9,0,0,1,.51-3.3,28.765,28.765,0,0,1,2.745-7.7,24.43,24.43,0,0,1,6.129-7.479.456.456,0,0,0-.576-.708Z" transform="translate(-848.468 -705.927)" fill="#0098dc"/>
    <path id="Path_9399" data-name="Path 9399" d="M834,742.091a.458.458,0,0,1-.454-.408,22.64,22.64,0,0,1-.073-2.518,33.82,33.82,0,0,1,.693-6.189A29.624,29.624,0,0,1,837,725.03a25.375,25.375,0,0,1,6.358-7.756.458.458,0,1,1,.579.708,24.469,24.469,0,0,0-6.131,7.479,28.755,28.755,0,0,0-2.745,7.7,30.416,30.416,0,0,0-.6,8.426.458.458,0,0,1-.406.5Z" transform="translate(-823.077 -705.027)" fill="#4c5f78"/>
  </g>
</svg>
