<svg xmlns="http://www.w3.org/2000/svg" width="30.435" height="27.982" viewBox="0 0 30.435 27.982">
  <g id="users" transform="translate(-0.446 -1)">
    <circle id="Ellipse_1241" data-name="Ellipse 1241" cx="4.965" cy="4.965" r="4.965" transform="translate(5.057 5.513)" fill="#898989"/>
    <circle id="Ellipse_1242" data-name="Ellipse 1242" cx="4.965" cy="4.965" r="4.965" transform="translate(16.34 1)" fill="#898989"/>
    <path id="Path_10793" data-name="Path 10793" d="M24.407,14A10,10,0,0,0,8.241,10.172a12.775,12.775,0,0,1,7.418,7.382,5.642,5.642,0,0,1,.329,1.643,23.319,23.319,0,0,0,6.436-1.166A3.224,3.224,0,0,0,24.3,16.371,3.007,3.007,0,0,0,24.409,14Z" transform="translate(6.277 5.234)" fill="#898989"/>
    <path id="Path_10794" data-name="Path 10794" d="M19.4,16.5a10.021,10.021,0,0,0-18.76,0,3.007,3.007,0,0,0,.107,2.376A3.218,3.218,0,0,0,2.627,20.53a23.335,23.335,0,0,0,7.394,1.2,23.335,23.335,0,0,0,7.394-1.2,3.224,3.224,0,0,0,1.879-1.659A3.007,3.007,0,0,0,19.4,16.5Z" transform="translate(0 7.247)" fill="#898989"/>
  </g>
</svg>
