<svg xmlns="http://www.w3.org/2000/svg" width="12.812" height="12.486" viewBox="0 0 12.812 12.486">
  <g id="photo-svgrepo-com_1_" data-name="photo-svgrepo-com (1)" transform="translate(-2.434 -2.6)">
    <path id="Path_1325" data-name="Path 1325" d="M3,6.88C3,3.685,3.685,3,6.88,3h3.926c3.195,0,3.88.685,3.88,3.88v3.926c0,3.195-.685,3.88-3.88,3.88H6.88C3.685,14.686,3,14,3,10.806Z" transform="translate(0 0)" fill="none" stroke="#323232" stroke-width="0.8"/>
    <path id="Path_1326" data-name="Path 1326" d="M12.092,14.086,9.315,11.31c-2.259-2.259-3.227-2.259-5.487,0L3,12.139" transform="translate(0 -2.321)" fill="none" stroke="#323232" stroke-linecap="round" stroke-width="0.8"/>
    <path id="Path_1327" data-name="Path 1327" d="M18.965,13.3c-1.359-1.041-2.287-.895-3.767.439" transform="translate(-4.279 -3.373)" fill="none" stroke="#323232" stroke-linecap="round" stroke-width="0.8"/>
    <path id="Path_1328" data-name="Path 1328" d="M16.3,7.649A.649.649,0,1,1,15.649,7,.649.649,0,0,1,16.3,7.649Z" transform="translate(-4.21 -1.403)" fill="none" stroke="#323232" stroke-width="0.8"/>
  </g>
</svg>
