<svg xmlns="http://www.w3.org/2000/svg" width="67.242" height="56.406" viewBox="0 0 67.242 56.406">
  <g id="photo-album-svgrepo-com" transform="translate(-52.172 -126.822)">
    <path id="Path_10781" data-name="Path 10781" d="M186.758,247.449H140.9a7.116,7.116,0,0,1-7.118-7.118V204.494a7.116,7.116,0,0,1,7.118-7.118h45.854a7.116,7.116,0,0,1,7.118,7.118v35.838a7.116,7.116,0,0,1-7.118,7.118Z" transform="translate(-75.598 -65.353)" fill="#9fd1fd"/>
    <path id="Path_10782" data-name="Path 10782" d="M861.633,228.779V204.961a7.343,7.343,0,0,0-6.952-7.329,10.52,10.52,0,0,1,1.981,5.921v25.225h4.97Z" transform="translate(-743.355 -65.59)" fill="#659cf8"/>
    <path id="Path_10783" data-name="Path 10783" d="M53.305,377.137A1.131,1.131,0,0,1,52.173,376V373.97a1.132,1.132,0,1,1,2.264,0V376A1.131,1.131,0,0,1,53.305,377.137Z" transform="translate(-0.001 -227.882)" fill="#333"/>
    <path id="Path_10784" data-name="Path 10784" d="M291.051,567.1v-16.44l-52.357,21.6a7.577,7.577,0,0,0,5.574,2.438h39.189a7.6,7.6,0,0,0,7.593-7.6Z" transform="translate(-172.773 -392.593)" fill="#f58200"/>
    <path id="Path_10785" data-name="Path 10785" d="M824.641,550.656l-4.97,2.049v11.28c0,2.834-.449,9.254-4.925,10.3.562.151,1.1.283,1.623.4h.679a7.6,7.6,0,0,0,7.6-7.6V550.656Z" transform="translate(-706.363 -392.593)" fill="#f46800"/>
    <path id="Path_10786" data-name="Path 10786" d="M597.01,294.008m-5.189,0a5.189,5.189,0,1,0,5.189-5.189A5.189,5.189,0,0,0,591.821,294.008Z" transform="translate(-499.871 -150.056)" fill="#ecd300"/>
    <path id="Path_10787" data-name="Path 10787" d="M618.7,290.97a8.085,8.085,0,0,1,.566,4.85,5.177,5.177,0,0,1-5.378,3.948,5.185,5.185,0,1,0,4.812-8.8Z" transform="translate(-520.311 -152.049)" fill="#e8a200"/>
    <path id="Path_10788" data-name="Path 10788" d="M554.86,263.383a7.48,7.48,0,1,1,7.48-7.48A7.488,7.488,0,0,1,554.86,263.383Zm0-12.692a5.216,5.216,0,1,0,5.216,5.216A5.222,5.222,0,0,0,554.86,250.691Z" transform="translate(-458.706 -112.638)" fill="#333"/>
    <path id="Path_10789" data-name="Path 10789" d="M151.9,521.392l-18.119,9.563v8.227c0,4.427,2.517,8.016,7.065,8.016h40.623l-25.316-25.18a3.649,3.649,0,0,0-4.253-.626Z" transform="translate(-75.598 -365.099)" fill="#ecd300"/>
    <path id="Path_10790" data-name="Path 10790" d="M384.078,547.159l-25.316-25.18a3.637,3.637,0,0,0-4.25-.623l-2,1.057L376.2,547.159Z" transform="translate(-278.201 -365.063)" fill="#e8a200"/>
    <path id="Path_10791" data-name="Path 10791" d="M109.522,126.822H62.06a9.9,9.9,0,0,0-9.888,9.888v2.215a1.132,1.132,0,0,0,2.264,0V136.71a7.631,7.631,0,0,1,7.623-7.623h47.462a7.631,7.631,0,0,1,7.624,7.623v15.915L89.693,163.951,78.775,152.795a5.09,5.09,0,0,0-6.035-.91l-18.3,9.918v-9.009a1.132,1.132,0,0,0-2.264,0V173.34a9.9,9.9,0,0,0,9.888,9.888h47.466a9.9,9.9,0,0,0,9.888-9.888V136.706A9.9,9.9,0,0,0,109.522,126.822ZM62.381,180.964c-.26,0-.517-.015-.77-.038-.023,0-.045,0-.072-.008-.223-.023-.442-.06-.657-.1l-.181-.034c-.185-.041-.366-.087-.543-.14l-.23-.068c-.17-.057-.336-.117-.5-.185-.072-.026-.14-.057-.211-.087-.174-.075-.347-.158-.517-.249l-.174-.091c-.181-.1-.355-.208-.525-.321-.038-.026-.075-.049-.109-.075-.185-.128-.366-.26-.536-.4l-.053-.042c-.185-.155-.366-.317-.536-.487,0,0,0,0,0-.008a7.913,7.913,0,0,1-2.325-5.612v-8.642l19.383-10.5a2.822,2.822,0,0,1,3.34.5l10.277,10.5,1.71,1.744,14.039,14.341h-40.8Zm43.971,0L91.4,165.691l25.746-10.62V173.02a7.952,7.952,0,0,1-7.944,7.944Z" transform="translate(0 0)" fill="#333"/>
    <path id="Path_10792" data-name="Path 10792" d="M189.667,262.6a.943.943,0,0,1-.944-.944v-1.121a.943.943,0,1,1,1.887,0v1.121A.944.944,0,0,1,189.667,262.6Zm0-4.2a.943.943,0,0,1-.944-.943V249.73a3.975,3.975,0,0,1,3.97-3.97h2.955a.943.943,0,1,1,0,1.887h-2.955a2.087,2.087,0,0,0-2.083,2.083v7.722a.941.941,0,0,1-.943.943Zm30.517-4.793a1.058,1.058,0,0,1-.242-.03.947.947,0,0,1-.672-1.155,3.371,3.371,0,0,1,1.7-2.257.944.944,0,0,1,.793,1.713,1.64,1.64,0,0,0-.676,1.03A.935.935,0,0,1,220.183,253.6Zm-30.517,31.6a.943.943,0,0,1-.944-.944V277.91a.943.943,0,0,1,1.887,0v6.344A.944.944,0,0,1,189.667,285.2Z" transform="translate(-126.486 -110.171)" fill="#fff"/>
  </g>
</svg>
