<svg xmlns="http://www.w3.org/2000/svg" width="21.657" height="24.114" viewBox="0 0 21.657 24.114">
  <path id="hourglass-start-svgrepo-com" d="M17.514,6.686H10.143M23.657,25.114H22.429m0,0H5.229m17.2,0a9.55,9.55,0,0,0-4-7.771l-4.6-3.286m-8.6,11.057H4m1.229,0a9.55,9.55,0,0,1,4-7.771l4.6-3.286M23.657,3H22.429m0,0H5.229m17.2,0a9.55,9.55,0,0,1-4,7.771l-4.6,3.287M5.229,3H4M5.229,3a9.549,9.549,0,0,0,4,7.771l4.6,3.287" transform="translate(-3 -2)" fill="none" stroke="#69d447" stroke-linecap="round" stroke-linejoin="round" stroke-width="2"/>
</svg>
