<svg xmlns="http://www.w3.org/2000/svg" width="25.834" height="25.834" viewBox="0 0 25.834 25.834">
  <g id="group-1-svgrepo-com" transform="translate(-2 -2)">
    <circle id="Ellipse_1248" data-name="Ellipse 1248" cx="1.961" cy="1.961" r="1.961" transform="translate(12.956 9.035)" fill="none" stroke="#e84941" stroke-linecap="round" stroke-width="1"/>
    <path id="Path_11079" data-name="Path 11079" d="M15.763,8.48a1.96,1.96,0,1,1-.2,1.488,1.96,1.96,0,0,1,.2-1.488Z" transform="translate(3.992 1.535)" fill="none" stroke="#e84941" stroke-width="1"/>
    <path id="Path_11080" data-name="Path 11080" d="M5.763,8.48a1.961,1.961,0,1,1-.2,1.488,1.961,1.961,0,0,1,.2-1.488Z" transform="translate(0.921 1.535)" fill="none" stroke="#e84941" stroke-width="1"/>
    <path id="Path_11081" data-name="Path 11081" d="M22.54,16.591l.635-.152Zm-8.187-3.041-.38-.532-.7.5.663.541Zm1.674,3.038-.64.134Zm5.384.641H14.876v1.307h6.535Zm.494-.485a.331.331,0,0,1-.079.317.558.558,0,0,1-.414.168v1.307a1.731,1.731,0,0,0,1.765-2.1ZM17.49,13.307A4.3,4.3,0,0,1,20.734,14.5a4.8,4.8,0,0,1,1.17,2.244l1.271-.3a6.1,6.1,0,0,0-1.508-2.854A5.594,5.594,0,0,0,17.49,12Zm-2.757.774a4.6,4.6,0,0,1,2.757-.774V12a5.9,5.9,0,0,0-3.517,1.018Zm-.793-.025a4.653,4.653,0,0,1,1.447,2.666l1.279-.269a5.943,5.943,0,0,0-1.9-3.41Zm1.447,2.666a.363.363,0,0,1-.091.336.568.568,0,0,1-.42.171v1.307a1.755,1.755,0,0,0,1.79-2.082Z" transform="translate(3.309 2.917)" fill="#e84941"/>
    <path id="Path_11082" data-name="Path 11082" d="M11.984,13.549l.413.506.663-.541-.7-.5ZM3.8,16.591l.636.152Zm6.514,0-.64-.134h0Zm-1.463-3.28a4.6,4.6,0,0,1,2.757.774l.76-1.064A5.9,5.9,0,0,0,8.848,12ZM4.433,16.743A4.8,4.8,0,0,1,5.6,14.5a4.3,4.3,0,0,1,3.244-1.192V12a5.594,5.594,0,0,0-4.178,1.584,6.1,6.1,0,0,0-1.508,2.854Zm.494.485a.558.558,0,0,1-.414-.168.332.332,0,0,1-.079-.317l-1.271-.3a1.731,1.731,0,0,0,1.765,2.1Zm6.535,0H4.926v1.307h6.535Zm0,0a.568.568,0,0,1-.42-.171.363.363,0,0,1-.091-.336l-1.279-.269a1.755,1.755,0,0,0,1.79,2.082Zm-.511-.506A4.652,4.652,0,0,1,12.4,14.056l-.827-1.012a5.942,5.942,0,0,0-1.9,3.41Z" transform="translate(0.188 2.917)" fill="#e84941"/>
    <path id="Path_11083" data-name="Path 11083" d="M13.043,12.5c3.09,0,4.093,2.386,4.418,3.934a1.1,1.1,0,0,1-1.151,1.294H9.776a1.1,1.1,0,0,1-1.151-1.294C8.951,14.886,9.953,12.5,13.043,12.5Z" transform="translate(1.874 3.071)" fill="none" stroke="#e84941" stroke-linecap="round" stroke-width="1"/>
    <path id="Path_11084" data-name="Path 11084" d="M18.5,22.421h1.961a1.961,1.961,0,0,0,1.961-1.961V18.5" transform="translate(4.913 4.913)" fill="none" stroke="#e84941" stroke-linecap="round" stroke-width="1"/>
    <path id="Path_11085" data-name="Path 11085" d="M18.5,2.5h1.961a1.961,1.961,0,0,1,1.961,1.961V6.421" transform="translate(4.913)" fill="none" stroke="#e84941" stroke-linecap="round" stroke-width="1"/>
    <path id="Path_11086" data-name="Path 11086" d="M6.421,22.421H4.461A1.961,1.961,0,0,1,2.5,20.461V18.5" transform="translate(0 4.913)" fill="none" stroke="#e84941" stroke-linecap="round" stroke-width="1"/>
    <path id="Path_11087" data-name="Path 11087" d="M6.421,2.5H4.461A1.961,1.961,0,0,0,2.5,4.461V6.421" fill="none" stroke="#e84941" stroke-linecap="round" stroke-width="1"/>
  </g>
</svg>
