<svg xmlns="http://www.w3.org/2000/svg" width="27.966" height="26.37" viewBox="0 0 27.966 26.37">
  <g id="idea-svgrepo-com" transform="translate(-2.978 -55.732)">
    <path id="Path_11034" data-name="Path 11034" d="M311.748,54.882a9.218,9.218,0,0,0-4.44,17.3v2.357h0v1.884h0v2.857h2.663a1.782,1.782,0,0,0,3.557,0h2.662V77.392h0V74.535h0V72.178a9.218,9.218,0,0,0-4.44-17.3Zm-3.468,20.627h6.935v.91h-6.935Zm3.466,4.469a.807.807,0,0,1-.8-.7h1.6A.809.809,0,0,1,311.745,79.978Zm3.467-1.676h-6.935v-.91h6.935v.91Zm.269-6.851-.266.135v2.922h-2.982V67.315l2.887-2.887a.487.487,0,0,0-.688-.688l-2.686,2.686-2.686-2.686a.487.487,0,0,0-.688.688l2.887,2.887v7.193h-2.978V71.586l-.266-.135a8.243,8.243,0,1,1,7.465,0Z" transform="translate(-294.785 1)" fill="#f6bf29" stroke="#f6bf29" stroke-width="0.3"/>
    <path id="Path_11035" data-name="Path 11035" d="M1035.6,246.225a.487.487,0,0,0,0,.973,2.879,2.879,0,0,1,2.56,2.7.487.487,0,0,0,.974,0A3.821,3.821,0,0,0,1035.6,246.225Z" transform="translate(-1016.067 -188.392)" fill="#f6bf29" stroke="#f6bf29" stroke-width="0.3"/>
    <path id="Path_11036" data-name="Path 11036" d="M6.308,681.81a.487.487,0,0,0-.487-.487H3.615a.487.487,0,1,0,0,.973H5.822A.487.487,0,0,0,6.308,681.81Z" transform="translate(0 -615.779)" fill="#f6bf29" stroke="#f6bf29" stroke-width="0.3"/>
    <path id="Path_11037" data-name="Path 11037" d="M111.45,147.447a.487.487,0,0,0,.688-.688l-1.56-1.56a.487.487,0,0,0-.688.688Z" transform="translate(-104.975 -87.783)" fill="#f6bf29" stroke="#f6bf29" stroke-width="0.3"/>
    <path id="Path_11038" data-name="Path 11038" d="M111.449,1116.564l-1.561,1.56a.487.487,0,1,0,.688.688l1.561-1.56a.487.487,0,0,0-.688-.688Z" transform="translate(-104.974 -1044.166)" fill="#f6bf29" stroke="#f6bf29" stroke-width="0.3"/>
    <path id="Path_11039" data-name="Path 11039" d="M1593.362,681.323h-2.207a.487.487,0,0,0,0,.973h2.207a.487.487,0,1,0,0-.973Z" transform="translate(-1563.055 -615.779)" fill="#f6bf29" stroke="#f6bf29" stroke-width="0.3"/>
    <path id="Path_11040" data-name="Path 11040" d="M1526.446,147.588a.485.485,0,0,0,.344-.143l1.561-1.56a.487.487,0,0,0-.688-.688l-1.561,1.56a.487.487,0,0,0,.344.831Z" transform="translate(-1499.344 -87.781)" fill="#f6bf29" stroke="#f6bf29" stroke-width="0.3"/>
    <path id="Path_11041" data-name="Path 11041" d="M1526.789,1116.565a.487.487,0,1,0-.688.688l1.56,1.56a.487.487,0,0,0,.688-.688Z" transform="translate(-1499.343 -1044.168)" fill="#f6bf29" stroke="#f6bf29" stroke-width="0.3"/>
  </g>
</svg>
