<svg xmlns="http://www.w3.org/2000/svg" width="26.268" height="27.966" viewBox="0 0 26.268 27.966">
  <g id="teacher-svgrepo-com" transform="translate(-1.583 -0.832)">
    <path id="Path_11096" data-name="Path 11096" d="M12.2,2.683,4.447,7.746a4.1,4.1,0,0,0,0,6.879L12.2,19.689a5.038,5.038,0,0,0,5.076,0L25,14.626a4.1,4.1,0,0,0,0-6.867L17.279,2.7A5.007,5.007,0,0,0,12.2,2.683Z" transform="translate(0 0)" fill="none" stroke="#2bb2f0" stroke-linecap="round" stroke-linejoin="round" stroke-width="2"/>
    <path id="Path_11097" data-name="Path 11097" d="M5.633,13.08,5.62,19.122a4.395,4.395,0,0,0,2.808,3.9l4.11,1.366a4.954,4.954,0,0,0,2.6,0l4.11-1.366a4.395,4.395,0,0,0,2.808-3.9V13.144" transform="translate(0.876 3.195)" fill="none" stroke="#2bb2f0" stroke-linecap="round" stroke-linejoin="round" stroke-width="2"/>
    <path id="Path_11098" data-name="Path 11098" d="M21.4,16.73V9" transform="translate(5.425 2.018)" fill="none" stroke="#2bb2f0" stroke-linecap="round" stroke-linejoin="round" stroke-width="2"/>
  </g>
</svg>
