<svg xmlns="http://www.w3.org/2000/svg" width="62.213" height="64.819" viewBox="0 0 62.213 64.819">
  <g id="pdf-svgrepo-com_3_" data-name="pdf-svgrepo-com (3)" transform="translate(-10.292)">
    <path id="Path_10751" data-name="Path 10751" d="M78.282,0a3.241,3.241,0,0,0-3.241,3.241V61.578a3.241,3.241,0,0,0,3.241,3.241h47.534a3.241,3.241,0,0,0,3.241-3.241V10.8L118.254,0Z" transform="translate(-56.551)" fill="#68727e"/>
    <path id="Path_10752" data-name="Path 10752" d="M419.616,10.8h7.562L416.375,0V7.562A3.241,3.241,0,0,0,419.616,10.8Z" transform="translate(-354.673)" fill="#4f575f"/>
    <path id="Path_10753" data-name="Path 10753" d="M116.093,42.667H75.041V62.113h41.052a1.08,1.08,0,0,0,1.08-1.08V43.747A1.08,1.08,0,0,0,116.093,42.667Z" transform="translate(-56.551 -37.265)" fill="#c6cacf"/>
    <path id="Path_10754" data-name="Path 10754" d="M57.381,45.046H11.375a1.08,1.08,0,0,1-.764-1.844l7.879-7.879-7.879-7.879a1.08,1.08,0,0,1,.764-1.844H57.381a1.08,1.08,0,0,1,1.08,1.08V43.965A1.08,1.08,0,0,1,57.381,45.046Z" transform="translate(0 -22.359)" fill="#3f464e"/>
    <g id="Group_3111" data-name="Group 3111" transform="translate(29.293 9.723)">
      <path id="Path_10755" data-name="Path 10755" d="M165.777,76.8h-4.321a1.08,1.08,0,0,0-1.08,1.08v6.482a1.08,1.08,0,0,0,2.161,0V82.2h3.241a1.08,1.08,0,0,0,1.08-1.08V77.88A1.08,1.08,0,0,0,165.777,76.8Zm-1.08,3.241h-2.161v-1.08H164.7Z" transform="translate(-160.375 -76.8)" fill="#fff"/>
      <path id="Path_10756" data-name="Path 10756" d="M223.349,76.8h-2.161a1.08,1.08,0,0,0-1.08,1.08v6.482a1.08,1.08,0,0,0,1.08,1.08h4.321a1.08,1.08,0,0,0,1.08-1.08V80.041A3.244,3.244,0,0,0,223.349,76.8Zm1.08,6.482h-2.161V78.961h1.08a1.082,1.082,0,0,1,1.08,1.08v3.241Z" transform="translate(-212.546 -76.8)" fill="#fff"/>
      <path id="Path_10757" data-name="Path 10757" d="M285.244,76.8h-4.321a1.08,1.08,0,0,0-1.08,1.08v6.482a1.08,1.08,0,0,0,2.161,0V82.2h2.161a1.08,1.08,0,0,0,0-2.161H282v-1.08h3.241a1.08,1.08,0,0,0,0-2.161Z" transform="translate(-264.717 -76.8)" fill="#fff"/>
    </g>
    <path id="Path_10758" data-name="Path 10758" d="M185.332,245.743h-32.41a1.08,1.08,0,0,1-1.08-1.08V214.414a1.08,1.08,0,0,1,1.08-1.08h32.41a1.08,1.08,0,0,1,1.08,1.08v30.249A1.08,1.08,0,0,1,185.332,245.743Z" transform="translate(-123.629 -186.326)" fill="#c6cacf"/>
    <path id="Path_10759" data-name="Path 10759" d="M154,243.582V213.333h-1.08a1.08,1.08,0,0,0-1.08,1.08v30.249a1.08,1.08,0,0,0,1.08,1.08h32.41a1.08,1.08,0,0,0,1.08-1.08v-1.08Z" transform="translate(-123.629 -186.325)" fill="#b3b9bf"/>
    <path id="Path_10760" data-name="Path 10760" d="M301.339,330.858H289.455a1.08,1.08,0,0,1-1.08-1.08V316.814a1.08,1.08,0,0,1,1.08-1.08h11.884a1.08,1.08,0,0,1,1.08,1.08v12.964A1.08,1.08,0,0,1,301.339,330.858Z" transform="translate(-242.877 -275.762)" fill="#db6b5e"/>
    <rect id="Rectangle_6155" data-name="Rectangle 6155" width="9.723" height="10.803" transform="translate(47.658 42.132)" fill="#ff8c78"/>
    <g id="Group_3112" data-name="Group 3112" transform="translate(31.454 31.329)">
      <path id="Path_10761" data-name="Path 10761" d="M301.339,249.628H289.455a1.08,1.08,0,1,1,0-2.161h11.884a1.08,1.08,0,0,1,0,2.161Z" transform="translate(-274.331 -247.467)" fill="#8e959f"/>
      <path id="Path_10762" data-name="Path 10762" d="M301.339,283.762H289.455a1.08,1.08,0,1,1,0-2.161h11.884a1.08,1.08,0,0,1,0,2.161Z" transform="translate(-274.331 -277.28)" fill="#8e959f"/>
      <path id="Path_10763" data-name="Path 10763" d="M189.325,249.628h-10.8a1.08,1.08,0,1,1,0-2.161h10.8a1.08,1.08,0,1,1,0,2.161Z" transform="translate(-177.442 -247.467)" fill="#8e959f"/>
      <path id="Path_10764" data-name="Path 10764" d="M189.325,283.762h-10.8a1.08,1.08,0,0,1,0-2.161h10.8a1.08,1.08,0,1,1,0,2.161Z" transform="translate(-177.442 -277.28)" fill="#8e959f"/>
      <path id="Path_10765" data-name="Path 10765" d="M189.325,317.895h-10.8a1.08,1.08,0,0,1,0-2.161h10.8a1.08,1.08,0,1,1,0,2.161Z" transform="translate(-177.442 -307.091)" fill="#8e959f"/>
      <path id="Path_10766" data-name="Path 10766" d="M189.325,352.028h-10.8a1.08,1.08,0,0,1,0-2.161h10.8a1.08,1.08,0,1,1,0,2.161Z" transform="translate(-177.442 -336.903)" fill="#8e959f"/>
      <path id="Path_10767" data-name="Path 10767" d="M189.325,386.162h-10.8a1.08,1.08,0,0,1,0-2.161h10.8a1.08,1.08,0,1,1,0,2.161Z" transform="translate(-177.442 -366.716)" fill="#8e959f"/>
      <path id="Path_10768" data-name="Path 10768" d="M189.325,420.295h-10.8a1.08,1.08,0,0,1,0-2.161h10.8a1.08,1.08,0,0,1,0,2.161Z" transform="translate(-177.442 -396.528)" fill="#8e959f"/>
    </g>
  </g>
</svg>
