<svg xmlns="http://www.w3.org/2000/svg" width="12.116" height="11.65" viewBox="0 0 12.116 11.65">
  <g id="ICON" transform="translate(-3 -3)">
    <path id="Path_1303" data-name="Path 1303" d="M5.33,5.1H3.7a.7.7,0,0,0-.7.7v.932a.233.233,0,1,0,.466,0V5.8A.233.233,0,0,1,3.7,5.563H9.757A.233.233,0,0,1,9.99,5.8V8.709a.233.233,0,0,1-.233.233H3.7a.233.233,0,0,1-.233-.233V7.544a.233.233,0,1,0-.466,0V8.709a.7.7,0,0,0,.7.7H5.33v4.078A1.165,1.165,0,0,0,6.5,14.65h3.612a.233.233,0,0,0,0-.466H6.5a.7.7,0,0,1-.7-.7V9.408H9.757a.7.7,0,0,0,.7-.7V5.8a.7.7,0,0,0-.7-.7H5.8V4.02a.554.554,0,0,1,.554-.554h5.271v2.1a.7.7,0,0,0,.7.7h2.33v5.592a.233.233,0,1,0,.466,0V5.989a.234.234,0,0,0-.075-.172L12.034,3.061A.234.234,0,0,0,11.877,3H6.35A1.02,1.02,0,0,0,5.33,4.02ZM6.961,12.32H12.9a.233.233,0,1,0,0-.466H6.961a.233.233,0,1,0,0,.466Zm0-.932H12.9a.233.233,0,1,0,0-.466H6.961a.233.233,0,1,0,0,.466Zm0-.932H12.9a.233.233,0,1,0,0-.466H6.961a.233.233,0,1,0,0,.466ZM4.631,7.544h.233a.7.7,0,0,0,0-1.4H4.4a.233.233,0,0,0-.233.233V8.243a.233.233,0,1,0,.466,0Zm1.4.7V6.379a.219.219,0,0,1,.24-.233A1.158,1.158,0,0,1,7.427,7.3v.014A1.158,1.158,0,0,1,6.269,8.476H6.262A.233.233,0,0,1,6.029,8.243Zm2.33-.7h.7a.233.233,0,0,0,0-.466h-.7V6.612h.7a.233.233,0,1,0,0-.466H8.126a.233.233,0,0,0-.233.233V8.243a.233.233,0,1,0,.466,0ZM6.5,6.65a.692.692,0,0,1,.466.654v.014a.692.692,0,0,1-.466.654V6.65Zm-1.864.428h.233a.233.233,0,0,0,0-.466H4.631Zm7.456-3.336V5.563a.233.233,0,0,0,.233.233h2.008Z" fill-rule="evenodd"/>
  </g>
</svg>
